<svg width="826" height="554" viewBox="0 0 826 554" fill="none" xmlns="http://www.w3.org/2000/svg">
<g clip-path="url(#clip0_403_3426)">
<path d="M201.775 119.765C201.775 119.765 191.625 112.761 176.75 118.189C161.875 123.442 158.55 143.578 162.225 159.862C165.9 176.145 145.425 231.826 145.425 231.826C145.425 231.826 156.1 246.884 193.375 241.106C193.375 241.106 221.2 190.678 219.1 154.259C216.825 118.014 201.775 119.765 201.775 119.765Z" fill="#0E3944"/>
<path d="M213.5 182.449C227.5 177.896 236.075 189.628 244.125 211.339C252.175 233.051 254.8 235.152 254.8 235.152L285.775 255.113L283.15 266.669C283.15 266.669 253.75 255.113 246.575 247.759C239.4 240.405 218.925 203.285 218.925 203.285L213.5 182.449Z" fill="#EF6E4B"/>
<path d="M145.25 322.7C145.25 322.7 139.125 353.517 140.175 399.742C140.175 399.742 116.2 435.111 135.975 535.79H146.3C146.3 535.79 154.7 449.994 161.175 426.881C167.65 403.594 191.625 396.59 192.85 325.852L145.25 322.7Z" fill="#FF8B66"/>
<path d="M97.8249 413.224C91.8749 393.438 76.2999 360.17 36.5749 314.996C36.5749 314.996 34.1249 313.77 30.9749 315.696C27.6499 317.797 27.6499 320.248 27.6499 320.248C27.6499 320.248 47.5999 363.672 60.1999 395.539C64.3999 406.22 74.7249 413.224 86.2749 413.224H97.8249Z" fill="#FF8B66"/>
<path d="M170.1 451.57C170.1 451.57 170.275 466.453 160.475 466.628C146.825 466.978 146.3 452.095 130.725 452.62C115.15 453.145 83.1249 456.998 72.9749 432.659C67.7249 420.053 74.8999 403.944 57.9249 391.862C40.9499 379.781 49.1749 366.123 57.9249 358.769C66.6749 351.415 54.0749 343.536 63.3499 339.859C65.4499 338.984 67.7249 339.159 69.6499 339.684C70.8749 340.034 71.9249 340.735 72.9749 341.435C77.8749 344.587 81.1999 350.19 81.1999 350.19C106.925 279.626 152.775 270.346 152.775 270.346L198.1 285.93C199.15 395.714 170.1 451.57 170.1 451.57Z" fill="#164353"/>
<path d="M213.5 182.449C213.5 182.449 203 185.951 187.95 183.675C172.9 181.398 168 171.943 157.5 178.071C141.575 187.176 149.1 218.693 153.125 234.977C154.525 241.106 156.45 257.039 152.95 270.346C152.95 270.346 174.125 286.805 198.275 285.93L211.4 257.214C211.225 257.214 239.925 222.896 213.5 182.449Z" fill="#CFD8DC"/>
<path d="M186.55 156.185C186.55 156.185 188.3 171.068 182.875 184.55C182.875 184.55 190.75 196.106 198.275 188.577C198.275 188.577 198.975 174.92 207.375 159.511C212.975 149.181 186.55 156.185 186.55 156.185Z" fill="#EF6E4B"/>
<path d="M174.65 156.535C174.65 156.535 168 152.332 168.7 158.811C169.575 166.34 176.925 167.741 177.625 165.114C178.5 162.663 174.65 156.535 174.65 156.535Z" fill="#FF8B66"/>
<path d="M212.625 148.48C212.625 148.48 216.825 141.827 218.925 147.955C221.375 155.134 215.425 159.511 213.5 157.585C211.575 155.484 212.625 148.48 212.625 148.48Z" fill="#FF8B66"/>
<path d="M198.8 178.947C186.725 181.573 178.325 175.27 173.075 151.807C170.275 139.726 174.825 130.796 188.3 127.819C201.775 124.843 209.125 130.971 211.75 143.052C217.525 168.441 211.225 176.145 198.8 178.947Z" fill="#FF8B66"/>
<path d="M209.65 152.508C210.175 153.733 209.3 155.134 207.9 155.659C206.5 156.185 204.925 155.834 204.4 154.609C203.875 153.383 204.75 151.982 206.15 151.457C207.725 150.757 209.3 151.282 209.65 152.508Z" fill="#DB614D"/>
<path d="M185.15 158.636C185.325 159.862 184.275 161.087 182.7 161.262C181.125 161.437 179.725 160.737 179.55 159.511C179.375 158.286 180.425 157.06 182 156.885C183.575 156.535 184.975 157.41 185.15 158.636Z" fill="#DB614D"/>
<path d="M201.425 141.477C201.25 141.477 201.25 141.476 201.075 141.301C198.975 139.901 196.175 140.601 196 140.601C195.65 140.776 195.3 140.426 195.3 140.076C195.3 139.726 195.475 139.375 195.825 139.375C196 139.375 199.325 138.5 201.775 140.251C202.125 140.426 202.125 140.776 201.95 141.126C201.775 141.301 201.6 141.477 201.425 141.477Z" fill="#0E3944"/>
<path d="M178.675 146.554C178.5 146.554 178.5 146.554 178.325 146.379C177.975 146.204 177.975 145.854 178.15 145.504C179.725 142.877 183.05 142.177 183.225 142.177C183.575 142.177 183.925 142.352 183.925 142.702C183.925 143.052 183.75 143.403 183.4 143.403C183.4 143.403 180.425 143.928 179.2 146.029C179.2 146.379 179.025 146.554 178.675 146.554Z" fill="#0E3944"/>
<path d="M201.95 148.13C202.3 149.706 201.95 150.932 201.075 151.107C200.2 151.282 199.325 150.231 198.975 148.655C198.625 147.08 198.975 145.854 199.85 145.679C200.55 145.504 201.6 146.554 201.95 148.13Z" fill="#1A4850"/>
<path d="M185.15 151.632C185.5 153.208 185.15 154.434 184.275 154.609C183.4 154.784 182.525 153.733 182.175 152.157C181.825 150.581 182.175 149.356 183.05 149.181C183.925 149.181 184.8 150.231 185.15 151.632Z" fill="#1A4850"/>
<path d="M190.575 165.815C190.575 165.815 198.275 165.114 201.6 162.313C201.6 162.313 200.725 168.266 196.525 168.791C192.325 169.142 190.575 165.815 190.575 165.815Z" fill="#1A4850"/>
<path d="M197.75 148.305C197.75 148.305 198.1 144.453 199.5 144.278C201.075 144.278 202.825 147.08 202.825 147.08L204.75 145.504L202.65 146.204C202.65 146.204 200.725 143.227 199.325 143.403C197.225 143.928 197.75 148.305 197.75 148.305Z" fill="#1A4850"/>
<path d="M186.2 151.282C186.2 151.282 184.275 147.78 182.875 148.48C181.475 149.006 181.125 152.508 181.125 152.508L178.675 151.807L180.95 151.632C180.95 151.632 181.3 148.13 182.7 147.78C184.625 147.255 186.2 151.282 186.2 151.282Z" fill="#1A4850"/>
<path d="M194.425 158.811L193.725 157.585C194.775 157.06 194.775 156.36 194.775 155.834C194.6 155.134 194.075 154.609 193.55 154.609C193.375 154.609 193.025 154.784 193.025 155.309L191.8 154.784C192.325 153.383 193.375 153.208 193.725 153.383C194.775 153.383 195.825 154.434 196 155.659C196.35 156.885 195.825 158.111 194.425 158.811Z" fill="#DB614D"/>
<path d="M175.525 160.912C175.525 160.912 171.85 147.255 173.95 137.624C173.95 137.624 184.45 123.092 204.575 130.27C204.575 130.27 210.525 139.901 213.5 153.383C213.5 153.383 214.2 148.48 212.275 137.8C210.35 126.944 200.725 120.29 187.6 122.391C174.475 124.492 160.475 137.624 175.525 160.912Z" fill="#0E3944"/>
<path d="M196.7 127.119C196.7 127.119 197.575 130.621 194.075 139.901C194.075 139.901 191.625 137.274 188.65 139.901C185.675 142.527 179.9 141.652 177.8 143.053C175.7 144.453 175.7 147.605 175.7 147.605C175.7 147.605 173.95 143.578 175.7 138.85C175.7 138.85 171.85 143.928 172.375 150.056C172.375 150.056 167.125 149.181 167.3 140.426C167.475 131.671 180.075 117.314 194.075 118.364C208.075 119.415 211.4 141.477 211.4 141.477C211.4 141.477 210.175 140.426 208.075 140.951C208.075 140.951 207.725 136.224 204.575 130.271C204.575 130.271 205.975 134.473 204.575 139.2C204.575 139.2 200.725 137.099 197.575 137.8C197.575 137.625 199.5 133.948 196.7 127.119Z" fill="#0E3944"/>
<path d="M153.825 180.873C160.65 175.445 165.9 182.274 167.3 191.729C168.525 201.184 156.275 257.039 146.65 255.113C142.975 254.238 141.4 239.705 141.4 239.705C141.4 239.705 145.075 223.946 147.525 200.308C148.75 189.453 150.15 183.674 153.825 180.873Z" fill="#FF8B66"/>
<path d="M133.875 247.234C124.6 238.479 108.15 209.413 103.95 194.53L110.95 191.729C110.95 191.729 131.95 221.845 141.575 229.374C151.2 236.903 154.525 245.483 150.325 252.662C145.95 259.841 135.8 249.16 133.875 247.234Z" fill="#FF8B66"/>
<path d="M106.925 175.27C106.4 184.725 114.275 187.001 110.775 194.355C110.075 195.931 109.025 196.632 107.8 196.982C105.7 197.682 103.25 196.982 101.675 195.406C98 191.729 92.225 187.702 89.25 185.951C85.75 184.025 87.675 183.499 87.675 183.499C87.325 183.324 86.975 183.149 86.625 183.149C84.175 182.099 82.25 181.748 84 180.698C85.925 179.472 93.1 182.099 93.1 182.099C83.825 175.97 81.375 177.371 82.95 176.145C85.225 174.394 93.975 178.422 94.325 178.597C89.425 174.044 85.925 172.994 87.85 172.293C89.775 171.593 99.575 178.597 103.075 181.223C103.95 181.748 104.3 182.274 104.3 182.274C104.475 174.219 106.925 175.27 106.925 175.27Z" fill="#FF8B66"/>
<path d="M103.25 180.873C104.125 181.398 104.475 181.924 104.475 181.924C104.475 181.924 102.9 184.725 105 188.402C105.175 188.402 101.15 185.776 103.25 180.873Z" fill="#EF6E4B"/>
<path d="M95.1999 186.476C94.3249 185.951 89.7749 183.324 87.8499 183.499C87.4999 183.324 87.1499 183.149 86.7999 183.149C88.1999 181.398 94.3249 185.776 95.1999 186.476Z" fill="#EF6E4B"/>
<path d="M131.95 327.427C131.95 328.478 131.075 329.353 130.025 329.353C128.975 329.353 128.1 328.478 128.1 327.427C128.1 326.377 128.975 325.501 130.025 325.501C131.075 325.676 131.95 326.377 131.95 327.427Z" fill="#6097B2"/>
<path d="M165.2 340.384C165.2 341.435 164.325 342.31 163.275 342.31C162.225 342.31 161.35 341.435 161.35 340.384C161.35 339.334 162.225 338.458 163.275 338.458C164.325 338.458 165.2 339.334 165.2 340.384Z" fill="#6097B2"/>
<path d="M193.55 347.213C193.55 348.264 192.675 349.139 191.625 349.139C190.575 349.139 189.7 348.264 189.7 347.213C189.7 346.162 190.575 345.287 191.625 345.287C192.675 345.287 193.55 346.162 193.55 347.213Z" fill="#6097B2"/>
<path d="M149.975 303.089C149.975 304.14 149.1 305.015 148.05 305.015C147 305.015 146.125 304.14 146.125 303.089C146.125 302.039 147 301.163 148.05 301.163C149.1 301.163 149.975 302.039 149.975 303.089Z" fill="#6097B2"/>
<path d="M154.35 322.7C155.413 322.7 156.275 321.837 156.275 320.774C156.275 319.71 155.413 318.848 154.35 318.848C153.287 318.848 152.425 319.71 152.425 320.774C152.425 321.837 153.287 322.7 154.35 322.7Z" fill="#6097B2"/>
<path d="M185.85 330.929C185.85 331.98 184.975 332.855 183.925 332.855C182.875 332.855 182 331.98 182 330.929C182 329.879 182.875 329.003 183.925 329.003C184.975 329.003 185.85 329.879 185.85 330.929Z" fill="#6097B2"/>
<path d="M189.875 300.288C189.875 301.338 189 302.214 187.95 302.214C186.9 302.214 186.025 301.338 186.025 300.288C186.025 299.237 186.9 298.362 187.95 298.362C189 298.362 189.875 299.237 189.875 300.288Z" fill="#6097B2"/>
<path d="M168.7 295.91C169.763 295.91 170.625 295.048 170.625 293.984C170.625 292.92 169.763 292.058 168.7 292.058C167.637 292.058 166.775 292.92 166.775 293.984C166.775 295.048 167.637 295.91 168.7 295.91Z" fill="#6097B2"/>
<path d="M115.325 364.022C115.325 365.073 114.45 365.948 113.4 365.948C112.35 365.948 111.475 365.073 111.475 364.022C111.475 362.972 112.35 362.096 113.4 362.096C114.45 362.096 115.325 362.972 115.325 364.022Z" fill="#6097B2"/>
<path d="M88.725 355.968C88.725 357.018 87.85 357.894 86.8 357.894C85.75 357.894 84.875 357.018 84.875 355.968C84.875 354.917 85.75 354.042 86.8 354.042C87.85 354.217 88.725 354.917 88.725 355.968Z" fill="#6097B2"/>
<path d="M72.7999 341.435C72.4499 341.96 71.9249 342.31 71.2249 342.31C70.1749 342.31 69.2999 341.435 69.2999 340.384C69.2999 340.209 69.2999 339.859 69.4749 339.684C70.6999 340.209 71.7499 340.735 72.7999 341.435Z" fill="#6097B2"/>
<path d="M123.025 390.286C124.088 390.286 124.95 389.424 124.95 388.36C124.95 387.297 124.088 386.434 123.025 386.434C121.962 386.434 121.1 387.297 121.1 388.36C121.1 389.424 121.962 390.286 123.025 390.286Z" fill="#6097B2"/>
<path d="M77.1749 414.8C77.1749 415.85 76.2999 416.726 75.2499 416.726C74.1999 416.726 73.325 415.85 73.325 414.8C73.325 413.749 74.1999 412.874 75.2499 412.874C76.2999 412.874 77.1749 413.749 77.1749 414.8Z" fill="#6097B2"/>
<path d="M94.8499 400.617C95.9131 400.617 96.7749 399.755 96.7749 398.691C96.7749 397.627 95.9131 396.765 94.8499 396.765C93.7868 396.765 92.9249 397.627 92.9249 398.691C92.9249 399.755 93.7868 400.617 94.8499 400.617Z" fill="#6097B2"/>
<path d="M65.6249 386.434C66.6881 386.434 67.5499 385.572 67.5499 384.508C67.5499 383.444 66.6881 382.582 65.6249 382.582C64.5618 382.582 63.7 383.444 63.7 384.508C63.7 385.572 64.5618 386.434 65.6249 386.434Z" fill="#6097B2"/>
<path d="M90.9999 440.539C90.9999 441.589 90.1249 442.465 89.0749 442.465C88.0249 442.465 87.1499 441.589 87.1499 440.539C87.1499 439.488 88.0249 438.613 89.0749 438.613C90.1249 438.613 90.9999 439.488 90.9999 440.539Z" fill="#6097B2"/>
<path d="M108.85 342.135C108.85 343.186 107.975 344.061 106.925 344.061C105.875 344.061 105 343.186 105 342.135C105 341.085 105.875 340.209 106.925 340.209C107.975 340.384 108.85 341.26 108.85 342.135Z" fill="#6097B2"/>
<path d="M126.7 310.793C126.7 311.844 125.825 312.719 124.775 312.719C123.725 312.719 122.85 311.844 122.85 310.793C122.85 309.743 123.725 308.867 124.775 308.867C125.825 308.867 126.7 309.743 126.7 310.793Z" fill="#6097B2"/>
<path d="M147 284.529C147 285.58 146.125 286.455 145.075 286.455C144.025 286.455 143.15 285.58 143.15 284.529C143.15 283.479 144.025 282.603 145.075 282.603C146.3 282.603 147 283.479 147 284.529Z" fill="#6097B2"/>
<path d="M105.875 322.7C105.875 323.75 105 324.626 103.95 324.626C102.9 324.626 102.025 323.75 102.025 322.7C102.025 321.649 102.9 320.774 103.95 320.774C105 320.774 105.875 321.649 105.875 322.7Z" fill="#6097B2"/>
<path d="M128.625 292.058C128.625 293.109 127.75 293.984 126.7 293.984C125.65 293.984 124.775 293.109 124.775 292.058C124.775 291.008 125.65 290.132 126.7 290.132C127.75 290.132 128.625 291.008 128.625 292.058Z" fill="#6097B2"/>
<path d="M92.9249 376.279C92.9249 377.329 92.0499 378.205 90.9999 378.205C89.9499 378.205 89.075 377.329 89.075 376.279C89.075 375.228 89.9499 374.353 90.9999 374.353C92.0499 374.353 92.9249 375.228 92.9249 376.279Z" fill="#6097B2"/>
<path d="M69.475 359.82C69.475 360.87 68.6 361.746 67.55 361.746C66.5 361.746 65.625 360.87 65.625 359.82C65.625 358.769 66.5 357.894 67.55 357.894C68.6 357.894 69.475 358.769 69.475 359.82Z" fill="#6097B2"/>
<path d="M135.625 356.143C136.688 356.143 137.55 355.281 137.55 354.217C137.55 353.153 136.688 352.291 135.625 352.291C134.562 352.291 133.7 353.153 133.7 354.217C133.7 355.281 134.562 356.143 135.625 356.143Z" fill="#6097B2"/>
<path d="M174.3 365.948C175.363 365.948 176.225 365.086 176.225 364.022C176.225 362.958 175.363 362.096 174.3 362.096C173.237 362.096 172.375 362.958 172.375 364.022C172.375 365.086 173.237 365.948 174.3 365.948Z" fill="#6097B2"/>
<path d="M174.3 310.793C174.3 311.844 173.425 312.719 172.375 312.719C171.325 312.719 170.45 311.844 170.45 310.793C170.45 309.743 171.325 308.867 172.375 308.867C173.425 308.867 174.3 309.743 174.3 310.793Z" fill="#6097B2"/>
<path d="M196.7 314.645C196.7 315.696 195.825 316.571 194.775 316.571C193.725 316.571 192.85 315.696 192.85 314.645C192.85 313.595 193.725 312.719 194.775 312.719C195.825 312.719 196.7 313.595 196.7 314.645Z" fill="#6097B2"/>
<path d="M151.9 378.03C151.9 379.08 151.025 379.956 149.975 379.956C148.925 379.956 148.05 379.08 148.05 378.03C148.05 376.979 148.925 376.104 149.975 376.104C151.025 376.104 151.9 377.154 151.9 378.03Z" fill="#6097B2"/>
<path d="M133.7 413.224C134.763 413.224 135.625 412.361 135.625 411.298C135.625 410.234 134.763 409.372 133.7 409.372C132.637 409.372 131.775 410.234 131.775 411.298C131.775 412.361 132.637 413.224 133.7 413.224Z" fill="#6097B2"/>
<path d="M105.175 418.652C106.238 418.652 107.1 417.789 107.1 416.726C107.1 415.662 106.238 414.8 105.175 414.8C104.112 414.8 103.25 415.662 103.25 416.726C103.25 417.789 104.112 418.652 105.175 418.652Z" fill="#6097B2"/>
<path d="M183.925 390.286C184.988 390.286 185.85 389.424 185.85 388.36C185.85 387.297 184.988 386.434 183.925 386.434C182.862 386.434 182 387.297 182 388.36C182 389.424 182.862 390.286 183.925 390.286Z" fill="#6097B2"/>
<path d="M159.95 402.543C159.95 403.594 159.075 404.469 158.025 404.469C156.975 404.469 156.1 403.594 156.1 402.543C156.1 401.492 156.975 400.617 158.025 400.617C159.075 400.617 159.95 401.492 159.95 402.543Z" fill="#6097B2"/>
<path d="M121.1 444.216C121.1 445.266 120.225 446.142 119.175 446.142C118.125 446.142 117.25 445.266 117.25 444.216C117.25 443.165 118.125 442.289 119.175 442.289C120.225 442.289 121.1 443.165 121.1 444.216Z" fill="#6097B2"/>
<path d="M148.05 436.336C149.113 436.336 149.975 435.474 149.975 434.41C149.975 433.347 149.113 432.484 148.05 432.484C146.987 432.484 146.125 433.347 146.125 434.41C146.125 435.474 146.987 436.336 148.05 436.336Z" fill="#6097B2"/>
<path d="M175.875 425.48C176.938 425.48 177.8 424.618 177.8 423.554C177.8 422.491 176.938 421.628 175.875 421.628C174.812 421.628 173.95 422.491 173.95 423.554C173.95 424.618 174.812 425.48 175.875 425.48Z" fill="#6097B2"/>
<path d="M165.2 455.597C165.2 456.647 164.325 457.523 163.275 457.523C162.225 457.523 161.35 456.647 161.35 455.597C161.35 454.546 162.225 453.671 163.275 453.671C164.325 453.671 165.2 454.546 165.2 455.597Z" fill="#6097B2"/>
<path d="M163.1 554H132.475C130.55 548.222 134.225 542.619 133.525 537.541C132.475 528.961 137.375 533.689 137.375 533.689C138.25 524.584 151.025 522.833 151.025 526.86C150.85 532.814 151.9 536.666 153.65 539.117C157.15 544.195 162.75 544.02 163.8 547.697C163.975 548.047 163.975 548.397 163.975 548.747C165.025 553.125 163.1 554 163.1 554Z" fill="#164353"/>
<path d="M163.975 548.747C157.675 550.148 142.975 548.222 142.45 544.545C141.925 541.043 149.8 539.292 153.65 539.117C157.15 544.195 162.75 544.02 163.8 547.697C163.975 548.047 163.975 548.397 163.975 548.747Z" fill="#205260"/>
<path d="M37.1 316.221C33.775 313.245 28.525 318.147 28.525 318.147C28.525 318.147 31.3249 322.35 29.5749 324.101C27.65 325.852 25.55 321.824 21.875 323.575C21.525 323.75 21.35 323.925 21 324.101C18.2 325.852 15.225 329.353 12.775 331.98C12.25 332.505 11.9 333.03 11.375 333.556C8.57495 336.532 1.39995 338.108 -4.77582e-05 330.404C-1.40005 322.7 7.34995 313.595 16.975 305.19C26.6 296.786 32.725 301.864 32.725 301.864C32.725 301.864 34.825 305.365 34.825 307.642C34.825 309.743 36.75 310.968 37.7999 313.07C39.2 314.996 37.1 316.221 37.1 316.221Z" fill="#164353"/>
<path d="M20.9999 324.101C18.1999 325.852 15.2249 329.353 12.7749 331.98C9.09991 332.855 5.94991 332.505 5.42491 329.178C4.19991 320.949 20.4749 310.618 19.2499 316.396C18.5499 319.373 19.7749 322.175 20.9999 324.101Z" fill="#205260"/>
<path d="M589.05 540.693C587.475 539.817 586.075 538.066 584.85 535.965C584.85 535.965 583.8 529.487 584.85 522.483C585.9 515.654 582.925 510.051 573.3 507.95C563.85 505.849 558.25 510.401 560.35 529.487C558.95 537.366 558.6 546.471 561.925 554H590.975C590.975 554 595.7 544.195 589.05 540.693Z" fill="#CFD8DC"/>
<path d="M614.6 438.437C614.6 438.437 614.6 457.348 603.925 476.783C593.075 496.569 579.6 523.709 579.6 523.709C579.6 523.709 570.675 532.463 564.9 517.93C564.9 517.93 568.925 467.503 578.2 448.943C587.475 430.383 614.6 438.437 614.6 438.437Z" fill="#FF8B66"/>
<path d="M754.075 376.629C754.075 376.629 771.4 449.468 782.425 468.729C782.425 468.729 779.975 476.783 767.9 479.235C767.9 479.235 730.275 423.905 727.825 400.442C725.375 377.154 754.075 376.629 754.075 376.629Z" fill="#FF8B66"/>
<path d="M762.3 393.788C757.75 404.819 722.05 405.52 722.05 405.52L719.25 401.493L718.55 400.442L712.95 392.213C712.95 392.213 653.975 334.431 642.6 339.159C642.25 339.334 641.9 339.509 641.55 339.684C633.675 345.287 632.975 376.279 623.525 428.107C622.65 433.01 620.725 438.788 619.15 442.64C618.975 442.99 618.8 443.515 618.625 443.865C617.75 446.142 617.225 447.542 617.225 447.542C581.175 462.075 569.45 433.36 569.45 433.36C569.45 433.36 569.8 432.484 570.5 431.259C570.675 430.908 570.85 430.558 571.025 430.208C572.95 426.006 575.925 418.827 575.925 414.975C575.925 410.773 575.925 406.745 575.75 402.893C575.75 402.543 575.75 402.193 575.75 401.843C575.75 389.411 575.75 378.555 575.75 369.1V368.049C575.75 364.022 575.925 360.17 575.925 356.493V355.443C576.275 338.984 576.8 328.128 577.325 320.774C577.325 320.424 577.325 320.073 577.325 319.723C578.375 307.467 579.425 306.241 579.425 306.241L572.25 256.164H651C651 256.164 662.9 268.07 678.125 283.654C678.475 284.004 678.825 284.354 679 284.529C684.6 290.132 690.55 296.261 696.5 302.564C696.675 302.739 697.025 303.089 697.2 303.264C699.65 305.716 701.925 308.167 704.375 310.618C704.725 310.968 704.9 311.144 705.25 311.494C713.125 319.723 720.825 327.778 727.3 334.781C727.475 334.956 727.825 335.307 728 335.482C736.925 345.112 743.75 352.991 746.2 356.493C752.5 366.123 757.225 378.38 760.025 386.084C760.2 386.434 760.2 386.785 760.375 387.135C761.6 391.337 762.3 393.788 762.3 393.788Z" fill="#8B383E"/>
<path d="M591.325 314.12C588.175 317.972 583.45 320.249 577.5 321.124C577.5 320.774 577.5 320.424 577.5 320.073C583.1 319.198 587.65 317.097 590.625 313.42C596.05 307.116 595.175 298.362 595.175 298.362L596.225 298.187C596.225 298.712 597.1 307.467 591.325 314.12Z" fill="#662C33"/>
<path d="M679.175 284.879C678.825 284.879 678.65 284.879 678.3 284.879C669.55 284.879 660.45 275.249 659.925 274.899L660.625 274.199C660.8 274.374 669.9 283.829 678.3 284.004C678.475 284.354 678.825 284.704 679.175 284.879Z" fill="#662C33"/>
<path d="M619.5 442.815C619.325 443.165 619.15 443.69 618.975 444.041C613.2 446.142 607.775 447.017 602.875 447.017C587.3 447.017 576.625 438.087 570.675 431.259C570.85 430.908 571.025 430.558 571.2 430.208C578.725 439.138 594.825 452.095 619.5 442.815Z" fill="#662C33"/>
<path d="M640.5 321.124C641.725 326.727 642.6 332.855 642.6 339.159C642.25 339.334 641.9 339.509 641.55 339.684C641.55 310.268 624.575 287.506 624.4 287.156L625.1 286.63C625.275 286.805 635.25 300.463 640.15 320.073C642.075 318.848 643.475 316.922 644 314.47C646.45 304.14 635.25 287.331 635.25 287.156L636.125 286.63C636.65 287.331 647.675 303.965 645.05 314.646C644.525 317.622 642.95 319.723 640.5 321.124Z" fill="#662C33"/>
<path d="M728.175 336.007C725.2 339.159 722.575 341.785 722.225 342.135L721.7 342.661L721.525 341.96C717.675 331.98 693.175 310.443 693 310.093L692.65 309.743L696.675 302.914C696.85 303.089 697.2 303.439 697.375 303.615L693.875 309.218C698.6 310.793 702.1 311.144 704.375 310.793C704.725 311.144 704.9 311.319 705.25 311.669C704.375 311.844 703.675 311.844 702.625 311.844C700.35 311.844 697.9 311.319 695.1 310.618C700.7 315.696 717.85 331.63 721.875 340.56C723.45 338.984 725.375 337.058 727.3 334.957C727.65 335.482 728 335.657 728.175 336.007Z" fill="#662C33"/>
<path d="M593.775 402.718H593.425C593.075 402.893 588.7 403.769 583.625 403.769C581 403.769 578.375 403.594 575.925 402.893C575.925 402.543 575.925 402.193 575.925 401.843C582.4 403.769 590.975 402.193 592.9 401.843L591.325 361.396C590.45 363.672 588.525 366.649 585.2 368.4C583.625 369.275 581.7 369.625 579.775 369.625C578.55 369.625 577.325 369.45 576.1 369.275V368.224C579.425 368.925 582.4 368.75 584.85 367.524C589.05 365.423 590.625 361.046 591.15 359.295C587.825 359.82 581.35 358.069 576.45 356.668V355.618C581.875 357.194 589.05 359.12 591.675 358.244L592.375 358.069L593.775 402.718Z" fill="#662C33"/>
<path d="M760.375 387.66C754.775 393.263 743.225 401.843 725.375 401.843C723.45 401.843 721.525 401.668 719.425 401.493L718.725 400.442C740.425 402.893 753.9 392.738 760.025 386.785C760.2 386.96 760.375 387.31 760.375 387.66Z" fill="#662C33"/>
<path d="M665.525 43.4235C665.525 43.4235 663.425 38.5209 654.15 38.5209C647.15 38.5209 644.35 42.373 644.35 42.373C640.15 54.6296 635.6 101.905 634.025 103.481C633.15 104.357 581 139.551 581 139.551C609.35 140.076 627.025 175.095 627.025 175.095C627.9 163.539 659.925 118.189 660.275 113.987C661.15 106.283 674.625 72.1391 665.525 43.4235Z" fill="#CE364C"/>
<path d="M575.05 289.782C575.05 289.782 574.875 299.587 578.025 300.288C581.175 300.988 607.075 308.517 636.825 295.035C666.575 281.552 671.825 271.397 663.075 264.043C654.325 256.689 575.05 289.782 575.05 289.782Z" fill="#CE364C"/>
<path d="M562.975 146.204C562.975 146.204 535.85 143.052 520.275 149.706C520.275 149.706 515.9 168.966 537.25 212.04C558.6 255.113 553.7 282.253 577.675 292.408C599.025 301.513 662.025 274.549 663.95 265.619C668.85 243.207 630.35 203.635 628.075 180.698C625.8 157.935 603.4 123.617 562.975 146.204Z" fill="#F24052"/>
<path d="M520.45 149.706C501.55 156.36 480.2 177.721 480.2 188.052C480.2 198.382 498.05 202.234 498.05 202.234L527.275 188.052C527.275 188.052 535.675 182.274 530.25 165.289C524.825 148.13 520.45 149.706 520.45 149.706Z" fill="#CE364C"/>
<path d="M598.15 168.791C592.55 168.791 585.55 166.69 581.175 163.714C578.725 161.963 577.325 160.037 576.975 158.111C575.925 151.457 582.4 147.955 582.75 147.78L583.625 149.531C583.45 149.706 578.025 152.508 578.9 157.76C579.075 159.161 580.3 160.737 582.225 162.138C587.125 165.64 595.525 167.741 601.125 166.69C603.575 166.34 605.15 165.29 606.025 164.064C606.9 162.488 606.2 160.562 606.2 160.562L607.95 159.862C607.95 160.037 609 162.488 607.775 164.939C606.725 166.865 604.625 168.091 601.65 168.616C600.425 168.616 599.375 168.791 598.15 168.791Z" fill="#CFD8DC"/>
<path d="M574.175 189.278C569.975 189.278 562.975 187.527 562.1 180.698C561.575 177.196 561.925 174.219 562.275 171.768C562.625 167.916 562.975 164.939 560.875 161.437C557.2 155.484 552.3 155.134 552.125 155.134L552.3 153.208C552.475 153.208 558.425 153.558 562.625 160.387C565.25 164.589 564.725 168.091 564.375 171.943C564.025 174.57 563.85 177.196 564.2 180.523C565.25 187.877 574.7 187.527 575.05 187.527L575.225 189.453C574.7 189.278 574.525 189.278 574.175 189.278Z" fill="#CFD8DC"/>
<path d="M580.125 154.434C580.125 154.434 594.475 144.628 590.975 134.123C587.65 123.617 541.45 124.317 529.55 136.924C517.65 149.531 555.275 157.936 555.275 157.936C558.25 151.982 576.8 151.282 580.125 154.434Z" fill="#CE364C"/>
<path d="M554.4 152.683C547.575 150.406 543.55 145.504 544.95 139.726C546.35 134.123 575.575 133.948 581.175 138.5C586.775 143.052 578.9 161.087 554.4 152.683Z" fill="#A02E44"/>
<path d="M551.075 136.749C551.075 136.749 557.025 147.08 554.225 152.683C554.225 152.683 574.875 159.862 574.875 148.305C574.875 148.305 571.025 139.726 572.425 134.123L551.075 136.749Z" fill="#EF6E4B"/>
<path d="M544.25 127.819C544.25 127.819 534.1 111.535 534.975 96.1271C535.5 88.4229 539.35 85.2712 539.35 85.2712C539.35 85.2712 536.2 80.7187 539.525 73.89C539.525 73.89 544.25 79.4931 561.05 77.7421C577.15 75.9912 578.9 87.5474 578.9 87.5474C590.45 89.2984 582.575 124.317 574.525 127.819H544.25Z" fill="#FFB878"/>
<path d="M539.875 112.761C539.875 112.761 534.1 106.983 533.4 113.812C532.525 121.691 539.7 124.843 541.1 122.391C542.5 119.765 539.875 112.761 539.875 112.761Z" fill="#FF8B66"/>
<path d="M580.65 113.111C580.65 113.111 586.425 107.333 587.125 114.162C588 122.041 580.825 125.193 579.425 122.741C578.2 120.29 580.65 113.111 580.65 113.111Z" fill="#FF8B66"/>
<path d="M559.65 141.302C546.7 141.302 539.35 132.897 539.35 107.508C539.35 94.3761 546 86.4968 560.525 86.4968C575.05 86.4968 581.175 94.5512 581.175 107.508C581.175 134.823 573.125 141.302 559.65 141.302Z" fill="#FF8B66"/>
<path d="M576.975 116.613C577.15 117.839 576.1 119.24 574.525 119.415C572.95 119.765 571.375 118.889 571.2 117.489C571.025 116.263 572.075 114.862 573.65 114.687C575.225 114.512 576.625 115.212 576.975 116.613Z" fill="#DB614D"/>
<path d="M550.375 117.314C550.375 118.714 548.8 119.59 547.225 119.59C545.65 119.415 544.25 118.364 544.425 116.963C544.425 115.563 546 114.687 547.575 114.687C549.15 114.862 550.375 115.913 550.375 117.314Z" fill="#DB614D"/>
<path d="M571.2 102.956C571.025 102.956 570.85 102.956 570.675 102.781C568.575 101.205 565.6 101.73 565.425 101.73C565.075 101.73 564.725 101.555 564.725 101.205C564.725 100.855 564.9 100.504 565.25 100.504C565.425 100.504 568.925 99.804 571.55 101.73C571.9 101.905 571.9 102.43 571.725 102.606C571.55 102.956 571.375 102.956 571.2 102.956Z" fill="#FFB878"/>
<path d="M546.525 103.131C546.35 103.131 546.175 102.956 546.175 102.956C546 102.606 546 102.255 546.35 102.08C548.8 100.154 552.3 100.68 552.475 100.68C552.825 100.68 553 101.03 553 101.38C553 101.73 552.65 101.905 552.3 101.905C552.3 101.905 549.15 101.38 547.225 103.131C546.875 103.131 546.7 103.131 546.525 103.131Z" fill="#FFB878"/>
<path d="M569.975 110.31C569.975 111.886 569.275 113.286 568.4 113.286C567.525 113.286 566.825 112.061 566.825 110.31C566.825 108.734 567.525 107.333 568.4 107.333C569.1 107.333 569.975 108.734 569.975 110.31Z" fill="#1A4850"/>
<path d="M552.65 110.31C552.65 111.886 551.95 113.286 551.075 113.286C550.2 113.286 549.5 112.061 549.5 110.31C549.5 108.734 550.2 107.333 551.075 107.333C551.95 107.333 552.65 108.734 552.65 110.31Z" fill="#1A4850"/>
<path d="M543.375 89.2983C543.375 89.2983 557.2 94.3761 576.975 92.9753C576.975 92.9753 581.175 98.2281 580.65 116.788C580.65 116.788 592.2 83.3451 558.425 83.3451C524.65 83.3451 539.875 115.913 539.875 115.913C539.875 115.913 537.25 95.4266 543.375 89.2983Z" fill="#FFB878"/>
<path d="M560.525 118.889L559.475 117.839L562.1 115.212C559.65 111.71 559.65 103.656 559.65 103.306H561.05C561.05 103.306 561.05 112.061 563.5 114.862L564.025 115.387L560.525 118.889Z" fill="#DB614D"/>
<path d="M551.95 123.092C551.95 123.092 564.725 123.617 571.025 121.866C571.025 121.866 572.075 131.146 562.275 131.671C551.95 132.197 551.95 123.092 551.95 123.092Z" fill="#1A4850"/>
<path d="M606.375 158.111C608.825 157.585 608.475 164.064 606.375 162.138C604.1 160.387 603.925 158.636 606.375 158.111Z" fill="#CFD8DC"/>
<path d="M576.975 188.927C576.625 191.379 570.675 189.102 573.125 187.527C575.75 186.126 577.5 186.476 576.975 188.927Z" fill="#CFD8DC"/>
<path d="M550.9 202.234C550.9 202.234 547.05 212.215 547.225 217.643C547.4 223.246 549.325 222.545 549.325 222.545C549.325 222.545 546.35 223.771 545.825 226.923C545.3 230.075 553.35 232.526 553.875 232.526C554.4 232.526 560.175 230.425 560.175 230.425L561.4 212.215L556.325 209.063L550.9 202.234Z" fill="#EF6E4B"/>
<path d="M554.05 201.009C554.05 201.009 561.05 205.386 563.85 208.013C566.65 210.639 565.075 231.3 563.85 232.351C562.625 233.401 553.7 235.327 551.95 234.277C550.2 233.226 552.65 227.098 552.65 227.098C552.65 227.098 557.2 226.047 556.5 227.798C555.8 229.549 556.5 230.95 556.5 230.95L558.425 230.25C558.425 230.25 557.55 225.697 558.425 222.195C559.3 218.869 552.125 215.192 551.25 209.063C550.2 202.585 554.05 201.009 554.05 201.009Z" fill="#FF8B66"/>
<path d="M481.25 190.853C478.975 181.223 488.6 177.721 502.075 179.297C517.65 181.223 549.5 185.25 556.5 202.059C556.5 202.059 558.775 208.713 552.825 211.865C536.55 220.97 485.45 209.063 481.25 190.853Z" fill="#CE364C"/>
<path d="M529.9 184.55C529.9 184.55 511.35 176.846 502.075 176.145C492.975 175.27 514.85 183.324 529.9 184.55Z" fill="#A02E44"/>
<path d="M668.85 17.5095C667.45 19.0854 665.175 25.3888 665.175 25.3888C664.125 30.6416 663.6 33.4431 661.85 35.8945C660.1 38.3458 660.975 42.5481 660.975 42.5481C660.975 42.5481 653.975 46.225 648.025 41.6726C648.025 41.6726 648.725 37.4703 648.025 36.2446C646.8 33.7933 642.95 32.5676 641.55 27.8401C640.15 23.1125 636.125 17.6846 636.125 17.6846C636.125 17.6846 637.35 15.2333 639.45 16.634C641.55 18.2099 642.95 22.062 644 22.4122C644.175 22.4122 644.525 22.5872 644.7 22.5872C645.575 22.7623 646.45 22.5872 646.975 22.062C646.975 22.062 647.15 22.062 647.15 21.8869C649.075 19.6106 649.6 13.1321 649.425 10.1555C649.25 6.12833 649.425 0.350204 651.875 1.40077C654.325 2.27625 652.05 4.55248 653.975 13.6574L654.85 13.8325C655.025 14.5329 656.775 8.40457 657.125 2.62644C657.475 -1.40074 659.925 0.175109 660.625 1.40077C661.15 2.62644 660.275 6.65362 660.1 9.45513C659.925 11.3812 659.75 13.3072 659.75 14.5329L660.8 15.0582C664.65 8.22947 663.425 5.42795 665.7 5.25286C667.975 5.07776 667.1 10.8559 665.875 13.1321C665.35 14.0076 664.825 16.1087 664.475 18.0348C668.5 13.3072 667.975 11.031 669.9 11.2061C671.825 11.3812 670.075 15.9336 668.85 17.5095Z" fill="#FF8B66"/>
<path d="M651.35 28.3654C649.95 24.6884 645.05 22.9374 644.525 22.7623C645.4 22.9374 646.275 22.7623 646.8 22.2371C651.7 24.1631 651.35 28.3654 651.35 28.3654Z" fill="#EF6E4B"/>
<path d="M567 525.46C567 525.46 564.375 520.032 566.65 517.58C569.1 515.304 571.9 519.681 575.925 518.631C579.95 517.58 581 514.779 582.05 518.631C583.1 522.833 581.875 535.265 567 525.46Z" fill="#CFD8DC"/>
<path d="M582.4 525.284C582.4 525.284 571.375 529.137 565.775 525.284L567.175 530.012C567.175 530.012 579.075 531.238 580.825 528.261L582.4 525.284Z" fill="#ADBEC4"/>
<path d="M582.225 531.238C582.225 531.238 572.075 529.837 567.35 532.288V534.564C567.35 534.564 580.475 531.413 584.675 534.564L582.225 531.238Z" fill="#ADBEC4"/>
<path d="M566.825 539.642C566.825 539.642 568.75 534.915 574.875 534.564C581 534.214 585.2 537.541 585.2 537.541C585.2 537.541 575.4 533.514 566.825 539.642Z" fill="#ADBEC4"/>
<path d="M826 473.456C806.75 499.195 780.325 504.273 780.325 504.273C772.625 498.145 772.45 490.966 772.45 490.966C772.45 490.966 765.1 484.312 764.05 481.161C763 478.009 770.35 468.554 774.725 469.429C777.7 470.13 779.45 472.581 780.325 473.982C776.65 465.752 779.625 462.951 784.7 463.651C790.125 464.351 785.05 465.577 788.9 469.955C789.25 470.305 789.425 470.48 789.775 470.83C790.475 471.355 791.35 471.705 792.225 471.881C793.1 472.056 793.975 472.056 795.025 472.056C795.55 472.056 796.075 472.056 796.6 471.881C797.65 471.705 798.525 471.53 799.575 471.18C801.15 470.655 802.9 469.955 804.475 469.079C811.125 465.402 813.925 464.176 819 465.402C824.075 466.628 824.075 470.48 824.075 470.48L826 473.456Z" fill="#CFD8DC"/>
<path d="M826 473.456C806.75 499.195 780.325 504.273 780.325 504.273C793.8 498.495 806.05 490.966 814.45 481.686C823.025 472.231 826 473.456 826 473.456Z" fill="#ADBEC4"/>
<path d="M789.95 470.83C790.65 471.355 791.525 471.705 792.4 471.881C787.325 472.931 786.975 477.484 786.975 477.484L784.875 476.783C785.225 471.18 789.6 470.83 789.95 470.83Z" fill="#ADBEC4"/>
<path d="M793.275 477.834H791C790.125 474.682 791.175 472.756 792.4 471.53C793.275 471.705 794.15 471.705 795.2 471.705C792.4 474.507 793.275 477.834 793.275 477.834Z" fill="#ADBEC4"/>
<path d="M798.875 476.608L796.6 476.958C795.725 474.682 795.9 472.931 796.6 471.705C797.65 471.53 798.525 471.355 799.575 471.005C797.825 473.807 798.875 476.608 798.875 476.608Z" fill="#ADBEC4"/>
<path d="M582.575 236.903C582.575 236.903 587.65 263.868 577.5 274.549C567.35 285.229 574 276.475 577.15 262.642C580.125 248.81 577.85 234.277 582.575 236.903Z" fill="#CE364C"/>
<path d="M629.125 224.822C629.125 224.822 645.05 230.075 653.275 244.783C653.45 244.783 642.25 220.97 629.125 224.822Z" fill="#CE364C"/>
<path d="M216.125 24.6883C218.225 24.6883 224.35 27.1397 224.35 27.1397C228.9 29.9412 231.35 31.517 234.325 31.6921C237.3 32.0423 238.525 37.1201 238.525 37.1201C238.525 37.1201 250.25 39.7465 250.95 32.2174C250.95 32.2174 244.3 22.9374 243.95 21.7117C243.075 19.2604 244.65 15.4083 242.025 11.206C239.4 7.00376 238.175 0.350159 238.175 0.350159C238.175 0.350159 235.55 -0.525315 235.2 2.10111C234.85 4.72753 236.775 8.22943 236.425 9.45509C236.25 9.63019 236.25 9.80528 236.075 10.1555C235.55 10.8558 234.85 11.3811 234.15 11.3811H233.975C231 11.3811 225.925 7.17886 223.825 5.25281C220.85 2.4513 216.65 -1.22569 215.6 1.22563C214.55 3.67696 217.875 3.50187 223.3 11.0309L222.775 11.7313C223.125 12.2566 217.525 9.45509 212.975 5.95319C209.825 3.50187 209.125 6.47848 209.825 7.70414C210.35 8.92981 213.85 11.0309 216.125 12.7819C217.7 14.0076 219.1 15.2332 220.15 15.9336L219.8 17.1593C212.1 15.4083 210.875 12.6068 209.3 14.1827C207.725 15.7585 212.45 19.0853 214.9 19.6106C215.95 19.7857 217.7 20.8363 219.45 21.8868C213.325 21.7117 211.75 19.7857 210.7 21.3615C209.475 22.9374 214.025 24.6883 216.125 24.6883Z" fill="#FF8B66"/>
<path d="M235.725 19.0854C233.8 15.5835 235.9 10.8559 236.075 10.1555C235.55 10.8559 234.85 11.3812 234.15 11.3812C232.4 16.4589 235.725 19.0854 235.725 19.0854Z" fill="#EF6E4B"/>
<path d="M562.275 24.6883C560.175 24.6883 554.05 27.1397 554.05 27.1397C549.5 29.9412 547.05 31.517 544.075 31.6921C541.1 32.0423 539.875 37.1201 539.875 37.1201C539.875 37.1201 528.15 39.7465 527.45 32.2174C527.45 32.2174 534.1 22.9374 534.45 21.7117C535.325 19.2604 533.75 15.4083 536.375 11.206C539 7.00376 540.225 0.350159 540.225 0.350159C540.225 0.350159 542.85 -0.525315 543.2 2.10111C543.55 4.72753 541.625 8.22943 541.975 9.45509C542.15 9.63019 542.15 9.80528 542.325 10.1555C542.85 10.8558 543.55 11.3811 544.25 11.3811H544.425C547.4 11.3811 552.475 7.17886 554.575 5.25281C557.55 2.4513 561.75 -1.22569 562.8 1.22563C563.85 3.67696 560.525 3.50187 555.1 11.0309L555.625 11.7313C555.275 12.2566 560.875 9.45509 565.425 5.95319C568.575 3.50187 569.275 6.47848 568.575 7.70414C568.05 8.92981 564.55 11.0309 562.275 12.7819C560.7 14.0076 559.3 15.2332 558.25 15.9336L558.6 17.1593C566.3 15.4083 567.525 12.6068 569.1 14.1827C570.675 15.7585 565.95 19.0853 563.5 19.6106C562.45 19.7857 560.7 20.8363 558.95 21.8868C565.075 21.7117 566.65 19.7857 567.7 21.3615C568.925 22.9374 564.375 24.6883 562.275 24.6883Z" fill="#FF8B66"/>
<path d="M542.675 19.0854C544.6 15.5835 542.5 10.8559 542.325 10.1555C542.85 10.8559 543.55 11.3812 544.25 11.3812C546 16.4589 542.675 19.0854 542.675 19.0854Z" fill="#EF6E4B"/>
<path d="M458.85 381.707L436.275 241.631L390.95 246.709L345.625 241.631L323.05 381.707L312.2 517.58C312.2 517.58 315.7 528.786 338.275 521.082C338.275 521.082 355.075 395.014 357.7 392.388C360.325 389.586 386.925 307.291 386.925 307.291H395.325C395.325 307.291 421.925 389.586 424.55 392.388C427.175 395.189 443.975 521.082 443.975 521.082C466.55 528.786 470.05 517.58 470.05 517.58L458.85 381.707Z" fill="#0E3944"/>
<path d="M376.775 105.932C379.575 108.734 393.75 113.812 401.1 105.932L406.175 110.835C406.175 110.835 400.4 124.317 390.425 124.843C380.275 125.368 373.1 112.761 373.1 112.761L376.775 105.932Z" fill="#0C476B"/>
<path d="M416.675 104.532C433.475 97.3527 487.9 77.9172 487.9 77.9172C487.9 77.9172 524.475 32.0423 532 25.2136C532 25.2136 540.05 26.6144 542.5 36.7699C542.5 36.7699 518.875 87.1972 506.1 101.73C493.325 116.088 428.4 147.43 428.4 147.43L416.675 104.532Z" fill="#0C476B"/>
<path d="M357.7 103.481C362.775 100.329 387.8 117.138 387.8 117.138C387.8 117.138 420.525 99.804 428.225 103.131C428.225 103.131 435.225 112.411 437.85 136.224C440.65 160.037 440.825 257.915 440.825 257.915C440.825 257.915 418.775 265.619 389.025 265.619C355.075 265.619 336.875 255.814 336.875 255.814C336.875 255.814 330.925 120.29 357.7 103.481Z" fill="#FFB878"/>
<path d="M378.175 100.855C378.175 100.855 381.85 112.236 378.175 116.613C378.175 116.613 381.85 124.492 388.675 124.843C396.55 125.193 399.175 116.613 399.175 116.613C399.175 116.613 394.975 105.582 399.175 101.73L378.175 100.855Z" fill="#EF6E4B"/>
<path d="M369.075 89.6485C369.075 89.6485 361.375 74.9405 362.95 59.3571C364.525 43.5986 388.15 40.0967 404.075 47.8008C404.075 47.8008 399.35 43.2484 401.275 41.8476C403.2 40.622 406.35 48.8514 406.35 48.8514C406.35 48.8514 411.425 47.2756 412.125 48.8514C412.825 50.4273 407.05 51.3027 407.05 51.3027C407.05 51.3027 417.375 57.0809 407.75 87.3723L369.075 89.6485Z" fill="#8B383E"/>
<path d="M367.85 80.3684C367.85 80.3684 362.25 74.7654 361.55 81.2439C360.675 88.9481 367.675 92.0998 369.075 89.6485C370.475 87.1971 367.85 80.3684 367.85 80.3684Z" fill="#FF8B66"/>
<path d="M407.75 80.7187C407.75 80.7187 413.35 75.1156 414.05 81.5941C414.925 89.2983 407.925 92.45 406.525 89.9987C405.125 87.5474 407.75 80.7187 407.75 80.7187Z" fill="#FF8B66"/>
<path d="M387.275 108.209C374.675 108.209 367.5 99.9791 367.5 75.2908C367.5 62.5089 373.975 54.8047 388.15 54.8047C402.325 54.8047 408.275 62.684 408.275 75.2908C408.1 101.73 400.225 108.209 387.275 108.209Z" fill="#FF8B66"/>
<path d="M404.075 84.0454C404.25 85.2711 403.2 86.4968 401.625 86.8469C400.05 87.1971 398.65 86.3217 398.3 85.096C398.125 83.8703 399.175 82.6447 400.75 82.2945C402.325 81.9443 403.725 82.8198 404.075 84.0454Z" fill="#DB614D"/>
<path d="M378 84.7459C378 85.9715 376.6 87.0221 375.025 86.847C373.45 86.6719 372.225 85.6214 372.225 84.3957C372.225 83.17 373.625 82.1195 375.2 82.2946C376.95 82.2946 378.175 83.5202 378 84.7459Z" fill="#DB614D"/>
<path d="M398.3 71.2636C398.125 71.2636 397.95 71.2636 397.775 71.0885C396.025 69.3375 393.05 69.3375 392.875 69.3375C392.525 69.3375 392.175 69.1624 392.175 68.8123C392.175 68.4621 392.35 68.1119 392.7 68.1119C392.875 68.1119 396.375 67.9368 398.475 70.213C398.65 70.3881 398.65 70.9134 398.475 71.0885L398.3 71.2636Z" fill="#8B383E"/>
<path d="M374.5 71.2636C374.325 71.2636 374.15 71.2636 374.15 71.0885C373.975 70.9134 373.975 70.3881 374.15 70.213C376.25 67.9368 379.75 68.1119 379.925 68.1119C380.275 68.1119 380.625 68.4621 380.45 68.8123C380.45 69.1624 380.1 69.5126 379.75 69.3375C379.75 69.3375 376.6 69.3375 374.85 71.0885C374.85 71.0885 374.675 71.2636 374.5 71.2636Z" fill="#8B383E"/>
<path d="M397.075 77.9171C397.075 79.493 396.375 80.7186 395.5 80.7186C394.625 80.7186 393.925 79.493 393.925 77.9171C393.925 76.3413 394.625 75.1156 395.5 75.1156C396.375 75.1156 397.075 76.3413 397.075 77.9171Z" fill="#1A4850"/>
<path d="M380.275 77.9171C380.275 79.493 379.575 80.7186 378.7 80.7186C377.825 80.7186 377.125 79.493 377.125 77.9171C377.125 76.3413 377.825 75.1156 378.7 75.1156C379.575 75.1156 380.275 76.3413 380.275 77.9171Z" fill="#1A4850"/>
<path d="M380.275 94.7262C380.275 94.7262 391.475 96.127 397.075 93.3254C397.075 93.3254 393.925 100.855 387.8 100.154C381.675 99.6289 380.275 94.7262 380.275 94.7262Z" fill="#1A4850"/>
<path d="M406.875 83.5202C406.875 83.5202 406.525 69.8628 401.1 59.182C401.1 59.182 391.65 63.5594 389.55 62.5088C387.45 61.4583 391.475 59.182 391.475 59.182C391.475 59.182 375.9 64.2598 375.025 63.2092C374.15 62.1587 380.1 59.182 380.1 59.182L370.475 62.5088C370.475 62.5088 367.5 74.9406 368.725 83.5202C368.725 83.5202 364.525 76.3413 364 71.4387C363.475 66.536 365.75 52.3533 380.275 51.3028C394.8 50.2522 403.025 53.579 406.7 60.2326C410.375 67.0613 410.025 75.2908 406.875 83.5202Z" fill="#8B383E"/>
<path d="M389.375 90.699C388.15 90.699 386.925 90.3488 386.575 90.3488L386.925 89.1232C388.325 89.4734 390.25 89.6485 390.775 89.1232C390.95 88.9481 390.95 88.4228 390.6 87.8975C388.85 84.0454 388.325 74.2401 388.325 73.7148H389.725C389.725 73.8899 390.075 83.6953 391.825 87.3722C392.35 88.4228 392.35 89.2983 391.825 89.9987C391.3 90.5239 390.425 90.699 389.375 90.699Z" fill="#DB614D"/>
<path d="M403.375 109.609C403.375 109.609 426.125 180.523 428.4 238.129C428.4 238.129 436.625 240.405 445.9 227.798C455.175 215.192 449.575 115.037 431.9 98.4033C431.9 98.4033 423.85 96.4772 403.375 109.609Z" fill="#105E99"/>
<path d="M407.05 122.041C407.05 122.041 411.075 112.586 409.325 106.107C407.575 99.6289 401.1 106.107 401.1 106.107C401.1 106.107 403.725 116.613 407.05 122.041Z" fill="#0C476B"/>
<path d="M361.2 104.532C344.4 97.3527 289.975 77.9171 289.975 77.9171C289.975 77.9171 253.225 30.8166 245.875 23.9879C245.875 23.9879 236.6 29.2408 236.075 40.0966C236.075 40.0966 259.175 87.3722 271.95 101.905C284.725 116.438 349.65 147.605 349.65 147.605L361.2 104.532Z" fill="#0C476B"/>
<path d="M374.5 109.609C374.5 109.609 351.75 180.523 349.475 238.129C349.475 238.129 341.25 240.405 331.975 227.798C322.7 215.192 328.3 115.037 345.975 98.4033C345.975 98.4033 354.025 96.4772 374.5 109.609Z" fill="#105E99"/>
<path d="M370.825 122.041C370.825 122.041 366.8 112.586 368.55 106.107C370.3 99.6289 376.775 106.107 376.775 106.107C376.775 106.107 374.15 116.613 370.825 122.041Z" fill="#0C476B"/>
<path d="M489.825 554H444.5C441.35 535.965 446.425 517.93 446.425 517.93L467.075 514.428C469 525.81 471.275 530.362 474.425 532.638C476.7 534.389 479.5 534.915 482.825 535.965C486.675 537.366 488.775 539.817 489.825 542.444C491.925 547.872 489.825 554 489.825 554Z" fill="#662C33"/>
<path d="M490 542.619C478.8 544.02 454.3 546.471 455.7 539.992C456.925 534.564 467.25 533.164 474.425 532.813C476.7 534.564 479.5 535.09 482.825 536.14C486.85 537.366 488.95 539.817 490 542.619Z" fill="#8B383E"/>
<path d="M338.1 554H292.775C292.775 554 291.375 549.798 292.075 545.245C292.6 541.568 294.525 537.716 299.775 535.965C303.625 534.564 306.775 534.039 309.225 531.763C311.85 529.312 313.95 524.584 315.525 514.428L336.175 517.93C336.35 517.93 341.25 535.965 338.1 554Z" fill="#662C33"/>
<path d="M292.075 545.245C292.6 541.568 294.525 537.716 299.775 535.965C303.625 534.564 306.775 534.039 309.225 531.763C315 533.514 323.05 536.841 325.5 541.743C328.825 548.572 302.4 547.521 292.075 545.245Z" fill="#8B383E"/>
<path d="M663.425 550.848C663.425 552.774 663.25 554.175 663.25 554.175H608.125C608.125 553.125 608.125 552.074 608.125 550.848C608.825 536.491 613.375 523.884 613.375 523.884L627.2 517.931C628.425 525.109 631.4 529.487 635.25 532.463C636.3 533.339 637.35 533.864 638.4 534.565C638.925 534.915 639.45 535.09 639.975 535.265C641.2 535.79 642.25 536.14 643.475 536.491C648.375 537.891 653.275 538.242 656.6 538.767C662.55 539.817 663.425 546.646 663.425 550.848Z" fill="#164353"/>
<path d="M663.425 550.848C663.425 552.774 663.25 554.175 663.25 554.175H608.125C608.125 553.125 608.125 552.074 608.125 550.848H663.425Z" fill="#225866"/>
<path d="M638.4 534.565L630.7 537.016L629.125 534.214L635.25 532.463C636.3 533.339 637.35 534.039 638.4 534.565Z" fill="#225866"/>
<path d="M643.475 536.666L638.4 540.168L635.25 538.942L639.975 535.44C641.025 535.79 642.25 536.315 643.475 536.666Z" fill="#225866"/>
<path d="M453.075 550.848C452.9 552.774 452.375 554.175 452.375 554.175H415.625C415.1 553.125 414.75 552.074 414.575 550.848C410.9 533.339 435.4 511.802 435.4 511.802L443.1 522.133C443.1 522.133 442.225 538.592 448.7 542.094C452.9 544.195 453.425 548.047 453.075 550.848Z" fill="#164353"/>
<path d="M414.75 550.848H453.075C452.9 552.774 452.375 554.175 452.375 554.175H415.625C415.45 552.95 415.1 551.899 414.75 550.848Z" fill="#225866"/>
<path d="M447.3 540.693C447.3 540.693 431.9 537.191 424.725 541.743V539.292C424.725 539.292 437.85 532.989 447.3 540.693Z" fill="#225866"/>
<path d="M444.15 536.841C444.15 536.841 434.35 532.288 424.725 536.841L425.775 534.214C425.95 534.214 437.325 529.837 444.15 536.841Z" fill="#225866"/>
<path d="M646.8 394.664C646.8 409.372 633.675 529.662 633.675 529.662C620.55 530.888 610.05 528.261 610.05 528.261C606.375 467.328 606.025 414.8 606.025 414.8L543.2 367.699L543.025 367.524C543.025 367.524 542.85 368.575 542.325 370.501C539.175 384.333 526.05 442.115 520.625 455.422C514.325 470.48 446.25 533.864 446.25 533.864C433.65 532.113 422.8 523.008 422.8 523.008C447.3 482.386 480.725 441.589 480.725 441.589C483.35 426.881 485.275 394.314 486.325 369.975C486.325 369.625 486.325 369.275 486.325 368.925C487.025 352.466 487.375 340.034 487.375 340.034L475.825 316.396L548.975 289.607L565.425 310.618C565.425 310.618 569.1 314.12 575.05 319.723C575.4 319.898 575.575 320.249 575.925 320.424C597.975 341.435 646.8 388.185 646.8 394.664Z" fill="#8BBDDB"/>
<path d="M486.5 370.326C486.5 369.975 486.5 369.625 486.5 369.275C501.9 360.871 499.275 347.563 499.275 347.388L500.15 347.213C500.325 347.388 503.125 361.746 486.5 370.326Z" fill="#6097B2"/>
<path d="M542.325 358.594C542.85 361.571 543.2 364.723 543.375 368.049L543.2 367.874C543.2 367.874 543.025 368.925 542.5 370.851C541.8 347.914 532.35 334.431 532.35 334.256L533.225 333.731C533.4 333.906 539.35 342.486 542.15 357.369C553.35 347.563 542.325 327.252 542.325 327.077L543.2 326.552C543.2 326.902 554.75 348.264 542.325 358.594Z" fill="#6097B2"/>
<path d="M576.1 320.599C575.575 320.774 575.05 320.949 574.525 320.949C569.1 320.949 560.175 313.42 559.65 313.07L560.35 312.369C563.325 314.821 571.55 320.774 575.4 319.898C575.575 320.073 575.75 320.424 576.1 320.599Z" fill="#6097B2"/>
<path d="M481.25 190.853C481.25 190.853 503.475 187.351 514.675 194.355C525.875 201.534 540.4 219.919 540.4 219.919C540.4 219.919 523.075 222.195 521.15 233.927C521.15 234.102 508.55 204.161 481.25 190.853Z" fill="#ADBEC4"/>
<path d="M447.825 202.585C438.375 207.663 422.625 226.748 421.925 238.479C421.225 249.86 429.625 260.541 435.4 269.471C453.25 297.486 471.975 322.175 480.025 354.917C480.025 355.092 520.8 371.376 568.575 313.77C568.575 313.77 541.625 277.35 532.175 246.359C528.325 233.752 524.475 220.444 517.125 209.238C509.075 196.982 495.25 189.803 481.075 191.029C469.175 191.904 457.1 197.507 447.825 202.585Z" fill="#CFD8DC"/>
<path d="M443.975 190.853C443.975 190.853 449.925 201.184 447.125 206.787C447.125 206.787 467.775 213.966 467.775 202.41C467.775 202.41 463.925 193.83 465.325 188.227L443.975 190.853Z" fill="#EF6E4B"/>
<path d="M489.825 261.242C489.825 261.242 478.275 264.568 475.475 268.596C472.5 272.623 470.05 281.728 470.05 281.728H489.825L493.5 274.899L497.875 265.794L489.825 261.242Z" fill="#EF6E4B"/>
<path d="M470.75 179.297C470.75 179.297 478.8 175.97 473.55 151.632C470.05 135.523 465.15 133.247 461.825 133.072C461.825 133.072 457.975 127.119 444.325 129.92C435.05 131.846 427.525 137.625 424.2 148.13C420.7 159.161 427.7 182.624 436.625 184.9L470.75 179.297Z" fill="#164353"/>
<path d="M472.675 162.838C472.675 162.838 477.75 155.835 479.675 162.663C481.95 170.718 474.95 175.27 473.025 172.994C471.275 170.718 472.675 162.838 472.675 162.838Z" fill="#FF8B66"/>
<path d="M430.15 170.367C430.15 170.367 423.15 165.29 423.5 172.468C424.025 180.873 432.075 182.974 432.95 179.998C434 177.196 430.15 170.367 430.15 170.367Z" fill="#FF8B66"/>
<path d="M456.925 196.106C470.4 193.83 476.525 183.85 472.15 157.41C469.875 143.753 461.65 136.574 446.425 139.025C431.375 141.477 426.3 150.932 428.575 164.589C433.475 192.955 442.925 198.382 456.925 196.106Z" fill="#FF8B66"/>
<path d="M434.7 173.169C434.7 174.57 436.1 175.795 437.85 175.795C439.6 175.795 441 174.745 441 173.344C441 171.943 439.6 170.718 437.85 170.718C436.1 170.718 434.7 171.768 434.7 173.169Z" fill="#DB614D"/>
<path d="M462.525 169.492C462.875 170.893 464.45 171.593 466.2 171.243C467.95 170.893 469 169.492 468.65 168.091C468.3 166.69 466.725 165.99 464.975 166.34C463.4 166.69 462.35 168.091 462.525 169.492Z" fill="#DB614D"/>
<path d="M438.55 158.461C438.375 158.461 438.2 158.461 438.2 158.286C437.85 158.111 437.85 157.585 438.025 157.41C439.95 154.609 443.625 154.083 443.8 154.083C444.15 154.083 444.5 154.259 444.5 154.609C444.5 154.959 444.325 155.309 443.975 155.309C443.975 155.309 440.65 155.834 439.075 158.111C438.9 158.461 438.725 158.461 438.55 158.461Z" fill="#1A4850"/>
<path d="M463.925 154.259C463.75 154.259 463.575 154.259 463.575 154.084C461.475 152.508 458.15 153.033 458.15 153.033C457.8 153.033 457.45 152.858 457.275 152.508C457.275 152.158 457.45 151.807 457.8 151.632C457.975 151.632 461.65 150.932 464.45 152.858C464.8 153.033 464.8 153.558 464.625 153.733C464.275 154.259 464.1 154.259 463.925 154.259Z" fill="#1A4850"/>
<path d="M441 165.465C441.35 167.216 442.225 168.441 443.1 168.266C443.975 168.091 444.5 166.69 444.325 164.939C443.975 163.188 443.1 161.963 442.225 162.138C441.175 162.313 440.65 163.889 441 165.465Z" fill="#1A4850"/>
<path d="M459.025 162.488C459.375 164.239 460.25 165.465 461.125 165.29C462 165.115 462.525 163.714 462.35 161.963C462 160.212 461.125 158.986 460.25 159.161C459.2 159.336 458.675 160.912 459.025 162.488Z" fill="#1A4850"/>
<path d="M464.1 177.721C464.1 177.721 452.375 180.873 445.9 179.647C445.9 179.647 450.45 185.25 456.75 183.675C463.225 181.924 464.1 177.721 464.1 177.721Z" fill="#1A4850"/>
<path d="M464.625 145.154C464.625 145.154 449.4 156.185 430.325 157.06L430.85 174.044C430.85 174.044 413 141.126 448.35 135.348C483.525 129.57 473.375 166.165 473.375 166.165C473.375 166.165 472.15 150.406 464.625 145.154Z" fill="#0E3944"/>
<path d="M452.2 173.169L452.025 171.768C452.025 171.768 454.125 171.593 454.65 170.367C454.825 169.842 453.95 168.266 453.25 166.69C452.2 164.589 450.8 162.138 450.275 159.336L451.675 158.986C452.2 161.613 453.425 164.064 454.475 165.99C455.525 168.091 456.4 169.667 455.875 170.893C455.175 172.994 452.2 173.169 452.2 173.169Z" fill="#DB614D"/>
<path d="M472.85 145.154C447.3 133.948 423.15 157.06 423.15 157.06C423.15 157.06 420.35 138.325 425.25 133.948C426.475 132.722 427.875 131.846 429.275 130.971C440.65 123.792 455.7 123.967 462.525 126.419C463.925 126.944 464.975 127.469 465.675 128.169C469.7 132.372 472.85 145.154 472.85 145.154Z" fill="#CE364C"/>
<path d="M469.7 140.951C469.7 140.951 448.175 136.749 428.225 150.056C428.225 150.056 427 137.975 429.275 130.971C440.65 123.792 455.7 123.967 462.525 126.419C466.55 130.971 469.7 140.951 469.7 140.951Z" fill="#CFD8DC"/>
<path d="M425.25 154.959C425.25 154.959 428.575 140.426 433.3 136.399C441 129.57 462.35 127.294 473.725 131.321C485.1 135.348 473.725 147.78 473.725 147.78C473.725 147.78 455.7 134.823 425.25 154.959Z" fill="#A02E44"/>
<path d="M458.5 251.086C458.5 251.086 467.25 264.743 482.3 272.798C482.3 272.798 501.025 256.514 525.35 257.915C525.35 257.915 505.225 294.159 487.9 298.187C478.8 300.288 445.9 278.576 445.9 278.576C445.9 278.576 452.375 255.639 458.5 251.086Z" fill="#FF8B66"/>
<path d="M426.125 226.398C434.175 213.266 452.725 232.701 459.025 246.534C465.325 260.366 469.875 263.343 469.875 263.343C469.875 263.343 451.325 271.047 451.5 285.054C451.5 285.054 408.45 255.113 426.125 226.398Z" fill="#ADBEC4"/>
<path d="M482.125 266.845C482.125 266.845 493.5 255.814 530.6 241.281L525.875 226.223C530.075 220.62 537.95 220.62 537.95 220.62C537.95 220.62 557.025 247.584 553.7 255.463C551.6 260.541 511.875 265.794 482.125 266.845Z" fill="#EF6E4B"/>
<path d="M522.9 244.958C522.9 244.958 523.25 243.382 524.65 241.456C526.05 239.53 525.7 236.028 526.225 234.977C526.75 233.927 529.725 229.374 531.65 228.499C533.575 227.623 536.2 226.223 536.725 228.674C537.25 231.125 533.225 230.425 531.475 233.927C531.475 233.927 535.5 232.701 538.475 233.402C541.625 234.102 542.5 237.079 538.65 236.903C535.5 236.903 531.65 239.005 531.65 239.005C531.65 239.005 535.675 239.53 534.975 241.456C533.75 243.907 528.85 242.331 522.9 244.958Z" fill="#FF8B66"/>
<path d="M248.15 295.56C251.475 304.14 265.125 318.673 265.125 318.673C265.125 318.673 298.375 298.712 313.6 307.116C329 315.521 341.075 320.599 351.05 316.922C361.025 313.245 318.325 235.678 318.325 235.678L263.025 214.491C263.025 214.491 261.8 228.499 255.5 230.95C249.2 233.401 242.375 256.514 242.9 260.891C243.425 265.444 248.15 295.56 248.15 295.56Z" fill="#3E6575"/>
<path d="M310.45 319.023C310.45 319.023 296.275 347.038 266.7 382.757C266.7 382.757 263.725 425.305 185.85 492.367L177.625 485.888C177.625 485.888 224 413.224 233.275 390.987C242.55 368.75 228.2 348.264 270.725 292.058L310.45 319.023Z" fill="#EF6E4B"/>
<path d="M264.95 269.646C252.7 293.109 248.5 323.225 248.5 323.225L242.9 337.408C242.9 337.408 262.675 348.088 285.6 351.941L294.7 327.602L264.95 269.646Z" fill="#662C33"/>
<path d="M329 316.922C329 316.922 335.125 347.738 334.075 393.963C334.075 393.963 358.05 429.333 338.275 530.012H327.95C327.95 530.012 319.55 444.216 313.075 421.103C306.6 397.815 282.625 390.812 281.4 320.073L329 316.922Z" fill="#FF8B66"/>
<path d="M335.125 349.84C335.125 349.84 315.7 353.341 281.225 351.766L280.7 347.913L280.525 346.863L277.025 321.824C277.025 321.824 273.7 317.797 270.375 311.144C270.025 310.443 269.5 309.568 269.15 308.692C264.6 298.887 260.4 284.529 264.95 269.646L272.125 269.996H273.175L297.5 271.047H298.55L306.6 271.397H307.825L313.075 271.572C313.075 271.572 339.325 295.21 334.6 338.984L334.95 345.112V346.163L335.125 349.84Z" fill="#8B383E"/>
<path d="M273.175 269.996C272.475 271.922 267.925 286.805 270.2 311.144C269.85 310.443 269.325 309.568 268.975 308.692C267.225 286.455 271.25 272.623 272.125 269.821C272.3 269.471 272.3 269.296 272.3 269.296L273.175 269.646C273.35 269.821 273.35 269.821 273.175 269.996Z" fill="#662C33"/>
<path d="M334.95 346.338C328.125 348.089 316.4 348.614 305.2 348.614C295.225 348.614 285.775 348.264 280.7 347.913L280.525 346.863C289.275 347.213 312.2 348.264 327.075 346.513L326.2 330.929C326.375 312.719 320.95 297.136 315.525 286.28C302.05 283.829 298.375 273.848 297.5 271.047C297.325 270.522 297.325 270.346 297.325 270.346L298.2 270.171C298.2 270.171 298.2 270.522 298.375 271.047C299.25 274.023 302.925 282.603 314.825 285.054C311.15 278.051 307.825 273.148 306.425 271.397C306.075 270.872 305.725 270.522 305.725 270.522L306.425 269.821C306.425 269.821 306.95 270.346 307.65 271.397C312.2 277.525 327.425 300.638 326.9 330.754L327.775 346.338C330.4 345.987 332.675 345.637 334.6 345.112L334.95 346.338Z" fill="#662C33"/>
<path d="M285.25 164.239C277.55 160.037 221.725 181.923 221.725 181.923C221.725 181.923 213.5 196.631 218.575 202.41C223.65 208.188 242.025 205.561 247.45 202.41C253.05 199.258 267.75 196.807 267.75 196.807L285.25 164.239Z" fill="#8BBDDB"/>
<path d="M334.425 117.664C334.425 117.664 345.975 122.041 350.175 135.348C354.375 148.655 341.775 182.274 346.15 197.682C350.525 213.09 349.825 242.331 336.175 248.46C322.525 254.588 294.7 243.557 288.75 226.748C282.8 209.939 285.425 146.029 296.8 124.317C308.525 102.781 331.8 113.637 334.425 117.664Z" fill="#F24052"/>
<path d="M321.3 174.92C324.275 178.247 332.15 172.293 332.15 172.293C332.15 172.293 331.975 201.184 323.575 203.46C315.175 205.736 293.65 180.698 294.525 173.869C295.4 167.216 314.475 167.741 321.3 174.92Z" fill="#8BBDDB"/>
<path d="M288.925 167.741C288.925 167.741 297.5 174.92 312.2 178.422C327.075 181.924 335.125 174.92 342.65 184.375C354.025 198.733 335.475 225.172 325.85 238.829C322.175 243.907 314.475 258.09 313.075 271.747C313.075 271.747 287.35 279.276 265.125 269.471L263.55 237.954C263.375 238.129 249.375 195.581 288.925 167.741Z" fill="#0E3944"/>
<path d="M315.525 198.382C315.525 198.382 327.25 170.367 330.75 168.616C334.075 166.865 342.825 171.068 344.575 174.92C346.325 178.772 344.575 187.176 344.575 187.176C344.575 187.176 335.125 176.671 315.525 198.382Z" fill="#8BBDDB"/>
<path d="M371.7 316.922C366.275 327.953 353.325 330.929 353.325 330.929C353.325 330.929 352.275 329.353 350.7 326.727C350.525 326.377 350.35 326.202 350.175 325.851C339.85 309.042 308.35 255.638 308.875 227.623C309.575 194.355 331.275 176.145 331.275 176.145C342.3 178.772 345.8 181.748 345.8 181.748C345.8 181.748 349.475 200.659 346.15 223.421C342.825 246.183 336.525 252.137 339.675 253.887C342.825 255.638 339.675 258.965 339.675 258.965C339.675 258.965 357.875 284.529 361.375 292.408C363.65 297.661 367.325 306.416 369.775 311.844C369.95 312.194 370.125 312.544 370.3 312.894C371 315.346 371.7 316.922 371.7 316.922Z" fill="#6097B2"/>
<path d="M340.025 181.748C340.025 181.748 326.9 191.379 334.6 206.262L370.825 243.907C350.875 265.094 348.95 273.848 334.6 283.654L340.025 292.058C340.025 292.058 390.425 253.362 390.6 243.907C390.425 239.88 359.625 191.028 340.025 181.748Z" fill="#FF8B66"/>
<path d="M333.725 283.654C333.725 283.654 326.725 284.354 322.525 285.58C318.15 286.63 312.375 287.681 312.2 288.731C312.025 289.607 321.825 288.731 321.825 288.731C321.825 288.731 313.775 292.058 313.6 293.284C313.425 294.51 323.75 292.408 323.75 292.408C323.75 292.408 317.275 296.436 317.625 297.486C317.975 298.537 326.025 295.91 326.025 295.91C326.025 295.91 324.45 299.762 323.05 301.513C323.05 301.513 324.625 302.389 327.775 298.887C330.925 295.385 336 296.436 340.025 293.459C343.875 289.957 337.4 283.128 333.725 283.654Z" fill="#FF8B66"/>
<path d="M296.625 172.468C296.625 172.468 286.65 178.947 280.35 194.53C274.05 210.114 254.275 239.355 249.55 246.884C244.825 254.413 248.15 295.56 248.15 295.56C248.15 295.56 242.375 270.697 239.75 260.891C237.125 251.086 248.15 227.098 249.725 225.872C251.3 224.647 259.875 226.923 258.125 217.118C256.375 207.312 279.125 165.289 285.075 164.239C285.25 164.239 294.875 165.99 296.625 172.468Z" fill="#6097B2"/>
<path d="M265.825 174.57C265.65 174.92 265.475 175.27 265.3 175.62C263.025 178.947 258.825 181.398 258.825 181.398C258.825 181.398 251.3 192.079 251.125 193.305C251.125 194.355 238 203.81 232.05 203.635C231.175 203.635 230.65 203.46 230.125 202.935C226.625 199.608 241.85 172.293 245.175 166.34C245.35 165.99 245.525 165.64 245.7 165.465C245.7 165.29 245.875 165.29 245.875 165.29C245.875 165.29 243.25 155.309 254.45 157.235C263.725 158.811 265.65 166.165 266.525 171.068C266.7 172.118 266.525 173.344 265.825 174.57Z" fill="#6097B2"/>
<path d="M226.8 184.9C234.5 174.745 261.625 155.134 275.8 149.356L279.3 156.009C279.3 156.009 251.825 180.173 245.35 190.503C238.875 200.834 230.825 205.211 223.3 201.709C215.6 198.382 225.225 187.001 226.8 184.9Z" fill="#FF8B66"/>
<path d="M263.2 172.468L261.8 174.219L261.1 175.095L258.65 177.896C258.65 177.896 252.525 185.25 252.875 188.227C253.05 190.328 241.325 199.783 232.225 203.81C228.55 205.386 225.225 206.087 223.3 205.036C216.65 201.184 218.225 189.803 221.9 182.099C225.225 175.27 239.575 166.69 243.25 164.414C243.775 164.064 243.95 163.889 244.125 163.889L245.525 158.461C245.525 158.461 250.6 155.484 254.45 157.235C254.45 157.235 245.7 157.585 247.1 161.087C248.675 164.239 260.75 172.293 263.2 172.468Z" fill="#8BBDDB"/>
<path d="M294.875 144.453C286.125 148.13 287.35 156.009 279.3 156.009C274.225 156.009 273.7 150.231 273.7 150.231C275.975 145.329 277.375 137.099 277.725 133.072C278.075 129.045 279.3 130.621 279.3 130.621C279.3 130.271 279.3 129.92 279.3 129.57C279.125 126.944 278.775 125.018 280.525 126.068C282.45 127.294 283.15 134.823 283.15 134.823C284.725 123.792 282.275 122.216 284.2 123.092C286.825 124.492 286.825 134.123 286.825 134.473C288.925 127.994 288.4 124.492 289.8 125.893C291.2 127.294 289.1 139.025 288.225 143.403C288.05 144.453 287.875 144.979 287.875 144.979C294.875 141.652 294.875 144.453 294.875 144.453Z" fill="#FF8B66"/>
<path d="M288.225 143.578C288.05 144.628 287.875 145.154 287.875 145.154C287.875 145.154 284.725 144.803 282.275 148.305C282.275 148.305 282.975 143.578 288.225 143.578Z" fill="#EF6E4B"/>
<path d="M279.825 138.5C279.825 137.625 280.35 132.197 279.3 130.621C279.3 130.271 279.3 129.92 279.3 129.57C281.225 130.095 280 137.449 279.825 138.5Z" fill="#EF6E4B"/>
<path d="M285.25 184.9C285.25 184.9 291.2 168.791 293.125 165.114C295.05 161.437 304.85 162.138 312.375 163.539C319.9 164.939 321.3 174.92 321.3 174.92C321.3 174.92 298.55 164.239 285.25 184.9Z" fill="#8BBDDB"/>
<path d="M323.575 153.208C323.575 153.208 316.4 166.34 316.575 181.048C316.575 181.048 305.025 188.927 300.825 179.122C300.825 179.122 305.2 166.165 303.1 148.831C301.7 136.924 323.575 153.208 323.575 153.208Z" fill="#EF6E4B"/>
<path d="M300.825 134.998C300.825 134.998 298.725 127.469 294.875 132.722C290.5 138.85 294.875 144.803 297.325 143.403C299.6 142.002 300.825 134.998 300.825 134.998Z" fill="#FF8B66"/>
<path d="M334.425 154.259C334.425 154.259 341.95 152.157 339.325 158.111C336.35 165.114 329 164.239 329 161.613C329 158.986 334.425 154.259 334.425 154.259Z" fill="#FF8B66"/>
<path d="M303.975 167.916C293.3 161.963 291.2 151.457 302.925 130.446C309.05 119.59 318.325 116.088 330.225 122.741C342.3 129.57 343.525 139.025 337.4 149.881C324.8 172.468 315 174.044 303.975 167.916Z" fill="#FF8B66"/>
<path d="M329.7 155.309C329.35 156.535 327.775 157.06 326.2 156.535C324.8 156.01 323.925 154.609 324.275 153.383C324.625 152.157 326.2 151.632 327.775 152.157C329.35 152.858 330.225 154.083 329.7 155.309Z" fill="#DB614D"/>
<path d="M307.3 143.578C306.6 144.628 305.025 144.803 303.625 143.928C302.225 143.052 301.875 141.477 302.4 140.426C303.1 139.375 304.675 139.2 306.075 140.076C307.475 140.951 308 142.527 307.3 143.578Z" fill="#DB614D"/>
<path d="M331.275 141.827C330.925 141.827 330.75 141.652 330.75 141.301C330.225 138.85 327.425 137.449 327.425 137.449C327.075 137.274 327.075 136.924 327.25 136.574C327.425 136.224 327.775 136.224 328.125 136.399C328.3 136.399 331.275 138.15 331.975 140.951C331.975 141.301 331.8 141.652 331.275 141.827Z" fill="#1A4850"/>
<path d="M316.575 131.321C316.4 131.321 316.4 131.321 316.225 131.146C316.225 131.146 313.6 129.57 311.325 130.271C310.975 130.446 310.625 130.271 310.625 129.92C310.45 129.57 310.625 129.22 310.975 129.22C313.775 128.345 316.75 130.095 316.925 130.095C317.275 130.271 317.275 130.621 317.1 130.971C316.925 131.146 316.75 131.321 316.575 131.321Z" fill="#1A4850"/>
<path d="M326.9 146.905C326.2 148.305 324.975 149.006 324.275 148.48C323.575 148.13 323.575 146.73 324.275 145.329C324.975 143.928 326.2 143.228 326.9 143.753C327.6 144.103 327.6 145.504 326.9 146.905Z" fill="#1A4850"/>
<path d="M311.85 138.85C311.15 140.251 309.925 140.951 309.225 140.426C308.525 140.076 308.525 138.675 309.225 137.274C309.925 135.874 311.15 135.173 311.85 135.698C312.55 136.049 312.55 137.449 311.85 138.85Z" fill="#1A4850"/>
<path d="M306.6 152.508C306.6 152.508 312.725 157.235 317.275 157.41C317.275 157.41 312.55 161.262 309.225 158.811C305.725 156.185 306.6 152.508 306.6 152.508Z" fill="#1A4850"/>
<path d="M323.575 144.103C323.575 144.103 326.375 141.301 327.6 142.352C328.825 143.228 328.125 146.729 328.125 146.729H330.575L328.475 145.854C328.475 145.854 329.175 142.352 327.95 141.652C326.2 140.776 323.575 144.103 323.575 144.103Z" fill="#1A4850"/>
<path d="M312.9 138.675C312.9 138.675 313.775 134.823 312.375 134.298C310.975 133.772 308.35 136.049 308.35 136.049L306.95 133.948L308.7 135.348C308.7 135.348 311.325 132.897 312.55 133.772C314.65 134.648 312.9 138.675 312.9 138.675Z" fill="#1A4850"/>
<path d="M333.2 127.294C333.2 127.294 329.35 121.866 324.1 126.243C318.85 130.446 306.775 137.274 301 134.998C295.05 132.722 313.95 107.683 330.225 115.037C346.5 122.391 345.1 146.379 338.275 153.908C331.45 161.437 334.775 154.434 334.775 154.434C334.775 154.434 335.3 143.578 337.575 136.574C339.5 129.22 333.2 127.294 333.2 127.294Z" fill="#F24052"/>
<path d="M315 150.056C314.65 150.056 314.475 150.056 314.125 149.881L314.475 148.656C315.525 149.006 316.05 148.48 316.4 147.955C316.75 147.255 316.75 146.554 316.4 146.204C316.225 146.029 315.875 146.029 315.525 146.204L314.825 144.979C316.225 144.278 316.925 144.803 317.275 145.154C317.975 145.854 318.15 147.43 317.45 148.48C316.925 149.531 316.05 150.056 315 150.056Z" fill="#DB614D"/>
<path d="M393.575 242.331C392.875 251.786 369.6 282.428 365.75 283.479C364.7 283.829 363.65 284.354 362.775 285.054C362.425 285.405 361.9 285.58 361.55 285.93C359.275 287.681 357.7 289.782 357.7 289.782C350.875 289.257 331.8 280.502 337.925 278.576C338.275 278.401 338.625 278.226 339.15 277.875C339.325 277.7 339.675 277.525 340.025 277.175C347.2 271.047 361.375 246.534 361.375 244.607C361.375 242.506 363.825 242.156 363.825 242.156C363.825 242.156 350.525 222.721 342.825 220.269C335.125 217.993 331.275 208.538 331.275 208.538C323.75 176.32 345.8 181.398 345.8 181.398C362.075 191.554 394.275 232.876 393.575 242.331Z" fill="#8BBDDB"/>
<path d="M362.775 285.054C362.425 285.405 361.9 285.58 361.55 285.93C351.05 285.23 342.3 280.152 339.15 277.876C339.325 277.7 339.675 277.525 340.025 277.175C343.35 279.626 352.275 284.704 362.775 285.054Z" fill="#3E6575"/>
<path d="M265.825 174.569C265.65 174.92 265.475 175.27 265.3 175.62C263.725 175.62 262.325 175.445 261.1 175.095C254.275 173.694 248.85 169.842 245.35 166.515C244.475 165.815 243.775 164.939 243.25 164.239C243.775 163.889 243.95 163.714 244.125 163.714C244.65 164.239 245.175 164.939 245.875 165.465C249.375 168.791 254.8 172.819 261.8 174.044C263.025 174.394 264.425 174.569 265.825 174.569Z" fill="#3E6575"/>
<path d="M370.125 313.07C366.975 318.497 361.025 324.976 350.7 326.727C350.525 326.377 350.35 326.202 350.175 325.851C360.85 324.276 366.625 317.272 369.775 312.019C369.775 312.369 369.95 312.719 370.125 313.07Z" fill="#3E6575"/>
<path d="M193.2 489.915C193.2 489.915 190.75 492.367 188.3 496.744C185.85 501.121 188.475 505.149 176.4 515.304C176.4 515.304 151.725 500.946 140.525 482.211C140.525 482.211 140.7 476.958 146.125 475.733C149.1 475.032 156.975 478.884 164.675 480.285C165.725 480.46 166.775 480.635 168 480.81C169.4 480.985 170.625 480.985 171.85 480.81C173.075 480.635 174.125 480.46 175.175 479.935C177.8 478.884 179.9 476.783 180.95 473.106C180.95 473.106 187.425 476.783 183.05 483.087C183.05 483.087 190.75 479.76 193.2 489.915Z" fill="#CFD8DC"/>
<path d="M176.4 515.304C176.4 515.304 151.725 500.946 140.525 482.211C140.525 482.211 144.725 481.336 148.05 487.464C151.55 493.767 178.325 507.775 176.4 515.304Z" fill="#ADBEC4"/>
<path d="M176.4 486.238C174.475 489.39 174.475 483.612 171.85 480.81C173.075 480.635 174.125 480.46 175.175 479.935C176.4 481.161 177.975 483.612 176.4 486.238Z" fill="#ADBEC4"/>
<path d="M168.7 486.413C166.6 488.339 165.9 483.262 164.675 480.46C165.725 480.635 166.775 480.81 168 480.985C169.05 482.386 170.275 484.838 168.7 486.413Z" fill="#ADBEC4"/>
<path d="M344.925 554H310.1C310.1 554 308.7 549.097 310.1 543.845C310.8 541.568 314.3 539.292 317.625 536.315C318.5 535.44 319.375 534.564 320.25 533.689C320.95 532.989 321.475 532.113 322 531.063C322.7 530.012 323.225 528.786 323.4 527.386C323.925 524.759 323.75 521.607 322.175 517.93C322.175 517.93 334.075 515.479 338.275 521.958C338.275 521.958 338.625 518.981 342.475 520.907C342.475 520.907 341.95 526.86 342.65 531.938C343.525 537.016 348.25 538.417 344.925 554Z" fill="#CFD8DC"/>
<path d="M335.825 532.989C335.475 533.339 335.125 533.514 334.6 533.514C334.25 533.514 333.9 533.339 333.55 533.164C331.8 531.763 327.775 529.487 322 531.063C322.7 530.012 323.225 528.786 323.4 527.386C325.675 526.51 330.05 525.985 335.475 530.712C336.35 531.238 336.525 532.288 335.825 532.989Z" fill="#ADBEC4"/>
<path d="M333.025 538.767L332.85 539.117C332.325 539.817 331.45 539.992 330.75 539.642C328.3 538.241 323.05 535.615 317.8 536.315C318.675 535.44 319.55 534.564 320.425 533.689C323.05 533.164 327.95 532.813 332.675 536.666C333.2 537.191 333.375 538.066 333.025 538.767Z" fill="#ADBEC4"/>
</g>
<defs>
<clipPath id="clip0_403_3426">
<rect width="826" height="554" fill="white"/>
</clipPath>
</defs>
</svg>
