<svg width="155" height="116" viewBox="0 0 155 116" fill="none" xmlns="http://www.w3.org/2000/svg">
<path d="M57.893 5.45528C56.4298 5.96787 54.9666 6.48045 53.5034 6.99303C53.4362 7.04238 53.3775 7.10281 53.3046 7.14245C45.8136 11.2357 42.1431 18.3698 43.2313 26.822C43.3281 27.5742 43.0794 27.8421 42.4285 28.0678C37.3314 29.8299 32.2429 31.6101 27.1618 33.4183C26.4652 33.667 26.066 33.5393 25.6312 32.9477C22.9556 29.3228 20.2301 25.7365 17.5587 22.1102C16.9178 21.2387 16.1744 20.6238 15.0986 20.4468C10.6045 22.0212 6.11036 23.5955 1.61625 25.1699C0.543999 26.5171 0.400176 27.654 1.16643 28.7092C1.96698 29.8087 3.00214 30.0304 4.65211 29.4547C7.52489 28.4507 10.4013 27.4571 13.2646 26.4259C13.8547 26.2145 14.2286 26.2971 14.6076 26.8097C16.576 29.4808 18.563 32.1383 20.5645 34.7836C20.9899 35.3481 20.9035 35.6106 20.2345 35.838C18.033 36.581 15.8463 37.3729 13.6499 38.1306C13.0193 38.3468 12.5239 38.7081 12.1774 39.273C11.5424 40.3075 11.8525 41.3065 12.3281 42.2758C14.0218 45.7236 15.7348 49.16 17.4382 52.6022C19.3367 56.4406 21.2318 60.2826 23.1261 64.1225C25.2423 68.4081 27.357 72.6964 29.4732 76.9819C31.601 81.2939 33.728 85.6038 35.8613 89.9115C36.8549 91.9173 37.7493 93.9813 38.8908 95.9C40.588 98.7482 43.2461 99.8447 46.5095 99.5604C55.4977 96.4117 64.486 93.263 73.4742 90.1143C73.5836 90.0314 73.6915 89.9443 73.8038 89.8627C76.5307 87.8795 77.6547 85.2399 77.0219 81.9061C76.7645 80.5483 76.4394 79.2048 76.145 77.8553C74.9375 72.2916 73.7392 66.7271 72.5226 61.1642C71.2133 55.1691 69.8831 49.1814 68.5759 43.1856C68.262 41.7467 68.2851 41.7457 69.6246 41.1614C69.9036 41.0402 70.1646 40.8807 70.4357 40.7435C77.2969 37.251 81.4122 29.7851 80.6621 22.1908C79.8954 14.4286 74.5403 7.98512 67.0966 5.82878C64.0522 4.94975 60.9865 4.92071 57.893 5.45528ZM52.6282 91.8714C52.6319 91.9288 52.6384 91.9876 52.642 92.0449C50.4786 92.8028 48.3335 93.613 46.1472 94.2991C44.8129 94.7172 43.81 94.226 43.1851 92.9782C41.1457 88.8981 39.1389 84.8042 37.1154 80.7162C33.1913 72.7905 29.2665 64.8627 25.3327 56.9427C25.0349 56.3407 25.1824 56.0449 25.8026 55.8323C28.3426 54.9637 30.8761 54.0762 33.4022 53.1678C33.9505 52.971 34.2661 53.135 34.5915 53.5749C37.1452 57.0195 39.7059 60.457 42.295 63.8752C42.7282 64.4486 42.7329 64.7567 42.094 65.1706C40.3115 66.3325 38.562 67.5485 36.8168 68.77C35.5221 69.6765 35.1719 71.1556 36.002 72.3996C37.8442 75.1595 39.7092 77.9043 41.6104 80.6248C42.509 81.9105 43.9388 82.1465 45.2696 81.3165C45.9268 80.908 46.5516 80.4474 47.1929 80.0138C48.0735 79.419 48.9555 78.8284 49.8555 78.2222C50.0379 78.6088 49.8983 78.8736 49.8498 79.1371C49.2908 82.1303 48.7065 85.1183 48.1665 88.1119C47.8467 89.8855 48.6787 91.0748 50.4363 91.4495C51.1644 91.6051 51.899 91.7326 52.6282 91.8714ZM44.5699 32.72C49.3211 31.0555 54.0788 29.4029 58.8212 27.7134C59.5681 27.4471 59.8947 27.6424 60.0523 28.3805C60.654 31.19 61.262 33.9974 61.8965 36.8001C62.0602 37.5219 61.8035 37.8277 61.1235 38.0636C53.0497 40.8685 44.9812 43.695 36.9222 46.5417C36.2519 46.7788 35.8619 46.6503 35.452 46.0898C33.6708 43.6583 31.853 41.256 30.0511 38.8387C29.4447 38.0256 29.448 38.015 30.3928 37.684C35.1176 36.0312 39.8438 34.3756 44.5699 32.72ZM51.0241 67.5502C51.6183 67.6518 51.9405 67.7009 52.2644 67.7611C55.3096 68.3347 58.355 68.9153 61.4002 69.4819C63.3959 69.8529 64.5264 69.0673 64.9079 67.068C65.3833 64.5664 65.8538 62.0641 66.3299 59.5646C66.3804 59.2935 66.4457 59.0242 66.5039 58.755C66.8725 59.6397 67.0502 60.5021 67.2384 61.3608C68.7859 68.4646 70.3389 75.5641 71.8823 82.6693C72.2422 84.3198 71.6975 85.3508 70.1211 85.9288C68.1978 86.6354 66.2512 87.2751 64.3292 87.9789C63.6159 88.2405 63.5971 87.9655 63.7129 87.3852C64.0754 85.5661 64.4134 83.744 64.7456 81.9191C65.1361 79.7711 64.3776 78.678 62.2195 78.2653C59.2563 77.6981 56.2912 77.1457 53.3293 76.5758C53.1052 76.5322 52.8331 76.5994 52.655 76.3591C52.719 76.2873 52.7642 76.2152 52.8279 76.1694C54.9481 74.5912 55.111 73.6025 53.6153 71.383C52.7984 70.1766 51.9808 68.9681 51.0241 67.5502ZM48.5312 63.2207C48.46 63.2385 48.386 63.2551 48.3148 63.273C47.6549 62.3941 46.9908 61.5167 46.333 60.6371C44.1644 57.7358 41.9943 54.8373 39.8291 51.9325C39.2749 51.1879 39.2998 51.1182 40.1734 50.8051C40.7991 50.5812 41.4269 50.3636 42.0519 50.1447C48.7617 47.7941 55.4736 45.4428 62.1841 43.0944C63.1477 42.7568 63.184 42.7934 63.3935 43.7597C63.9993 46.5677 64.6164 49.3743 65.2384 52.1814C65.4392 53.0897 65.3946 53.1499 64.4701 52.9762C60.9634 52.3179 57.4578 51.6497 53.9497 50.9942C51.9856 50.6262 50.786 51.4289 50.4079 53.3778C49.904 55.9856 49.4219 58.5952 48.9285 61.2064C48.8 61.878 48.6645 62.5497 48.5312 63.2207ZM74.7384 19.4432C75.6141 21.7555 75.7237 24.1249 75.3066 26.5451C75.1791 27.2797 74.9235 27.381 74.2651 27.0555C71.5633 25.7208 68.846 24.4151 66.1192 23.1362C65.4934 22.8438 65.3972 22.549 65.7002 21.9336C67.0349 19.2319 68.3413 16.5166 69.6195 13.7877C69.9323 13.1196 70.198 13.0476 70.7533 13.5407C72.5895 15.1715 73.9805 17.0921 74.7384 19.4432ZM57.1376 11.1035C59.6703 10.2608 62.0371 10.07 64.4584 10.5172C65.0829 10.6317 65.3305 10.7961 64.9935 11.4821C63.6337 14.2325 62.3113 17.0026 61.0016 19.7754C60.7417 20.3264 60.4742 20.4272 59.9181 20.1526C57.1395 18.7862 54.3488 17.4452 51.5492 16.1261C50.9785 15.8567 50.9534 15.6378 51.3463 15.1716C52.9686 13.2375 55.0029 11.91 57.1376 11.1035ZM26.8342 50.0616C25.7368 50.446 24.6292 50.8012 23.5499 51.2239C22.935 51.4651 22.5567 51.323 22.2768 50.7452C20.984 48.0862 19.6897 45.4301 18.3711 42.7849C18.1009 42.2412 18.1309 41.9585 18.7624 41.7513C20.392 41.218 22.0068 40.6359 23.6203 40.0566C24.0662 39.8957 24.3995 39.9361 24.7041 40.3434C26.617 42.9166 28.5431 45.4804 30.4691 48.0443C30.7851 48.464 30.7294 48.7135 30.206 48.8874C29.0741 49.2605 27.956 49.6663 26.8342 50.0616ZM59.9661 63.8943C59.8953 63.8933 59.8101 63.9044 59.73 63.8902C57.9394 63.5553 56.1481 63.2183 54.3594 62.8757C53.9443 62.7958 53.9531 62.4994 54.0146 62.1727C54.3337 60.4909 54.6556 58.8105 54.962 57.1261C55.0389 56.7026 55.2024 56.4927 55.6844 56.5891C57.3896 56.9281 59.1008 57.2439 60.8098 57.5604C61.2088 57.6342 61.3855 57.8305 61.3043 58.2485C60.973 59.9557 60.6544 61.6655 60.3259 63.374C60.2865 63.5897 60.236 63.8139 59.9661 63.8943ZM66.9982 35.9821C66.4803 33.5727 66.0216 31.4124 65.5496 29.2544C65.454 28.8209 65.4685 28.5741 66.002 28.8307C68.0949 29.8412 70.1872 30.8496 72.2835 31.8495C72.6948 32.0457 72.7347 32.2735 72.452 32.6119C71.1965 34.1195 69.7111 35.3322 67.9458 36.2017C67.3993 36.4706 67.0343 36.4201 66.9982 35.9821ZM44.8815 75.325C44.5473 75.55 44.3219 75.4225 44.1192 75.125C43.4521 74.1454 42.7761 73.1736 42.1035 72.1983C41.86 71.8447 41.8767 71.5643 42.2755 71.3026C43.2438 70.67 44.194 70.0062 45.1472 69.3508C45.5139 69.098 45.823 69.1563 46.0688 69.5161C46.7371 70.4929 47.3952 71.4804 48.0678 72.4557C48.2784 72.7621 48.2682 73.0145 47.9542 73.2301C46.9316 73.9286 45.9062 74.6257 44.8815 75.325ZM58.159 87.5754C58.0938 87.5771 58.0107 87.5945 57.9307 87.5803C56.6557 87.344 55.3829 87.107 54.1106 86.865C53.7383 86.7936 53.7362 86.5198 53.792 86.2233C54.0131 85.0593 54.2392 83.8959 54.4477 82.7292C54.5264 82.2839 54.7495 82.1236 55.1977 82.2107C56.3598 82.4396 57.5259 82.66 58.6926 82.8685C59.1007 82.9415 59.2554 83.1219 59.1673 83.547C58.9314 84.7092 58.7229 85.8759 58.4997 87.0406C58.4601 87.2493 58.4363 87.4829 58.159 87.5754ZM54.9289 23.3015C54.8854 23.4387 54.8441 23.5753 54.8006 23.7125C52.8525 24.395 50.9058 25.0816 48.9554 25.7578C48.5032 25.9139 48.2802 25.7127 48.2368 25.2539C48.1065 23.8703 48.195 22.5017 48.4565 21.1381C48.5648 20.5697 48.8528 20.5745 49.2854 20.7843C50.6241 21.4371 51.9615 22.0928 53.3151 22.7145C53.8329 22.9532 54.3893 23.1079 54.9289 23.3015Z" fill="#1F49B8" stroke="#1F49B8"/>
<path d="M102.975 26.6655C104.265 27.1191 105.555 27.5728 106.844 28.0265C106.904 28.0701 106.955 28.1234 107.02 28.1585C113.621 31.7766 116.849 38.0718 115.88 45.5239C115.794 46.1871 116.013 46.4236 116.586 46.6233C121.079 48.1831 125.564 49.7587 130.043 51.359C130.657 51.5791 131.009 51.467 131.393 50.9458C133.757 47.7523 136.164 44.5929 138.524 41.3982C139.09 40.6304 139.747 40.089 140.695 39.9342C144.657 41.3276 148.618 42.7211 152.579 44.1145C153.523 45.3037 153.649 46.3065 152.972 47.2361C152.265 48.2047 151.351 48.3991 149.897 47.8896C147.365 47.0009 144.83 46.1214 142.306 45.2088C141.786 45.0217 141.456 45.0941 141.121 45.5457C139.382 47.8989 137.627 50.2401 135.859 52.5705C135.483 53.0678 135.559 53.2994 136.149 53.5006C138.089 54.1584 140.017 54.8592 141.953 55.5298C142.509 55.7212 142.945 56.0404 143.25 56.539C143.809 57.4519 143.534 58.3325 143.114 59.1867C141.616 62.2252 140.102 65.2535 138.596 68.2869C136.917 71.6696 135.242 75.0554 133.567 78.4394C131.696 82.216 129.826 85.9952 127.955 89.7719C126.074 93.5719 124.193 97.37 122.307 101.166C121.429 102.934 120.637 104.753 119.629 106.444C118.129 108.953 115.784 109.917 112.906 109.663C104.984 106.876 97.0613 104.089 89.1388 101.302C89.0424 101.229 88.9473 101.152 88.8485 101.08C86.4461 99.3279 85.4579 96.9989 86.0197 94.0599C86.2482 92.8628 86.5365 91.6785 86.7976 90.4888C87.8688 85.5839 88.9319 80.6783 90.011 75.7742C91.1724 70.4892 92.3522 65.2105 93.5118 59.9248C93.7903 58.6563 93.7699 58.6554 92.5894 58.1386C92.3435 58.0314 92.1135 57.8905 91.8746 57.7692C85.8282 54.6815 82.2078 48.0932 82.8779 41.3972C83.5629 34.5532 88.2924 28.8773 94.859 26.9843C97.5445 26.2126 100.248 26.1905 102.975 26.6655ZM107.519 102.875C107.516 102.926 107.51 102.978 107.507 103.028C109.414 103.699 111.305 104.416 113.232 105.024C114.408 105.394 115.293 104.962 115.845 103.862C117.648 100.267 119.423 96.6588 121.212 93.0562C124.681 86.0715 128.151 79.0851 131.629 72.1055C131.892 71.575 131.763 71.314 131.216 71.1258C128.977 70.3569 126.744 69.5714 124.517 68.7675C124.034 68.5933 123.756 68.7376 123.468 69.1251C121.212 72.1597 118.95 75.1881 116.663 78.1994C116.281 78.7045 116.276 78.9762 116.839 79.3419C118.41 80.3685 119.951 81.4428 121.489 82.522C122.629 83.3229 122.936 84.6276 122.203 85.7236C120.575 88.1553 118.928 90.5736 117.248 92.9704C116.454 94.1031 115.193 94.3096 114.02 93.5762C113.441 93.2152 112.891 92.8083 112.326 92.4252C111.55 91.8998 110.773 91.3779 109.98 90.8423C109.819 91.1831 109.941 91.4167 109.984 91.6491C110.473 94.2892 110.985 96.9247 111.458 99.5652C111.738 101.13 111.003 102.177 109.453 102.506C108.81 102.642 108.163 102.754 107.519 102.875ZM114.693 50.7233C110.505 49.2502 106.311 47.7874 102.131 46.2922C101.473 46.0565 101.185 46.2284 101.045 46.879C100.511 49.3558 99.9719 51.8307 99.4092 54.3015C99.264 54.9378 99.49 55.2078 100.089 55.4166C107.206 57.8992 114.318 60.4009 121.421 62.9204C122.012 63.1303 122.356 63.0174 122.718 62.5236C124.291 60.3814 125.897 58.2651 127.489 56.1356C128.025 55.4192 128.022 55.4099 127.189 55.117C123.024 53.6541 118.859 52.1887 114.693 50.7233ZM108.962 81.4301C108.438 81.5191 108.153 81.562 107.868 81.6147C105.182 82.117 102.495 82.6256 99.8095 83.1217C98.0493 83.4466 97.0532 82.7526 96.7191 80.9891C96.3027 78.7825 95.8907 76.5755 95.4737 74.3708C95.4295 74.1316 95.3722 73.8941 95.3212 73.6567C94.9951 74.4364 94.8374 75.1966 94.6705 75.9537C93.2978 82.2162 91.9202 88.4749 90.5511 94.7388C90.2318 96.1937 90.711 97.1035 92.1004 97.615C93.7956 98.2403 95.5115 98.8067 97.2055 99.4295C97.8342 99.661 97.8512 99.4185 97.7497 98.9066C97.4321 97.3021 97.1362 95.6949 96.8452 94.0853C96.5034 92.1907 97.1734 91.2276 99.077 90.8662C101.691 90.3695 104.306 89.8857 106.919 89.3865C107.116 89.3483 107.356 89.4079 107.513 89.1961C107.457 89.1328 107.417 89.0692 107.361 89.0287C105.493 87.6346 105.351 86.7625 106.672 84.807C107.394 83.7441 108.116 82.6794 108.962 81.4301ZM111.165 77.6151C111.228 77.6309 111.293 77.6456 111.356 77.6615C111.939 76.8872 112.525 76.1143 113.106 75.3394C115.022 72.7834 116.939 70.2299 118.851 67.6708C119.341 67.0149 119.319 66.9533 118.549 66.6763C117.998 66.4781 117.444 66.2855 116.893 66.0918C110.979 64.0113 105.063 61.9302 99.1484 59.8517C98.299 59.5529 98.267 59.5851 98.0812 60.4369C97.5437 62.9125 96.9963 65.3866 96.4447 67.8613C96.2665 68.662 96.3058 68.7152 97.1212 68.5631C100.214 67.9865 103.306 67.4013 106.401 66.8273C108.133 66.505 109.19 67.2143 109.521 68.9333C109.963 71.2335 110.385 73.5352 110.817 75.8384C110.929 76.4308 111.048 77.0232 111.165 77.6151ZM88.1047 38.9812C87.3298 41.0192 87.2305 43.1085 87.5955 45.2431C87.7071 45.8911 87.9323 45.9806 88.5134 45.6943C90.8974 44.5205 93.2951 43.3722 95.7011 42.2475C96.2532 41.9904 96.3384 41.7305 96.0719 41.1875C94.8981 38.8035 93.7491 36.4076 92.6251 33.9998C92.3501 33.4103 92.1158 33.3465 91.6256 33.7807C90.0045 35.2167 88.7757 36.9087 88.1047 38.9812ZM103.635 31.647C101.403 30.9011 99.3157 30.7301 97.18 31.1217C96.6292 31.222 96.4106 31.3666 96.707 31.9719C97.903 34.3988 99.066 36.8432 100.218 39.2898C100.446 39.776 100.682 39.8651 101.173 39.6236C103.625 38.4219 106.087 37.2425 108.557 36.0825C109.061 35.8456 109.083 35.6526 108.737 35.241C107.309 33.5336 105.517 32.3606 103.635 31.647ZM130.313 66.0358C131.28 66.3761 132.256 66.6906 133.208 67.0645C133.75 67.2779 134.083 67.1531 134.331 66.6439C135.474 64.3006 136.618 61.9599 137.784 59.6287C138.023 59.1496 137.997 58.9003 137.44 58.7169C136.004 58.2447 134.58 57.7295 133.158 57.2168C132.765 57.0745 132.471 57.1098 132.202 57.4685C130.513 59.7354 128.811 61.9941 127.11 64.2528C126.831 64.6225 126.88 64.8426 127.341 64.9966C128.339 65.3269 129.324 65.686 130.313 66.0358ZM101.081 78.1961C101.143 78.1953 101.218 78.2052 101.289 78.1927C102.868 77.8994 104.448 77.6043 106.026 77.3042C106.392 77.2343 106.385 76.9728 106.331 76.6847C106.051 75.2013 105.769 73.7191 105.501 72.2334C105.434 71.8598 105.29 71.6746 104.865 71.759C103.36 72.056 101.851 72.3326 100.344 72.6097C99.9918 72.6744 99.8358 72.8472 99.9069 73.2159C100.197 74.7217 100.476 76.2298 100.764 77.7369C100.798 77.9271 100.843 78.1248 101.081 78.1961ZM94.9113 53.5744C95.3707 51.4503 95.7777 49.5458 96.1964 47.6434C96.2812 47.2612 96.2687 47.0435 95.798 47.2693C93.9512 48.1579 92.1051 49.0448 90.2553 49.9241C89.8924 50.0967 89.8569 50.2974 90.1059 50.5962C91.2112 51.9271 92.5198 52.9981 94.0755 53.7669C94.557 54.0046 94.879 53.9605 94.9113 53.5744ZM114.369 88.2931C114.664 88.492 114.863 88.3797 115.042 88.1177C115.631 87.2546 116.228 86.3984 116.823 85.5391C117.038 85.2276 117.023 84.9803 116.672 84.7491C115.819 84.1902 114.982 83.6037 114.142 83.0247C113.819 82.8013 113.546 82.8524 113.329 83.1694C112.739 84.03 112.157 84.9 111.563 85.7593C111.377 86.0293 111.386 86.2518 111.662 86.4423C112.563 87.0594 113.467 87.6754 114.369 88.2931ZM102.647 99.0807C102.704 99.0823 102.778 99.0977 102.848 99.0853C103.973 98.8784 105.096 98.6708 106.218 98.4589C106.546 98.3964 106.548 98.1549 106.5 97.8934C106.306 96.8667 106.108 95.8405 105.925 94.8115C105.856 94.4187 105.66 94.2771 105.264 94.3533C104.239 94.5539 103.211 94.7469 102.182 94.9294C101.822 94.9933 101.685 95.1523 101.762 95.5273C101.969 96.5524 102.152 97.5814 102.347 98.6088C102.382 98.7928 102.403 98.9988 102.647 99.0807ZM105.569 42.4061C105.607 42.5271 105.643 42.6476 105.681 42.7687C107.399 43.3727 109.114 43.9804 110.834 44.5789C111.232 44.7171 111.429 44.54 111.468 44.1354C111.584 42.9155 111.508 41.7084 111.279 40.5057C111.184 40.0044 110.93 40.0082 110.548 40.1928C109.367 40.7669 108.187 41.3436 106.993 41.8903C106.536 42.1002 106.045 42.236 105.569 42.4061Z" fill="#1F49B8" stroke="#1F49B8"/>
</svg>
