<svg width="401" height="24" viewBox="0 0 401 24" fill="none" xmlns="http://www.w3.org/2000/svg">
<path d="M120.323 8.68667C118.733 5.96126 120.585 2.37745 123.744 1.93752C124.136 1.88387 124.539 1.85168 124.942 1.85168C135.161 1.85168 145.379 1.85168 155.598 1.85168C155.903 1.85168 156.219 1.85168 156.524 1.85168C156.546 1.91606 156.578 1.98044 156.6 2.04482C147.558 8.56864 138.516 15.0925 129.3 21.7343C132.895 20.4574 136.479 21.0798 139.943 20.5755C142.482 20.2106 145.031 19.9639 147.493 19.2128C150.489 18.29 153.125 16.8093 155.227 14.2233C155.859 16.4122 156.404 18.4617 155.445 20.5325C154.715 22.0884 153.386 22.9468 151.632 23.1399C151.24 23.1828 150.837 23.1721 150.434 23.1721C138.985 23.1721 127.546 23.1721 116.097 23.1721C115.726 23.1721 115.367 23.1721 114.996 23.1721C114.964 23.1077 114.942 23.0434 114.909 22.979C123.951 16.4552 132.982 9.94208 142.155 3.32169C138.429 4.54491 134.682 3.85819 131.054 4.44834C129.398 4.71658 127.72 4.83461 126.086 5.27454C123.842 5.88615 121.914 7.00207 120.323 8.68667Z" fill="white"/>
<path d="M177.473 19.3952C175.828 21.67 173.66 22.7537 171.154 23.2258C169.085 23.6228 167.015 23.6013 165.065 22.6142C162.57 21.3373 161.96 18.9231 163.659 16.7342C165.402 14.4809 167.886 13.5045 170.675 13.204C172.189 13.0323 173.693 13.1182 175.131 13.6976C176.503 14.2555 177.604 15.0818 177.974 16.584C178.028 16.82 178.039 17.2277 178.039 17.2277C178.039 17.2277 177.756 17.2277 177.484 17.2277C176.34 17.2277 175.207 17.217 174.063 17.217C173.802 17.217 173.584 17.2063 173.399 16.9702C172.059 15.3178 168.355 16.026 167.287 17.8715C166.742 18.8158 167.102 19.7815 168.213 20.2429C169.673 20.8437 171.078 20.5648 172.375 19.7815C172.843 19.5025 173.279 19.3845 173.802 19.3952C174.967 19.4059 176.133 19.3952 177.473 19.3952Z" fill="white"/>
<path d="M159.258 23.4189C158.07 23.4189 157.221 22.582 157.232 21.4338C157.242 20.2965 158.136 19.4595 159.312 19.481C160.423 19.4917 161.317 20.3716 161.328 21.4446C161.328 22.5283 160.402 23.4189 159.258 23.4189Z" fill="white"/>
<path d="M191.069 14.0087C189.837 13.3434 188.498 13.1288 186.874 13.1395C186.722 13.1503 186.319 13.1395 185.916 13.1932C183.138 13.5365 180.643 14.4808 178.9 16.7341C177.201 18.9337 177.822 21.3587 180.316 22.6141C182.266 23.6013 184.336 23.612 186.406 23.2257C188.781 22.775 190.916 21.7986 192.387 19.8136C194.021 17.6247 193.465 15.3177 191.069 14.0087ZM187.256 19.996C186.036 20.5754 184.761 20.79 183.465 20.2213C182.157 19.6526 181.896 18.4938 182.844 17.4423C183.748 16.4444 184.946 16.0688 185.959 16.0259C187.681 16.0259 188.737 16.6268 188.944 17.5496C189.14 18.4401 188.487 19.4058 187.256 19.996Z" fill="white"/>
<path d="M210.372 13.5367C208.488 12.8714 206.625 13.0753 204.773 13.7191C204.446 13.8371 204.163 13.9659 203.803 13.7942C201.418 12.6676 199.086 13.0539 196.809 14.0839C195.568 14.6419 194.533 15.511 194.13 16.863C193.552 18.7837 192.332 23.1829 192.332 23.1829H196.581C196.581 23.1829 197.724 19.0948 198.215 17.4102C198.487 16.4445 199.162 15.9831 200.176 16.0475C201.025 16.1012 201.33 16.4982 201.102 17.3136C200.622 19.0626 199.435 23.1829 199.435 23.1829H203.694C203.694 23.1829 204.849 19.1163 205.35 17.3673C205.612 16.466 206.2 16.0368 207.159 16.0475C208.117 16.0582 208.466 16.4874 208.215 17.3673C207.758 19.009 206.538 23.1829 206.538 23.1829H210.819C210.819 23.1829 211.974 19.0519 212.442 17.3888C212.976 15.4359 212.333 14.2234 210.372 13.5367Z" fill="white"/>
<path d="M117.011 13.8907H111.434L112.185 11.7018H117.763L117.011 13.8907Z" fill="white"/>
<path d="M54.5677 21.7025H56.0384C56.1146 21.7025 56.2127 21.6488 56.2454 21.5844L62.3677 11.7129L65.6904 23.0115C65.7122 23.0759 65.7884 23.1403 65.8647 23.1403H72.2921C72.3684 23.1403 72.4119 23.0867 72.3901 23.0115L65.6141 1.87351C65.5924 1.80913 65.5161 1.74475 65.4398 1.74475H63.0214C62.9451 1.74475 62.8471 1.79845 62.8144 1.86283L54.5568 14.4705L46.2992 1.86283C46.2557 1.79845 46.1685 1.74475 46.0923 1.74475H43.6738C43.5976 1.74475 43.5214 1.80913 43.4996 1.87351L36.7126 23.0115C36.6908 23.0759 36.7345 23.1403 36.8107 23.1403H43.2381C43.3143 23.1403 43.3906 23.0867 43.4124 23.0115L46.7459 11.7129L52.8683 21.5844C52.901 21.6488 52.999 21.7025 53.0753 21.7025H54.5677Z" fill="white"/>
<path d="M37.0175 11.1765C37.0066 11.1121 36.9521 11.0691 36.8867 11.0691H18.5741C17.6046 11.0691 16.8202 11.8417 16.8202 12.7967C16.8202 13.7516 17.6046 14.5242 18.5741 14.5242H29.4571C28.1607 17.8934 23.7814 20.3827 18.5741 20.3827C12.3428 20.3827 7.29892 16.8312 7.29892 12.4534C7.29892 8.07553 12.3428 4.5239 18.5741 4.5239C21.973 4.5239 25.0233 5.58615 27.0931 7.26003C27.0931 7.27076 27.104 7.27077 27.1149 7.27077C27.1367 7.29223 27.1694 7.30292 27.1912 7.30292H34.6753C34.7515 7.30292 34.806 7.23854 34.806 7.16343C34.806 7.13124 34.7951 7.0991 34.7733 7.07764L34.7624 7.0669C31.5814 3.72988 25.5244 1.46582 18.5741 1.46582C8.32298 1.46582 0 6.39093 0 12.4534C0 18.5158 8.31209 23.4408 18.5741 23.4408C28.8362 23.4408 37.1482 18.5158 37.1482 12.4534C37.1373 12.0134 37.0937 11.595 37.0175 11.1765Z" fill="white"/>
<path d="M90.5614 20.3721C84.3301 20.3721 79.2862 16.8204 79.2862 12.4426C79.2862 8.06479 84.3301 4.51316 90.5614 4.51316C96.7818 4.51316 101.837 8.06479 101.837 12.4426C101.826 16.8312 96.7818 20.3721 90.5614 20.3721ZM90.5614 1.46582C80.2993 1.46582 71.9873 6.39093 71.9873 12.4534C71.9873 18.5158 80.2993 23.4408 90.5614 23.4408C100.813 23.4408 109.135 18.5158 109.135 12.4534C109.125 6.3802 100.813 1.46582 90.5614 1.46582Z" fill="white"/>
<path d="M235.516 15.8543C235.494 14.4272 234.775 13.4186 233.413 12.9036C232.803 12.6783 232.171 12.5173 231.507 12.3027C233.686 11.6375 234.688 10.822 234.96 9.30905C235.418 6.74459 234.742 4.30889 232.084 2.78523C230.156 1.69078 228.043 1.48691 225.886 1.63713C221.038 1.96975 218.314 4.81319 218.249 9.49146C218.194 13.1504 218.216 23.1936 218.216 23.1936H224.578C224.578 23.1936 224.567 12.968 224.567 9.2554C224.567 8.33262 224.851 7.54934 225.58 6.95919C226.278 6.41196 227.051 6.42269 227.825 6.78751C228.544 7.12014 228.903 7.71028 228.838 8.48284C228.772 9.29832 228.239 9.78117 227.476 10.028C227.182 10.1245 226.866 10.2211 226.561 10.1996C225.787 10.1567 225.613 10.5215 225.668 11.2083C225.733 11.9808 225.679 12.7748 225.679 13.5581C225.679 14.9316 225.679 14.9316 227.018 15.071C227.215 15.0925 227.411 15.1354 227.607 15.1783C228.968 15.4466 229.339 15.8865 229.339 17.217C229.339 18.2686 229.35 19.3201 229.35 20.3716V23.2044H235.538V20.3716C235.527 18.8587 235.538 17.3565 235.516 15.8543Z" fill="white"/>
<path d="M257.096 1.57275H252.444C252.292 1.57275 252.139 1.57275 251.976 1.57275C251.954 1.57275 251.943 1.57275 251.921 1.57275H250.952C250.952 1.57275 250.941 13.0002 250.952 15.629C250.952 16.2728 250.843 16.8737 250.342 17.3029C249.35 18.1505 248.196 18.3008 246.986 17.8608C245.777 17.4209 245.363 16.7235 245.363 15.3071C245.363 12.8178 245.352 10.3177 245.341 7.81759V1.57275H239.241V2.06633C239.241 2.11998 239.23 2.17363 239.241 2.23801C239.241 2.40969 239.241 2.5921 239.241 2.76378V12.2598C239.23 13.5045 239.23 14.7384 239.295 15.9831C239.437 18.7085 240.788 20.8008 243.271 22.1206C245.287 23.1936 247.466 23.2795 249.677 23.0756C253.828 22.6893 257.02 19.5562 257.096 15.7041C257.107 13.4937 257.096 1.57275 257.096 1.57275Z" fill="white"/>
<path d="M280.028 1.42253H273.96L273.971 13.6118C273.786 13.2899 269.875 7.07722 268.089 4.12648C267.489 3.13932 266.847 2.18436 265.834 1.54056C265.234 1.16501 264.613 0.939682 263.982 0.928952C263.48 0.918222 262.968 1.02552 262.456 1.27231C262.446 1.27231 262.435 1.28304 262.424 1.28304C261.389 1.76589 260.681 2.6994 260.67 3.79385C260.67 3.91188 260.67 4.02991 260.67 4.15867C260.67 4.41619 260.67 4.68444 260.67 4.94196C260.648 10.5323 260.659 22.6786 260.659 22.6786H266.727C266.727 22.6786 266.716 14.9208 266.716 11.4014V10.4893C267.108 11.1224 270.714 17.0775 272.599 19.9746C273.274 21.0047 273.939 21.906 274.854 22.5606C275.431 22.9683 276.063 23.1507 276.695 23.1722C277.207 23.1936 277.719 23.0863 278.231 22.8288C278.242 22.8288 278.253 22.8181 278.263 22.8181C279.298 22.3352 280.007 21.4017 280.017 20.3073C280.007 20.1892 280.028 1.42253 280.028 1.42253Z" fill="white"/>
<path d="M297.087 13.6976C296.172 12.6032 295.028 11.7662 293.808 11.0366C292.621 10.3177 291.39 9.67389 290.202 8.95498C289.701 8.65454 289.113 8.26826 289.309 7.58155C289.516 6.87337 290.213 6.93775 290.813 6.90556C291.041 6.89483 296.826 6.89483 296.826 6.89483V1.9054H290.9C289.985 1.91613 289.08 1.96978 288.176 2.14145C285.692 2.60284 283.764 3.84752 283.111 6.40125C282.468 8.91206 283.503 10.8113 285.551 12.2705C286.629 13.0431 287.74 13.7727 288.852 14.5238C289.625 15.0496 290.409 15.5539 291.183 16.0904C291.575 16.3694 291.815 16.7449 291.728 17.2385C291.64 17.7214 291.216 17.8823 290.813 18.0218C290.355 18.1828 289.876 18.2257 289.385 18.2149C287.555 18.2042 283.143 18.2149 283.143 18.2149V23.1829L289.069 23.1722C289.342 23.1722 289.625 23.1722 289.897 23.1722C291.586 23.1507 293.264 23.0327 294.843 22.3889C298.449 20.9082 299.56 16.6806 297.087 13.6976Z" fill="white"/>
<path d="M335.336 13.6976C334.421 12.6032 333.277 11.7662 332.057 11.0366C330.87 10.3177 329.639 9.67389 328.451 8.95498C327.95 8.65454 327.362 8.26826 327.558 7.58155C327.765 6.87337 328.462 6.93775 329.062 6.90556C329.29 6.89483 335.075 6.89483 335.075 6.89483V1.9054H329.149C328.234 1.91613 327.329 1.96978 326.425 2.14145C323.941 2.60284 322.013 3.84752 321.36 6.40125C320.717 8.91206 321.752 10.8113 323.8 12.2705C324.878 13.0431 325.989 13.7727 327.101 14.5238C327.874 15.0496 328.658 15.5539 329.432 16.0904C329.824 16.3694 330.064 16.7449 329.977 17.2385C329.889 17.7214 329.465 17.8823 329.062 18.0218C328.604 18.1828 328.125 18.2257 327.634 18.2149C325.804 18.2042 321.392 18.2149 321.392 18.2149V23.1829L327.319 23.1722C327.591 23.1722 327.874 23.1722 328.146 23.1722C329.835 23.1507 331.513 23.0327 333.092 22.3889C336.698 20.9082 337.809 16.6806 335.336 13.6976Z" fill="white"/>
<path d="M317.776 6.50859C317.776 5.22099 317.776 3.89048 317.765 2.59215V1.93762H311.729V4.2231C311.729 4.30894 311.729 4.39478 311.729 4.48062C311.729 5.74676 311.729 7.0129 311.719 8.2683C311.719 8.74042 311.675 9.21254 311.599 9.68466C311.446 10.6074 310.923 11.0581 309.986 11.101C308.984 11.1547 308.396 10.7577 308.156 9.83488C308.058 9.45933 308.025 9.06232 308.015 8.67604C308.004 7.23822 308.015 2.002 308.015 2.002H301.881C301.881 2.002 301.87 7.90348 301.849 9.54517C301.849 12.453 303.396 14.5453 306.239 15.4574C306.805 15.6398 306.958 15.908 306.947 16.466C306.925 17.9038 306.925 23.2473 306.925 23.2473H313.058C313.058 23.2473 313.069 17.8931 313.037 16.4445C313.026 15.8758 313.211 15.6291 313.745 15.4145C316.436 14.3415 317.765 12.3564 317.776 9.50225C317.776 8.51509 317.776 7.50647 317.776 6.50859Z" fill="white"/>
<path d="M353.017 1.93762H348.605H342.297H337.929V7.14165H342.297V23.1829H348.605V7.14165H353.017V1.93762Z" fill="white"/>
<path d="M365.065 7.12008C366.274 6.96986 372.048 6.95913 372.048 6.95913V1.94824C372.048 1.94824 366.307 1.94824 365.076 1.94824C359.357 1.94824 355.065 5.96125 354.422 11.8949C353.877 16.8951 357.701 21.906 362.908 22.9039C364.608 23.2365 366.329 23.2365 368.05 23.1936H372.048V18.2041H369.891C368.355 18.1934 366.819 18.1719 365.283 18.0539C363.224 17.893 361.481 16.5839 361.132 14.8886H372.037V10.2532C372.037 10.2532 364.444 10.2425 361.045 10.2425C361.862 8.39695 363.126 7.35614 365.065 7.12008Z" fill="white"/>
<path d="M399.425 13.5903C399.087 10.6503 398.793 7.71033 398.39 4.77032C398.107 2.68871 397.072 1.60498 395.231 1.31527C394.272 1.16505 393.303 1.17578 392.344 1.4333C391.015 1.79812 390.089 2.55995 389.653 3.87973C389.294 4.97419 389.185 6.12229 388.978 7.23821C388.498 9.86705 388.041 12.4852 387.54 15.3393C387.442 14.9745 387.409 14.8458 387.376 14.717C386.777 11.5087 386.2 8.30048 385.59 5.09222C385.034 2.15221 383.814 1.19724 380.785 1.25089C378.247 1.29381 376.983 2.33462 376.646 4.79178C376.341 6.9485 376.112 9.11596 375.861 11.2727C375.437 14.8779 374.521 22.7752 374.521 22.7752H380.404C380.404 22.7752 381.036 11.6697 381.341 6.50857C381.439 6.77682 383.563 16.1333 384.522 20.6721C384.707 21.5413 385.089 22.2494 385.873 22.7108C387.845 23.8804 389.991 22.8718 390.503 20.5004C391.037 18.0218 391.549 15.5325 392.072 13.0431C392.54 10.822 393.019 8.59019 393.499 6.36908C393.662 7.46354 394.675 22.7645 394.675 22.7645H400.482C400.482 22.7752 399.741 16.3909 399.425 13.5903Z" fill="white"/>
</svg>
