<svg width="94" height="105" viewBox="0 0 94 105" fill="none" xmlns="http://www.w3.org/2000/svg">
<path d="M47.1075 104.31C44.7035 103.748 42.8563 102.357 41.1525 100.649C36.7332 96.2157 32.2311 91.8641 27.8062 87.4392C27.117 86.7493 26.7337 86.7954 26.1134 87.4691C25.2615 88.3953 24.3766 89.3108 23.2848 89.9871C19.5299 92.3096 14.9423 91.9157 11.6726 88.83C8.6124 85.9425 5.60734 82.9925 2.68222 79.972C-0.98726 76.1827 -0.871468 70.625 2.90554 66.8683C8.5545 61.2482 14.3248 55.7422 19.8965 50.0487C28.4734 41.2776 33.9624 30.8523 36.5374 18.9357C36.656 18.3843 36.5319 17.9633 36.2865 17.4933C33.2594 11.7238 36.463 5.10681 42.917 3.93878C46.1068 3.3602 48.9243 4.30005 51.2374 6.56005C54.6367 9.88485 58.014 13.2287 61.4022 16.5671C69.6372 24.6808 77.8832 32.7836 86.1044 40.9164C89.8759 44.6486 90 50.1003 86.4656 53.9494C83.6866 56.9781 79.0714 57.7496 75.1924 55.7911C74.5611 55.4733 73.9766 55.4081 73.3095 55.552C65.171 57.2959 57.6363 60.4306 50.6998 64.975C49.9609 65.4585 49.8424 65.7682 50.5454 66.3821C52.3016 67.9141 53.4457 69.8047 53.8124 72.1217C54.2756 75.0337 53.4154 77.5544 51.4966 79.7519C50.9369 80.393 50.3276 81.0042 49.6797 81.5583C49.1091 82.0472 49.2 82.3651 49.7046 82.8486C51.5103 84.5734 53.2141 86.4043 55.0613 88.083C61.019 93.4939 58.2759 102.395 51.1106 104.185C51.0113 104.21 50.9231 104.27 50.8294 104.313C49.5888 104.31 48.3481 104.31 47.1075 104.31ZM40.4468 64.6735C40.6287 64.5431 40.8851 64.3802 41.1194 64.1873C48.9436 57.736 57.7714 53.1562 67.5916 50.4344C68.8101 50.0976 68.8157 50.0868 67.9003 49.1876C59.5716 40.9816 51.2457 32.7782 42.917 24.5721C42.8205 24.4771 42.7157 24.3847 42.6275 24.2815C42.2084 23.7898 41.9631 23.8061 41.7784 24.4771C41.4365 25.7211 41.0671 26.9571 40.6508 28.1794C37.7836 36.6055 33.4469 44.2249 27.6546 51.0375C27.2548 51.5101 27.0398 51.8415 27.5994 52.3875C31.6383 56.3262 35.6442 60.2948 39.6638 64.2498C39.854 64.4399 40.0332 64.6654 40.4468 64.6735ZM18.3003 85.1031C19.1549 85.0896 19.8717 84.7201 20.4755 84.1225C25.2974 79.3744 30.111 74.6181 34.9494 69.8862C35.476 69.3701 35.4209 69.0496 34.9274 68.5633C31.018 64.7414 27.1225 60.9032 23.2407 57.0515C22.7748 56.5897 22.4688 56.5544 21.9808 57.0352C17.1258 61.8485 12.2405 66.6293 7.38832 71.4426C6.10634 72.7139 6.09807 74.3464 7.36902 75.6177C10.2666 78.5187 13.2027 81.3845 16.1306 84.2556C16.715 84.8342 17.4456 85.1059 18.3003 85.1031ZM79.5043 50.4996C81.0179 50.4915 82.0434 49.7282 82.4487 48.4026C82.9119 46.895 82.0931 45.8764 81.1061 44.9067C69.8219 33.7941 58.5405 22.6761 47.2536 11.5636C46.8897 11.205 46.5093 10.8437 46.0764 10.5775C44.5298 9.62409 42.5531 10.2434 41.8197 11.8787C41.2601 13.1227 41.544 14.288 42.7378 15.4669C46.6554 19.3377 50.5813 23.2004 54.5044 27.0657C61.984 34.4379 69.4663 41.8073 76.9459 49.1795C77.693 49.9183 78.4594 50.5866 79.5043 50.4996ZM51.8329 94.958C51.866 94.2627 51.5379 93.5727 50.9507 92.9941C46.0847 88.1943 41.2077 83.4027 36.3555 78.5893C35.8565 78.0923 35.5449 78.1656 35.1038 78.6274C34.1802 79.589 33.2429 80.5397 32.2504 81.4279C31.6273 81.9875 31.71 82.3569 32.2724 82.9002C35.0955 85.6383 37.8828 88.4089 40.6811 91.166C42.7267 93.1815 44.7614 95.2052 46.8236 97.2045C47.783 98.1334 48.9354 98.3073 50.1567 97.7722C51.3201 97.2669 51.8522 96.3379 51.8329 94.958ZM47.4604 73.5532C47.4604 73.4527 47.4687 73.3495 47.4577 73.249C47.2812 71.5812 45.889 70.7799 44.8413 69.7422C44.5987 69.5032 44.3285 69.7884 44.1328 69.9677C43.0245 70.9809 41.9327 72.0131 40.8134 73.0154C40.3723 73.4093 40.4054 73.7081 40.8245 74.0938C41.5771 74.7892 42.2884 75.5253 43.019 76.2424C44.5325 77.731 44.5243 77.7228 46.0296 76.2533C46.8015 75.4954 47.4852 74.7104 47.4604 73.5532Z" fill="#1F49B8"/>
<path d="M66.3374 0.00277738C67.9832 0.733474 68.6339 2.03732 68.6118 3.75676C68.5898 5.34854 68.6256 6.94304 68.598 8.53481C68.5815 9.48825 68.4712 10.4281 67.7737 11.1941C66.8832 12.1747 65.5323 12.5686 64.3082 12.134C62.9684 11.6613 62.2075 10.6862 62.1634 9.30897C62.0972 7.17664 62.1137 5.03888 62.1578 2.90383C62.1854 1.49405 63.0814 0.627536 64.2669 6.10352e-05C64.9589 0.00277738 65.6481 0.00277738 66.3374 0.00277738Z" fill="#1F49B8"/>
<path d="M77.7538 18.4087C76.4774 18.3815 75.4932 17.8518 74.9142 16.7137C74.2994 15.5049 74.3628 14.2554 75.2919 13.2911C77.4451 11.0501 79.6534 8.85803 81.9361 6.74743C83.1878 5.59027 85.1535 5.82659 86.3114 7.06253C87.4307 8.25772 87.4583 10.094 86.2645 11.3082C84.1803 13.4269 82.0464 15.4968 79.9125 17.5721C79.3281 18.1398 78.592 18.4168 77.7538 18.4087Z" fill="#1F49B8"/>
<path d="M87.0062 30.6268C85.9393 30.6268 84.8696 30.654 83.8026 30.6187C82.074 30.5616 80.7617 29.2062 80.7535 27.5166C80.7452 25.8243 82.0382 24.4308 83.7695 24.3928C85.9365 24.3439 88.109 24.3466 90.2759 24.3901C92.0238 24.4281 93.3168 25.7836 93.3251 27.4813C93.3361 29.2007 91.988 30.5725 90.2042 30.6214C89.1401 30.6513 88.0731 30.6268 87.0062 30.6268Z" fill="#1F49B8"/>
<path d="M18.1763 76.6743C16.9053 76.6308 15.9266 76.0903 15.3587 74.9521C14.7549 73.7406 14.8514 72.5128 15.7639 71.5349C17.2747 69.916 18.8572 68.3541 20.4976 66.8628C21.7685 65.7084 23.748 65.8469 24.8894 67.0204C26.1135 68.2781 26.1355 70.1034 24.8618 71.4154C23.4117 72.9067 21.9119 74.3518 20.4176 75.7996C19.8084 76.3891 19.053 76.6906 18.1763 76.6743Z" fill="#1F49B8"/>
</svg>
