<svg width="197" height="38" viewBox="0 0 197 38" fill="none" xmlns="http://www.w3.org/2000/svg">
<path d="M19.4171 2H14.5943C12.4625 2 10.418 2.91038 8.91053 4.53087C7.4031 6.15135 6.55624 8.3492 6.55624 10.6409V15.8255H1.7334V22.7382H6.55624V36.5637H12.9867V22.7382H17.8095L19.4171 15.8255H12.9867V10.6409C12.9867 10.1826 13.1561 9.743 13.4575 9.41891C13.759 9.09481 14.1679 8.91273 14.5943 8.91273H19.4171V2Z" stroke="white" stroke-width="2.5" stroke-linecap="round" stroke-linejoin="round"/>
<path d="M107.032 7.64317C105.387 8.73248 103.567 9.56563 101.64 10.1105C100.606 8.99379 99.2311 8.20227 97.7022 7.84302C96.1734 7.48378 94.5639 7.57414 93.0915 8.1019C91.6192 8.62965 90.3549 9.56933 89.4698 10.7938C88.5846 12.0184 88.1212 13.4686 88.1424 14.9485V16.5612C85.1246 16.6347 82.1343 16.0061 79.4378 14.7315C76.7413 13.4569 74.4223 11.5759 72.6874 9.25583C72.6874 9.25583 65.8185 23.7697 81.2735 30.2204C77.7369 32.4748 73.5239 33.6052 69.2529 33.4457C84.7079 41.509 103.597 33.4457 103.597 14.9001C103.596 14.4509 103.55 14.0028 103.46 13.5616C105.213 11.9385 106.449 9.88914 107.032 7.64317V7.64317Z" stroke="white" stroke-width="2.5" stroke-linecap="round" stroke-linejoin="round"/>
<path d="M194.189 13.5959C193.98 12.76 193.554 11.9941 192.954 11.3756C192.354 10.7571 191.601 10.3078 190.772 10.0733C187.742 9.3335 175.625 9.3335 175.625 9.3335C175.625 9.3335 163.507 9.3335 160.477 10.1437C159.648 10.3783 158.895 10.8275 158.296 11.446C157.696 12.0645 157.269 12.8304 157.06 13.6663C156.506 16.7408 156.235 19.8597 156.25 22.9837C156.23 26.1313 156.501 29.2739 157.06 32.3716C157.291 33.1815 157.727 33.9182 158.325 34.5106C158.924 35.103 159.665 35.531 160.477 35.7533C163.507 36.5635 175.625 36.5635 175.625 36.5635C175.625 36.5635 187.742 36.5635 190.772 35.7533C191.601 35.5187 192.354 35.0695 192.954 34.451C193.554 33.8324 193.98 33.0666 194.189 32.2306C194.739 29.1793 195.01 26.0842 194.999 22.9837C195.019 19.8362 194.748 16.6935 194.189 13.5959V13.5959Z" stroke="white" stroke-width="2.5" stroke-linecap="round" stroke-linejoin="round"/>
<path d="M171.661 28.7427L181.789 22.9831L171.661 17.2236V28.7427Z" stroke="white" stroke-width="2.5" stroke-linecap="round" stroke-linejoin="round"/>
</svg>
