<svg width="132" height="79" viewBox="0 0 132 79" fill="none" xmlns="http://www.w3.org/2000/svg">
<path d="M0.9104 33.4849C1.10775 33.2663 1.29489 33.0375 1.50585 32.8323C2.32587 32.0352 3.282 31.6921 4.40825 32.089C5.57534 32.5027 6.23884 33.3941 6.25925 34.568C6.3205 38.0493 6.3239 41.534 6.25925 45.0153C6.23544 46.243 5.5243 47.1612 4.28916 47.5346C2.77842 47.992 1.78827 47.1545 0.9104 46.1017C0.9104 41.8939 0.9104 37.6894 0.9104 33.4849Z" fill="#1F49B8"/>
<path d="M131.569 46.0985C131.426 46.2533 131.277 46.4013 131.137 46.5594C130.351 47.4642 129.381 47.888 128.191 47.5314C126.955 47.1614 126.244 46.2432 126.22 45.0155C126.156 41.5342 126.156 38.0495 126.22 34.5682C126.244 33.3371 126.959 32.4222 128.191 32.0522C129.701 31.5948 130.691 32.4323 131.566 33.4885C131.569 37.6896 131.569 41.8941 131.569 46.0985Z" fill="#1F49B8"/>
<path d="M73.8855 39.7277C73.8855 28.167 73.8855 16.6064 73.8855 5.04575C73.8855 4.28894 73.8719 3.52877 74.1169 2.79887C74.4912 1.69561 75.5936 0.905172 76.7267 0.918626C77.9278 0.935444 79.0438 1.78307 79.299 2.9805C79.4453 3.6734 79.4964 4.39657 79.4964 5.10629C79.5066 28.2276 79.5066 51.3489 79.4964 74.4735C79.4964 75.1833 79.4453 75.9064 79.2956 76.5993C79.0404 77.8001 77.921 78.6478 76.7232 78.6612C75.5936 78.6747 74.4878 77.8842 74.1169 76.781C73.8685 76.0511 73.8855 75.2909 73.8855 74.5341C73.8855 62.9331 73.8855 51.3321 73.8855 39.7277Z" fill="#1F49B8"/>
<path d="M84.3416 39.8188C84.3416 32.5097 84.3382 25.2007 84.3484 17.8916C84.3484 17.266 84.3688 16.6235 84.5049 16.0181C84.8044 14.6592 85.9442 13.788 87.244 13.8418C88.4859 13.8923 89.5544 14.8005 89.8027 16.0887C89.9116 16.6605 89.9559 17.2559 89.9559 17.8411C89.9627 32.4593 89.9661 47.0808 89.9559 61.699C89.9559 62.3649 89.9048 63.0478 89.7619 63.6969C89.4965 64.8876 88.3601 65.742 87.1726 65.7487C86.0055 65.7554 84.9507 64.9953 84.573 63.8685C84.3416 63.1789 84.3484 62.4625 84.3484 61.7494C84.3416 54.437 84.3416 47.1279 84.3416 39.8188Z" fill="#1F49B8"/>
<path d="M69.0504 39.7614C69.0504 46.9864 69.0538 54.208 69.0436 61.433C69.0436 62.1427 69.0061 62.8659 68.87 63.5588C68.6148 64.8437 67.5056 65.7317 66.2671 65.7485C65.0387 65.7653 63.8921 64.874 63.6199 63.6126C63.4872 63.0038 63.4395 62.3647 63.4395 61.7391C63.4293 47.0402 63.4327 32.338 63.4293 17.6391C63.4293 16.9631 63.4497 16.2903 63.6845 15.6513C64.0928 14.5379 65.2021 13.7912 66.3385 13.8416C67.526 13.8955 68.5162 14.6758 68.8428 15.8396C69.047 16.5762 69.0538 17.333 69.0538 18.0899C69.047 25.3115 69.0504 32.5365 69.0504 39.7614Z" fill="#1F49B8"/>
<path d="M110.739 39.8388C110.739 47.4909 110.749 55.1431 110.729 62.7953C110.722 64.9984 108.867 66.3001 106.972 65.4996C106.176 65.1632 105.686 64.5712 105.441 63.7539C105.244 63.0946 105.254 62.4253 105.254 61.7525C105.254 47.0806 105.254 32.4086 105.254 17.7333C105.254 17.3566 105.24 16.9731 105.274 16.5998C105.431 14.9213 106.663 13.7609 108.18 13.8416C109.647 13.919 110.722 15.1097 110.725 16.7612C110.742 22.1429 110.735 27.5247 110.735 32.9064C110.739 35.2138 110.739 37.528 110.739 39.8388Z" fill="#1F49B8"/>
<path d="M21.7408 39.7949C21.7408 32.1427 21.7306 24.4939 21.7476 16.8417C21.751 14.615 23.551 13.2965 25.4564 14.0668C26.256 14.3897 26.763 14.9682 27.0216 15.7856C27.2394 16.4818 27.2224 17.1949 27.2224 17.9114C27.2224 32.4992 27.2224 47.0871 27.219 61.675C27.219 62.2199 27.2258 62.7749 27.1305 63.3063C26.8583 64.867 25.6368 65.8627 24.2145 65.7382C22.7786 65.6104 21.7578 64.4668 21.7476 62.8758C21.7272 58.7991 21.7374 54.7191 21.7374 50.6424C21.7408 47.0232 21.7408 43.4107 21.7408 39.7949Z" fill="#1F49B8"/>
<path d="M58.5942 39.7784C58.5942 43.7272 58.601 47.6794 58.5908 51.6283C58.584 54.0736 57.6006 55.3955 55.8007 55.409C54.0211 55.4258 52.9867 54.0837 52.9799 51.6485C52.9663 43.7474 52.9663 35.8497 52.9799 27.9486C52.9833 25.5067 53.9837 24.1949 55.7837 24.1612C57.5428 24.1276 58.584 25.51 58.5908 27.9285C58.601 31.8807 58.5942 35.8295 58.5942 39.7784Z" fill="#1F49B8"/>
<path d="M37.6787 39.7849C37.6787 43.7774 37.6855 47.7666 37.6753 51.7592C37.6685 54.0263 36.7055 55.3347 35.0179 55.4222C33.2894 55.5096 32.1053 54.2079 32.0916 51.8971C32.044 43.8313 32.0746 35.7654 32.0746 27.6995C32.0746 27.6154 32.0814 27.5313 32.0882 27.4472C32.2652 25.3181 33.3574 24.087 35.0043 24.161C36.6579 24.235 37.6617 25.53 37.6685 27.686C37.6923 31.719 37.6787 35.7519 37.6787 39.7849Z" fill="#1F49B8"/>
<path d="M94.8011 39.7983C94.8011 35.8057 94.7943 31.8165 94.8045 27.8239C94.8113 25.5569 95.7742 24.2485 97.4585 24.161C99.1836 24.0735 100.371 25.3753 100.385 27.686C100.432 35.7519 100.402 43.8178 100.402 51.8837C100.402 51.9678 100.395 52.0519 100.388 52.136C100.211 54.2617 99.119 55.4962 97.4721 55.4222C95.8185 55.3482 94.8147 54.0532 94.8079 51.8971C94.7875 47.8642 94.8011 43.8313 94.8011 39.7983Z" fill="#1F49B8"/>
<path d="M11.2849 39.748C11.2849 35.6344 11.2781 31.5173 11.2883 27.4037C11.2917 25.4225 12.4043 24.1309 14.0376 24.1612C15.6164 24.1881 16.7528 25.473 16.7562 27.37C16.7733 35.6848 16.7733 43.9962 16.7528 52.311C16.7494 53.9457 15.9464 55.0086 14.5718 55.3315C13.3469 55.6208 12.4214 55.1163 11.7102 54.1543C11.2849 53.5757 11.2815 52.8996 11.2815 52.2202C11.2849 48.0594 11.2849 43.9021 11.2849 39.748Z" fill="#1F49B8"/>
<path d="M121.195 39.7711C121.195 43.9285 121.202 48.0859 121.191 52.24C121.185 54.1471 120.109 55.4017 118.507 55.4219C116.928 55.4421 115.73 54.1572 115.727 52.2803C115.707 43.9252 115.707 35.57 115.73 27.2149C115.734 25.6037 116.584 24.524 117.966 24.2381C119.191 23.9858 120.116 24.5005 120.8 25.4793C121.209 26.0645 121.198 26.7473 121.198 27.42C121.195 31.5404 121.195 35.6541 121.195 39.7711Z" fill="#1F49B8"/>
<path d="M48.1143 39.1258C48.1143 41.5072 48.2062 43.152 48.0939 44.78C47.9272 47.1816 45.7767 48.3723 43.8815 47.2085C43.1432 46.7544 42.711 46.0952 42.66 45.2509C42.4354 41.6048 42.3912 37.9519 42.6804 34.3125C42.7927 32.9099 43.9155 31.9984 45.2255 31.9378C46.5832 31.8739 47.7298 32.7585 47.9986 34.2183C48.3389 36.0818 48.0429 37.9822 48.1143 39.1258Z" fill="#1F49B8"/>
</svg>
