<svg width="1923" height="1080" viewBox="0 0 1923 1080" fill="none" xmlns="http://www.w3.org/2000/svg">
<g opacity="0.1">
<path d="M1922.5 40.4544C1922.5 39.7912 1922.5 39.7912 1922.5 39.128C1894.06 42.444 1865.63 45.4283 1836.93 48.4127C1836.93 32.1646 1836.93 15.9165 1836.93 0C1836.42 0 1836.16 0 1835.65 0C1835.65 16.2481 1835.65 32.4962 1835.65 48.4127C1799.78 52.0602 1763.91 55.3761 1727.79 58.6921C1727.79 42.7756 1727.79 26.8591 1727.79 11.2742C1727.27 11.2742 1727.02 11.2742 1726.51 11.2742C1726.51 27.1907 1726.51 42.7756 1726.51 58.6921C1690.64 62.008 1654.51 64.9923 1618.64 67.6451C1618.64 52.0602 1618.64 36.4753 1618.64 20.8904C1618.13 20.8904 1617.87 20.8904 1617.36 20.8904C1617.36 36.4753 1617.36 52.0602 1617.36 67.6451C1581.49 70.2978 1545.37 72.9506 1509.5 75.2717C1509.5 60.0184 1509.5 44.7651 1509.5 29.5118C1508.99 29.5118 1508.73 29.5118 1508.22 29.5118C1508.22 44.7651 1508.22 60.0184 1508.22 75.2717C1472.09 77.5929 1436.22 79.5824 1400.1 81.572C1400.1 66.6503 1400.1 51.397 1400.1 36.4753C1399.59 36.4753 1399.33 36.4753 1398.82 36.4753C1398.82 51.397 1398.82 66.6503 1398.82 81.572C1362.69 83.23 1326.82 84.8879 1290.7 86.5459C1290.7 71.6242 1290.7 56.7025 1290.7 41.7808C1290.19 41.7808 1289.93 41.7808 1289.42 41.7808C1289.42 56.7025 1289.42 71.6242 1289.42 86.5459C1253.29 87.8723 1217.42 89.1986 1181.3 89.8618C1181.3 74.9401 1181.3 60.35 1181.3 45.4283C1180.79 45.4283 1180.53 45.4283 1180.02 45.4283C1180.02 60.35 1180.02 74.9401 1180.02 89.8618C1143.89 90.8566 1107.77 91.5198 1071.9 91.8514C1071.9 77.2613 1071.9 62.3396 1071.9 47.7495C1071.39 47.7495 1071.13 47.7495 1070.62 47.7495C1070.62 62.3396 1070.62 77.2613 1070.62 91.8514C1034.49 92.183 998.368 92.5146 962.499 92.5146C962.499 77.9245 962.499 63.0028 962.499 48.4127C961.987 48.4127 961.731 48.4127 961.218 48.4127C961.218 63.0028 961.218 77.9245 961.218 92.5146C925.093 92.5146 888.968 92.183 853.099 91.8514C853.099 77.2613 853.099 62.3396 853.099 47.7495C852.587 47.7495 852.331 47.7495 851.818 47.7495C851.818 62.3396 851.818 77.2613 851.818 91.8514C815.693 91.5198 779.568 90.525 743.699 89.8618C743.699 74.9401 743.699 60.35 743.699 45.4283C743.187 45.4283 742.931 45.4283 742.418 45.4283C742.418 60.35 742.418 74.9401 742.418 89.8618C706.293 88.8671 670.168 87.8723 634.299 86.5459C634.299 71.6242 634.299 56.7025 634.299 41.7808C633.787 41.7808 633.531 41.7808 633.018 41.7808C633.018 56.7025 633.018 71.6242 633.018 86.5459C596.893 85.2195 561.024 83.5616 524.899 81.572C524.899 66.6503 524.899 51.397 524.899 36.4753C524.387 36.4753 524.131 36.4753 523.618 36.4753C523.618 51.397 523.618 66.6503 523.618 81.572C487.493 79.5824 451.624 77.5929 415.499 75.2717C415.499 60.0184 415.499 44.7651 415.499 29.5118C414.987 29.5118 414.73 29.5118 414.218 29.5118C414.218 44.7651 414.218 60.0184 414.218 75.2717C378.093 72.9506 342.224 70.2978 306.355 67.6451C306.355 52.0602 306.355 36.4753 306.355 20.8904C305.843 20.8904 305.587 20.8904 305.074 20.8904C305.074 36.4753 305.074 52.0602 305.074 67.6451C269.205 64.9923 233.08 62.008 197.211 58.6921C197.211 42.7756 197.211 27.1907 197.211 11.2742C196.699 11.2742 196.443 11.2742 195.93 11.2742C195.93 27.1907 195.93 43.1072 195.93 58.6921C160.062 55.3761 124.193 52.0602 88.0676 48.4127C88.0676 32.1646 88.0676 15.9165 88.0676 0C87.5552 0 87.299 0 86.7866 0C86.7866 16.2481 86.7866 32.4962 86.7866 48.4127C57.8353 45.4283 29.3964 42.444 0.95752 39.4596C0.95752 40.1228 0.95752 40.1228 0.95752 40.786C29.3964 44.1019 57.8353 47.0863 86.5304 50.0706C86.5304 65.9871 86.5304 81.9036 86.5304 97.8201C57.8353 95.1673 29.3964 92.183 0.95752 89.5302C0.95752 90.1934 0.95752 90.1934 0.95752 90.8566C29.3964 93.841 57.8353 96.4937 86.5304 99.1465C86.5304 115.063 86.5304 130.979 86.5304 146.896C57.8353 144.575 29.3964 141.922 0.95752 139.269C0.95752 139.932 0.95752 139.932 0.95752 140.596C29.3964 143.248 57.8353 145.57 86.5304 147.891C86.5304 163.807 86.5304 179.724 86.5304 195.64C57.8353 193.982 29.3964 191.661 0.95752 189.34C0.95752 190.003 0.95752 190.003 0.95752 190.666C29.3964 192.987 57.8353 194.977 86.5304 196.967C86.5304 212.883 86.5304 228.8 86.5304 244.716C57.8353 243.39 29.3964 241.4 0.95752 239.41C0.95752 240.074 0.95752 240.074 0.95752 240.737C29.3964 242.726 57.8353 244.384 86.5304 246.374C86.5304 262.29 86.5304 278.207 86.5304 294.123C57.8353 292.797 29.3964 291.139 0.95752 289.481C0.95752 290.144 0.95752 290.144 0.95752 290.807C29.3964 292.465 57.8353 293.792 86.5304 295.45C86.5304 311.366 86.5304 327.283 86.5304 343.199C58.0915 341.873 29.6526 340.878 0.95752 339.552C0.95752 340.215 0.95752 340.215 0.95752 340.878C29.3964 342.204 57.8353 343.531 86.5304 344.526C86.5304 360.442 86.5304 376.359 86.5304 392.275C58.0915 391.28 29.6526 390.617 0.95752 389.622C0.95752 390.286 0.95752 390.286 0.95752 390.949C29.3964 391.944 57.8353 392.938 86.5304 393.601C86.5304 409.518 86.5304 425.434 86.5304 441.351C58.0915 440.688 29.6526 440.025 0.95752 439.361C0.95752 440.025 0.95752 440.025 0.95752 440.688C29.3964 441.351 57.8353 442.014 86.5304 442.677C86.5304 458.594 86.5304 474.51 86.5304 490.427C58.0915 490.095 29.6526 489.764 0.95752 489.432C0.95752 490.095 0.95752 490.095 0.95752 490.758C29.3964 491.09 57.8353 491.422 86.5304 491.753C86.5304 507.67 86.5304 523.586 86.5304 539.503C58.0915 539.503 29.6526 539.503 0.95752 539.503C0.95752 540.166 0.95752 540.166 0.95752 540.829C29.3964 540.829 57.8353 540.829 86.5304 540.829C86.5304 556.745 86.5304 572.662 86.5304 588.578C58.0915 588.91 29.6526 589.242 0.95752 589.573C0.95752 590.236 0.95752 590.236 0.95752 590.9C29.3964 590.568 57.8353 590.236 86.5304 589.905C86.5304 605.821 86.5304 621.738 86.5304 637.654C58.0915 638.318 29.6526 638.981 0.95752 639.644C0.95752 640.307 0.95752 640.307 0.95752 640.97C29.3964 640.307 57.8353 639.644 86.5304 638.981C86.5304 654.897 86.5304 670.814 86.5304 686.73C58.0915 687.725 29.6526 688.388 0.95752 689.383C0.95752 690.046 0.95752 690.046 0.95752 690.709C29.3964 689.714 57.8353 688.72 86.5304 688.057C86.5304 703.973 86.5304 719.889 86.5304 735.806C58.0915 737.132 29.6526 738.127 0.95752 739.453C0.95752 740.117 0.95752 740.117 0.95752 740.78C29.3964 739.453 57.8353 738.127 86.5304 737.132C86.5304 753.049 86.5304 768.965 86.5304 784.882C58.0915 786.208 29.6526 787.866 0.95752 789.524C0.95752 790.187 0.95752 790.187 0.95752 790.85C29.3964 789.193 57.8353 787.866 86.5304 786.208C86.5304 802.125 86.5304 818.041 86.5304 833.958C58.0915 835.616 29.6526 837.605 0.95752 839.595C0.95752 840.258 0.95752 840.258 0.95752 840.921C29.3964 838.932 57.8353 837.274 86.5304 835.284C86.5304 851.2 86.5304 867.117 86.5304 883.033C58.0915 885.023 29.6526 887.344 0.95752 889.334C0.95752 889.997 0.95752 889.997 0.95752 890.66C29.3964 888.339 57.8353 886.349 86.5304 884.36C86.5304 900.276 86.5304 916.193 86.5304 932.109C58.0915 934.43 29.6526 937.083 0.95752 939.404C0.95752 940.068 0.95752 940.068 0.95752 940.731C29.3964 938.078 57.8353 935.757 86.5304 933.436C86.5304 949.352 86.5304 965.269 86.5304 981.185C58.0915 983.838 29.6526 986.491 0.95752 989.475C0.95752 990.138 0.95752 990.138 0.95752 990.801C29.3964 987.817 57.8353 985.164 86.5304 982.511C86.5304 998.428 86.5304 1014.34 86.5304 1030.26C58.0915 1033.25 29.6526 1036.23 0.95752 1039.55C0.95752 1040.21 0.95752 1040.21 0.95752 1040.87C29.3964 1037.56 57.8353 1034.57 86.5304 1031.59C86.5304 1047.84 86.5304 1064.08 86.5304 1080C87.0428 1080 87.299 1080 87.8114 1080C87.8114 1063.75 87.8114 1047.5 87.8114 1031.59C123.68 1027.94 159.549 1024.62 195.674 1021.31C195.674 1037.22 195.674 1053.14 195.674 1068.73C196.187 1068.73 196.443 1068.73 196.955 1068.73C196.955 1052.81 196.955 1037.22 196.955 1021.31C232.824 1017.99 268.949 1015.01 304.818 1012.35C304.818 1027.94 304.818 1043.52 304.818 1059.11C305.33 1059.11 305.587 1059.11 306.099 1059.11C306.099 1043.52 306.099 1027.94 306.099 1012.35C341.968 1009.7 378.093 1007.05 413.962 1004.73C413.962 1019.98 413.962 1035.23 413.962 1050.49C414.474 1050.49 414.73 1050.49 415.243 1050.49C415.243 1035.23 415.243 1019.98 415.243 1004.73C451.368 1002.41 487.237 1000.42 523.362 998.428C523.362 1013.35 523.362 1028.6 523.362 1043.52C523.874 1043.52 524.13 1043.52 524.643 1043.52C524.643 1028.6 524.643 1013.35 524.643 998.428C560.768 996.77 596.637 995.112 632.762 993.454C632.762 1008.38 632.762 1023.3 632.762 1038.22C633.274 1038.22 633.531 1038.22 634.043 1038.22C634.043 1023.3 634.043 1008.38 634.043 993.454C670.168 992.128 706.037 990.801 742.162 990.138C742.162 1005.06 742.162 1019.65 742.162 1034.57C742.674 1034.57 742.931 1034.57 743.443 1034.57C743.443 1019.65 743.443 1005.06 743.443 990.138C779.568 989.143 815.693 988.48 851.562 988.149C851.562 1002.74 851.562 1017.66 851.562 1032.25C852.074 1032.25 852.331 1032.25 852.843 1032.25C852.843 1017.66 852.843 1002.74 852.843 988.149C888.968 987.817 925.093 987.485 960.962 987.485C960.962 1002.08 960.962 1017 960.962 1031.59C961.474 1031.59 961.731 1031.59 962.243 1031.59C962.243 1017 962.243 1002.08 962.243 987.485C998.368 987.485 1034.49 987.817 1070.36 988.149C1070.36 1002.74 1070.36 1017.66 1070.36 1032.25C1070.87 1032.25 1071.13 1032.25 1071.64 1032.25C1071.64 1017.66 1071.64 1002.74 1071.64 988.149C1107.77 988.48 1143.89 989.475 1179.76 990.138C1179.76 1005.06 1179.76 1019.65 1179.76 1034.57C1180.27 1034.57 1180.53 1034.57 1181.04 1034.57C1181.04 1019.65 1181.04 1005.06 1181.04 990.138C1217.17 991.133 1253.29 992.128 1289.16 993.454C1289.16 1008.38 1289.16 1023.3 1289.16 1038.22C1289.67 1038.22 1289.93 1038.22 1290.44 1038.22C1290.44 1023.3 1290.44 1008.38 1290.44 993.454C1326.57 994.781 1362.44 996.438 1398.56 998.428C1398.56 1013.35 1398.56 1028.6 1398.56 1043.52C1399.07 1043.52 1399.33 1043.52 1399.84 1043.52C1399.84 1028.6 1399.84 1013.35 1399.84 998.428C1435.97 1000.42 1471.84 1002.41 1507.96 1004.73C1507.96 1019.98 1507.96 1035.23 1507.96 1050.49C1508.47 1050.49 1508.73 1050.49 1509.24 1050.49C1509.24 1035.23 1509.24 1019.98 1509.24 1004.73C1545.37 1007.05 1581.24 1009.7 1617.11 1012.35C1617.11 1027.94 1617.11 1043.52 1617.11 1059.11C1617.62 1059.11 1617.87 1059.11 1618.39 1059.11C1618.39 1043.52 1618.39 1027.94 1618.39 1012.35C1654.26 1015.01 1690.38 1017.99 1726.25 1021.31C1726.25 1037.22 1726.25 1052.81 1726.25 1068.73C1726.76 1068.73 1727.02 1068.73 1727.53 1068.73C1727.53 1052.81 1727.53 1036.89 1727.53 1021.31C1763.4 1024.62 1799.27 1027.94 1835.39 1031.59C1835.39 1047.84 1835.39 1064.08 1835.39 1080C1835.91 1080 1836.16 1080 1836.67 1080C1836.67 1063.75 1836.67 1047.5 1836.67 1031.59C1865.11 1034.57 1893.55 1037.56 1922.25 1040.87C1922.25 1040.21 1922.25 1040.21 1922.25 1039.55C1893.81 1036.23 1865.37 1033.25 1836.67 1030.26C1836.67 1014.34 1836.67 998.428 1836.67 982.511C1865.11 985.164 1893.55 987.817 1922.25 990.801C1922.25 990.138 1922.25 990.138 1922.25 989.475C1893.81 986.491 1865.37 983.838 1836.67 981.185C1836.67 965.269 1836.67 949.352 1836.67 933.436C1865.11 935.757 1893.55 938.41 1922.25 940.731C1922.25 940.068 1922.25 940.068 1922.25 939.404C1893.81 936.752 1865.37 934.43 1836.67 932.109C1836.67 916.193 1836.67 900.276 1836.67 884.36C1865.11 886.349 1893.55 888.671 1922.25 890.66C1922.25 889.997 1922.25 889.997 1922.25 889.334C1893.81 887.013 1865.37 885.023 1836.67 883.033C1836.67 867.117 1836.67 851.2 1836.67 835.284C1865.11 836.942 1893.55 838.932 1922.25 840.921C1922.25 840.258 1922.25 840.258 1922.25 839.595C1893.81 837.605 1865.37 835.947 1836.67 833.958C1836.67 818.041 1836.67 802.125 1836.67 786.208C1865.11 787.535 1893.55 789.193 1922.25 790.85C1922.25 790.187 1922.25 790.187 1922.25 789.524C1893.81 787.866 1865.37 786.54 1836.67 784.882C1836.67 768.965 1836.67 753.049 1836.67 737.132C1865.11 738.459 1893.55 739.453 1922.25 740.78C1922.25 740.117 1922.25 740.117 1922.25 739.453C1893.81 738.127 1865.37 736.801 1836.67 735.806C1836.67 719.889 1836.67 703.973 1836.67 688.057C1865.11 689.051 1893.55 689.714 1922.25 690.709C1922.25 690.046 1922.25 690.046 1922.25 689.383C1893.81 688.388 1865.37 687.393 1836.67 686.73C1836.67 670.814 1836.67 654.897 1836.67 638.981C1865.11 639.644 1893.55 640.307 1922.25 640.97C1922.25 640.307 1922.25 640.307 1922.25 639.644C1893.81 638.981 1865.37 638.318 1836.67 637.654C1836.67 621.738 1836.67 605.821 1836.67 589.905C1865.11 590.236 1893.55 590.568 1922.25 590.9C1922.25 590.236 1922.25 590.236 1922.25 589.573C1893.81 589.242 1865.37 588.91 1836.67 588.578C1836.67 572.662 1836.67 556.745 1836.67 540.829C1865.11 540.829 1893.55 540.829 1922.25 540.829C1922.25 540.166 1922.25 540.166 1922.25 539.503C1893.81 539.503 1865.37 539.503 1836.67 539.503C1836.67 523.586 1836.67 507.67 1836.67 491.753C1865.11 491.422 1893.55 491.09 1922.25 490.758C1922.25 490.095 1922.25 490.095 1922.25 489.432C1893.81 489.764 1865.37 490.095 1836.67 490.427C1836.67 474.51 1836.67 458.594 1836.67 442.677C1865.11 442.014 1893.55 441.351 1922.25 440.688C1922.25 440.025 1922.25 440.025 1922.25 439.361C1893.81 440.025 1865.37 440.688 1836.67 441.351C1836.67 425.434 1836.67 409.518 1836.67 393.601C1865.11 392.607 1893.55 391.944 1922.25 390.949C1922.25 390.286 1922.25 390.286 1922.25 389.622C1893.81 390.617 1865.37 391.612 1836.67 392.275C1836.67 376.359 1836.67 360.442 1836.67 344.526C1865.11 343.199 1893.55 342.204 1922.25 340.878C1922.25 340.215 1922.25 340.215 1922.25 339.552C1893.81 340.878 1865.37 342.204 1836.67 343.199C1836.67 327.283 1836.67 311.366 1836.67 295.45C1865.11 294.123 1893.55 292.465 1922.25 290.807C1922.25 290.144 1922.25 290.144 1922.25 289.481C1893.81 291.139 1865.37 292.465 1836.67 294.123C1836.67 278.207 1836.67 262.29 1836.67 246.374C1865.11 244.716 1893.55 242.726 1922.25 240.737C1922.25 240.074 1922.25 240.074 1922.25 239.41C1893.81 241.4 1865.37 243.058 1836.67 245.048C1836.67 229.131 1836.67 213.215 1836.67 197.298C1865.11 195.309 1893.55 192.987 1922.25 190.998C1922.25 190.335 1922.25 190.335 1922.25 189.671C1893.81 191.993 1865.37 193.982 1836.67 195.972C1836.67 180.055 1836.67 164.139 1836.67 148.222C1865.11 145.901 1893.55 143.248 1922.25 140.927C1922.25 140.264 1922.25 140.264 1922.25 139.601C1893.81 142.254 1865.37 144.575 1836.67 146.896C1836.67 130.979 1836.67 115.063 1836.67 99.1465C1865.11 96.4937 1893.55 93.841 1922.25 90.8566C1922.25 90.1934 1922.25 90.1934 1922.25 89.5302C1893.81 92.5146 1865.37 95.1673 1836.67 97.8201C1836.67 81.9036 1836.67 65.9871 1836.67 50.0706C1865.63 46.7547 1894.06 43.7703 1922.5 40.4544ZM1726.76 60.35C1726.76 75.9349 1726.76 91.5198 1726.76 107.105C1690.89 110.089 1654.77 112.742 1618.9 115.063C1618.9 99.8096 1618.9 84.5563 1618.9 68.9714C1654.77 66.6503 1690.89 63.666 1726.76 60.35ZM960.962 451.63C960.962 466.22 960.962 480.811 960.962 495.069C924.837 495.069 888.712 495.069 852.843 495.069C852.843 480.479 852.843 465.889 852.843 451.63C888.968 451.63 925.093 451.63 960.962 451.63ZM852.843 450.636C852.843 436.045 852.843 421.455 852.843 407.197C888.968 407.197 925.093 407.528 960.962 407.528C960.962 422.119 960.962 436.709 960.962 450.967C925.093 450.636 888.968 450.636 852.843 450.636ZM960.962 496.395C960.962 510.986 960.962 525.576 960.962 539.834C924.837 539.834 888.712 539.834 852.843 539.834C852.843 525.244 852.843 510.654 852.843 496.395C888.968 496.395 925.093 496.395 960.962 496.395ZM960.962 541.161C960.962 555.751 960.962 570.341 960.962 584.599C924.837 584.599 888.712 584.599 852.843 584.599C852.843 570.009 852.843 555.419 852.843 541.161C888.968 541.161 925.093 541.161 960.962 541.161ZM960.962 585.594C960.962 600.184 960.962 614.774 960.962 629.033C924.837 629.033 888.712 629.033 852.843 629.033C852.843 614.443 852.843 599.853 852.843 585.594C888.968 585.594 925.093 585.594 960.962 585.594ZM960.962 630.359C960.962 644.949 960.962 659.539 960.962 673.798C924.837 673.798 888.712 673.798 852.843 674.13C852.843 659.539 852.843 644.949 852.843 630.691C888.968 630.359 925.093 630.359 960.962 630.359ZM962.243 630.359C998.368 630.359 1034.49 630.359 1070.36 630.359C1070.36 644.949 1070.36 659.539 1070.36 673.798C1034.24 673.798 998.112 673.466 962.243 673.466C962.243 659.539 962.243 644.949 962.243 630.359ZM962.243 629.364C962.243 614.774 962.243 600.184 962.243 585.926C998.368 585.926 1034.49 585.926 1070.36 585.926C1070.36 600.516 1070.36 615.106 1070.36 629.364C1034.49 629.364 998.368 629.364 962.243 629.364ZM962.243 584.599C962.243 570.009 962.243 555.419 962.243 541.161C998.368 541.161 1034.49 541.161 1070.36 541.161C1070.36 555.751 1070.36 570.341 1070.36 584.599C1034.49 584.599 998.368 584.599 962.243 584.599ZM962.243 539.834C962.243 525.244 962.243 510.654 962.243 496.395C998.368 496.395 1034.49 496.395 1070.36 496.395C1070.36 510.986 1070.36 525.576 1070.36 539.834C1034.49 539.834 998.368 539.834 962.243 539.834ZM962.243 495.401C962.243 480.811 962.243 466.22 962.243 451.962C998.368 451.962 1034.49 451.962 1070.36 451.962C1070.36 466.552 1070.36 481.142 1070.36 495.401C1034.49 495.401 998.368 495.401 962.243 495.401ZM962.243 450.636C962.243 436.045 962.243 421.455 962.243 407.197C998.368 407.197 1034.49 407.197 1070.36 406.865C1070.36 421.455 1070.36 436.045 1070.36 450.304C1034.49 450.636 998.368 450.636 962.243 450.636ZM962.243 405.87C962.243 391.28 962.243 376.69 962.243 362.432C998.368 362.432 1034.49 362.432 1070.36 362.1C1070.36 376.69 1070.36 391.28 1070.36 405.539C1034.49 405.87 998.368 405.87 962.243 405.87ZM960.962 405.87C924.837 405.87 888.712 405.87 852.843 405.539C852.843 390.949 852.843 376.359 852.843 362.1C888.968 362.432 925.093 362.432 960.962 362.432C960.962 377.022 960.962 391.612 960.962 405.87ZM851.562 405.87C815.437 405.87 779.312 405.539 743.443 405.207C743.443 390.617 743.443 376.027 743.443 361.437C779.568 361.768 815.693 362.1 851.562 362.1C851.562 376.69 851.562 391.28 851.562 405.87ZM851.562 406.865C851.562 421.455 851.562 436.045 851.562 450.304C815.437 450.304 779.312 449.972 743.443 449.972C743.443 435.382 743.443 420.792 743.443 406.202C779.312 406.534 815.437 406.865 851.562 406.865ZM851.562 451.63C851.562 466.22 851.562 480.811 851.562 495.069C815.437 495.069 779.312 495.069 743.443 494.737C743.443 480.147 743.443 465.557 743.443 450.967C779.312 451.299 815.437 451.63 851.562 451.63ZM851.562 496.395C851.562 510.986 851.562 525.576 851.562 539.834C815.437 539.834 779.312 539.834 743.443 539.834C743.443 525.244 743.443 510.654 743.443 496.064C779.312 496.064 815.437 496.395 851.562 496.395ZM851.562 541.161C851.562 555.751 851.562 570.341 851.562 584.599C815.437 584.599 779.312 584.599 743.443 584.931C743.443 570.341 743.443 555.751 743.443 541.161C779.312 541.161 815.437 541.161 851.562 541.161ZM851.562 585.926C851.562 600.516 851.562 615.106 851.562 629.364C815.437 629.364 779.312 629.696 743.443 629.696C743.443 615.106 743.443 600.516 743.443 585.926C779.312 585.926 815.437 585.926 851.562 585.926ZM851.562 630.359C851.562 644.949 851.562 659.539 851.562 673.798C815.437 673.798 779.312 674.13 743.443 674.461C743.443 659.871 743.443 645.281 743.443 630.691C779.312 630.691 815.437 630.691 851.562 630.359ZM851.562 675.124C851.562 689.714 851.562 704.305 851.562 718.563C815.437 718.895 779.312 718.895 743.443 719.226C743.443 704.636 743.443 690.046 743.443 675.456C779.312 675.456 815.437 675.456 851.562 675.124ZM852.843 675.124C888.968 675.124 925.093 674.793 960.962 674.793C960.962 689.383 960.962 703.973 960.962 718.232C924.837 718.232 888.712 718.232 852.843 718.563C852.843 704.305 852.843 689.714 852.843 675.124ZM962.243 675.124C998.368 675.124 1034.49 675.124 1070.36 675.456C1070.36 690.046 1070.36 704.636 1070.36 718.895C1034.24 718.563 998.112 718.563 962.243 718.563C962.243 703.973 962.243 689.383 962.243 675.124ZM1071.9 675.124C1108.02 675.124 1144.15 675.456 1180.02 675.788C1180.02 690.378 1180.02 704.968 1180.02 719.558C1143.89 719.226 1107.77 718.895 1071.9 718.895C1071.9 704.305 1071.9 689.714 1071.9 675.124ZM1071.9 674.13C1071.9 659.539 1071.9 644.949 1071.9 630.691C1108.02 630.691 1144.15 631.022 1180.02 631.022C1180.02 645.613 1180.02 660.203 1180.02 674.793C1143.89 674.461 1108.02 674.13 1071.9 674.13ZM1071.9 629.364C1071.9 614.774 1071.9 600.184 1071.9 585.926C1108.02 585.926 1144.15 585.926 1180.02 586.257C1180.02 600.847 1180.02 615.438 1180.02 630.028C1143.89 629.696 1108.02 629.364 1071.9 629.364ZM1071.9 584.599C1071.9 570.009 1071.9 555.419 1071.9 541.161C1108.02 541.161 1144.15 541.161 1180.02 541.161C1180.02 555.751 1180.02 570.341 1180.02 584.931C1143.89 584.931 1108.02 584.599 1071.9 584.599ZM1071.9 539.834C1071.9 525.244 1071.9 510.654 1071.9 496.395C1108.02 496.395 1144.15 496.395 1180.02 496.064C1180.02 510.654 1180.02 525.244 1180.02 539.834C1143.89 539.834 1108.02 539.834 1071.9 539.834ZM1071.9 495.069C1071.9 480.479 1071.9 465.889 1071.9 451.63C1108.02 451.63 1144.15 451.299 1180.02 451.299C1180.02 465.889 1180.02 480.479 1180.02 495.069C1143.89 495.069 1108.02 495.069 1071.9 495.069ZM1071.9 450.636C1071.9 436.045 1071.9 421.455 1071.9 407.197C1108.02 407.197 1144.15 406.865 1180.02 406.534C1180.02 421.124 1180.02 435.714 1180.02 450.304C1143.89 450.304 1108.02 450.304 1071.9 450.636ZM1071.9 405.87C1071.9 391.28 1071.9 376.69 1071.9 362.432C1108.02 362.1 1144.15 362.1 1180.02 361.768C1180.02 376.359 1180.02 390.949 1180.02 405.539C1143.89 405.539 1108.02 405.539 1071.9 405.87ZM1071.9 361.105C1071.9 346.515 1071.9 331.925 1071.9 317.667C1108.02 317.335 1144.15 317.003 1180.02 316.672C1180.02 331.262 1180.02 345.852 1180.02 360.442C1143.89 360.442 1108.02 360.774 1071.9 361.105ZM1070.62 361.105C1034.49 361.437 998.368 361.437 962.499 361.437C962.499 346.847 962.499 332.257 962.499 317.998C998.624 317.998 1034.75 317.998 1070.62 317.667C1070.62 331.925 1070.62 346.515 1070.62 361.105ZM960.962 361.437C924.837 361.437 888.712 361.437 852.843 361.105C852.843 346.515 852.843 331.925 852.843 317.667C888.968 317.998 925.093 317.998 960.962 317.998C960.962 332.257 960.962 346.847 960.962 361.437ZM851.562 361.105C815.437 360.774 779.312 360.774 743.443 360.111C743.443 345.52 743.443 330.93 743.443 316.34C779.568 316.672 815.693 317.003 851.562 317.335C851.562 331.925 851.562 346.515 851.562 361.105ZM742.162 360.111C706.037 359.779 670.168 359.116 634.043 358.784C634.043 344.194 634.043 329.272 634.043 314.682C670.168 315.345 706.037 316.009 742.162 316.34C742.162 330.93 742.162 345.52 742.162 360.111ZM742.162 361.437C742.162 376.027 742.162 390.617 742.162 405.207C706.037 404.876 670.168 404.544 634.043 404.212C634.043 389.622 634.043 374.701 634.043 360.111C669.912 360.442 706.037 360.774 742.162 361.437ZM742.162 406.202C742.162 420.792 742.162 435.382 742.162 449.972C706.037 449.641 670.168 449.641 634.043 449.309C634.043 434.719 634.043 419.797 634.043 405.207C669.912 405.539 706.037 405.87 742.162 406.202ZM742.162 451.299C742.162 465.889 742.162 480.479 742.162 495.069C706.037 495.069 670.168 494.737 634.043 494.737C634.043 480.147 634.043 465.226 634.043 450.636C669.912 450.636 706.037 450.967 742.162 451.299ZM742.162 496.064C742.162 510.654 742.162 525.244 742.162 539.834C706.037 539.834 670.168 539.834 634.043 539.834C634.043 525.244 634.043 510.322 634.043 495.732C669.912 496.064 706.037 496.064 742.162 496.064ZM742.162 541.161C742.162 555.751 742.162 570.341 742.162 584.931C706.037 584.931 670.168 585.263 634.043 585.263C634.043 570.672 634.043 555.751 634.043 541.161C669.912 541.161 706.037 541.161 742.162 541.161ZM742.162 585.926C742.162 600.516 742.162 615.106 742.162 629.696C706.037 630.028 670.168 630.028 634.043 630.359C634.043 615.769 634.043 600.847 634.043 586.257C669.912 586.257 706.037 586.257 742.162 585.926ZM742.162 631.022C742.162 645.613 742.162 660.203 742.162 674.793C706.037 675.124 670.168 675.456 634.043 675.788C634.043 661.197 634.043 646.276 634.043 631.686C669.912 631.354 706.037 631.022 742.162 631.022ZM742.162 675.788C742.162 690.378 742.162 704.968 742.162 719.558C706.037 719.889 670.168 720.553 634.043 720.884C634.043 706.294 634.043 691.372 634.043 676.782C669.912 676.451 706.037 676.119 742.162 675.788ZM742.162 720.884C742.162 735.474 742.162 750.065 742.162 764.655C706.037 764.986 670.168 765.649 634.043 766.313C634.043 751.722 634.043 736.801 634.043 722.211C669.912 721.547 706.037 721.216 742.162 720.884ZM743.443 720.884C779.568 720.553 815.693 720.221 851.562 719.889C851.562 734.48 851.562 749.07 851.562 763.328C815.437 763.66 779.312 763.991 743.443 764.323C743.443 750.064 743.443 735.474 743.443 720.884ZM852.843 719.889C888.968 719.558 925.093 719.558 960.962 719.558C960.962 734.148 960.962 748.738 960.962 762.997C924.837 762.997 888.712 762.997 852.843 763.328C852.843 749.07 852.843 734.48 852.843 719.889ZM962.243 719.558C998.368 719.558 1034.49 719.558 1070.36 719.889C1070.36 734.48 1070.36 749.07 1070.36 763.328C1034.24 762.997 998.112 762.997 962.243 762.997C962.243 748.738 962.243 734.148 962.243 719.558ZM1071.9 719.889C1108.02 720.221 1144.15 720.221 1180.02 720.884C1180.02 735.474 1180.02 750.065 1180.02 764.655C1143.89 764.323 1107.77 763.991 1071.9 763.66C1071.9 749.07 1071.9 734.48 1071.9 719.889ZM1181.3 720.884C1217.42 721.216 1253.29 721.879 1289.42 722.211C1289.42 736.801 1289.42 751.722 1289.42 766.313C1253.29 765.649 1217.42 764.986 1181.3 764.655C1181.3 750.065 1181.3 735.474 1181.3 720.884ZM1181.3 719.558C1181.3 704.968 1181.3 690.378 1181.3 675.788C1217.42 676.119 1253.29 676.451 1289.42 676.782C1289.42 691.372 1289.42 706.294 1289.42 720.884C1253.55 720.553 1217.42 720.221 1181.3 719.558ZM1181.3 674.793C1181.3 660.203 1181.3 645.613 1181.3 631.022C1217.42 631.354 1253.29 631.354 1289.42 631.686C1289.42 646.276 1289.42 661.197 1289.42 675.788C1253.55 675.456 1217.42 675.124 1181.3 674.793ZM1181.3 629.696C1181.3 615.106 1181.3 600.516 1181.3 585.926C1217.42 585.926 1253.29 586.257 1289.42 586.257C1289.42 600.847 1289.42 615.769 1289.42 630.359C1253.55 630.359 1217.42 630.028 1181.3 629.696ZM1181.3 584.931C1181.3 570.341 1181.3 555.751 1181.3 541.161C1217.42 541.161 1253.29 541.161 1289.42 541.161C1289.42 555.751 1289.42 570.672 1289.42 585.263C1253.55 584.931 1217.42 584.931 1181.3 584.931ZM1181.3 539.834C1181.3 525.244 1181.3 510.654 1181.3 496.064C1217.42 496.064 1253.29 495.732 1289.42 495.732C1289.42 510.322 1289.42 525.244 1289.42 539.834C1253.55 539.834 1217.42 539.834 1181.3 539.834ZM1181.3 495.069C1181.3 480.479 1181.3 465.889 1181.3 451.299C1217.42 450.967 1253.29 450.967 1289.42 450.636C1289.42 465.226 1289.42 480.147 1289.42 494.737C1253.55 494.737 1217.42 494.737 1181.3 495.069ZM1181.3 449.972C1181.3 435.382 1181.3 420.792 1181.3 406.202C1217.42 405.87 1253.29 405.539 1289.42 405.207C1289.42 419.797 1289.42 434.719 1289.42 449.309C1253.55 449.641 1217.42 449.972 1181.3 449.972ZM1181.3 405.207C1181.3 390.617 1181.3 376.027 1181.3 361.437C1217.42 361.105 1253.29 360.442 1289.42 360.111C1289.42 374.701 1289.42 389.622 1289.42 404.212C1253.55 404.544 1217.42 404.876 1181.3 405.207ZM1181.3 360.111C1181.3 345.52 1181.3 330.93 1181.3 316.34C1217.42 316.009 1253.29 315.345 1289.42 314.682C1289.42 329.272 1289.42 344.194 1289.42 358.784C1253.55 359.447 1217.42 359.779 1181.3 360.111ZM1181.3 315.345C1181.3 300.755 1181.3 286.165 1181.3 271.575C1217.42 270.912 1253.29 270.249 1289.42 269.586C1289.42 284.176 1289.42 299.097 1289.42 313.687C1253.55 314.351 1217.42 314.682 1181.3 315.345ZM1180.02 315.345C1143.89 315.677 1107.77 316.009 1071.9 316.34C1071.9 301.75 1071.9 287.16 1071.9 272.901C1108.02 272.57 1144.15 272.238 1180.02 271.575C1180.02 286.165 1180.02 300.755 1180.02 315.345ZM1070.62 316.34C1034.49 316.672 998.368 316.672 962.499 316.672C962.499 302.082 962.499 287.492 962.499 273.233C998.624 273.233 1034.75 273.233 1070.62 272.901C1070.62 287.16 1070.62 301.75 1070.62 316.34ZM960.962 316.672C924.837 316.672 888.712 316.672 852.843 316.34C852.843 301.75 852.843 287.16 852.843 272.901C888.968 273.233 925.093 273.233 960.962 273.233C960.962 287.492 960.962 302.082 960.962 316.672ZM851.562 316.34C815.437 316.009 779.312 315.677 743.443 315.345C743.443 300.755 743.443 286.165 743.443 271.575C779.568 272.238 815.693 272.57 851.562 272.901C851.562 287.16 851.562 301.75 851.562 316.34ZM742.162 315.345C706.037 315.014 670.168 314.351 634.043 313.687C634.043 299.097 634.043 284.176 634.043 269.586C670.168 270.249 706.037 271.243 742.162 271.575C742.162 286.165 742.162 300.755 742.162 315.345ZM632.506 313.356C596.381 312.693 560.512 311.698 524.387 311.035C524.387 296.113 524.387 281.191 524.387 266.27C560.512 267.264 596.381 268.259 632.506 269.254C632.506 284.176 632.506 298.766 632.506 313.356ZM632.506 314.682C632.506 329.272 632.506 344.194 632.506 358.784C596.381 358.121 560.512 357.458 524.387 356.795C524.387 341.873 524.387 326.951 524.387 312.029C560.512 313.024 596.637 314.019 632.506 314.682ZM632.506 359.779C632.506 374.369 632.506 389.291 632.506 403.881C596.381 403.549 560.512 402.886 524.387 402.555C524.387 387.633 524.387 372.711 524.387 357.789C560.512 358.784 596.637 359.447 632.506 359.779ZM632.506 405.207C632.506 419.797 632.506 434.719 632.506 449.309C596.381 448.978 560.512 448.646 524.387 448.314C524.387 433.393 524.387 418.471 524.387 403.549C560.512 404.212 596.637 404.876 632.506 405.207ZM632.506 450.636C632.506 465.226 632.506 480.147 632.506 494.737C596.381 494.737 560.512 494.406 524.387 494.406C524.387 479.484 524.387 464.562 524.387 449.641C560.512 449.972 596.637 450.304 632.506 450.636ZM632.506 495.732C632.506 510.322 632.506 525.244 632.506 539.834C596.381 539.834 560.512 539.834 524.387 539.834C524.387 524.912 524.387 509.991 524.387 495.069C560.512 495.401 596.637 495.732 632.506 495.732ZM632.506 541.161C632.506 555.751 632.506 570.672 632.506 585.263C596.381 585.263 560.512 585.594 524.387 585.594C524.387 570.672 524.387 555.751 524.387 540.829C560.512 541.161 596.637 541.161 632.506 541.161ZM632.506 586.257C632.506 600.847 632.506 615.769 632.506 630.359C596.381 630.691 560.512 631.022 524.387 631.354C524.387 616.432 524.387 601.511 524.387 586.589C560.512 586.589 596.637 586.589 632.506 586.257ZM632.506 631.686C632.506 646.276 632.506 661.197 632.506 675.788C596.381 676.119 560.512 676.782 524.387 677.114C524.387 662.192 524.387 647.271 524.387 632.349C560.512 632.349 596.637 632.017 632.506 631.686ZM632.506 676.782C632.506 691.372 632.506 706.294 632.506 720.884C596.381 721.547 560.512 722.211 524.387 722.874C524.387 707.952 524.387 693.03 524.387 678.109C560.512 677.777 596.637 677.445 632.506 676.782ZM632.506 722.211C632.506 736.801 632.506 751.722 632.506 766.313C596.381 766.976 560.512 767.971 524.387 768.634C524.387 753.712 524.387 738.79 524.387 723.869C560.512 723.537 596.637 722.874 632.506 722.211ZM632.506 767.639C632.506 782.229 632.506 797.151 632.506 811.741C596.381 812.736 560.512 813.399 524.387 814.725C524.387 799.803 524.387 784.882 524.387 769.96C560.512 768.965 596.637 768.302 632.506 767.639ZM633.787 767.639C669.912 766.976 705.781 766.313 741.906 765.981C741.906 780.571 741.906 795.161 741.906 809.751C705.781 810.414 669.912 811.078 633.787 811.741C633.787 796.819 633.787 782.229 633.787 767.639ZM743.443 765.649C779.568 765.318 815.693 764.986 851.562 764.655C851.562 779.245 851.562 793.835 851.562 808.093C815.437 808.425 779.312 808.757 743.443 809.42C743.443 794.83 743.443 780.239 743.443 765.649ZM852.843 764.655C888.968 764.323 925.093 764.323 960.962 764.323C960.962 778.913 960.962 793.503 960.962 807.762C924.837 807.762 888.712 807.762 852.843 808.093C852.843 793.835 852.843 779.245 852.843 764.655ZM962.243 764.323C998.368 764.323 1034.49 764.323 1070.36 764.655C1070.36 779.245 1070.36 793.835 1070.36 808.093C1034.24 807.762 998.112 807.762 962.243 807.762C962.243 793.503 962.243 778.913 962.243 764.323ZM1071.9 764.655C1108.02 764.986 1144.15 765.318 1180.02 765.649C1180.02 780.239 1180.02 794.83 1180.02 809.42C1143.89 808.757 1107.77 808.425 1071.9 808.093C1071.9 793.835 1071.9 779.245 1071.9 764.655ZM1181.3 765.649C1217.42 765.981 1253.29 766.644 1289.42 767.307C1289.42 781.897 1289.42 796.819 1289.42 811.409C1253.29 810.746 1217.42 809.751 1181.3 809.42C1181.3 794.83 1181.3 780.239 1181.3 765.649ZM1290.96 767.639C1327.08 768.302 1362.95 769.297 1399.07 769.96C1399.07 784.882 1399.07 799.803 1399.07 814.725C1362.95 813.73 1327.08 812.736 1290.96 811.741C1290.96 796.819 1290.96 782.229 1290.96 767.639ZM1290.96 766.313C1290.96 751.722 1290.96 736.801 1290.96 722.211C1327.08 722.874 1362.95 723.537 1399.07 724.2C1399.07 739.122 1399.07 754.044 1399.07 768.965C1362.95 767.971 1326.82 766.976 1290.96 766.313ZM1290.96 721.216C1290.96 706.626 1290.96 691.704 1290.96 677.114C1327.08 677.445 1362.95 678.109 1399.07 678.44C1399.07 693.362 1399.07 708.284 1399.07 723.205C1362.95 722.211 1326.82 721.547 1290.96 721.216ZM1290.96 675.788C1290.96 661.197 1290.96 646.276 1290.96 631.686C1327.08 632.017 1362.95 632.349 1399.07 632.68C1399.07 647.602 1399.07 662.524 1399.07 677.445C1362.95 676.782 1326.82 676.119 1290.96 675.788ZM1290.96 630.359C1290.96 615.769 1290.96 600.847 1290.96 586.257C1327.08 586.257 1362.95 586.589 1399.07 586.589C1399.07 601.511 1399.07 616.432 1399.07 631.354C1362.95 631.022 1326.82 630.691 1290.96 630.359ZM1290.96 585.263C1290.96 570.672 1290.96 555.751 1290.96 541.161C1327.08 541.161 1362.95 541.161 1399.07 541.161C1399.07 556.082 1399.07 571.004 1399.07 585.926C1362.95 585.594 1326.82 585.263 1290.96 585.263ZM1290.96 539.834C1290.96 525.244 1290.96 510.322 1290.96 495.732C1327.08 495.732 1362.95 495.401 1399.07 495.401C1399.07 510.322 1399.07 525.244 1399.07 540.166C1362.95 539.834 1326.82 539.834 1290.96 539.834ZM1290.96 494.737C1290.96 480.147 1290.96 465.226 1290.96 450.636C1327.08 450.304 1362.95 449.972 1399.07 449.641C1399.07 464.562 1399.07 479.484 1399.07 494.406C1362.95 494.406 1326.82 494.406 1290.96 494.737ZM1290.96 449.309C1290.96 434.719 1290.96 419.797 1290.96 405.207C1327.08 404.876 1362.95 404.212 1399.07 403.881C1399.07 418.803 1399.07 433.724 1399.07 448.646C1362.95 448.646 1326.82 448.978 1290.96 449.309ZM1290.96 404.212C1290.96 389.622 1290.96 374.701 1290.96 360.111C1327.08 359.447 1362.95 358.784 1399.07 358.121C1399.07 373.043 1399.07 387.964 1399.07 402.886C1362.95 403.218 1326.82 403.549 1290.96 404.212ZM1290.96 358.784C1290.96 344.194 1290.96 329.272 1290.96 314.682C1327.08 314.019 1362.95 313.024 1399.07 312.361C1399.07 327.283 1399.07 342.204 1399.07 357.126C1362.95 357.458 1326.82 358.121 1290.96 358.784ZM1290.96 313.356C1290.96 298.766 1290.96 283.844 1290.96 269.254C1327.08 268.259 1362.95 267.596 1399.07 266.27C1399.07 281.191 1399.07 296.113 1399.07 311.035C1362.95 312.029 1326.82 312.693 1290.96 313.356ZM1290.96 268.259C1290.96 253.669 1290.96 238.747 1290.96 224.157C1327.08 223.162 1362.95 222.168 1399.07 220.841C1399.07 235.763 1399.07 250.685 1399.07 265.606C1362.95 266.27 1326.82 267.264 1290.96 268.259ZM1289.67 268.259C1253.55 268.922 1217.68 269.917 1181.56 270.249C1181.56 255.659 1181.56 241.068 1181.56 226.478C1217.68 225.815 1253.55 225.152 1289.67 224.157C1289.67 238.747 1289.67 253.669 1289.67 268.259ZM1180.02 270.249C1143.89 270.912 1107.77 271.243 1071.9 271.575C1071.9 256.985 1071.9 242.395 1071.9 228.136C1108.02 227.805 1144.15 227.473 1180.02 226.81C1180.02 241.068 1180.02 255.659 1180.02 270.249ZM1070.62 271.575C1034.49 271.907 998.368 271.907 962.243 271.907C962.243 257.317 962.243 242.726 962.243 228.468C998.368 228.468 1034.49 228.136 1070.36 228.136C1070.62 242.395 1070.62 256.985 1070.62 271.575ZM960.962 271.907C924.837 271.907 888.712 271.907 852.843 271.575C852.843 256.985 852.843 242.395 852.843 228.136C888.968 228.468 925.093 228.468 960.962 228.468C960.962 243.058 960.962 257.648 960.962 271.907ZM851.562 271.575C815.437 271.243 779.312 270.912 743.443 270.249C743.443 255.659 743.443 241.068 743.443 226.478C779.568 227.142 815.693 227.473 851.562 227.805C851.562 242.395 851.562 256.985 851.562 271.575ZM742.162 270.249C706.037 269.586 670.168 268.922 634.043 268.259C634.043 253.669 634.043 238.747 634.043 224.157C670.168 225.152 706.037 225.815 742.162 226.478C742.162 241.068 742.162 255.659 742.162 270.249ZM632.506 268.259C596.381 267.264 560.512 266.601 524.387 265.275C524.387 250.353 524.387 235.431 524.387 220.51C560.512 221.836 596.381 222.831 632.506 223.826C632.506 238.747 632.506 253.337 632.506 268.259ZM523.106 265.275C486.981 264.28 451.112 262.954 414.987 261.627C414.987 246.706 414.987 231.452 414.987 216.531C451.112 218.189 486.981 219.515 523.106 220.841C523.106 235.431 523.106 250.353 523.106 265.275ZM523.106 266.27C523.106 281.191 523.106 296.113 523.106 311.035C486.981 310.04 451.112 309.045 414.987 308.05C414.987 293.129 414.987 277.875 414.987 262.954C451.112 263.948 487.237 265.275 523.106 266.27ZM523.106 312.029C523.106 326.951 523.106 341.873 523.106 356.795C486.981 356.131 451.112 355.137 414.987 354.142C414.987 339.22 414.987 323.967 414.987 309.045C451.112 310.371 487.237 311.366 523.106 312.029ZM523.106 358.121C523.106 373.043 523.106 387.964 523.106 402.886C486.981 402.223 451.112 401.56 414.987 400.897C414.987 385.975 414.987 370.722 414.987 355.8C451.112 356.463 487.237 357.126 523.106 358.121ZM523.106 403.881C523.106 418.803 523.106 433.724 523.106 448.646C486.981 448.314 451.112 447.983 414.987 447.32C414.987 432.398 414.987 417.145 414.987 402.223C451.112 402.555 487.237 403.218 523.106 403.881ZM523.106 449.641C523.106 464.562 523.106 479.484 523.106 494.406C486.981 494.074 451.112 494.074 414.987 493.743C414.987 478.821 414.987 463.568 414.987 448.646C451.112 448.646 487.237 449.309 523.106 449.641ZM523.106 495.401C523.106 510.322 523.106 525.244 523.106 540.166C486.981 540.166 451.112 540.166 414.987 540.166C414.987 525.244 414.987 509.991 414.987 495.069C451.112 495.069 487.237 495.069 523.106 495.401ZM523.106 541.161C523.106 556.082 523.106 571.004 523.106 585.926C486.981 586.257 451.112 586.257 414.987 586.589C414.987 571.667 414.987 556.414 414.987 541.492C451.112 541.161 487.237 541.161 523.106 541.161ZM523.106 586.92C523.106 601.842 523.106 616.764 523.106 631.686C486.981 632.017 451.112 632.349 414.987 633.012C414.987 618.09 414.987 602.837 414.987 587.915C451.112 587.252 487.237 586.92 523.106 586.92ZM523.106 632.68C523.106 647.602 523.106 662.524 523.106 677.445C486.981 678.109 451.112 678.772 414.987 679.435C414.987 664.513 414.987 649.26 414.987 634.338C451.112 633.344 487.237 633.012 523.106 632.68ZM523.106 678.44C523.106 693.362 523.106 708.284 523.106 723.205C486.981 723.869 451.112 724.863 414.987 725.527C414.987 710.605 414.987 695.352 414.987 680.43C451.112 679.435 487.237 679.104 523.106 678.44ZM523.106 724.2C523.106 739.122 523.106 754.044 523.106 768.965C486.981 769.96 451.112 770.955 414.987 771.95C414.987 757.028 414.987 741.775 414.987 726.853C451.112 725.858 487.237 724.863 523.106 724.2ZM523.106 769.96C523.106 784.882 523.106 799.803 523.106 814.725C486.981 815.72 451.112 817.046 414.987 818.373C414.987 803.451 414.987 788.198 414.987 773.276C451.112 771.95 487.237 770.955 523.106 769.96ZM523.106 815.72C523.106 830.642 523.106 845.563 523.106 860.485C486.981 861.811 451.112 863.138 414.987 864.796C414.987 849.874 414.987 834.621 414.987 819.699C451.112 818.041 487.237 816.715 523.106 815.72ZM524.387 815.72C560.512 814.725 596.381 813.73 632.506 812.736C632.506 827.326 632.506 842.247 632.506 856.838C596.381 857.832 560.512 858.827 524.387 860.154C524.387 845.563 524.387 830.642 524.387 815.72ZM633.787 812.736C669.912 812.072 705.781 811.078 741.906 810.746C741.906 825.336 741.906 839.926 741.906 854.516C705.781 855.18 669.912 855.843 633.787 856.838C633.787 842.247 633.787 827.326 633.787 812.736ZM743.443 810.746C779.568 810.083 815.693 809.751 851.562 809.42C851.562 824.01 851.562 838.6 851.562 852.859C815.437 853.19 779.312 853.522 743.443 854.185C743.443 839.926 743.443 825.336 743.443 810.746ZM852.843 809.42C888.968 809.088 925.093 809.088 960.962 809.088C960.962 823.678 960.962 838.268 960.962 852.527C924.837 852.527 888.712 852.859 852.843 852.859C852.843 838.6 852.843 824.01 852.843 809.42ZM962.243 809.088C998.368 809.088 1034.49 809.088 1070.36 809.42C1070.36 824.01 1070.36 838.6 1070.36 852.859C1034.24 852.527 998.112 852.527 962.243 852.527C962.243 837.937 962.243 823.347 962.243 809.088ZM1071.9 809.42C1108.02 809.751 1144.15 810.083 1180.02 810.746C1180.02 825.336 1180.02 839.926 1180.02 854.516C1143.89 853.853 1107.77 853.522 1071.9 853.19C1071.9 838.6 1071.9 824.01 1071.9 809.42ZM1181.3 810.746C1217.42 811.409 1253.29 812.072 1289.42 812.736C1289.42 827.326 1289.42 842.247 1289.42 856.838C1253.29 855.843 1217.42 855.18 1181.3 854.516C1181.3 839.926 1181.3 825.336 1181.3 810.746ZM1290.96 812.736C1327.08 813.73 1362.95 814.394 1399.07 815.72C1399.07 830.642 1399.07 845.563 1399.07 860.485C1362.95 859.159 1327.08 858.164 1290.96 857.169C1290.96 842.247 1290.96 827.657 1290.96 812.736ZM1400.36 815.72C1436.48 816.715 1472.35 818.041 1508.47 819.368C1508.47 834.289 1508.47 849.543 1508.47 864.464C1472.35 862.806 1436.48 861.48 1400.36 860.154C1400.36 845.563 1400.36 830.642 1400.36 815.72ZM1400.36 814.725C1400.36 799.803 1400.36 784.882 1400.36 769.96C1436.48 770.955 1472.35 771.95 1508.47 772.944C1508.47 787.866 1508.47 803.119 1508.47 818.041C1472.35 817.046 1436.22 815.72 1400.36 814.725ZM1400.36 768.965C1400.36 754.044 1400.36 739.122 1400.36 724.2C1436.48 724.863 1472.35 725.858 1508.47 726.853C1508.47 741.775 1508.47 757.028 1508.47 771.95C1472.35 770.623 1436.22 769.628 1400.36 768.965ZM1400.36 722.874C1400.36 707.952 1400.36 693.03 1400.36 678.109C1436.48 678.772 1472.35 679.435 1508.47 680.098C1508.47 695.02 1508.47 710.273 1508.47 725.195C1472.35 724.532 1436.22 723.869 1400.36 722.874ZM1400.36 677.114C1400.36 662.192 1400.36 647.271 1400.36 632.349C1436.48 632.68 1472.35 633.012 1508.47 633.675C1508.47 648.597 1508.47 663.85 1508.47 678.772C1472.35 678.44 1436.22 677.777 1400.36 677.114ZM1400.36 631.354C1400.36 616.432 1400.36 601.511 1400.36 586.589C1436.48 586.92 1472.35 586.92 1508.47 587.252C1508.47 602.174 1508.47 617.427 1508.47 632.349C1472.35 632.349 1436.22 631.686 1400.36 631.354ZM1400.36 585.594C1400.36 570.672 1400.36 555.751 1400.36 540.829C1436.48 540.829 1472.35 540.829 1508.47 540.829C1508.47 555.751 1508.47 571.004 1508.47 585.926C1472.35 585.926 1436.22 585.926 1400.36 585.594ZM1400.36 539.834C1400.36 524.912 1400.36 509.991 1400.36 495.069C1436.48 494.737 1472.35 494.738 1508.47 494.406C1508.47 509.328 1508.47 524.581 1508.47 539.503C1472.35 539.834 1436.22 539.834 1400.36 539.834ZM1400.36 494.074C1400.36 479.153 1400.36 464.231 1400.36 449.309C1436.48 448.978 1472.35 448.646 1508.47 447.983C1508.47 462.905 1508.47 478.158 1508.47 493.079C1472.35 493.743 1436.22 494.074 1400.36 494.074ZM1400.36 448.314C1400.36 433.393 1400.36 418.471 1400.36 403.549C1436.48 402.886 1472.35 402.223 1508.47 401.56C1508.47 416.481 1508.47 431.735 1508.47 446.656C1472.35 447.651 1436.22 447.983 1400.36 448.314ZM1400.36 402.555C1400.36 387.633 1400.36 372.711 1400.36 357.789C1436.48 357.126 1472.35 356.131 1508.47 355.468C1508.47 370.39 1508.47 385.643 1508.47 400.565C1472.35 401.56 1436.22 401.891 1400.36 402.555ZM1400.36 356.795C1400.36 341.873 1400.36 326.951 1400.36 312.029C1436.48 311.035 1472.35 310.04 1508.47 309.045C1508.47 323.967 1508.47 339.22 1508.47 354.142C1472.35 355.137 1436.22 356.131 1400.36 356.795ZM1400.36 311.035C1400.36 296.113 1400.36 281.191 1400.36 266.27C1436.48 265.275 1472.35 263.948 1508.47 262.622C1508.47 277.544 1508.47 292.797 1508.47 307.719C1472.35 309.045 1436.22 310.04 1400.36 311.035ZM1400.36 265.275C1400.36 250.353 1400.36 235.431 1400.36 220.51C1436.48 219.183 1472.35 217.857 1508.47 216.199C1508.47 231.121 1508.47 246.374 1508.47 261.296C1472.35 262.954 1436.22 264.28 1400.36 265.275ZM1400.36 219.515C1400.36 204.593 1400.36 189.671 1400.36 174.75C1436.48 173.092 1472.35 171.434 1508.47 169.776C1508.47 184.698 1508.47 199.951 1508.47 214.873C1472.35 216.862 1436.22 218.189 1400.36 219.515ZM1399.07 219.515C1362.95 220.841 1327.08 221.836 1290.96 222.831C1290.96 208.241 1290.96 193.319 1290.96 178.729C1327.08 177.734 1362.95 176.408 1399.07 174.75C1399.07 189.671 1399.07 204.593 1399.07 219.515ZM1289.67 222.831C1253.55 223.826 1217.68 224.489 1181.56 225.152C1181.56 210.562 1181.56 195.972 1181.56 181.382C1217.68 180.718 1253.55 179.724 1289.67 178.729C1289.67 193.651 1289.67 208.241 1289.67 222.831ZM1180.02 225.484C1143.89 226.147 1107.77 226.478 1071.9 226.81C1071.9 212.22 1071.9 197.63 1071.9 183.371C1108.02 183.04 1144.15 182.376 1180.02 181.713C1180.02 196.303 1180.02 210.893 1180.02 225.484ZM1070.62 226.81C1034.49 227.142 998.368 227.142 962.499 227.142C962.499 212.551 962.499 197.961 962.499 183.703C998.624 183.703 1034.75 183.371 1070.62 183.04C1070.62 197.63 1070.62 212.22 1070.62 226.81ZM960.962 227.473C924.837 227.473 888.712 227.142 852.843 227.142C852.843 212.551 852.843 197.961 852.843 183.703C888.968 184.034 925.093 184.366 960.962 184.366C960.962 198.293 960.962 212.883 960.962 227.473ZM851.562 226.81C815.437 226.478 779.312 225.815 743.443 225.484C743.443 210.893 743.443 196.303 743.443 181.713C779.568 182.376 815.693 183.04 851.562 183.371C851.562 197.63 851.562 212.22 851.562 226.81ZM742.162 225.484C706.037 224.82 670.168 224.157 634.043 223.162C634.043 208.572 634.043 193.651 634.043 179.06C670.168 180.055 706.037 181.05 742.162 181.713C742.162 196.303 742.162 210.893 742.162 225.484ZM632.506 222.831C596.381 221.836 560.512 220.841 524.387 219.515C524.387 204.593 524.387 189.671 524.387 174.75C560.512 176.076 596.381 177.403 632.506 178.729C632.506 193.319 632.506 208.241 632.506 222.831ZM523.106 219.515C486.981 218.189 451.112 216.862 414.987 215.204C414.987 200.282 414.987 185.029 414.987 170.107C451.112 171.765 486.981 173.423 523.106 175.081C523.106 189.671 523.106 204.593 523.106 219.515ZM413.962 215.204C377.837 213.546 341.968 211.888 306.099 209.899C306.099 194.645 306.099 179.392 306.099 163.807C341.968 166.128 378.093 168.118 413.962 169.776C413.962 185.029 413.962 199.951 413.962 215.204ZM413.962 216.199C413.962 231.121 413.962 246.374 413.962 261.296C377.837 259.969 341.968 258.311 306.099 256.653C306.099 241.4 306.099 226.147 306.099 210.562C341.968 212.883 377.837 214.541 413.962 216.199ZM413.962 262.622C413.962 277.544 413.962 292.797 413.962 307.719C378.093 306.392 341.968 305.398 306.099 304.071C306.099 288.818 306.099 273.565 306.099 257.98C341.968 259.638 377.837 261.296 413.962 262.622ZM413.962 309.045C413.962 323.967 413.962 339.22 413.962 354.142C378.093 353.147 341.968 352.152 306.099 351.158C306.099 335.904 306.099 320.651 306.099 305.066C341.968 306.724 377.837 307.719 413.962 309.045ZM413.962 355.468C413.962 370.39 413.962 385.643 413.962 400.565C378.093 399.902 341.968 399.239 306.099 398.244C306.099 382.99 306.099 367.737 306.099 352.152C341.968 353.479 377.837 354.473 413.962 355.468ZM413.962 401.891C413.962 416.813 413.962 432.066 413.962 446.988C378.093 446.656 341.968 445.993 306.099 445.33C306.099 430.077 306.099 414.823 306.099 399.239C341.968 400.565 377.837 401.228 413.962 401.891ZM413.962 448.314C413.962 463.236 413.962 478.489 413.962 493.411C378.093 493.08 341.968 493.08 306.099 492.748C306.099 477.495 306.099 462.241 306.099 446.656C341.968 447.32 377.837 447.651 413.962 448.314ZM413.962 494.737C413.962 509.659 413.962 524.912 413.962 539.834C378.093 539.834 341.968 539.834 306.099 539.834C306.099 524.581 306.099 509.328 306.099 493.743C341.968 494.074 377.837 494.406 413.962 494.737ZM413.962 541.161C413.962 556.082 413.962 571.336 413.962 586.257C378.093 586.589 341.968 586.589 306.099 586.92C306.099 571.667 306.099 556.414 306.099 540.829C341.968 541.161 377.837 541.161 413.962 541.161ZM413.962 587.584C413.962 602.505 413.962 617.759 413.962 632.68C378.093 633.012 341.968 633.675 306.099 634.338C306.099 619.085 306.099 603.832 306.099 588.247C341.968 587.915 377.837 587.584 413.962 587.584ZM413.962 634.007C413.962 648.928 413.962 664.182 413.962 679.103C378.093 679.767 341.968 680.43 306.099 681.425C306.099 666.171 306.099 650.918 306.099 635.333C341.968 635.002 377.837 634.338 413.962 634.007ZM413.962 680.43C413.962 695.352 413.962 710.605 413.962 725.527C378.093 726.521 341.968 727.516 306.099 728.511C306.099 713.258 306.099 698.004 306.099 682.419C341.968 681.756 377.837 681.093 413.962 680.43ZM413.962 726.853C413.962 741.775 413.962 757.028 413.962 771.95C378.093 773.276 341.968 774.271 306.099 775.597C306.099 760.344 306.099 745.091 306.099 729.506C341.968 728.511 377.837 727.516 413.962 726.853ZM413.962 773.276C413.962 788.198 413.962 803.451 413.962 818.373C377.837 819.699 341.968 821.357 306.099 823.015C306.099 807.762 306.099 792.508 306.099 776.924C341.968 775.597 377.837 774.271 413.962 773.276ZM413.962 819.368C413.962 834.289 413.962 849.543 413.962 864.464C377.837 866.122 341.968 867.78 306.099 869.77C306.099 854.516 306.099 839.263 306.099 823.678C341.968 822.352 377.837 821.026 413.962 819.368ZM413.962 865.791C413.962 880.712 413.962 895.966 413.962 910.887C377.837 912.877 341.968 914.866 306.099 916.856C306.099 901.603 306.099 886.349 306.099 870.765C341.968 869.438 377.837 867.449 413.962 865.791ZM415.243 865.791C451.368 864.133 487.237 862.806 523.362 861.48C523.362 876.402 523.362 891.323 523.362 906.245C487.237 907.903 451.368 909.561 415.243 911.219C415.243 895.966 415.243 881.044 415.243 865.791ZM524.387 861.48C560.512 860.153 596.381 859.159 632.506 858.164C632.506 872.754 632.506 887.676 632.506 902.266C596.381 903.261 560.512 904.587 524.387 906.245C524.387 891.323 524.387 876.402 524.387 861.48ZM633.787 858.164C669.912 857.169 705.781 856.506 741.906 855.843C741.906 870.433 741.906 885.023 741.906 899.613C705.781 900.276 669.912 901.271 633.787 902.266C633.787 887.344 633.787 872.754 633.787 858.164ZM743.443 855.511C779.568 854.848 815.693 854.516 851.562 854.185C851.562 868.775 851.562 883.365 851.562 897.624C815.437 897.955 779.312 898.618 743.443 899.282C743.443 884.691 743.443 870.101 743.443 855.511ZM852.843 854.185C888.968 853.853 925.093 853.853 960.962 853.853C960.962 868.443 960.962 883.034 960.962 897.292C924.837 897.292 888.712 897.624 852.843 897.955C852.843 883.365 852.843 868.775 852.843 854.185ZM962.243 853.522C998.368 853.522 1034.49 853.853 1070.36 853.853C1070.36 868.443 1070.36 883.034 1070.36 897.292C1034.24 896.96 998.112 896.629 962.243 896.629C962.243 882.702 962.243 868.112 962.243 853.522ZM1071.9 854.185C1108.02 854.516 1144.15 855.18 1180.02 855.511C1180.02 870.101 1180.02 884.691 1180.02 899.282C1143.89 898.618 1107.77 897.955 1071.9 897.624C1071.9 883.365 1071.9 868.775 1071.9 854.185ZM1181.3 855.511C1217.42 856.174 1253.29 856.838 1289.42 857.832C1289.42 872.422 1289.42 887.344 1289.42 901.934C1253.29 900.94 1217.42 899.945 1181.3 899.282C1181.3 884.691 1181.3 870.101 1181.3 855.511ZM1290.96 858.164C1327.08 859.159 1362.95 860.153 1399.07 861.48C1399.07 876.402 1399.07 891.323 1399.07 906.245C1362.95 904.919 1327.08 903.592 1290.96 902.266C1290.96 887.676 1290.96 872.754 1290.96 858.164ZM1400.36 861.48C1436.48 862.806 1472.35 864.133 1508.47 865.791C1508.47 880.712 1508.47 895.966 1508.47 910.887C1472.35 909.229 1436.48 907.571 1400.36 905.913C1400.36 891.323 1400.36 876.402 1400.36 861.48ZM1509.5 865.791C1545.62 867.449 1581.49 869.107 1617.36 871.096C1617.36 886.349 1617.36 901.603 1617.36 917.188C1581.49 914.866 1545.37 912.877 1509.5 911.219C1509.5 895.966 1509.5 881.044 1509.5 865.791ZM1509.5 864.796C1509.5 849.874 1509.5 834.621 1509.5 819.699C1545.62 821.025 1581.49 822.683 1617.36 824.341C1617.36 839.595 1617.36 854.848 1617.36 870.433C1581.49 868.112 1545.62 866.454 1509.5 864.796ZM1509.5 818.373C1509.5 803.451 1509.5 788.198 1509.5 773.276C1545.37 774.602 1581.49 775.597 1617.36 776.924C1617.36 792.177 1617.36 807.43 1617.36 823.015C1581.49 821.357 1545.62 819.699 1509.5 818.373ZM1509.5 771.95C1509.5 757.028 1509.5 741.775 1509.5 726.853C1545.37 727.848 1581.49 728.843 1617.36 729.837C1617.36 745.091 1617.36 760.344 1617.36 775.929C1581.49 774.271 1545.62 773.276 1509.5 771.95ZM1509.5 725.527C1509.5 710.605 1509.5 695.352 1509.5 680.43C1545.37 681.093 1581.49 681.756 1617.36 682.751C1617.36 698.004 1617.36 713.258 1617.36 728.843C1581.49 727.516 1545.62 726.521 1509.5 725.527ZM1509.5 679.103C1509.5 664.182 1509.5 648.928 1509.5 634.007C1545.37 634.338 1581.49 635.002 1617.36 635.665C1617.36 650.918 1617.36 666.171 1617.36 681.756C1581.49 680.43 1545.62 679.767 1509.5 679.103ZM1509.5 632.68C1509.5 617.759 1509.5 602.505 1509.5 587.584C1545.37 587.915 1581.49 587.915 1617.36 588.247C1617.36 603.5 1617.36 618.753 1617.36 634.338C1581.49 633.675 1545.62 633.344 1509.5 632.68ZM1509.5 586.257C1509.5 571.336 1509.5 556.082 1509.5 541.161C1545.37 541.161 1581.49 541.161 1617.36 541.161C1617.36 556.414 1617.36 571.667 1617.36 587.252C1581.49 586.92 1545.62 586.589 1509.5 586.257ZM1509.5 539.834C1509.5 524.912 1509.5 509.659 1509.5 494.737C1545.37 494.406 1581.49 494.406 1617.36 494.074C1617.36 509.328 1617.36 524.581 1617.36 540.166C1581.49 539.834 1545.62 539.834 1509.5 539.834ZM1509.5 493.411C1509.5 478.489 1509.5 463.236 1509.5 448.314C1545.37 447.983 1581.49 447.32 1617.36 446.656C1617.36 461.91 1617.36 477.163 1617.36 492.748C1581.49 493.08 1545.62 493.411 1509.5 493.411ZM1509.5 446.988C1509.5 432.066 1509.5 416.813 1509.5 401.891C1545.37 401.228 1581.49 400.565 1617.36 399.57C1617.36 414.823 1617.36 430.077 1617.36 445.662C1581.49 445.993 1545.62 446.656 1509.5 446.988ZM1509.5 400.565C1509.5 385.643 1509.5 370.39 1509.5 355.468C1545.37 354.473 1581.49 353.479 1617.36 352.484C1617.36 367.737 1617.36 382.99 1617.36 398.575C1581.49 399.239 1545.62 399.902 1509.5 400.565ZM1509.5 354.142C1509.5 339.22 1509.5 323.967 1509.5 309.045C1545.37 307.719 1581.49 306.724 1617.36 305.398C1617.36 320.651 1617.36 335.904 1617.36 351.489C1581.49 352.484 1545.62 353.479 1509.5 354.142ZM1509.5 307.719C1509.5 292.797 1509.5 277.544 1509.5 262.622C1545.62 261.296 1581.49 259.638 1617.36 257.98C1617.36 273.233 1617.36 288.486 1617.36 304.071C1581.49 305.398 1545.62 306.724 1509.5 307.719ZM1509.5 261.627C1509.5 246.706 1509.5 231.452 1509.5 216.531C1545.62 214.873 1581.49 213.215 1617.36 211.225C1617.36 226.478 1617.36 241.732 1617.36 257.317C1581.49 258.643 1545.62 259.969 1509.5 261.627ZM1509.5 215.204C1509.5 200.282 1509.5 185.029 1509.5 170.107C1545.62 168.118 1581.49 166.128 1617.36 164.139C1617.36 179.392 1617.36 194.645 1617.36 210.23C1581.49 211.557 1545.62 213.546 1509.5 215.204ZM1509.5 168.781C1509.5 153.859 1509.5 138.606 1509.5 123.684C1545.62 121.695 1581.49 119.374 1617.36 116.721C1617.36 131.974 1617.36 147.228 1617.36 162.812C1581.49 164.802 1545.62 166.792 1509.5 168.781ZM1508.22 168.781C1472.09 170.439 1436.22 172.097 1400.1 173.755C1400.1 158.833 1400.1 143.912 1400.1 128.99C1436.22 127.332 1472.09 125.342 1508.22 123.353C1508.22 138.606 1508.22 153.528 1508.22 168.781ZM1399.07 173.755C1362.95 175.081 1327.08 176.408 1290.96 177.734C1290.96 163.144 1290.96 148.222 1290.96 133.632C1327.08 132.306 1362.95 130.979 1399.07 129.321C1399.07 143.912 1399.07 158.833 1399.07 173.755ZM1289.67 177.734C1253.55 178.729 1217.68 179.724 1181.56 180.387C1181.56 165.797 1181.56 151.207 1181.56 136.617C1217.68 135.622 1253.81 134.627 1289.67 133.632C1289.67 148.222 1289.67 162.812 1289.67 177.734ZM1180.02 180.387C1143.89 181.05 1107.77 181.713 1071.9 182.045C1071.9 167.455 1071.9 152.865 1071.9 138.606C1108.02 138.274 1144.15 137.611 1180.02 136.617C1180.02 151.207 1180.02 165.797 1180.02 180.387ZM1070.62 182.045C1034.49 182.376 998.368 182.708 962.499 182.708C962.499 168.118 962.499 153.528 962.499 139.269C998.624 139.269 1034.75 138.938 1070.62 138.606C1070.62 153.196 1070.62 167.455 1070.62 182.045ZM960.962 182.708C924.837 182.708 888.712 182.376 852.843 182.045C852.843 167.455 852.843 152.865 852.843 138.606C888.968 138.938 925.093 139.269 960.962 139.269C960.962 153.528 960.962 168.118 960.962 182.708ZM851.562 182.045C815.437 181.713 779.312 181.05 743.443 180.387C743.443 165.797 743.443 151.207 743.443 136.617C779.568 137.28 815.693 137.943 851.562 138.606C851.562 153.196 851.562 167.455 851.562 182.045ZM742.162 180.387C706.037 179.724 670.168 178.729 634.043 177.734C634.043 163.144 634.043 148.222 634.043 133.632C670.168 134.959 706.037 135.953 742.162 136.617C742.162 151.207 742.162 165.797 742.162 180.387ZM632.506 177.734C596.381 176.739 560.512 175.413 524.387 173.755C524.387 158.833 524.387 143.912 524.387 128.99C560.512 130.648 596.381 131.974 632.506 133.301C632.506 148.222 632.506 162.812 632.506 177.734ZM523.106 173.755C486.981 172.097 451.112 170.439 414.987 168.781C414.987 153.859 414.987 138.606 414.987 123.684C451.112 125.674 486.981 127.663 523.106 129.321C523.106 143.912 523.106 158.833 523.106 173.755ZM413.962 168.781C377.837 166.792 341.968 164.802 306.099 162.812C306.099 147.559 306.099 132.306 306.099 116.721C341.968 119.042 378.093 121.363 413.962 123.684C413.962 138.606 413.962 153.528 413.962 168.781ZM304.562 162.481C268.693 160.16 232.568 157.839 196.699 155.186C196.699 139.601 196.699 124.016 196.699 108.431C232.568 111.415 268.693 114.068 304.562 116.389C304.562 131.974 304.562 147.228 304.562 162.481ZM304.562 163.807C304.562 179.06 304.562 194.314 304.562 209.899C268.693 207.909 232.568 205.92 196.699 203.598C196.699 188.014 196.699 172.429 196.699 156.844C232.824 159.165 268.693 161.486 304.562 163.807ZM304.562 210.893C304.562 226.147 304.562 241.4 304.562 256.985C268.693 255.327 232.568 253.669 196.699 251.679C196.699 236.095 196.699 220.51 196.699 204.925C232.824 206.914 268.693 208.904 304.562 210.893ZM304.562 257.98C304.562 273.233 304.562 288.486 304.562 304.071C268.693 302.745 232.568 301.087 196.699 299.429C196.699 283.844 196.699 268.259 196.699 252.674C232.824 254.664 268.693 256.322 304.562 257.98ZM304.562 305.066C304.562 320.319 304.562 335.573 304.562 351.158C268.693 350.163 232.568 348.836 196.699 347.51C196.699 331.925 196.699 316.34 196.699 300.755C232.824 302.413 268.693 303.74 304.562 305.066ZM304.562 352.484C304.562 367.737 304.562 382.99 304.562 398.575C268.693 397.581 232.568 396.917 196.699 395.923C196.699 380.338 196.699 364.753 196.699 349.168C232.824 350.163 268.693 351.158 304.562 352.484ZM304.562 399.57C304.562 414.823 304.562 430.077 304.562 445.662C268.693 444.998 232.568 444.335 196.699 444.004C196.699 428.419 196.699 412.834 196.699 397.249C232.824 397.912 268.693 398.575 304.562 399.57ZM304.562 446.656C304.562 461.91 304.562 477.163 304.562 492.748C268.693 492.416 232.568 492.085 196.699 491.753C196.699 476.168 196.699 460.583 196.699 444.998C232.824 445.662 268.693 446.325 304.562 446.656ZM304.562 494.074C304.562 509.328 304.562 524.581 304.562 540.166C268.693 540.166 232.568 540.166 196.699 540.166C196.699 524.581 196.699 508.996 196.699 493.411C232.824 493.411 268.693 493.743 304.562 494.074ZM304.562 541.161C304.562 556.414 304.562 571.667 304.562 587.252C268.693 587.584 232.568 587.915 196.699 588.247C196.699 572.662 196.699 557.077 196.699 541.492C232.824 541.161 268.693 541.161 304.562 541.161ZM304.562 588.247C304.562 603.5 304.562 618.753 304.562 634.338C268.693 635.002 232.568 635.333 196.699 635.996C196.699 620.411 196.699 604.827 196.699 589.242C232.824 588.91 268.693 588.578 304.562 588.247ZM304.562 635.333C304.562 650.586 304.562 665.84 304.562 681.425C268.693 682.419 232.568 683.083 196.699 684.077C196.699 668.492 196.699 652.908 196.699 637.323C232.824 636.659 268.693 635.996 304.562 635.333ZM304.562 682.751C304.562 698.004 304.562 713.258 304.562 728.843C268.693 729.837 232.568 731.164 196.699 732.49C196.699 716.905 196.699 701.32 196.699 685.735C232.824 684.409 268.693 683.414 304.562 682.751ZM304.562 729.837C304.562 745.091 304.562 760.344 304.562 775.929C268.693 777.255 232.568 778.913 196.699 780.24C196.699 764.655 196.699 749.07 196.699 733.485C232.824 732.158 268.693 730.832 304.562 729.837ZM304.562 776.924C304.562 792.177 304.562 807.43 304.562 823.015C268.693 824.673 232.568 826.331 196.699 828.321C196.699 812.736 196.699 797.151 196.699 781.566C232.824 779.908 268.693 778.25 304.562 776.924ZM304.562 824.01C304.562 839.263 304.562 854.516 304.562 870.101C268.693 872.091 232.568 874.08 196.699 876.402C196.699 860.817 196.699 845.232 196.699 829.647C232.824 827.657 268.693 825.668 304.562 824.01ZM304.562 871.428C304.562 886.681 304.562 901.934 304.562 917.519C268.693 919.84 232.568 922.161 196.699 924.814C196.699 909.229 196.699 893.644 196.699 878.06C232.824 875.407 268.693 873.417 304.562 871.428ZM304.562 918.514C304.562 933.767 304.562 949.021 304.562 964.605C268.693 967.258 232.568 969.911 196.699 972.564C196.699 956.979 196.699 941.394 196.699 925.809C232.824 923.156 268.693 920.835 304.562 918.514ZM305.843 918.514C341.712 916.193 377.837 914.203 413.706 912.545C413.706 927.467 413.706 942.72 413.706 957.642C377.581 959.632 341.712 961.953 305.843 964.605C305.843 949.021 305.843 933.767 305.843 918.514ZM415.243 912.214C451.368 910.556 487.237 908.898 523.362 907.24C523.362 922.161 523.362 937.083 523.362 952.005C487.237 953.663 451.368 955.652 415.243 957.642C415.243 942.389 415.243 927.467 415.243 912.214ZM524.387 907.24C560.512 905.913 596.381 904.587 632.506 903.261C632.506 917.851 632.506 932.773 632.506 947.363C596.381 948.689 560.512 950.015 524.387 951.673C524.387 937.083 524.387 922.161 524.387 907.24ZM633.787 903.261C669.912 902.266 705.781 901.271 741.906 900.608C741.906 915.198 741.906 929.788 741.906 944.378C705.781 945.373 669.912 946.368 633.787 947.363C633.787 932.773 633.787 918.182 633.787 903.261ZM743.443 900.608C779.568 899.945 815.693 899.282 851.562 898.95C851.562 913.54 851.562 928.13 851.562 942.389C815.437 942.72 779.312 943.383 743.443 944.378C743.443 929.788 743.443 915.198 743.443 900.608ZM852.843 898.95C888.968 898.618 925.093 898.287 960.962 898.287C960.962 912.877 960.962 927.467 960.962 941.726C924.837 941.726 888.712 942.057 852.843 942.389C852.843 927.799 852.843 913.54 852.843 898.95ZM962.243 898.287C998.368 898.287 1034.49 898.618 1070.36 898.95C1070.36 913.54 1070.36 928.13 1070.36 942.389C1034.24 942.057 998.112 941.726 962.243 941.726C962.243 927.467 962.243 912.877 962.243 898.287ZM1071.9 898.95C1108.02 899.282 1144.15 899.945 1180.02 900.608C1180.02 915.198 1180.02 929.788 1180.02 944.378C1143.89 943.715 1107.77 943.052 1071.9 942.389C1071.9 927.799 1071.9 913.54 1071.9 898.95ZM1181.3 900.608C1217.42 901.271 1253.29 902.266 1289.42 903.261C1289.42 917.851 1289.42 932.773 1289.42 947.363C1253.29 946.036 1217.42 945.041 1181.3 944.378C1181.3 929.788 1181.3 915.198 1181.3 900.608ZM1290.96 903.261C1327.08 904.255 1362.95 905.582 1399.07 907.24C1399.07 922.161 1399.07 937.083 1399.07 952.005C1362.95 950.347 1327.08 949.021 1290.96 947.694C1290.96 932.772 1290.96 918.182 1290.96 903.261ZM1400.36 907.24C1436.48 908.898 1472.35 910.556 1508.47 912.214C1508.47 927.135 1508.47 942.389 1508.47 957.31C1472.35 955.321 1436.48 953.331 1400.36 951.673C1400.36 937.083 1400.36 922.161 1400.36 907.24ZM1509.5 912.214C1545.62 914.203 1581.49 916.193 1617.36 918.182C1617.36 933.436 1617.36 948.689 1617.36 964.274C1581.49 961.953 1545.37 959.632 1509.5 957.31C1509.5 942.389 1509.5 927.467 1509.5 912.214ZM1618.9 918.514C1654.77 920.835 1690.89 923.156 1726.76 925.809C1726.76 941.394 1726.76 956.979 1726.76 972.564C1690.89 969.579 1654.77 966.927 1618.9 964.605C1618.9 949.021 1618.9 933.767 1618.9 918.514ZM1618.9 917.188C1618.9 901.934 1618.9 886.681 1618.9 871.096C1654.77 873.086 1690.89 875.075 1726.76 877.396C1726.76 892.981 1726.76 908.566 1726.76 924.151C1690.64 921.83 1654.77 919.509 1618.9 917.188ZM1618.9 870.101C1618.9 854.848 1618.9 839.595 1618.9 824.01C1654.77 825.668 1690.89 827.326 1726.76 829.315C1726.76 844.9 1726.76 860.485 1726.76 876.07C1690.64 874.081 1654.77 872.091 1618.9 870.101ZM1618.9 823.015C1618.9 807.762 1618.9 792.508 1618.9 776.924C1654.77 778.25 1690.89 779.908 1726.76 781.566C1726.76 797.151 1726.76 812.736 1726.76 828.321C1690.64 826.331 1654.77 824.673 1618.9 823.015ZM1618.9 775.929C1618.9 760.675 1618.9 745.422 1618.9 729.837C1654.77 730.832 1690.89 732.158 1726.76 733.485C1726.76 749.07 1726.76 764.655 1726.76 780.24C1690.64 778.582 1654.77 777.255 1618.9 775.929ZM1618.9 728.511C1618.9 713.258 1618.9 698.004 1618.9 682.419C1654.77 683.414 1690.89 684.077 1726.76 685.072C1726.76 700.657 1726.76 716.242 1726.76 731.827C1690.64 730.832 1654.77 729.837 1618.9 728.511ZM1618.9 681.425C1618.9 666.171 1618.9 650.918 1618.9 635.333C1654.77 635.996 1690.89 636.66 1726.76 636.991C1726.76 652.576 1726.76 668.161 1726.76 683.746C1690.64 683.083 1654.77 682.419 1618.9 681.425ZM1618.9 634.338C1618.9 619.085 1618.9 603.832 1618.9 588.247C1654.77 588.578 1690.89 588.91 1726.76 589.242C1726.76 604.827 1726.76 620.411 1726.76 635.996C1690.64 635.333 1654.77 634.67 1618.9 634.338ZM1618.9 586.92C1618.9 571.667 1618.9 556.414 1618.9 540.829C1654.77 540.829 1690.89 540.829 1726.76 540.829C1726.76 556.414 1726.76 571.999 1726.76 587.584C1690.64 587.584 1654.77 587.252 1618.9 586.92ZM1618.9 539.834C1618.9 524.581 1618.9 509.328 1618.9 493.743C1654.77 493.411 1690.89 493.08 1726.76 492.748C1726.76 508.333 1726.76 523.918 1726.76 539.503C1690.64 539.834 1654.77 539.834 1618.9 539.834ZM1618.9 492.748C1618.9 477.495 1618.9 462.241 1618.9 446.656C1654.77 445.993 1690.89 445.662 1726.76 444.998C1726.76 460.583 1726.76 476.168 1726.76 491.753C1690.64 492.085 1654.77 492.416 1618.9 492.748ZM1618.9 445.662C1618.9 430.408 1618.9 415.155 1618.9 399.57C1654.77 398.575 1690.89 397.912 1726.76 396.917C1726.76 412.502 1726.76 428.087 1726.76 443.672C1690.64 444.335 1654.77 444.998 1618.9 445.662ZM1618.9 398.244C1618.9 382.99 1618.9 367.737 1618.9 352.152C1654.77 351.158 1690.89 349.831 1726.76 348.505C1726.76 364.09 1726.76 379.675 1726.76 395.259C1690.64 396.586 1654.77 397.581 1618.9 398.244ZM1618.9 351.158C1618.9 335.904 1618.9 320.651 1618.9 305.066C1654.77 303.74 1690.89 302.082 1726.76 300.755C1726.76 316.34 1726.76 331.925 1726.76 347.51C1690.64 348.836 1654.77 350.163 1618.9 351.158ZM1618.9 304.071C1618.9 288.818 1618.9 273.565 1618.9 257.98C1654.77 256.322 1690.89 254.664 1726.76 252.674C1726.76 268.259 1726.76 283.844 1726.76 299.429C1690.64 301.087 1654.77 302.745 1618.9 304.071ZM1618.9 256.985C1618.9 241.732 1618.9 226.478 1618.9 210.893C1654.77 208.904 1690.89 206.914 1726.76 204.593C1726.76 220.178 1726.76 235.763 1726.76 251.348C1690.64 253.337 1654.77 255.327 1618.9 256.985ZM1618.9 209.567C1618.9 194.314 1618.9 179.06 1618.9 163.476C1654.77 161.154 1690.89 158.833 1726.76 156.181C1726.76 171.765 1726.76 187.35 1726.76 202.935C1690.64 205.588 1654.77 207.578 1618.9 209.567ZM1618.9 162.481C1618.9 147.228 1618.9 131.974 1618.9 116.389C1654.77 113.737 1690.89 111.084 1726.76 108.431C1726.76 124.016 1726.76 139.601 1726.76 155.186C1690.64 157.839 1654.77 160.16 1618.9 162.481ZM1617.62 69.303C1617.62 84.5563 1617.62 99.8096 1617.62 115.395C1581.75 117.716 1545.62 120.037 1509.76 122.358C1509.76 107.436 1509.76 92.183 1509.76 77.2613C1545.62 74.6085 1581.49 72.2874 1617.62 69.303ZM1508.22 76.9297C1508.22 91.8514 1508.22 107.105 1508.22 122.026C1472.09 124.016 1436.22 126.006 1400.1 127.663C1400.1 112.742 1400.1 97.8201 1400.1 82.8984C1436.22 81.572 1472.35 79.2508 1508.22 76.9297ZM1399.07 83.23C1399.07 98.1517 1399.07 113.073 1399.07 127.995C1362.95 129.653 1327.08 130.979 1290.96 132.306C1290.96 117.716 1290.96 102.794 1290.96 88.2039C1326.82 86.8775 1362.95 85.2195 1399.07 83.23ZM1289.67 88.2039C1289.67 102.794 1289.67 117.716 1289.67 132.306C1253.55 133.632 1217.68 134.627 1181.56 135.29C1181.56 120.7 1181.56 106.11 1181.56 91.5198C1217.42 90.8566 1253.55 89.5302 1289.67 88.2039ZM1180.02 91.8514C1180.02 106.442 1180.02 121.032 1180.02 135.622C1143.89 136.285 1107.77 136.948 1071.9 137.611C1071.9 123.021 1071.9 108.431 1071.9 94.1725C1108.02 93.1778 1144.15 92.5146 1180.02 91.8514ZM1070.62 93.841C1070.62 108.431 1070.62 123.021 1070.62 137.28C1034.49 137.611 998.368 137.943 962.499 137.943C962.499 123.353 962.499 108.763 962.499 94.5041C998.368 94.5041 1034.49 94.1725 1070.62 93.841ZM960.962 94.5041C960.962 109.094 960.962 123.684 960.962 137.943C924.837 137.943 888.712 137.611 852.843 137.28C852.843 122.69 852.843 108.099 852.843 93.841C888.968 94.1725 925.093 94.5041 960.962 94.5041ZM851.562 93.841C851.562 108.431 851.562 123.021 851.562 137.28C815.437 136.948 779.312 136.285 743.443 135.29C743.443 120.7 743.443 106.11 743.443 91.5198C779.312 92.5146 815.437 93.1778 851.562 93.841ZM742.162 91.5198C742.162 106.11 742.162 120.7 742.162 135.29C706.037 134.295 670.168 133.301 634.043 132.306C634.043 117.716 634.043 102.794 634.043 88.2039C669.912 89.5302 706.037 90.8566 742.162 91.5198ZM632.506 88.2039C632.506 102.794 632.506 117.716 632.506 132.306C596.381 130.979 560.512 129.653 524.387 127.995C524.387 113.073 524.387 98.1517 524.387 83.23C560.512 85.2195 596.637 86.8775 632.506 88.2039ZM523.106 83.23C523.106 98.1517 523.106 113.073 523.106 127.995C486.981 126.337 451.112 124.348 414.987 122.358C414.987 107.436 414.987 92.183 414.987 77.2613C451.112 79.2508 487.237 81.572 523.106 83.23ZM413.962 76.9297C413.962 91.8514 413.962 107.105 413.962 122.026C377.837 120.037 341.968 117.716 306.099 115.063C306.099 99.8096 306.099 84.5563 306.099 68.9714C341.968 72.2874 377.837 74.6085 413.962 76.9297ZM304.562 69.303C304.562 84.5563 304.562 99.8096 304.562 115.395C268.693 112.742 232.568 110.089 196.699 107.436C196.699 91.8514 196.699 76.2665 196.699 60.6816C232.568 63.6659 268.693 66.6503 304.562 69.303ZM87.8114 50.0706C123.68 53.7181 159.549 57.0341 195.674 60.35C195.674 75.9349 195.674 91.5198 195.674 107.105C159.805 104.12 123.936 101.136 87.8114 97.8201C87.8114 81.9036 87.8114 65.9871 87.8114 50.0706ZM87.8114 99.1465C123.68 102.462 159.549 105.447 195.674 108.431C195.674 124.016 195.674 139.601 195.674 155.186C159.805 152.533 123.936 149.88 87.8114 146.896C87.8114 130.979 87.8114 115.063 87.8114 99.1465ZM87.8114 148.222C123.68 151.207 159.549 153.859 195.674 156.512C195.674 172.097 195.674 187.682 195.674 203.267C159.805 200.946 123.936 198.624 87.8114 195.972C87.8114 180.055 87.8114 164.139 87.8114 148.222ZM87.8114 197.298C123.68 199.951 159.549 202.272 195.674 204.593C195.674 220.178 195.674 235.763 195.674 251.348C159.805 249.358 123.936 247.369 87.8114 245.048C87.8114 229.131 87.8114 213.215 87.8114 197.298ZM87.8114 246.374C123.68 248.695 159.549 250.685 195.674 252.674C195.674 268.259 195.674 283.844 195.674 299.429C159.805 297.771 123.936 296.113 87.8114 294.123C87.8114 278.207 87.8114 262.29 87.8114 246.374ZM87.8114 295.45C123.68 297.108 159.549 299.097 195.674 300.755C195.674 316.34 195.674 331.925 195.674 347.51C159.805 346.184 123.936 344.857 87.8114 343.199C87.8114 327.283 87.8114 311.366 87.8114 295.45ZM87.8114 344.526C123.68 345.852 159.549 347.51 195.674 348.505C195.674 364.09 195.674 379.675 195.674 395.259C159.805 394.265 123.936 393.27 87.8114 392.275C87.8114 376.69 87.8114 360.442 87.8114 344.526ZM87.8114 393.601C123.68 394.596 159.549 395.591 195.674 396.586C195.674 412.171 195.674 427.756 195.674 443.34C159.805 442.677 123.936 442.014 87.8114 441.351C87.8114 425.766 87.8114 409.85 87.8114 393.601ZM87.8114 443.009C123.68 443.672 159.549 444.335 195.674 444.998C195.674 460.583 195.674 476.168 195.674 491.753C159.805 491.422 123.936 491.09 87.8114 490.758C87.8114 474.842 87.8114 458.925 87.8114 443.009ZM87.8114 492.085C123.68 492.416 159.549 492.748 195.674 493.079C195.674 508.664 195.674 524.249 195.674 539.834C159.805 539.834 123.936 539.834 87.8114 539.834C87.8114 523.918 87.8114 508.001 87.8114 492.085ZM87.8114 541.161C123.68 541.161 159.549 541.161 195.674 541.161C195.674 556.745 195.674 572.33 195.674 587.915C159.805 588.247 123.936 588.578 87.8114 588.91C87.8114 572.994 87.8114 557.077 87.8114 541.161ZM87.8114 590.236C123.68 589.905 159.549 589.573 195.674 589.242C195.674 604.827 195.674 620.411 195.674 635.996C159.805 636.659 123.936 637.323 87.8114 637.986C87.8114 622.069 87.8114 606.153 87.8114 590.236ZM87.8114 639.312C123.68 638.649 159.549 637.986 195.674 637.323C195.674 652.908 195.674 668.492 195.674 684.077C159.805 685.072 123.936 686.067 87.8114 687.062C87.8114 671.145 87.8114 655.229 87.8114 639.312ZM87.8114 688.388C123.68 687.393 159.549 686.398 195.674 685.404C195.674 700.989 195.674 716.574 195.674 732.158C159.805 733.485 123.936 734.811 87.8114 736.138C87.8114 720.553 87.8114 704.305 87.8114 688.388ZM87.8114 737.464C123.68 736.138 159.549 734.48 195.674 733.153C195.674 748.738 195.674 764.323 195.674 779.908C159.805 781.566 123.936 783.224 87.8114 785.213C87.8114 769.628 87.8114 753.712 87.8114 737.464ZM87.8114 786.871C123.68 784.882 159.549 783.224 195.674 781.566C195.674 797.151 195.674 812.736 195.674 828.321C159.805 830.31 123.936 832.3 87.8114 834.621C87.8114 818.704 87.8114 802.788 87.8114 786.871ZM87.8114 835.947C123.68 833.626 159.549 831.636 195.674 829.647C195.674 845.232 195.674 860.817 195.674 876.402C159.805 878.723 123.936 881.044 87.8114 883.697C87.8114 867.78 87.8114 851.864 87.8114 835.947ZM87.8114 885.023C123.68 882.37 159.549 880.049 195.674 877.728C195.674 893.313 195.674 908.898 195.674 924.483C159.805 927.135 123.936 929.788 87.8114 932.772C87.8114 916.856 87.8114 900.94 87.8114 885.023ZM87.8114 934.099C123.68 931.115 159.549 928.462 195.674 925.809C195.674 941.394 195.674 956.979 195.674 972.564C159.805 975.548 123.936 978.532 87.8114 981.848C87.8114 965.932 87.8114 950.015 87.8114 934.099ZM87.8114 1030.92C87.8114 1015.01 87.8114 999.091 87.8114 983.175C123.68 979.859 159.549 976.874 195.674 973.89C195.674 989.475 195.674 1005.06 195.674 1020.64C159.549 1023.96 123.68 1027.61 87.8114 1030.92ZM196.699 1020.64C196.699 1005.06 196.699 989.475 196.699 973.89C232.568 970.906 268.693 968.253 304.562 965.932C304.562 981.185 304.562 996.438 304.562 1012.02C268.693 1014.34 232.568 1017.33 196.699 1020.64ZM305.843 1011.69C305.843 996.438 305.843 981.185 305.843 965.6C341.712 963.279 377.837 960.958 413.706 958.637C413.706 973.559 413.706 988.812 413.706 1003.73C377.837 1006.39 341.968 1008.71 305.843 1011.69ZM415.243 1004.07C415.243 989.143 415.243 973.89 415.243 958.968C451.368 956.979 487.237 954.989 523.362 953.331C523.362 968.253 523.362 983.175 523.362 998.096C487.237 999.423 451.112 1001.74 415.243 1004.07ZM524.387 997.765C524.387 982.843 524.387 967.921 524.387 953C560.512 951.342 596.381 950.015 632.506 948.689C632.506 963.279 632.506 978.201 632.506 992.791C596.637 994.117 560.512 995.775 524.387 997.765ZM633.787 992.791C633.787 978.201 633.787 963.279 633.787 948.689C669.912 947.363 705.781 946.368 741.906 945.705C741.906 960.295 741.906 974.885 741.906 989.475C706.037 990.138 669.912 991.465 633.787 992.791ZM743.443 989.143C743.443 974.553 743.443 959.963 743.443 945.373C779.568 944.71 815.693 944.047 851.562 943.383C851.562 957.974 851.562 972.564 851.562 986.822C815.437 987.817 779.312 988.48 743.443 989.143ZM852.843 987.154C852.843 972.564 852.843 957.974 852.843 943.715C888.968 943.383 925.093 943.052 960.962 943.052C960.962 957.642 960.962 972.232 960.962 986.491C925.093 986.491 888.968 986.822 852.843 987.154ZM962.243 986.491C962.243 971.901 962.243 957.31 962.243 943.052C998.368 943.052 1034.49 943.383 1070.36 943.715C1070.36 958.305 1070.36 972.895 1070.36 987.154C1034.49 986.822 998.368 986.491 962.243 986.491ZM1071.9 987.154C1071.9 972.564 1071.9 957.974 1071.9 943.715C1108.02 944.047 1144.15 944.71 1180.02 945.705C1180.02 960.295 1180.02 974.885 1180.02 989.475C1144.15 988.48 1108.02 987.817 1071.9 987.154ZM1181.3 989.475C1181.3 974.885 1181.3 960.295 1181.3 945.705C1217.42 946.699 1253.55 947.694 1289.42 948.689C1289.42 963.279 1289.42 978.201 1289.42 992.791C1253.55 991.465 1217.42 990.138 1181.3 989.475ZM1290.96 992.791C1290.96 978.201 1290.96 963.279 1290.96 948.689C1327.08 950.015 1362.95 951.342 1399.07 953C1399.07 967.921 1399.07 982.843 1399.07 997.765C1362.95 995.775 1326.82 994.117 1290.96 992.791ZM1400.36 997.765C1400.36 982.843 1400.36 967.921 1400.36 953C1436.48 954.658 1472.35 956.647 1508.47 958.637C1508.47 973.559 1508.47 988.812 1508.47 1003.73C1472.35 1001.74 1436.22 999.423 1400.36 997.765ZM1509.5 1004.07C1509.5 989.143 1509.5 973.89 1509.5 958.968C1545.62 960.958 1581.49 963.279 1617.36 965.932C1617.36 981.185 1617.36 996.438 1617.36 1012.02C1581.49 1008.71 1545.62 1006.39 1509.5 1004.07ZM1618.9 1011.69C1618.9 996.438 1618.9 981.185 1618.9 965.6C1654.77 968.253 1690.89 970.906 1726.76 973.559C1726.76 989.143 1726.76 1004.73 1726.76 1020.31C1690.89 1017.33 1654.77 1014.34 1618.9 1011.69ZM1835.65 1030.92C1799.78 1027.28 1763.91 1023.96 1727.79 1020.64C1727.79 1005.06 1727.79 989.475 1727.79 973.89C1763.66 976.874 1799.52 979.859 1835.65 983.175C1835.65 999.091 1835.65 1015.01 1835.65 1030.92ZM1835.65 981.848C1799.78 978.532 1763.91 975.548 1727.79 972.564C1727.79 956.979 1727.79 941.394 1727.79 925.809C1763.66 928.462 1799.52 931.115 1835.65 934.099C1835.65 950.015 1835.65 965.932 1835.65 981.848ZM1835.65 932.772C1799.78 929.788 1763.91 927.135 1727.79 924.483C1727.79 908.898 1727.79 893.313 1727.79 877.728C1763.66 880.049 1799.52 882.37 1835.65 885.023C1835.65 900.94 1835.65 916.856 1835.65 932.772ZM1835.65 883.697C1799.78 881.044 1763.91 878.723 1727.79 876.402C1727.79 860.817 1727.79 845.232 1727.79 829.647C1763.66 831.636 1799.52 833.626 1835.65 835.947C1835.65 851.864 1835.65 867.78 1835.65 883.697ZM1835.65 834.621C1799.78 832.3 1763.91 830.31 1727.79 828.321C1727.79 812.736 1727.79 797.151 1727.79 781.566C1763.66 783.224 1799.52 784.882 1835.65 786.871C1835.65 802.788 1835.65 818.704 1835.65 834.621ZM1835.65 785.545C1799.78 783.887 1763.91 781.897 1727.79 780.24C1727.79 764.655 1727.79 749.07 1727.79 733.485C1763.66 734.811 1799.52 736.138 1835.65 737.796C1835.65 753.712 1835.65 769.628 1835.65 785.545ZM1835.65 736.469C1799.78 735.143 1763.91 733.485 1727.79 732.49C1727.79 716.905 1727.79 701.32 1727.79 685.735C1763.66 686.73 1799.52 687.725 1835.65 688.72C1835.65 704.305 1835.65 720.553 1835.65 736.469ZM1835.65 687.393C1799.78 686.399 1763.91 685.404 1727.79 684.409C1727.79 668.824 1727.79 653.239 1727.79 637.654C1763.66 638.318 1799.52 638.981 1835.65 639.644C1835.65 655.229 1835.65 671.145 1835.65 687.393ZM1835.65 637.986C1799.78 637.323 1763.91 636.659 1727.79 635.996C1727.79 620.411 1727.79 604.827 1727.79 589.242C1763.66 589.573 1799.52 589.905 1835.65 590.236C1835.65 606.153 1835.65 622.069 1835.65 637.986ZM1835.65 588.91C1799.78 588.578 1763.91 588.247 1727.79 587.915C1727.79 572.33 1727.79 556.745 1727.79 541.161C1763.66 541.161 1799.52 541.161 1835.65 541.161C1835.65 557.077 1835.65 572.994 1835.65 588.91ZM1835.65 539.834C1799.78 539.834 1763.91 539.834 1727.79 539.834C1727.79 524.249 1727.79 508.664 1727.79 493.079C1763.66 492.748 1799.52 492.416 1835.65 492.085C1835.65 508.001 1835.65 523.918 1835.65 539.834ZM1835.65 490.758C1799.78 491.09 1763.91 491.422 1727.79 491.753C1727.79 476.168 1727.79 460.583 1727.79 444.998C1763.66 444.335 1799.52 443.672 1835.65 443.009C1835.65 458.925 1835.65 474.842 1835.65 490.758ZM1835.65 441.683C1799.78 442.346 1763.91 443.009 1727.79 443.672C1727.79 428.087 1727.79 412.502 1727.79 396.917C1763.66 395.923 1799.52 394.928 1835.65 393.933C1835.65 409.85 1835.65 425.766 1835.65 441.683ZM1835.65 392.607C1799.78 393.601 1763.91 394.596 1727.79 395.591C1727.79 380.006 1727.79 364.421 1727.79 348.836C1763.66 347.51 1799.52 346.184 1835.65 344.857C1835.65 360.442 1835.65 376.69 1835.65 392.607ZM1835.65 343.531C1799.78 344.857 1763.91 346.515 1727.79 347.842C1727.79 332.257 1727.79 316.672 1727.79 301.087C1763.66 299.429 1799.52 297.771 1835.65 295.781C1835.65 311.366 1835.65 327.283 1835.65 343.531ZM1835.65 294.123C1799.78 296.113 1763.91 297.771 1727.79 299.429C1727.79 283.844 1727.79 268.259 1727.79 252.674C1763.66 250.685 1799.52 248.695 1835.65 246.374C1835.65 262.29 1835.65 278.207 1835.65 294.123ZM1835.65 245.048C1799.78 247.369 1763.91 249.358 1727.79 251.348C1727.79 235.763 1727.79 220.178 1727.79 204.593C1763.66 202.272 1799.52 199.951 1835.65 197.298C1835.65 213.215 1835.65 229.131 1835.65 245.048ZM1835.65 195.972C1799.78 198.624 1763.91 200.946 1727.79 203.267C1727.79 187.682 1727.79 172.097 1727.79 156.512C1763.66 153.859 1799.52 151.207 1835.65 148.222C1835.65 164.139 1835.65 180.055 1835.65 195.972ZM1835.65 146.896C1799.78 149.88 1763.91 152.533 1727.79 155.186C1727.79 139.601 1727.79 124.016 1727.79 108.431C1763.66 105.447 1799.52 102.462 1835.65 99.1465C1835.65 115.063 1835.65 130.979 1835.65 146.896ZM1835.65 97.8201C1799.78 101.136 1763.91 104.12 1727.79 107.105C1727.79 91.5198 1727.79 75.9349 1727.79 60.35C1763.66 57.0341 1799.52 53.7181 1835.65 50.0706C1835.65 65.9871 1835.65 81.9036 1835.65 97.8201Z" fill="url(#paint0_linear_367_430)"/>
</g>
<defs>
<linearGradient id="paint0_linear_367_430" x1="961.731" y1="94.5167" x2="961.731" y2="981.945" gradientUnits="userSpaceOnUse">
<stop stop-color="#D1F1FF" stop-opacity="0"/>
<stop offset="0.276042" stop-color="#D1F1FF"/>
<stop offset="0.84375" stop-color="#D1F1FF"/>
<stop offset="1" stop-color="#D1F1FF" stop-opacity="0"/>
</linearGradient>
</defs>
</svg>
