<svg width="48" height="47" viewBox="0 0 48 47" fill="none" xmlns="http://www.w3.org/2000/svg">
<path d="M40.23 46.8604C39.6954 46.5316 39.5571 46.0309 39.5664 45.4466C39.5781 44.6824 39.5676 44.679 38.8227 44.4487C37.6874 44.0981 36.5497 43.759 35.4178 43.3993C35.118 43.3042 34.9216 43.3363 34.6927 43.5849C33.6317 44.7363 32.3221 45.2129 30.7638 44.8188C29.2019 44.4235 28.1572 43.4233 27.8644 41.8789C27.7168 41.0999 27.3461 40.8375 26.6837 40.7035C26.4873 40.6645 26.2944 40.6027 26.1073 40.5339C25.8912 40.4549 25.7332 40.4915 25.5786 40.6737C25.2637 41.0449 24.8511 41.1331 24.4061 40.9555C23.9564 40.7745 23.7727 40.409 23.7739 39.9347C23.7797 38.7157 23.782 37.4967 23.7716 36.2777C23.7669 35.7897 23.9238 35.3978 24.3956 35.2054C24.8593 35.0152 25.2834 35.116 25.6007 35.509C25.7982 35.753 26.0086 35.6499 26.2282 35.5823C29.1334 34.6887 32.0374 33.795 34.9414 32.9014C36.3126 32.4798 37.6804 32.0456 39.0575 31.6434C39.456 31.5277 39.6141 31.3295 39.5757 30.9262C39.5478 30.6249 39.556 30.3179 39.6443 30.0189C39.7907 29.5262 40.2126 29.2329 40.725 29.2719C41.2212 29.3097 41.6012 29.6878 41.6454 30.1987C41.6582 30.35 41.6535 30.5035 41.6535 30.6559C41.6535 35.6075 41.6465 40.5603 41.6628 45.5119C41.6651 46.0756 41.5361 46.5281 41.0643 46.8604C40.7866 46.8604 40.5089 46.8604 40.23 46.8604ZM32.7044 42.5675C31.8224 42.2983 30.9741 42.0393 30.077 41.7644C30.4686 42.894 31.9607 43.193 32.7044 42.5675Z" fill="white"/>
<path d="M46.1679 46.8603C45.3533 46.2072 44.6503 45.4408 43.9205 44.7041C43.4347 44.2138 43.4452 43.6169 43.8856 43.2033C44.3144 42.8011 44.8908 42.8023 45.3742 43.2697C46.1203 43.9915 46.8977 44.6846 47.5601 45.4866C47.5601 45.883 47.5496 46.2794 47.5647 46.6758C47.5705 46.8351 47.5357 46.8706 47.3741 46.8637C46.9732 46.85 46.57 46.8603 46.1679 46.8603Z" fill="white"/>
<path d="M47.5601 30.6696C46.8977 31.4727 46.1191 32.167 45.3719 32.8877C44.8873 33.354 44.3098 33.3528 43.8821 32.9484C43.4429 32.5325 43.4452 31.9471 43.924 31.4464C44.4527 30.8942 45.007 30.366 45.552 29.8298C46.3434 29.0519 46.8106 29.0565 47.5601 29.847C47.5601 30.1197 47.5601 30.3947 47.5601 30.6696Z" fill="white"/>
<path d="M47.5606 38.4442C47.2689 38.9494 46.8157 39.1316 46.244 39.1121C45.7362 39.0949 45.2272 39.119 44.7194 39.1041C44.0384 39.0846 43.577 38.6745 43.5619 38.1005C43.5457 37.5139 44.0233 37.0716 44.7217 37.0522C45.2295 37.0384 45.7385 37.0625 46.2463 37.0442C46.8204 37.0235 47.2713 37.2068 47.5618 37.7132C47.5606 37.9561 47.5606 38.2001 47.5606 38.4442Z" fill="white"/>
<path d="M31.2273 9.63257C29.6469 8.98297 28.0676 8.33223 26.4872 7.68263C21.9505 5.81975 17.4138 3.95687 12.8771 2.094C12.7911 2.05848 12.7062 2.02297 12.6226 1.98401C11.9985 1.68499 11.7452 1.14308 11.9776 0.609198C12.2135 0.0672912 12.7841 -0.146951 13.4244 0.105099C14.4865 0.523272 15.5394 0.963213 16.5957 1.39628C23.2009 4.10925 29.8061 6.82222 36.4101 9.53977C36.703 9.66007 36.9947 9.71163 37.3096 9.71621C38.2358 9.7311 39.1608 9.68069 40.0881 9.77578C41.9056 9.96253 43.4267 11.4519 43.6092 13.2415C43.6615 13.7593 43.6742 14.2749 43.6742 14.7916C43.6742 18.6628 43.6742 22.5352 43.6731 26.4065C43.6731 26.6047 43.6766 26.8052 43.644 26.9988C43.5081 27.7985 42.8352 28.1571 42.0938 27.8053C41.4803 27.5143 40.8609 27.3425 40.1718 27.4697C39.1154 27.6644 38.3334 28.2281 37.9731 29.2203C37.721 29.9168 37.2829 30.2628 36.5856 30.4713C33.3922 31.4268 30.2093 32.4179 27.0264 33.4066C26.5802 33.5452 26.1607 33.5463 25.711 33.4157C23.6983 32.8337 21.9052 34.165 21.8843 36.241C21.8796 36.7588 21.8866 37.2778 21.8819 37.7957C21.875 38.7111 21.4799 39.1075 20.5514 39.1075C16.361 39.1109 12.1717 39.1086 7.98126 39.1086C6.68207 39.1086 5.38404 39.1212 4.08484 39.104C2.15 39.0777 0.649765 37.9263 0.129157 36.1024C0.0141125 35.6991 0.022247 35.2878 0.022247 34.8765C0.0210849 27.9096 0.0582712 20.9439 0.000167684 13.9781C-0.0184254 11.8013 1.5097 9.70246 4.34399 9.70933C8.25551 9.7185 12.167 9.71162 16.0786 9.71162C20.9488 9.71162 25.819 9.71162 30.6893 9.71162C30.8589 9.71162 31.0286 9.71162 31.1971 9.71162C31.2087 9.68527 31.218 9.65892 31.2273 9.63257ZM21.8366 21.4193C27.3553 21.4193 32.8751 21.4205 38.3938 21.4182C39.2654 21.4182 39.564 21.1226 39.5675 20.2679C39.5721 19.1406 39.5721 18.0121 39.5675 16.8847C39.564 16.0106 39.2491 15.6967 38.3717 15.6932C37.1504 15.6886 35.9291 15.6921 34.7077 15.6921C24.9219 15.6921 15.135 15.6921 5.34918 15.6932C4.37885 15.6932 4.06974 15.998 4.06741 16.95C4.06509 17.9869 4.06625 19.0226 4.06741 20.0594C4.06857 21.1719 4.32423 21.4216 5.46422 21.4216C10.9225 21.4205 16.3795 21.4205 21.8366 21.4193ZM16.8955 27.2749C20.6839 27.2749 24.4722 27.2749 28.2594 27.2738C28.4604 27.2738 28.6626 27.2783 28.8613 27.2577C29.3308 27.2084 29.6388 26.8659 29.6504 26.3962C29.662 25.9035 29.3541 25.5369 28.8706 25.4808C28.7021 25.4613 28.5313 25.4636 28.3616 25.4636C20.7083 25.4624 13.0549 25.4624 5.40147 25.4636C4.51365 25.4636 4.06625 25.7786 4.08136 26.3881C4.0953 26.9816 4.52411 27.2749 5.39333 27.2749C9.22584 27.2749 13.0607 27.2749 16.8955 27.2749ZM12.4053 33.1293C14.3843 33.1293 16.3633 33.1305 18.3423 33.1293C18.8675 33.1293 19.394 33.1408 19.9192 33.1133C20.4177 33.0881 20.7373 32.7283 20.7443 32.2414C20.7524 31.7316 20.4294 31.3764 19.9088 31.3295C19.7705 31.3169 19.631 31.318 19.4916 31.318C14.7759 31.318 10.0602 31.3169 5.34569 31.318C5.17603 31.318 5.00404 31.3169 4.8367 31.3432C4.41139 31.4097 4.09182 31.7843 4.08136 32.2059C4.0709 32.6401 4.40325 33.04 4.84716 33.1041C5.04471 33.1328 5.24808 33.127 5.44911 33.1282C7.76628 33.1293 10.0858 33.1293 12.4053 33.1293ZM36.5949 26.3859C36.6007 25.3307 35.7617 24.4806 34.7089 24.476C33.6572 24.4726 32.7845 25.3169 32.7694 26.3538C32.7543 27.378 33.6293 28.2545 34.6775 28.2625C35.7385 28.2716 36.5891 27.4387 36.5949 26.3859Z" fill="white"/>
<path d="M16.8429 19.6104C13.4439 19.6104 10.0437 19.6104 6.6446 19.6104C5.9613 19.6104 5.9613 19.6081 5.96014 18.9218C5.95782 17.5562 5.95782 17.5562 7.33487 17.5562C13.9331 17.5562 20.5313 17.5562 27.1296 17.5562C27.8187 17.5562 27.8187 17.5573 27.821 18.2321C27.8257 19.6104 27.8257 19.6104 26.4393 19.6104C23.2401 19.6104 20.0421 19.6104 16.8429 19.6104Z" fill="white"/>
<path d="M33.7453 17.5561C34.9039 17.5561 36.0625 17.5676 37.2199 17.5493C37.5964 17.5435 37.7591 17.665 37.7382 18.0453C37.7184 18.4246 37.7277 18.8061 37.7347 19.1864C37.7405 19.4683 37.6266 19.6092 37.3268 19.6081C34.9179 19.6046 32.5089 19.6046 30.0999 19.6058C29.8338 19.6058 29.7048 19.4958 29.7118 19.2208C29.7222 18.8095 29.7304 18.3982 29.7095 17.9881C29.6909 17.6375 29.8512 17.547 30.1778 17.5504C31.3666 17.5642 32.5554 17.5561 33.7453 17.5561Z" fill="white"/>
</svg>
