<svg width="401" height="24" viewBox="0 0 401 24" fill="none" xmlns="http://www.w3.org/2000/svg">
<path d="M120.323 8.68655C118.733 5.96114 120.585 2.37733 123.744 1.9374C124.136 1.88375 124.539 1.85156 124.942 1.85156C135.161 1.85156 145.379 1.85156 155.598 1.85156C155.903 1.85156 156.219 1.85156 156.524 1.85156C156.546 1.91594 156.578 1.98032 156.6 2.0447C147.558 8.56852 138.516 15.0923 129.3 21.7342C132.895 20.4573 136.479 21.0797 139.943 20.5753C142.482 20.2105 145.031 19.9637 147.493 19.2126C150.489 18.2899 153.125 16.8091 155.227 14.2232C155.859 16.4121 156.404 18.4615 155.445 20.5324C154.715 22.0883 153.386 22.9467 151.632 23.1398C151.24 23.1827 150.837 23.172 150.434 23.172C138.985 23.172 127.546 23.172 116.097 23.172C115.726 23.172 115.367 23.172 114.996 23.172C114.964 23.1076 114.942 23.0432 114.909 22.9789C123.951 16.455 132.982 9.94195 142.155 3.32157C138.429 4.54478 134.682 3.85807 131.054 4.44821C129.398 4.71646 127.72 4.83449 126.086 5.27442C123.842 5.88603 121.914 7.00194 120.323 8.68655Z" fill="white"/>
<path d="M177.473 19.3951C175.828 21.6698 173.66 22.7536 171.154 23.2257C169.085 23.6227 167.015 23.6012 165.065 22.6141C162.57 21.3372 161.96 18.923 163.659 16.734C165.402 14.4808 167.886 13.5043 170.675 13.2039C172.189 13.0322 173.693 13.1181 175.131 13.6975C176.503 14.2554 177.604 15.0816 177.974 16.5838C178.028 16.8199 178.039 17.2276 178.039 17.2276C178.039 17.2276 177.756 17.2276 177.484 17.2276C176.34 17.2276 175.207 17.2169 174.063 17.2169C173.802 17.2169 173.584 17.2062 173.399 16.9701C172.059 15.3177 168.355 16.0259 167.287 17.8714C166.742 18.8157 167.102 19.7814 168.213 20.2427C169.673 20.8436 171.078 20.5646 172.375 19.7814C172.843 19.5024 173.279 19.3843 173.802 19.3951C174.967 19.4058 176.133 19.3951 177.473 19.3951Z" fill="white"/>
<path d="M159.258 23.4188C158.071 23.4188 157.221 22.5818 157.232 21.4337C157.243 20.2963 158.136 19.4594 159.313 19.4809C160.424 19.4916 161.317 20.3715 161.328 21.4445C161.328 22.5282 160.402 23.4188 159.258 23.4188Z" fill="white"/>
<path d="M191.068 14.0085C189.837 13.3433 188.497 13.1287 186.874 13.1394C186.721 13.1501 186.318 13.1394 185.915 13.1931C183.137 13.5364 180.643 14.4807 178.9 16.734C177.2 18.9336 177.821 21.3586 180.316 22.614C182.266 23.6011 184.336 23.6119 186.405 23.2256C188.78 22.7749 190.916 21.7985 192.386 19.8135C194.02 17.6245 193.465 15.3176 191.068 14.0085ZM187.255 19.9959C186.035 20.5753 184.76 20.7899 183.464 20.2212C182.157 19.6525 181.895 18.4937 182.843 17.4421C183.747 16.4442 184.946 16.0687 185.959 16.0258C187.68 16.0258 188.737 16.6267 188.944 17.5494C189.14 18.44 188.486 19.4057 187.255 19.9959Z" fill="white"/>
<path d="M210.372 13.5366C208.488 12.8713 206.625 13.0752 204.773 13.719C204.446 13.837 204.163 13.9658 203.803 13.7941C201.418 12.6675 199.086 13.0537 196.809 14.0838C195.568 14.6418 194.533 15.5109 194.13 16.8629C193.552 18.7835 192.332 23.1828 192.332 23.1828H196.581C196.581 23.1828 197.724 19.0947 198.215 17.4101C198.487 16.4444 199.162 15.983 200.176 16.0474C201.025 16.101 201.33 16.498 201.102 17.3135C200.622 19.0625 199.435 23.1828 199.435 23.1828H203.694C203.694 23.1828 204.849 19.1162 205.35 17.3672C205.612 16.4659 206.2 16.0367 207.159 16.0474C208.117 16.0581 208.466 16.4873 208.215 17.3672C207.758 19.0089 206.538 23.1828 206.538 23.1828H210.819C210.819 23.1828 211.974 19.0518 212.442 17.3886C212.976 15.4358 212.333 14.2233 210.372 13.5366Z" fill="white"/>
<path d="M117.012 13.8906H111.434L112.186 11.7017H117.763L117.012 13.8906Z" fill="white"/>
<path d="M54.5677 21.7024H56.0384C56.1146 21.7024 56.2127 21.6487 56.2454 21.5843L62.3677 11.7128L65.6904 23.0114C65.7122 23.0758 65.7884 23.1402 65.8647 23.1402H72.2921C72.3684 23.1402 72.4119 23.0865 72.3901 23.0114L65.6141 1.87338C65.5924 1.809 65.5161 1.74463 65.4398 1.74463H63.0214C62.9451 1.74463 62.8471 1.79833 62.8144 1.86271L54.5568 14.4704L46.2992 1.86271C46.2557 1.79833 46.1685 1.74463 46.0923 1.74463H43.6738C43.5976 1.74463 43.5214 1.809 43.4996 1.87338L36.7126 23.0114C36.6908 23.0758 36.7345 23.1402 36.8107 23.1402H43.2381C43.3143 23.1402 43.3906 23.0865 43.4124 23.0114L46.7459 11.7128L52.8683 21.5843C52.901 21.6487 52.999 21.7024 53.0753 21.7024H54.5677Z" fill="white"/>
<path d="M37.0175 11.1764C37.0066 11.112 36.9521 11.069 36.8867 11.069H18.5741C17.6046 11.069 16.8202 11.8416 16.8202 12.7965C16.8202 13.7515 17.6046 14.5241 18.5741 14.5241H29.4571C28.1607 17.8933 23.7814 20.3826 18.5741 20.3826C12.3428 20.3826 7.29892 16.8311 7.29892 12.4532C7.29892 8.07541 12.3428 4.52378 18.5741 4.52378C21.973 4.52378 25.0233 5.58603 27.0931 7.2599C27.0931 7.27063 27.104 7.27064 27.1149 7.27064C27.1367 7.2921 27.1694 7.3028 27.1912 7.3028H34.6753C34.7515 7.3028 34.806 7.23842 34.806 7.16331C34.806 7.13112 34.7951 7.09897 34.7733 7.07751L34.7624 7.06677C31.5814 3.72975 25.5244 1.4657 18.5741 1.4657C8.32298 1.4657 0 6.39081 0 12.4532C0 18.5157 8.31209 23.4407 18.5741 23.4407C28.8362 23.4407 37.1482 18.5157 37.1482 12.4532C37.1373 12.0133 37.0937 11.5948 37.0175 11.1764Z" fill="white"/>
<path d="M90.5609 20.372C84.3296 20.372 79.2857 16.8203 79.2857 12.4425C79.2857 8.06467 84.3296 4.51304 90.5609 4.51304C96.7813 4.51304 101.836 8.06467 101.836 12.4425C101.825 16.831 96.7813 20.372 90.5609 20.372ZM90.5609 1.4657C80.2988 1.4657 71.9868 6.39081 71.9868 12.4532C71.9868 18.5157 80.2988 23.4407 90.5609 23.4407C100.812 23.4407 109.135 18.5157 109.135 12.4532C109.124 6.38008 100.812 1.4657 90.5609 1.4657Z" fill="white"/>
<path d="M235.515 15.8542C235.493 14.4271 234.774 13.4185 233.413 12.9035C232.803 12.6781 232.171 12.5172 231.506 12.3026C233.685 11.6373 234.687 10.8219 234.96 9.30893C235.417 6.74447 234.742 4.30876 232.084 2.78511C230.155 1.69065 228.042 1.48678 225.885 1.637C221.037 1.96963 218.314 4.81307 218.248 9.49134C218.194 13.1503 218.216 23.1935 218.216 23.1935H224.578C224.578 23.1935 224.567 12.9678 224.567 9.25528C224.567 8.3325 224.85 7.54921 225.58 6.95906C226.277 6.41184 227.051 6.42257 227.824 6.78739C228.543 7.12001 228.903 7.71016 228.837 8.48272C228.772 9.2982 228.238 9.78104 227.476 10.0278C227.181 10.1244 226.865 10.221 226.56 10.1995C225.787 10.1566 225.613 10.5214 225.667 11.2081C225.733 11.9807 225.678 12.7747 225.678 13.558C225.678 14.9314 225.678 14.9314 227.018 15.0709C227.214 15.0924 227.41 15.1353 227.606 15.1782C228.968 15.4465 229.338 15.8864 229.338 17.2169C229.338 18.2684 229.349 19.32 229.349 20.3715V23.2042H235.537V20.3715C235.526 18.8586 235.537 17.3564 235.515 15.8542Z" fill="white"/>
<path d="M257.096 1.57263H252.445C252.292 1.57263 252.14 1.57263 251.976 1.57263C251.954 1.57263 251.944 1.57263 251.922 1.57263H250.952C250.952 1.57263 250.941 13 250.952 15.6289C250.952 16.2727 250.843 16.8736 250.342 17.3028C249.351 18.1504 248.196 18.3006 246.987 17.8607C245.778 17.4208 245.364 16.7233 245.364 15.307C245.364 12.8176 245.353 10.3176 245.342 7.81747V1.57263H239.241V2.06621C239.241 2.11986 239.23 2.17351 239.241 2.23789C239.241 2.40957 239.241 2.59198 239.241 2.76366V12.2597C239.23 13.5044 239.23 14.7383 239.296 15.983C239.437 18.7084 240.788 20.8007 243.272 22.1205C245.287 23.1935 247.466 23.2793 249.678 23.0755C253.828 22.6892 257.02 19.556 257.096 15.704C257.107 13.4936 257.096 1.57263 257.096 1.57263Z" fill="white"/>
<path d="M280.028 1.42241H273.96L273.971 13.6116C273.786 13.2897 269.875 7.0771 268.088 4.12636C267.489 3.1392 266.846 2.18424 265.833 1.54044C265.234 1.16489 264.613 0.93956 263.981 0.92883C263.48 0.9181 262.968 1.0254 262.456 1.27219C262.445 1.27219 262.434 1.28292 262.423 1.28292C261.388 1.76577 260.68 2.69927 260.669 3.79373C260.669 3.91176 260.669 4.02979 260.669 4.15855C260.669 4.41607 260.669 4.68432 260.669 4.94184C260.648 10.5321 260.658 22.6785 260.658 22.6785H266.726C266.726 22.6785 266.715 14.9207 266.715 11.4013V10.4892C267.108 11.1223 270.714 17.0774 272.598 19.9745C273.274 21.0046 273.938 21.9059 274.853 22.5604C275.431 22.9682 276.062 23.1506 276.694 23.172C277.206 23.1935 277.718 23.0862 278.23 22.8287C278.241 22.8287 278.252 22.818 278.263 22.818C279.298 22.3351 280.006 21.4016 280.017 20.3071C280.006 20.1891 280.028 1.42241 280.028 1.42241Z" fill="white"/>
<path d="M297.088 13.6975C296.173 12.603 295.029 11.7661 293.809 11.0365C292.621 10.3176 291.39 9.67377 290.203 8.95486C289.702 8.65442 289.114 8.26814 289.31 7.58142C289.517 6.87325 290.214 6.93763 290.813 6.90544C291.042 6.89471 296.826 6.89471 296.826 6.89471V1.90527H290.9C289.985 1.916 289.081 1.96965 288.177 2.14133C285.693 2.60272 283.765 3.8474 283.111 6.40113C282.468 8.91194 283.503 10.8111 285.551 12.2704C286.63 13.043 287.741 13.7726 288.852 14.5237C289.626 15.0495 290.41 15.5538 291.183 16.0903C291.576 16.3693 291.815 16.7448 291.728 17.2384C291.641 17.7212 291.216 17.8822 290.813 18.0217C290.355 18.1826 289.876 18.2255 289.386 18.2148C287.556 18.2041 283.144 18.2148 283.144 18.2148V23.1828L289.07 23.1721C289.342 23.1721 289.626 23.1721 289.898 23.1721C291.586 23.1506 293.264 23.0326 294.844 22.3888C298.45 20.908 299.561 16.6804 297.088 13.6975Z" fill="white"/>
<path d="M335.336 13.6975C334.421 12.603 333.277 11.7661 332.057 11.0365C330.869 10.3176 329.638 9.67377 328.451 8.95486C327.95 8.65442 327.362 8.26814 327.558 7.58142C327.765 6.87325 328.462 6.93763 329.061 6.90544C329.29 6.89471 335.074 6.89471 335.074 6.89471V1.90527H329.148C328.233 1.916 327.329 1.96965 326.425 2.14133C323.941 2.60272 322.013 3.8474 321.359 6.40113C320.716 8.91194 321.751 10.8111 323.799 12.2704C324.878 13.043 325.989 13.7726 327.1 14.5237C327.874 15.0495 328.658 15.5538 329.431 16.0903C329.824 16.3693 330.063 16.7448 329.976 17.2384C329.889 17.7212 329.464 17.8822 329.061 18.0217C328.604 18.1826 328.124 18.2255 327.634 18.2148C325.804 18.2041 321.392 18.2148 321.392 18.2148V23.1828L327.318 23.1721C327.59 23.1721 327.874 23.1721 328.146 23.1721C329.835 23.1506 331.512 23.0326 333.092 22.3888C336.698 20.908 337.809 16.6804 335.336 13.6975Z" fill="white"/>
<path d="M317.775 6.50846C317.775 5.22087 317.775 3.89035 317.764 2.59203V1.9375H311.729V4.22298C311.729 4.30882 311.729 4.39466 311.729 4.4805C311.729 5.74664 311.729 7.01277 311.718 8.26818C311.718 8.7403 311.674 9.21242 311.598 9.68453C311.446 10.6073 310.923 11.058 309.986 11.1009C308.984 11.1545 308.395 10.7575 308.156 9.83475C308.058 9.4592 308.025 9.0622 308.014 8.67592C308.003 7.2381 308.014 2.00188 308.014 2.00188H301.881C301.881 2.00188 301.87 7.90336 301.848 9.54504C301.848 12.4529 303.395 14.5452 306.238 15.4573C306.805 15.6397 306.957 15.9079 306.947 16.4659C306.925 17.9037 306.925 23.2472 306.925 23.2472H313.058C313.058 23.2472 313.069 17.893 313.036 16.4444C313.025 15.8757 313.21 15.6289 313.744 15.4143C316.435 14.3413 317.764 12.3563 317.775 9.50212C317.775 8.51497 317.775 7.50635 317.775 6.50846Z" fill="white"/>
<path d="M353.017 1.9375H348.605H342.297H337.929V7.14153H342.297V23.1828H348.605V7.14153H353.017V1.9375Z" fill="white"/>
<path d="M365.066 7.11996C366.275 6.96974 372.049 6.95901 372.049 6.95901V1.94812C372.049 1.94812 366.308 1.94812 365.077 1.94812C359.357 1.94812 355.065 5.96113 354.422 11.8948C353.878 16.895 357.701 21.9058 362.909 22.9037C364.608 23.2364 366.329 23.2364 368.051 23.1934H372.049V18.204H369.892C368.356 18.1933 366.82 18.1718 365.283 18.0538C363.225 17.8928 361.482 16.5838 361.133 14.8885H372.038V10.2531C372.038 10.2531 364.445 10.2424 361.046 10.2424C361.863 8.39683 363.126 7.35602 365.066 7.11996Z" fill="white"/>
<path d="M399.425 13.5902C399.087 10.6502 398.793 7.71021 398.39 4.7702C398.107 2.68858 397.072 1.60486 395.231 1.31515C394.272 1.16493 393.303 1.17566 392.344 1.43318C391.015 1.798 390.089 2.55983 389.653 3.87961C389.294 4.97407 389.185 6.12217 388.978 7.23809C388.498 9.86693 388.041 12.485 387.54 15.3392C387.442 14.9744 387.409 14.8456 387.376 14.7169C386.777 11.5086 386.2 8.30036 385.59 5.0921C385.034 2.15209 383.814 1.19712 380.785 1.25077C378.247 1.29369 376.983 2.3345 376.646 4.79166C376.341 6.94838 376.112 9.11583 375.861 11.2726C375.437 14.8778 374.521 22.7751 374.521 22.7751H380.404C380.404 22.7751 381.036 11.6696 381.341 6.50845C381.439 6.7767 383.563 16.1332 384.522 20.672C384.707 21.5411 385.089 22.2493 385.873 22.7107C387.845 23.8803 389.991 22.8716 390.503 20.5003C391.037 18.0217 391.549 15.5324 392.072 13.043C392.54 10.8219 393.019 8.59006 393.499 6.36896C393.662 7.46342 394.675 22.7643 394.675 22.7643H400.482C400.482 22.7751 399.741 16.3907 399.425 13.5902Z" fill="white"/>
</svg>
