<svg width="49" height="47" viewBox="0 0 49 47" fill="none" xmlns="http://www.w3.org/2000/svg">
<path d="M40.8397 46.9789C40.3052 46.6501 40.1669 46.1494 40.1762 45.5651C40.1878 44.801 40.1773 44.7975 39.4325 44.5672C38.2971 44.2167 37.1594 43.8775 36.0276 43.5178C35.7278 43.4227 35.5314 43.4548 35.3025 43.7034C34.2415 44.8548 32.9318 45.3314 31.3735 44.9373C29.8117 44.542 28.767 43.5419 28.4741 41.9975C28.3266 41.2184 27.9559 40.9561 27.2935 40.822C27.0971 40.7831 26.9042 40.7212 26.7171 40.6524C26.5009 40.5734 26.3429 40.6101 26.1883 40.7922C25.8734 41.1634 25.4609 41.2516 25.0158 41.0741C24.5661 40.893 24.3825 40.5276 24.3837 40.0533C24.3895 38.8343 24.3918 37.6153 24.3813 36.3962C24.3767 35.9082 24.5336 35.5164 25.0054 35.3239C25.469 35.1337 25.8932 35.2345 26.2104 35.6275C26.408 35.8715 26.6183 35.7684 26.8379 35.7008C29.7431 34.8072 32.6471 33.9136 35.5511 33.0199C36.9224 32.5983 38.2901 32.1641 39.6672 31.762C40.0658 31.6463 40.2238 31.4481 40.1855 31.0448C40.1576 30.7435 40.1657 30.4364 40.254 30.1374C40.4005 29.6448 40.8223 29.3515 41.3348 29.3904C41.831 29.4282 42.211 29.8063 42.2551 30.3173C42.2679 30.4685 42.2633 30.622 42.2633 30.7744C42.2633 35.726 42.2563 40.6788 42.2726 45.6304C42.2749 46.1941 42.1459 46.6466 41.6741 46.9789C41.3964 46.9789 41.1186 46.9789 40.8397 46.9789ZM33.3142 42.686C32.4321 42.4168 31.5838 42.1579 30.6867 41.8829C31.0783 43.0125 32.5704 43.3116 33.3142 42.686Z" fill="white"/>
<path d="M46.7779 46.9788C45.9633 46.3258 45.2602 45.5593 44.5305 44.8226C44.0447 44.3323 44.0552 43.7354 44.4956 43.3218C44.9244 42.9197 45.5008 42.9208 45.9842 43.3883C46.7303 44.11 47.5077 44.8032 48.1701 45.6051C48.1701 46.0015 48.1596 46.398 48.1747 46.7944C48.1805 46.9536 48.1457 46.9891 47.9841 46.9822C47.5832 46.9685 47.18 46.9788 46.7779 46.9788Z" fill="white"/>
<path d="M48.1701 30.7882C47.5077 31.5913 46.7291 32.2856 45.9819 33.0062C45.4973 33.4725 44.9198 33.4713 44.4921 33.0669C44.0529 32.651 44.0552 32.0656 44.534 31.5649C45.0627 31.0127 45.617 30.4846 46.162 29.9484C46.9534 29.1705 47.4205 29.175 48.1701 29.9656C48.1701 30.2382 48.1701 30.5132 48.1701 30.7882Z" fill="white"/>
<path d="M48.1701 38.5627C47.8784 39.0679 47.4252 39.2501 46.8535 39.2306C46.3457 39.2134 45.8367 39.2375 45.3288 39.2226C44.6479 39.2031 44.1865 38.793 44.1714 38.219C44.1552 37.6324 44.6328 37.1902 45.3312 37.1707C45.839 37.157 46.348 37.181 46.8558 37.1627C47.4299 37.1421 47.8808 37.3254 48.1713 37.8318C48.1701 38.0746 48.1701 38.3187 48.1701 38.5627Z" fill="white"/>
<path d="M31.8372 9.7511C30.2568 9.1015 28.6775 8.45076 27.0971 7.80116C22.5604 5.93828 18.0236 4.0754 13.4869 2.21253C13.4009 2.17701 13.3161 2.1415 13.2324 2.10254C12.6084 1.80352 12.3551 1.26161 12.5875 0.727728C12.8234 0.185821 13.394 -0.0284207 14.0343 0.223629C15.0964 0.641802 16.1492 1.08174 17.2056 1.51481C23.8108 4.22778 30.416 6.94075 37.02 9.6583C37.3129 9.7786 37.6045 9.83016 37.9194 9.83474C38.8456 9.84963 39.7706 9.79922 40.698 9.89431C42.5154 10.0811 44.0366 11.5704 44.219 13.36C44.2713 13.8778 44.2841 14.3934 44.2841 14.9101C44.2841 18.7814 44.2841 22.6537 44.2829 26.525C44.2829 26.7232 44.2864 26.9237 44.2539 27.1173C44.1179 27.917 43.4451 28.2756 42.7037 27.9239C42.0901 27.6329 41.4707 27.461 40.7816 27.5882C39.7253 27.783 38.9432 28.3466 38.583 29.3388C38.3308 30.0354 37.8927 30.3814 37.1955 30.5899C34.0021 31.5454 30.8192 32.5364 27.6363 33.5251C27.1901 33.6637 26.7706 33.6649 26.3208 33.5343C24.3081 32.9523 22.5151 34.2835 22.4941 36.3595C22.4895 36.8774 22.4965 37.3964 22.4918 37.9142C22.4848 38.8296 22.0897 39.226 21.1612 39.226C16.9708 39.2294 12.7816 39.2272 8.59113 39.2272C7.29193 39.2272 5.9939 39.2398 4.69471 39.2226C2.75986 39.1962 1.25963 38.0448 0.739021 36.2209C0.623976 35.8176 0.63211 35.4063 0.63211 34.995C0.630948 28.0281 0.668134 21.0624 0.610031 14.0967C0.591438 11.9199 2.11956 9.82099 4.95385 9.82786C8.86538 9.83703 12.7769 9.83015 16.6884 9.83015C21.5587 9.83015 26.4289 9.83015 31.2991 9.83015C31.4688 9.83015 31.6385 9.83015 31.807 9.83015C31.8186 9.8038 31.8279 9.77745 31.8372 9.7511ZM22.4465 21.5379C27.9652 21.5379 33.485 21.539 39.0037 21.5367C39.8752 21.5367 40.1739 21.2411 40.1774 20.3864C40.182 19.2591 40.182 18.1306 40.1774 17.0033C40.1739 16.1291 39.8589 15.8152 38.9816 15.8118C37.7603 15.8072 36.5389 15.8106 35.3176 15.8106C25.5318 15.8106 15.7448 15.8106 5.95904 15.8118C4.98871 15.8118 4.6796 16.1165 4.67728 17.0686C4.67495 18.1054 4.67611 19.1411 4.67728 20.1779C4.67844 21.2904 4.93409 21.5401 6.07408 21.5401C11.5323 21.539 16.9894 21.539 22.4465 21.5379ZM17.5054 27.3934C21.2937 27.3934 25.0821 27.3934 28.8692 27.3923C29.0703 27.3923 29.2725 27.3969 29.4712 27.3762C29.9407 27.327 30.2486 26.9844 30.2602 26.5147C30.2719 26.022 29.9639 25.6554 29.4805 25.5993C29.312 25.5798 29.1412 25.5821 28.9715 25.5821C21.3181 25.581 13.6647 25.581 6.01133 25.5821C5.12351 25.5821 4.67611 25.8972 4.69122 26.5067C4.70517 27.1001 5.13397 27.3934 6.0032 27.3934C9.8357 27.3934 13.6705 27.3934 17.5054 27.3934ZM13.0151 33.2478C14.9941 33.2478 16.9731 33.249 18.9521 33.2478C19.4774 33.2478 20.0038 33.2593 20.5291 33.2318C21.0276 33.2066 21.3472 32.8469 21.3541 32.3599C21.3623 31.8501 21.0392 31.495 20.5186 31.448C20.3803 31.4354 20.2409 31.4365 20.1014 31.4365C15.3858 31.4365 10.6701 31.4354 5.95555 31.4365C5.78589 31.4365 5.6139 31.4354 5.44657 31.4617C5.02125 31.5282 4.70168 31.9028 4.69122 32.3244C4.68076 32.7586 5.01311 33.1585 5.45703 33.2226C5.65458 33.2513 5.85794 33.2456 6.05898 33.2467C8.37614 33.2479 10.6956 33.2478 13.0151 33.2478ZM37.2048 26.5044C37.2106 25.4492 36.3716 24.5991 35.3187 24.5945C34.2671 24.5911 33.3943 25.4355 33.3792 26.4723C33.3641 27.4965 34.2392 28.373 35.2874 28.381C36.3483 28.3902 37.199 27.5573 37.2048 26.5044Z" fill="white"/>
<path d="M17.453 19.7289C14.054 19.7289 10.6538 19.7289 7.25471 19.7289C6.57141 19.7289 6.57141 19.7266 6.57025 19.0403C6.56792 17.6747 6.56792 17.6747 7.94498 17.6747C14.5432 17.6747 21.1414 17.6747 27.7397 17.6747C28.4288 17.6747 28.4288 17.6758 28.4311 18.3506C28.4358 19.7289 28.4358 19.7289 27.0494 19.7289C23.8502 19.7289 20.6522 19.7289 17.453 19.7289Z" fill="white"/>
<path d="M34.3553 17.6747C35.5139 17.6747 36.6725 17.6861 37.8299 17.6678C38.2064 17.6621 38.3691 17.7835 38.3482 18.1639C38.3284 18.5431 38.3377 18.9246 38.3447 19.305C38.3505 19.5868 38.2366 19.7277 37.9368 19.7266C35.5278 19.7231 33.1189 19.7231 30.7099 19.7243C30.4438 19.7243 30.3148 19.6143 30.3218 19.3393C30.3322 18.928 30.3404 18.5167 30.3194 18.1066C30.3009 17.756 30.4612 17.6655 30.7878 17.6689C31.9766 17.6827 33.1654 17.6747 34.3553 17.6747Z" fill="white"/>
</svg>
