<svg width="48" height="47" viewBox="0 0 48 47" fill="none" xmlns="http://www.w3.org/2000/svg">
<path d="M40.23 46.8604C39.6954 46.5316 39.5571 46.031 39.5664 45.4467C39.5781 44.6825 39.5676 44.6791 38.8227 44.4488C37.6874 44.0982 36.5497 43.7591 35.4178 43.3993C35.118 43.3042 34.9216 43.3363 34.6927 43.5849C33.6317 44.7363 32.3221 45.2129 30.7638 44.8188C29.2019 44.4236 28.1572 43.4234 27.8644 41.879C27.7168 41.0999 27.3461 40.8376 26.6837 40.7035C26.4873 40.6646 26.2944 40.6027 26.1073 40.534C25.8912 40.4549 25.7332 40.4916 25.5786 40.6738C25.2637 41.045 24.8511 41.1332 24.4061 40.9556C23.9564 40.7746 23.7727 40.4091 23.7739 39.9348C23.7797 38.7158 23.782 37.4968 23.7716 36.2778C23.7669 35.7897 23.9238 35.3979 24.3956 35.2054C24.8593 35.0152 25.2834 35.1161 25.6007 35.509C25.7982 35.7531 26.0086 35.65 26.2282 35.5824C29.1334 34.6887 32.0374 33.7951 34.9414 32.9015C36.3126 32.4799 37.6804 32.0456 39.0575 31.6435C39.456 31.5278 39.6141 31.3296 39.5757 30.9263C39.5478 30.625 39.556 30.318 39.6443 30.0189C39.7907 29.5263 40.2126 29.233 40.725 29.2719C41.2212 29.3098 41.6012 29.6878 41.6454 30.1988C41.6582 30.35 41.6535 30.5036 41.6535 30.6559C41.6535 35.6076 41.6465 40.5603 41.6628 45.512C41.6651 46.0756 41.5361 46.5282 41.0643 46.8604C40.7866 46.8604 40.5089 46.8604 40.23 46.8604ZM32.7044 42.5676C31.8224 42.2983 30.9741 42.0394 30.077 41.7644C30.4686 42.8941 31.9607 43.1931 32.7044 42.5676Z" fill="white"/>
<path d="M46.1682 46.8603C45.3535 46.2073 44.6505 45.4408 43.9207 44.7042C43.435 44.2138 43.4454 43.6169 43.8859 43.2033C44.3147 42.8012 44.891 42.8023 45.3745 43.2698C46.1205 43.9916 46.8979 44.6847 47.5603 45.4867C47.5603 45.8831 47.5499 46.2795 47.565 46.6759C47.5708 46.8351 47.5359 46.8706 47.3744 46.8638C46.9735 46.85 46.5702 46.8603 46.1682 46.8603Z" fill="white"/>
<path d="M47.5601 30.6696C46.8977 31.4728 46.1191 32.167 45.3719 32.8877C44.8873 33.354 44.3098 33.3528 43.8821 32.9484C43.4429 32.5325 43.4452 31.9471 43.924 31.4464C44.4527 30.8942 45.007 30.366 45.552 29.8299C46.3434 29.0519 46.8106 29.0565 47.5601 29.847C47.5601 30.1197 47.5601 30.3947 47.5601 30.6696Z" fill="white"/>
<path d="M47.5606 38.4442C47.2689 38.9495 46.8157 39.1316 46.244 39.1122C45.7362 39.095 45.2272 39.119 44.7194 39.1041C44.0384 39.0847 43.577 38.6745 43.5619 38.1005C43.5457 37.5139 44.0233 37.0717 44.7217 37.0522C45.2295 37.0385 45.7385 37.0625 46.2463 37.0442C46.8204 37.0236 47.2713 37.2069 47.5618 37.7133C47.5606 37.9562 47.5606 38.2002 47.5606 38.4442Z" fill="white"/>
<path d="M31.2273 9.63263C29.6469 8.98303 28.0676 8.33229 26.4872 7.68269C21.9505 5.81981 17.4138 3.95694 12.8771 2.09406C12.7911 2.05854 12.7062 2.02303 12.6226 1.98407C11.9985 1.68505 11.7452 1.14315 11.9776 0.609259C12.2135 0.0673522 12.7841 -0.14689 13.4244 0.10516C14.4865 0.523333 15.5394 0.963274 16.5957 1.39634C23.2009 4.10931 29.8061 6.82228 36.4101 9.53983C36.703 9.66013 36.9947 9.71169 37.3096 9.71627C38.2358 9.73116 39.1608 9.68075 40.0881 9.77584C41.9056 9.96259 43.4267 11.452 43.6092 13.2415C43.6615 13.7594 43.6742 14.2749 43.6742 14.7916C43.6742 18.6629 43.6742 22.5353 43.6731 26.4065C43.6731 26.6047 43.6766 26.8052 43.644 26.9988C43.5081 27.7985 42.8352 28.1571 42.0938 27.8054C41.4803 27.5144 40.8609 27.3426 40.1718 27.4697C39.1154 27.6645 38.3334 28.2282 37.9731 29.2203C37.721 29.9169 37.2829 30.2629 36.5856 30.4714C33.3922 31.4269 30.2093 32.4179 27.0264 33.4066C26.5802 33.5453 26.1607 33.5464 25.711 33.4158C23.6983 32.8338 21.9052 34.1651 21.8843 36.241C21.8796 36.7589 21.8866 37.2779 21.8819 37.7957C21.875 38.7111 21.4799 39.1075 20.5514 39.1075C16.361 39.111 12.1717 39.1087 7.98126 39.1087C6.68207 39.1087 5.38404 39.1213 4.08484 39.1041C2.15 39.0777 0.649765 37.9263 0.129157 36.1024C0.0141125 35.6991 0.022247 35.2878 0.022247 34.8765C0.0210849 27.9097 0.0582712 20.9439 0.000167684 13.9782C-0.0184254 11.8014 1.5097 9.70252 4.34399 9.70939C8.25551 9.71856 12.167 9.71169 16.0786 9.71169C20.9488 9.71169 25.819 9.71169 30.6893 9.71169C30.8589 9.71169 31.0286 9.71169 31.1971 9.71169C31.2087 9.68534 31.218 9.65898 31.2273 9.63263ZM21.8366 21.4194C27.3553 21.4194 32.8751 21.4205 38.3938 21.4182C39.2654 21.4182 39.564 21.1227 39.5675 20.268C39.5721 19.1406 39.5721 18.0121 39.5675 16.8848C39.564 16.0106 39.2491 15.6967 38.3717 15.6933C37.1504 15.6887 35.9291 15.6921 34.7077 15.6921C24.9219 15.6921 15.135 15.6921 5.34918 15.6933C4.37885 15.6933 4.06974 15.998 4.06741 16.9501C4.06509 17.9869 4.06625 19.0226 4.06741 20.0595C4.06857 21.1719 4.32423 21.4217 5.46422 21.4217C10.9225 21.4205 16.3795 21.4205 21.8366 21.4194ZM16.8955 27.275C20.6839 27.275 24.4722 27.275 28.2594 27.2738C28.4604 27.2738 28.6626 27.2784 28.8613 27.2578C29.3308 27.2085 29.6388 26.866 29.6504 26.3962C29.662 25.9036 29.3541 25.537 28.8706 25.4808C28.7021 25.4613 28.5313 25.4636 28.3616 25.4636C20.7083 25.4625 13.0549 25.4625 5.40147 25.4636C4.51365 25.4636 4.06625 25.7787 4.08136 26.3882C4.0953 26.9817 4.52411 27.275 5.39333 27.275C9.22584 27.275 13.0607 27.275 16.8955 27.275ZM12.4053 33.1294C14.3843 33.1294 16.3633 33.1305 18.3423 33.1294C18.8675 33.1294 19.394 33.1408 19.9192 33.1133C20.4177 33.0881 20.7373 32.7284 20.7443 32.2415C20.7524 31.7317 20.4294 31.3765 19.9088 31.3295C19.7705 31.3169 19.631 31.3181 19.4916 31.3181C14.7759 31.3181 10.0602 31.3169 5.34569 31.3181C5.17603 31.3181 5.00404 31.3169 4.8367 31.3433C4.41139 31.4097 4.09182 31.7844 4.08136 32.206C4.0709 32.6402 4.40325 33.04 4.84716 33.1042C5.04471 33.1328 5.24808 33.1271 5.44911 33.1282C7.76628 33.1294 10.0858 33.1294 12.4053 33.1294ZM36.5949 26.3859C36.6007 25.3307 35.7617 24.4806 34.7089 24.4761C33.6572 24.4726 32.7845 25.317 32.7694 26.3538C32.7543 27.3781 33.6293 28.2545 34.6775 28.2625C35.7385 28.2717 36.5891 27.4388 36.5949 26.3859Z" fill="white"/>
<path d="M16.8429 19.6104C13.4439 19.6104 10.0437 19.6104 6.6446 19.6104C5.9613 19.6104 5.9613 19.6081 5.96014 18.9219C5.95782 17.5562 5.95782 17.5562 7.33487 17.5562C13.9331 17.5562 20.5313 17.5562 27.1296 17.5562C27.8187 17.5562 27.8187 17.5574 27.821 18.2322C27.8257 19.6104 27.8257 19.6104 26.4393 19.6104C23.2401 19.6104 20.0421 19.6104 16.8429 19.6104Z" fill="white"/>
<path d="M33.7456 17.5561C34.9042 17.5561 36.0627 17.5676 37.2202 17.5493C37.5967 17.5435 37.7594 17.665 37.7384 18.0454C37.7187 18.4246 37.728 18.8061 37.735 19.1865C37.7408 19.4683 37.6269 19.6092 37.3271 19.6081C34.9181 19.6046 32.5091 19.6046 30.1002 19.6058C29.834 19.6058 29.7051 19.4958 29.712 19.2208C29.7225 18.8095 29.7306 18.3982 29.7097 17.9881C29.6911 17.6375 29.8515 17.547 30.178 17.5504C31.3668 17.5642 32.5556 17.5561 33.7456 17.5561Z" fill="white"/>
</svg>
