<svg width="281" height="77" viewBox="0 0 281 77" fill="none" xmlns="http://www.w3.org/2000/svg">
<path d="M89.6219 28.813C88.1733 28.776 86.7246 28.7402 85.276 28.7079L80.9302 28.6162L80.5949 28.6091L80.4945 28.9559L79.6517 31.8716L78.5595 28.81L76.9044 24.2048L76.1752 22.176L75.6294 24.2816L74.6058 28.2307L73.5892 32.1817L72.5785 36.1343L72.3916 36.8703L72.3365 36.6316L71.5333 33.1659L70.7257 29.7013L69.9139 26.2378L69.0977 22.7753L68.2773 19.3139L67.4526 15.8536L66.6235 12.3944L65.8545 9.18408L65.0642 12.3798L63.6092 18.263C63.1266 20.2247 62.6461 22.1871 62.1681 24.1499L61.4531 27.0949L60.7419 30.0408L60.035 32.988L59.7279 34.2772L59.2316 33.096L58.0647 30.3313L56.8926 27.5689L55.7155 24.8085L55.3685 23.9948L55.0919 24.8196L54.3913 26.9082L53.7435 28.8498L52.0535 28.8977L50.1988 28.9531L48.344 29.0132C47.7258 29.0342 47.1074 29.0555 46.4893 29.0797C47.1074 29.1037 47.7258 29.1253 48.344 29.1462L50.1988 29.2063L52.0535 29.2617L53.9083 29.3142L54.0612 29.3184L54.1226 29.1612L54.9227 27.1105L55.4007 25.8795L56.1536 27.8804L57.2162 30.6889L58.2842 33.4953L59.3564 36.2998L59.967 37.897L60.4179 36.226L61.2071 33.3009L61.992 30.3747L62.7725 27.4472L63.5493 24.5186C64.0659 22.5659 64.5797 20.6128 65.0917 18.6587L65.794 15.9644L65.8591 16.2472L66.6623 19.7129L67.4699 23.1775L68.2817 26.641L69.0979 30.1035L69.9183 33.5649L70.7428 37.0252L71.5717 40.4844L72.3503 43.7336L73.1329 40.4943L74.0911 36.5281L75.0431 32.5601L75.9891 28.5907L76.4343 26.7077L77.4239 29.256L79.2056 33.8115L79.8152 35.3702L80.2196 33.7616L81.2821 29.5355L85.276 29.4511C86.7246 29.4188 88.1733 29.3832 89.6219 29.346C91.0704 29.309 92.5192 29.2675 93.9677 29.2245C95.4163 29.1803 96.865 29.1351 98.3136 29.0793C96.865 29.0237 95.4163 28.9785 93.9677 28.934C92.5192 28.8911 91.0704 28.8493 89.6219 28.8125V28.813Z" fill="white" stroke="white" stroke-linejoin="round"/>
<path d="M14.4941 62.4691C13.8251 59.8327 12.1713 58.5145 9.53263 58.5145C7.52576 58.5145 5.98345 59.3035 4.90568 60.8817C3.95799 62.2556 3.48415 63.9915 3.48415 66.0895C3.48415 68.2061 3.95799 69.942 4.90568 71.2973C5.98345 72.8755 7.52576 73.6645 9.53263 73.6645C11.0192 73.6645 12.2177 73.154 13.1283 72.1328C13.9459 71.2045 14.4383 69.9791 14.6056 68.4567H18.0061C17.876 70.8517 17.0305 72.7919 15.4696 74.2772C13.8901 75.7625 11.9111 76.5052 9.53263 76.5052C6.6524 76.5052 4.32034 75.484 2.53646 73.4417C0.845487 71.5108 0 69.0601 0 66.0895C0 63.1375 0.845487 60.696 2.53646 58.7651C4.32034 56.7043 6.6524 55.6738 9.53263 55.6738C11.8368 55.6738 13.7508 56.2679 15.2745 57.4562C16.854 58.7001 17.7552 60.3711 17.9782 62.4691H14.4941Z" fill="white"/>
<path d="M29.8711 74.695C28.6633 75.8646 27.0002 76.4495 24.8818 76.4495C23.5068 76.4495 22.3547 76.0967 21.4256 75.3912C20.4221 74.6486 19.9204 73.5903 19.9204 72.2164C19.9204 70.6197 20.515 69.4593 21.7043 68.7352C22.4847 68.2525 23.7483 67.9183 25.495 67.7326C25.8295 67.6584 26.3777 67.5748 27.1396 67.482C27.4555 67.4448 27.7249 67.4077 27.9479 67.3706C28.1895 67.3334 28.3846 67.2963 28.5332 67.2592C29.388 67.0178 29.8154 66.498 29.8154 65.6996C29.8154 64.3814 28.8212 63.7223 26.833 63.7223C24.8447 63.7223 23.7762 64.4928 23.6275 66.0338H20.45C20.5615 64.2886 21.2862 63.0168 22.6241 62.2184C23.7019 61.5501 25.1699 61.2159 27.0281 61.2159C28.6447 61.2159 29.964 61.5315 30.9861 62.1627C32.2125 62.924 32.8257 64.0101 32.8257 65.4211V65.8667C32.7514 66.4423 32.3426 67.0549 31.5993 67.7048C30.9675 68.2246 30.3078 68.6145 29.6203 68.8744C29.2486 69.0601 28.7376 69.2179 28.0872 69.3479C27.4555 69.4778 26.6657 69.5892 25.718 69.6821C23.9713 69.9606 23.0979 70.7589 23.0979 72.0771C23.0979 72.7269 23.451 73.2189 24.1571 73.5531C24.7146 73.8131 25.3464 73.943 26.0525 73.943C26.9073 73.943 27.6784 73.7388 28.366 73.3303C29.2022 72.8105 29.6203 72.0957 29.6203 71.1859V70.7125C30.9768 70.1741 32.0452 69.5707 32.8257 68.9023V72.8569C32.8257 73.2282 32.8722 73.5067 32.9651 73.6924C33.0766 73.8595 33.281 73.943 33.5783 73.943H33.9127C33.9499 73.943 34.0057 73.943 34.08 73.943C34.1543 73.9245 34.2472 73.9059 34.3587 73.8873V76.0874C33.6898 76.3288 33.0208 76.4495 32.3518 76.4495C30.921 76.4495 30.0941 75.8646 29.8711 74.695Z" fill="white"/>
<path d="M34.7675 61.6336H37.1645V57.3169H40.3421V61.6336H43.213V64.0008H40.3421V71.6872C40.3421 72.4113 40.4164 72.9033 40.5651 73.1632C40.7509 73.4974 41.1876 73.6645 41.8751 73.6645C42.4883 73.6645 42.9343 73.6274 43.213 73.5531V76.0039C42.2839 76.1153 41.5964 76.171 41.1504 76.171C39.5895 76.171 38.521 75.8554 37.945 75.2241C37.4433 74.7042 37.1831 73.7945 37.1645 72.4949V64.0008H34.7675V61.6336Z" fill="white"/>
<path d="M55.2266 66.4515C54.985 64.6506 53.8887 63.7502 51.9376 63.7502C50.897 63.7502 50.0329 64.0751 49.3454 64.7249C48.4348 65.6161 47.9796 67.0364 47.9796 68.9858C47.9796 70.3597 48.2676 71.483 48.8436 72.3556C49.5498 73.3953 50.5346 73.9152 51.7982 73.9152C53.7865 73.9152 54.9293 72.8198 55.2266 70.629H58.4041C57.8281 74.4907 55.6261 76.4216 51.7982 76.4216C49.6055 76.4216 47.8774 75.7068 46.6138 74.2772C45.4059 72.9219 44.802 71.1581 44.802 68.9858C44.802 66.6836 45.3966 64.8456 46.5859 63.4717C47.8495 61.9864 49.6241 61.2437 51.9097 61.2437C53.6936 61.2437 55.1523 61.6707 56.2858 62.5248C57.5679 63.4531 58.2741 64.762 58.4041 66.4515H55.2266Z" fill="white"/>
<path d="M60.987 56.1473H64.1645V63.5274H64.2203C65.1308 62.0049 66.5709 61.2437 68.5406 61.2437C70.1201 61.2437 71.3651 61.6522 72.2756 62.4691C73.1861 63.3231 73.6414 64.5485 73.6414 66.1452V76.0317H70.4639V66.9807C70.371 64.827 69.4326 63.7502 67.6487 63.7502C66.5895 63.7502 65.744 64.1122 65.1122 64.8363C64.4804 65.5418 64.1645 66.4423 64.1645 67.5377V76.0317H60.987V56.1473Z" fill="white"/>
<path d="M83.3006 61.6336H85.6976V57.3169H88.8752V61.6336H91.7461V64.0008H88.8752V71.6872C88.8752 72.4113 88.9495 72.9033 89.0982 73.1632C89.284 73.4974 89.7207 73.6645 90.4082 73.6645C91.0214 73.6645 91.4674 73.6274 91.7461 73.5531V76.0039C90.817 76.1153 90.1295 76.171 89.6835 76.171C88.1226 76.171 87.0541 75.8554 86.4781 75.2241C85.9764 74.7042 85.7162 73.7945 85.6976 72.4949V64.0008H83.3006V61.6336Z" fill="white"/>
<path d="M94.0319 56.1473H97.2095V63.5274H97.2652C98.1758 62.0049 99.6159 61.2437 101.586 61.2437C103.165 61.2437 104.41 61.6522 105.321 62.4691C106.231 63.3231 106.686 64.5485 106.686 66.1452V76.0317H103.509V66.9807C103.416 64.827 102.478 63.7502 100.694 63.7502C99.6345 63.7502 98.789 64.1122 98.1572 64.8363C97.5254 65.5418 97.2095 66.4423 97.2095 67.5377V76.0317H94.0319V56.1473Z" fill="white"/>
<path d="M122.915 71.4644C122.599 73.024 121.818 74.2308 120.573 75.0849C119.421 75.9389 118.037 76.3659 116.42 76.3659C114.172 76.3659 112.425 75.6604 111.18 74.2494C109.972 72.8755 109.368 71.056 109.368 68.7909C109.368 68.4196 109.396 67.9925 109.452 67.5098H112.546V67.5377H119.932C119.839 66.4608 119.496 65.5696 118.901 64.8641C118.195 64.1029 117.34 63.7223 116.337 63.7223C114.739 63.7223 113.605 64.4278 112.936 65.8389H109.87C110.372 64.4464 111.171 63.3417 112.267 62.5248C113.419 61.6522 114.776 61.2159 116.337 61.2159C118.529 61.2159 120.285 62.0792 121.605 63.8059C122.887 65.4582 123.389 67.3891 123.11 69.5985H112.546C112.546 70.8425 112.862 71.8358 113.494 72.5784C114.181 73.4325 115.157 73.8595 116.42 73.8595C118.186 73.8595 119.347 73.0611 119.904 71.4644H122.915Z" fill="white"/>
<path d="M133.283 61.6336H136.293V63.7502L136.349 63.8059C137.39 62.0978 138.886 61.2437 140.837 61.2437C142.416 61.2437 143.661 61.6522 144.572 62.4691C145.482 63.3231 145.938 64.5485 145.938 66.1452V76.0317H142.76V66.9807C142.667 64.827 141.729 63.7502 139.945 63.7502C138.886 63.7502 138.04 64.1122 137.408 64.8363C136.777 65.5418 136.461 66.4423 136.461 67.5377V76.0317H133.283V61.6336Z" fill="white"/>
<path d="M162.166 71.4644C161.85 73.024 161.069 74.2308 159.824 75.0849C158.672 75.9389 157.288 76.3659 155.671 76.3659C153.423 76.3659 151.676 75.6604 150.431 74.2494C149.223 72.8755 148.619 71.056 148.619 68.7909C148.619 68.4196 148.647 67.9925 148.703 67.5098H151.797V67.5377H159.183C159.09 66.4608 158.747 65.5696 158.152 64.8641C157.446 64.1029 156.591 63.7223 155.588 63.7223C153.99 63.7223 152.856 64.4278 152.187 65.8389H149.121C149.623 64.4464 150.422 63.3417 151.518 62.5248C152.67 61.6522 154.027 61.2159 155.588 61.2159C157.78 61.2159 159.536 62.0792 160.856 63.8059C162.138 65.4582 162.64 67.3891 162.361 69.5985H151.797C151.797 70.8425 152.113 71.8358 152.745 72.5784C153.432 73.4325 154.408 73.8595 155.671 73.8595C157.437 73.8595 158.598 73.0611 159.156 71.4644H162.166Z" fill="white"/>
<path d="M163.466 61.6336H166.839L169.654 72.3835H169.71L172.414 61.6336H175.619L178.211 72.3835H178.267L181.194 61.6336H184.427L179.912 76.0317H176.65L173.975 65.3376H173.919L171.271 76.0317H167.926L163.466 61.6336Z" fill="white"/>
<path d="M188.868 71.4087C189.035 73.0797 190.122 73.9152 192.129 73.9152C194.322 73.9152 195.39 73.2839 195.334 72.0214C195.316 71.3159 194.814 70.7775 193.829 70.4062C193.736 70.369 193.42 70.2855 192.882 70.1555C192.343 70.0255 191.59 69.8492 190.624 69.6264C189.193 69.3293 188.134 68.9209 187.446 68.401C186.48 67.7141 185.997 66.7022 185.997 65.3654C185.997 63.9358 186.675 62.859 188.032 62.1349C189.128 61.5408 190.457 61.2437 192.018 61.2437C193.634 61.2437 194.963 61.5779 196.003 62.2463C197.193 62.9889 197.871 64.1308 198.038 65.6718H194.721C194.461 64.3907 193.486 63.7502 191.795 63.7502C190.048 63.7502 189.174 64.2422 189.174 65.2262C189.174 65.8946 189.667 66.4144 190.652 66.7857C190.968 66.8971 192.036 67.1478 193.857 67.5377C195.269 67.8719 196.338 68.2803 197.063 68.763C198.029 69.45 198.512 70.4433 198.512 71.7429C198.512 73.3211 197.815 74.5279 196.422 75.3633C195.232 76.0689 193.783 76.4216 192.073 76.4216C190.197 76.4216 188.691 76.0132 187.558 75.1963C186.331 74.2865 185.709 73.024 185.69 71.4087H188.868Z" fill="white"/>
<path d="M212.027 63.4995C212.993 61.9956 214.424 61.2437 216.319 61.2437C218.475 61.2437 220.157 61.9864 221.365 63.4717C222.479 64.8456 223.037 66.6465 223.037 68.8744C223.037 70.9724 222.535 72.7177 221.532 74.1101C220.398 75.6326 218.837 76.3938 216.849 76.3938C215.474 76.3938 214.35 76.1524 213.476 75.6697V73.0519C214.145 73.6088 214.954 73.8873 215.901 73.8873C217.239 73.8873 218.261 73.3582 218.967 72.2999C219.562 71.3716 219.859 70.2112 219.859 68.8187C219.859 67.4634 219.525 66.2937 218.856 65.3097C218.094 64.27 217.109 63.7502 215.901 63.7502C214.563 63.7502 213.551 64.205 212.863 65.1148C212.194 66.006 211.86 67.2406 211.86 68.8187V76.0039H208.794V56.1473H211.971V63.4995H212.027Z" fill="white"/>
<path d="M238.599 71.4644C238.283 73.024 237.503 74.2308 236.258 75.0849C235.106 75.9389 233.722 76.3659 232.105 76.3659C229.856 76.3659 228.11 75.6604 226.865 74.2494C225.657 72.8755 225.053 71.056 225.053 68.7909C225.053 68.4196 225.081 67.9925 225.137 67.5098H228.23V67.5377H235.617C235.524 66.4608 235.18 65.5696 234.586 64.8641C233.879 64.1029 233.025 63.7223 232.021 63.7223C230.423 63.7223 229.29 64.4278 228.621 65.8389H225.555C226.056 64.4464 226.855 63.3417 227.952 62.5248C229.104 61.6522 230.46 61.2159 232.021 61.2159C234.214 61.2159 235.97 62.0792 237.289 63.8059C238.571 65.4582 239.073 67.3891 238.794 69.5985H228.23C228.23 70.8425 228.546 71.8358 229.178 72.5784C229.866 73.4325 230.841 73.8595 232.105 73.8595C233.87 73.8595 235.032 73.0611 235.589 71.4644H238.599Z" fill="white"/>
<path d="M250.352 74.695C249.145 75.8646 247.482 76.4495 245.363 76.4495C243.988 76.4495 242.836 76.0967 241.907 75.3912C240.903 74.6486 240.402 73.5903 240.402 72.2164C240.402 70.6197 240.996 69.4593 242.186 68.7352C242.966 68.2525 244.23 67.9183 245.976 67.7326C246.311 67.6584 246.859 67.5748 247.621 67.482C247.937 67.4448 248.206 67.4077 248.429 67.3706C248.671 67.3334 248.866 67.2963 249.015 67.2592C249.869 67.0178 250.297 66.498 250.297 65.6996C250.297 64.3814 249.303 63.7223 247.314 63.7223C245.326 63.7223 244.258 64.4928 244.109 66.0338H240.931C241.043 64.2886 241.768 63.0168 243.105 62.2184C244.183 61.5501 245.651 61.2159 247.509 61.2159C249.126 61.2159 250.445 61.5315 251.467 62.1627C252.694 62.924 253.307 64.0101 253.307 65.4211V65.8667C253.233 66.4423 252.824 67.0549 252.081 67.7048C251.449 68.2246 250.789 68.6145 250.102 68.8744C249.73 69.0601 249.219 69.2179 248.569 69.3479C247.937 69.4778 247.147 69.5892 246.199 69.6821C244.453 69.9606 243.579 70.7589 243.579 72.0771C243.579 72.7269 243.932 73.2189 244.638 73.5531C245.196 73.8131 245.828 73.943 246.534 73.943C247.389 73.943 248.16 73.7388 248.847 73.3303C249.683 72.8105 250.102 72.0957 250.102 71.1859V70.7125C251.458 70.1741 252.527 69.5707 253.307 68.9023V72.8569C253.307 73.2282 253.353 73.5067 253.446 73.6924C253.558 73.8595 253.762 73.943 254.06 73.943H254.394C254.431 73.943 254.487 73.943 254.561 73.943C254.636 73.9245 254.729 73.9059 254.84 73.8873V76.0874C254.171 76.3288 253.502 76.4495 252.833 76.4495C251.402 76.4495 250.575 75.8646 250.352 74.695Z" fill="white"/>
<path d="M255.249 61.6336H257.646V57.3169H260.823V61.6336H263.694V64.0008H260.823V71.6872C260.823 72.4113 260.898 72.9033 261.046 73.1632C261.232 73.4974 261.669 73.6645 262.356 73.6645C262.97 73.6645 263.416 73.6274 263.694 73.5531V76.0039C262.765 76.1153 262.078 76.171 261.632 76.171C260.071 76.171 259.002 75.8554 258.426 75.2241C257.925 74.7042 257.664 73.7945 257.646 72.4949V64.0008H255.249V61.6336Z" fill="white"/>
<path d="M18.4062 17.4502H46.3554V46.3536H14.5204C6.47716 46.3536 0.0693359 39.8782 0.0693359 31.9026V14.52C0.0693359 6.47539 6.47716 0 14.5204 0H42.1966L46.3554 11.5884H4.29571L12.6809 13.2238C11.9997 14.0415 11.5902 15.1322 11.5902 16.2919V30.0617C11.5902 32.7203 13.7041 34.8328 16.2937 34.8328H34.8346V28.971H22.565L18.4062 17.4502Z" fill="white"/>
<path d="M142.676 27.1991C143.153 28.6994 143.426 30.2672 143.426 31.9026C143.426 39.8782 136.951 46.3536 128.975 46.3536H97.0723V17.4502H128.975C130.61 17.4502 131.906 16.1554 131.906 14.5186C131.906 12.8818 130.612 11.587 128.975 11.587H97.0723L92.9824 0H128.975C132.997 0 136.61 1.63539 139.2 4.29394C141.858 6.88492 143.426 10.4977 143.426 14.5186C143.426 17.7908 142.335 20.7899 140.563 23.1754C141.45 24.4027 142.199 25.7664 142.676 27.1977V27.1991ZM128.975 34.8342C130.61 34.8342 131.906 33.5394 131.906 31.9026C131.906 30.2658 130.612 28.971 128.975 28.971H98.9131L108.661 30.5388V34.8328H128.975V34.8342Z" fill="white"/>
<path d="M195.913 11.5884H149.56L145.47 0H191.756L195.915 11.5884H195.913ZM164.08 46.3536C156.036 46.3536 149.56 39.8782 149.56 31.9026V17.4502H187.597L191.756 28.971H151.4L161.148 30.5388C161.352 32.9244 163.397 34.8328 165.851 34.8328H195.913V46.3536H164.08Z" fill="white"/>
<path d="M244.382 46.3536H231.499L221.205 25.8354L210.844 46.3536H197.961L214.73 12.9522L219.093 4.22638L213.843 11.1789L208.253 0H221.136L221.204 0.0675669L227.612 12.9508L244.381 46.3522L244.382 46.3536Z" fill="white"/>
<path d="M253.586 11.5884L263.266 13.1562V46.3536H251.745V11.5884H238.521L234.362 0H276.557L280.716 11.5884H253.586Z" fill="white"/>
</svg>
