<svg width="103" height="101" viewBox="0 0 103 101" fill="none" xmlns="http://www.w3.org/2000/svg">
<path d="M1.69038 97.3126C2.72054 95.2851 3.40211 93.1192 4.21635 91.0097C9.06276 78.4628 13.8832 65.9082 18.714 53.3562C18.7608 53.2357 18.8154 53.1203 18.8571 52.9999C19.1588 52.1438 19.7285 51.6132 20.6832 51.7823C21.6302 51.9515 21.9657 52.6256 21.9865 53.5381C22.049 56.3397 22.5719 59.0644 23.4121 61.7379C24.9964 66.7899 28.4146 70.3041 32.9359 72.9416C36.4165 74.9717 40.0819 76.5763 43.9268 77.7912C44.7228 78.0424 45.3888 78.3628 45.4512 79.2933C45.5136 80.2186 44.9153 80.6441 44.1531 80.9901C31.1877 86.8778 18.2275 92.7732 5.26991 98.6737C4.78085 98.8967 4.23456 99.0274 3.83654 99.4247C3.12115 99.4247 2.12742 99.699 1.76842 99.3478C1.41203 98.9967 1.69038 98.0175 1.69038 97.3126ZM19.5672 59.7873C18.7868 61.8327 18.0558 63.7295 17.3482 65.6314C17.2754 65.8287 17.3118 66.0748 17.3326 66.2978C17.9544 73.5107 20.665 79.8469 25.5114 85.3014C25.9043 85.7449 26.2086 85.7859 26.7419 85.5347C30.7247 83.6661 34.7256 81.8334 38.7136 79.9777C38.9451 79.87 39.2963 79.8649 39.3665 79.4804C36.3723 78.3808 33.5732 76.9249 30.8573 75.2742C25.0718 71.76 21.2451 66.8797 19.8066 60.2717C19.778 60.1589 19.6999 60.0564 19.5672 59.7873ZM15.072 72.1445C14.8119 72.124 14.7937 72.2675 14.7494 72.3829C13.6334 75.2767 12.52 78.1732 11.3962 81.067C11.3 81.3131 11.2271 81.5438 11.2948 81.8078C12.07 84.8426 12.8478 87.8775 13.6178 90.9123C13.7063 91.2635 13.8389 91.3839 14.224 91.2096C17.1271 89.8845 20.0381 88.5772 23.0401 87.2238C19.0678 82.7844 16.4351 77.763 15.072 72.1445ZM6.06855 94.9083C7.30421 94.3342 8.31616 93.8702 9.3255 93.3961C10.8551 92.6758 10.8577 92.6707 10.4467 91.0558C10.0877 89.6486 9.71832 88.244 9.35152 86.8394C9.28909 86.8445 9.22665 86.8496 9.16422 86.8547C8.16268 89.4641 7.15853 92.076 6.06855 94.9083Z" fill="#1F49B8" stroke="#1F49B8" stroke-width="2"/>
<path d="M101.584 73.0897C100.258 74.4405 98.9413 75.8015 97.5964 77.137C97.2426 77.4881 97.1126 77.7932 97.2244 78.3109C97.6458 80.282 97.984 82.2685 98.382 84.2448C98.5381 85.0163 98.3898 85.6545 97.7109 86.0954C97.0501 86.5234 96.418 86.3466 95.8118 85.9262C94.2978 84.8779 92.7656 83.8526 91.2672 82.7812C90.8224 82.4633 90.5024 82.471 90.0627 82.7812C88.6372 83.7859 87.1752 84.742 85.7418 85.7365C85.0394 86.2236 84.3371 86.5952 83.5176 86.0287C82.7528 85.5007 82.7944 84.76 82.9609 83.9602C83.3537 82.0814 83.6763 80.1872 84.0873 78.3135C84.1966 77.806 84.1055 77.4856 83.7387 77.1344C82.6227 76.0604 81.5431 74.9506 80.4401 73.8638C79.9277 73.3588 79.5687 72.8128 79.8262 72.0695C80.0916 71.3031 80.7055 71.0417 81.4781 70.9519C82.8959 70.7853 84.3032 70.5444 85.721 70.365C86.3505 70.2855 86.7434 70.0651 86.9957 69.4191C87.646 67.7479 88.4057 66.1203 89.108 64.4696C89.4098 63.7621 89.865 63.2726 90.7027 63.2905C91.4909 63.3085 91.9227 63.7878 92.2089 64.4568C92.9399 66.1664 93.6891 67.8658 94.4019 69.5806C94.5814 70.0113 94.8233 70.2317 95.3072 70.2906C96.7562 70.4675 98.1973 70.7059 99.6463 70.8853C100.513 70.993 101.192 71.3339 101.587 72.1285C101.584 72.4489 101.584 72.7693 101.584 73.0897ZM84.6102 73.5997C85.2397 74.2482 85.682 74.807 86.2257 75.2402C87.3209 76.1194 87.5706 77.1498 87.2064 78.4801C86.9749 79.3285 86.7095 80.2154 86.8084 81.2637C87.5602 80.7537 88.1949 80.3205 88.8323 79.8873C90.6299 78.6595 90.6689 78.6698 92.5133 79.9078C93.1558 80.3384 93.7333 80.8921 94.6126 81.1894C94.3863 80.0052 94.212 78.9363 93.9753 77.8803C93.7723 76.9806 93.9779 76.268 94.6828 75.6401C95.3826 75.0146 96.0148 74.3123 96.764 73.5562C95.687 73.3896 94.8259 73.1999 93.957 73.1332C92.9555 73.0563 92.3624 72.577 92.0034 71.6748C91.6314 70.7366 91.1761 69.8344 90.6585 68.6989C90.1304 69.9267 89.6907 70.9391 89.2563 71.9567C88.9702 72.6283 88.4967 73.0333 87.7319 73.1281C86.7694 73.2409 85.8172 73.4126 84.6102 73.5997Z" fill="#1F49B8" stroke="#1F49B8" stroke-width="2"/>
<path d="M61.5875 1C62.1208 1.38961 62.4538 1.9125 62.7217 2.5046C63.5776 4.40394 64.4647 6.2879 65.3205 8.18724C65.5156 8.62299 65.794 8.89981 66.2466 9.08949C68.1847 9.90459 70.1071 10.7658 72.04 11.5963C72.8412 11.9398 73.6294 12.3063 73.6164 13.3213C73.6034 14.3338 72.7996 14.6799 72.0009 15.0233C70.0967 15.841 68.2107 16.6945 66.2987 17.4943C65.8096 17.6993 65.5156 17.9864 65.3075 18.458C64.4491 20.4266 63.5542 22.3772 62.6853 24.3406C62.3705 25.0532 61.9751 25.6453 61.0776 25.653C60.1828 25.6606 59.7691 25.0942 59.4518 24.3713C58.6011 22.4361 57.7088 20.5163 56.8764 18.5734C56.6292 17.9992 56.265 17.6609 55.6875 17.4225C53.5934 16.5561 51.5227 15.6385 49.4364 14.7593C48.8302 14.503 48.5051 14.0877 48.4738 13.4495C48.4374 12.7267 48.7782 12.2269 49.4442 11.9347C51.4602 11.0529 53.4633 10.1404 55.5002 9.30736C56.187 9.02541 56.5954 8.62042 56.8764 7.95911C57.6542 6.13155 58.497 4.32961 59.2905 2.50973C59.5506 1.9125 59.881 1.38961 60.4169 1.00256C60.8071 1 61.1973 1 61.5875 1ZM61.0022 6.41863C60.4767 7.60795 59.985 8.54096 59.6495 9.5278C59.2228 10.7812 58.4346 11.5579 57.1573 11.9757C56.148 12.3063 55.1907 12.801 54.0148 13.306C55.3728 13.8878 56.4497 14.4082 57.5709 14.8131C58.5309 15.1617 59.1188 15.759 59.4752 16.6997C59.8992 17.8147 60.4325 18.8861 61.0022 20.1651C61.4366 19.2039 61.8659 18.4785 62.0922 17.6967C62.5969 15.9384 63.7077 14.89 65.474 14.3646C66.2648 14.1288 67.0817 13.8237 67.8439 13.2419C66.486 12.6575 65.2477 12.1064 63.9938 11.5912C63.3851 11.3426 62.9897 10.9427 62.7373 10.3429C62.2145 9.10743 61.6552 7.88991 61.0022 6.41863Z" fill="#1F49B8" stroke="#1F49B8" stroke-width="2"/>
<path d="M101.584 9.26572C101.033 10.0398 100.284 10.3192 99.3262 10.2397C98.5536 10.1757 97.7705 10.2474 96.9927 10.2192C95.999 10.1834 95.3486 9.55793 95.3486 8.68644C95.3486 7.81494 95.999 7.18696 96.9927 7.15876C97.9656 7.13057 98.9386 7.17671 99.9115 7.14595C100.697 7.12032 101.124 7.63039 101.582 8.11228C101.584 8.49676 101.584 8.88124 101.584 9.26572Z" fill="#1F49B8" stroke="#1F49B8" stroke-width="2"/>
<path d="M94.3654 1C95.1562 1.54084 95.4319 2.28417 95.3539 3.2223C95.2915 3.98358 95.3617 4.7551 95.3331 5.5215C95.2967 6.49809 94.6593 7.14401 93.7775 7.14401C92.8956 7.14401 92.2556 6.49809 92.227 5.5215C92.1984 4.56286 92.2452 3.60422 92.2114 2.64558C92.1854 1.87149 92.6979 1.45112 93.1921 1C93.5849 1 93.9752 1 94.3654 1Z" fill="#1F49B8" stroke="#1F49B8" stroke-width="2"/>
<path d="M18.8724 26.7831C19.2366 24.9299 19.5852 22.9101 20.0534 20.9185C20.2355 20.1418 20.0144 19.683 19.4707 19.1755C18.4093 18.1887 17.413 17.13 16.3776 16.1125C15.8573 15.5998 15.5608 15.0256 15.8391 14.3003C16.0967 13.6287 16.6378 13.357 17.3479 13.275C18.7969 13.1058 20.2407 12.8674 21.6897 12.6983C22.3661 12.6188 22.7615 12.3625 23.0242 11.6884C23.6486 10.0787 24.3978 8.5151 25.0689 6.92078C25.3785 6.18258 25.8077 5.62123 26.6844 5.63149C27.5637 5.64174 27.9721 6.22615 28.279 6.95667C28.9476 8.55098 29.6968 10.1145 30.3238 11.7242C30.5735 12.365 30.9611 12.5957 31.588 12.6752C33.0682 12.8597 34.5458 13.0904 36.026 13.275C36.7336 13.3647 37.2643 13.6671 37.5062 14.3413C37.7534 15.0282 37.4802 15.587 36.9912 16.0766C35.8778 17.1967 34.7748 18.3296 33.6484 19.4369C33.279 19.8009 33.1099 20.1239 33.2347 20.6903C33.6614 22.6256 33.9761 24.5864 34.3741 26.5293C34.5302 27.2932 34.4366 27.9417 33.768 28.4056C33.0812 28.8798 32.4257 28.6978 31.7857 28.2544C30.3264 27.2393 28.841 26.2628 27.4024 25.2195C26.8769 24.8376 26.5127 24.7966 25.9586 25.199C24.468 26.2781 22.9202 27.2778 21.3957 28.3133C20.8078 28.7132 20.1991 28.8055 19.5747 28.4184C19.0311 28.075 18.8021 27.57 18.8724 26.7831ZM32.8263 16.2688C32.7457 16.1535 32.665 16.0356 32.5844 15.9202C31.6661 15.7767 30.753 15.5972 29.8321 15.505C28.9138 15.4101 28.3675 14.9462 28.0319 14.126C27.6391 13.1673 27.1865 12.2292 26.6688 11.0886C26.1641 12.1933 25.7011 13.0648 25.3655 13.9824C24.9987 14.9821 24.3275 15.4614 23.2791 15.5588C22.4545 15.6357 21.6377 15.792 20.8156 15.9125C20.7402 16.0279 20.6647 16.1432 20.5893 16.2586C21.3229 16.8788 22.0617 17.4889 22.7849 18.1194C23.3676 18.627 23.5653 19.2447 23.3936 20.0188C23.1413 21.1671 22.9592 22.3308 22.7459 23.4945C22.8837 23.4945 22.9618 23.5201 23.0034 23.4919C23.7838 22.9742 24.559 22.4487 25.3343 21.9232C26.5023 21.1312 26.8951 21.1261 28.0501 21.9053C28.8566 22.4487 29.663 22.9895 30.6932 23.6842C30.4408 22.359 30.2665 21.3235 30.0376 20.3007C29.8321 19.378 29.9778 18.5962 30.7582 17.9759C31.4528 17.4171 32.1343 16.8378 32.8263 16.2688Z" fill="#1F49B8" stroke="#1F49B8" stroke-width="2"/>
<path d="M90.4737 47.2372C90.4503 48.0958 89.9196 48.5188 89.2276 48.8238C87.274 49.685 85.3255 50.5642 83.3641 51.4049C82.823 51.6382 82.4848 51.9663 82.2507 52.5097C81.4182 54.4526 80.5285 56.3725 79.6727 58.3051C79.3579 59.0177 78.9495 59.6175 78.065 59.6252C77.1805 59.6329 76.7565 59.051 76.4391 58.3333C75.5572 56.3417 74.6468 54.3629 73.7753 52.3662C73.5802 51.9202 73.307 51.651 72.8518 51.4639C70.8201 50.618 68.8092 49.7235 66.7775 48.8802C66.0075 48.5598 65.3649 48.1497 65.3701 47.2449C65.3754 46.3375 66.0413 45.9453 66.8009 45.6223C68.7364 44.8021 70.6536 43.9332 72.5942 43.1207C73.1405 42.8925 73.4787 42.5696 73.7129 42.0262C74.5635 40.0551 75.4766 38.1121 76.3351 36.1462C76.642 35.4438 77.0739 34.9081 77.8855 34.8902C78.7518 34.8697 79.2044 35.4362 79.5244 36.1667C80.3881 38.1326 81.2881 40.0807 82.144 42.0492C82.3625 42.5516 82.6695 42.872 83.1872 43.0925C85.2449 43.9614 87.2818 44.8739 89.3317 45.7608C90.0133 46.053 90.4529 46.5015 90.4737 47.2372ZM84.9691 47.2602C83.6866 46.7091 82.6071 46.176 81.4806 45.7813C80.4375 45.4147 79.8366 44.7534 79.462 43.7512C79.0587 42.6721 78.5307 41.6366 77.974 40.3934C77.3496 41.7955 76.8033 42.9515 76.3195 44.1331C76.0203 44.8636 75.5494 45.3455 74.7976 45.6377C73.575 46.117 72.3809 46.6656 70.9918 47.2628C72.23 47.7934 73.281 48.2932 74.3684 48.6931C75.4116 49.0776 76.1113 49.6902 76.4912 50.7565C76.8788 51.8458 77.4251 52.8814 77.9896 54.1271C78.5489 52.8711 79.0483 51.8663 79.4438 50.8231C79.8079 49.8568 80.3985 49.216 81.3948 48.8443C82.5394 48.4162 83.6372 47.8575 84.9691 47.2602Z" fill="#1F49B8" stroke="#1F49B8" stroke-width="2"/>
<path d="M46.9469 24.261C46.5176 29.3823 45.3002 34.2729 43.4558 39.0148C40.2404 47.2786 35.6178 54.717 29.8452 61.4762C29.6371 61.7197 29.429 61.9761 29.1741 62.1683C28.5211 62.6579 27.8317 62.6527 27.2178 62.1222C26.6091 61.5941 26.492 60.9251 26.8952 60.2151C27.0357 59.9665 27.249 59.7589 27.4337 59.5359C34.3613 51.1644 39.7618 41.9958 42.5453 31.461C43.1852 29.0414 43.5728 26.5807 43.8304 24.0969C43.937 23.0742 44.6524 22.4488 45.5551 22.5436C46.424 22.6308 46.9703 23.3254 46.9469 24.261Z" fill="#1F49B8" stroke="#1F49B8" stroke-width="2"/>
<path d="M34.3639 65.5875C33.7968 65.5286 33.3234 65.2466 33.0554 64.6648C32.7459 63.9881 32.9436 63.4062 33.4274 62.9064C34.546 61.7453 35.6672 60.5867 36.8119 59.4512C43.2061 53.1073 49.8319 47.0196 57.2147 41.7881C60.0112 39.8068 62.9144 37.9894 66.1245 36.7027C66.304 36.6309 66.4809 36.5489 66.6656 36.49C67.5527 36.208 68.3383 36.5412 68.6765 37.3358C68.9938 38.0792 68.7259 38.9225 67.9195 39.2711C58.8145 43.2081 51.7387 49.8443 44.5484 56.3215C41.5516 59.0231 38.7031 61.8786 35.9118 64.7878C35.5034 65.2159 35.0767 65.5952 34.3639 65.5875Z" fill="#1F49B8" stroke="#1F49B8" stroke-width="2"/>
<path d="M71.645 68.62C61.9157 67.9228 53.279 71.1345 45.0664 75.8662C44.6164 76.1251 44.1897 76.443 43.6252 76.3353C42.9567 76.2071 42.5066 75.8124 42.3479 75.1613C42.1658 74.4103 42.504 73.8592 43.1336 73.4543C44.8791 72.3367 46.7079 71.3678 48.5861 70.4886C54.317 67.8024 60.2768 65.9107 66.6581 65.4929C68.4166 65.3776 70.1648 65.4211 71.9129 65.5954C72.904 65.6928 73.5284 66.349 73.4815 67.2128C73.4373 68.1074 72.7063 68.6815 71.645 68.62Z" fill="#1F49B8" stroke="#1F49B8" stroke-width="2"/>
<path d="M28.706 38.9379C28.7268 45.3741 28.0713 50.7953 26.82 56.1524C26.7836 56.3088 26.7368 56.4625 26.6899 56.6138C26.396 57.5904 25.5427 58.1081 24.6166 57.8749C23.7946 57.6673 23.3367 56.888 23.5631 55.8884C24.0547 53.7327 24.4996 51.5719 24.8143 49.3855C25.6078 43.8439 25.7482 38.2868 25.1733 32.717C25.1499 32.494 25.1213 32.271 25.1135 32.048C25.0745 30.9971 25.6338 30.2922 26.5521 30.2281C27.4652 30.1615 28.1051 30.7715 28.243 31.8275C28.589 34.4984 28.6748 37.1846 28.706 38.9379Z" fill="#1F49B8" stroke="#1F49B8" stroke-width="2"/>
<path d="M12.7799 45.6024C12.0619 45.5921 11.5338 45.323 11.2269 44.7258C10.1863 42.7008 9.13534 40.681 8.1364 38.6356C7.61612 37.5693 8.07396 36.667 9.2576 36.3569C11.2009 35.8468 13.1519 35.3649 15.1056 34.8933C16.1643 34.6395 16.7418 34.9138 17.2465 35.8981C18.2142 37.7795 19.1716 39.6685 20.1159 41.5628C20.761 42.8597 20.3734 43.7466 18.9738 44.1157C17.0618 44.6181 15.1394 45.0769 13.2195 45.5485C13.0635 45.5896 12.897 45.5896 12.7799 45.6024ZM13.7814 42.2087C14.5957 41.9985 15.4099 41.7832 16.2242 41.5807C16.4713 41.5192 16.5493 41.3987 16.4323 41.1757C15.9276 40.2119 15.618 39.0226 14.8428 38.3664C14.3043 37.9102 13.2195 38.6304 12.3715 38.7996C12.3403 38.8047 12.309 38.8227 12.2778 38.8278C11.8954 38.8688 11.7784 39.0072 11.9839 39.3866C12.4287 40.2017 12.8319 41.0399 13.2612 41.8627C13.3652 42.0626 13.4771 42.2753 13.7814 42.2087Z" fill="#1F49B8" stroke="#1F49B8" stroke-width="2"/>
<path d="M85.7913 19.478C86.361 19.4677 86.7044 19.6471 87.0322 19.8599C88.463 20.798 89.9042 21.7259 91.3193 22.6845C92.274 23.3305 92.4431 23.9661 91.9333 24.9914C90.9759 26.9138 90.0134 28.8311 89.0171 30.733C88.3875 31.9352 87.2923 32.1274 86.3194 31.1893C84.2773 29.2207 82.2534 27.2317 80.2529 25.2221C79.4647 24.4301 79.5376 23.4484 80.4376 22.8281C81.9777 21.7643 83.5567 20.7544 85.1332 19.7394C85.3647 19.5882 85.6613 19.5292 85.7913 19.478ZM86.9542 27.6828C88.9026 24.8966 88.8662 24.6172 86.4989 23.1818C86.4443 23.1485 86.3845 23.1177 86.335 23.0793C86.1009 22.8896 85.885 22.8922 85.6326 23.0716C85.1332 23.4279 84.6207 23.7662 84.103 24.0969C83.8143 24.2814 83.7935 24.4429 84.0406 24.6915C85.0109 25.6707 85.9682 26.6678 86.9542 27.6828Z" fill="#1F49B8" stroke="#1F49B8" stroke-width="2"/>
<path d="M62.3003 54.8139C63.3565 54.796 64.0276 55.3599 64.1161 56.1621C64.2071 56.9901 63.6764 57.7103 62.7581 57.8718C61.6708 58.0615 60.586 58.264 59.5298 58.5818C53.5362 60.3812 48.4582 63.7031 43.8381 67.7812C43.6196 67.9734 43.4219 68.1913 43.18 68.3528C42.462 68.8346 41.7466 68.7783 41.1535 68.1657C40.5578 67.553 40.5057 66.8097 41.0702 66.1689C41.6217 65.5435 42.2643 64.9924 42.9068 64.4516C47.9041 60.2505 53.3801 56.9029 59.8264 55.306C60.7082 55.0856 61.6083 54.9497 62.3003 54.8139Z" fill="#1F49B8" stroke="#1F49B8" stroke-width="2"/>
<path d="M53.3804 96.3461C52.7144 96.3537 52.306 96.1205 51.947 95.7693C50.4798 94.3211 48.9996 92.8883 47.548 91.4273C46.7182 90.5916 46.7156 89.8278 47.5298 88.9948C48.4741 88.0284 49.4392 87.08 50.42 86.147C51.1718 85.4319 51.8377 85.3755 52.6832 85.9881C54.6941 87.4466 56.6946 88.9179 58.6742 90.4148C59.6862 91.1786 59.7278 92.2936 58.7367 92.9882C57.181 94.0802 55.5682 95.0952 53.9683 96.1282C53.7628 96.2615 53.4948 96.305 53.3804 96.3461ZM51.6062 89.064C51.3825 89.3767 51.1562 89.6843 50.9377 89.9995C50.6801 90.3738 51.0625 90.5071 51.2368 90.6942C51.6348 91.1171 52.0589 91.5144 52.4751 91.9194C53.4558 92.878 53.4376 92.8498 54.616 92.1039C55.1415 91.7707 55.0271 91.6016 54.6134 91.3042C53.8252 90.7377 53.0656 90.138 52.293 89.551C52.1447 89.4356 51.986 89.3305 51.6062 89.064Z" fill="#1F49B8" stroke="#1F49B8" stroke-width="2"/>
<path d="M92.2295 13.3112C92.2295 12.7678 92.193 12.2193 92.2373 11.6785C92.3075 10.8249 92.9579 10.2405 93.7721 10.2354C94.5837 10.2303 95.2757 10.8121 95.3173 11.6631C95.372 12.7499 95.3694 13.8418 95.3199 14.9286C95.2809 15.7822 94.5993 16.3691 93.7877 16.3717C92.9761 16.3768 92.3101 15.7899 92.2399 14.944C92.1905 14.4032 92.2295 13.8546 92.2295 13.3112Z" fill="#1F49B8" stroke="#1F49B8" stroke-width="2"/>
<path d="M89.1756 7.15921C89.6959 7.15921 90.2188 7.12589 90.7338 7.1669C91.6027 7.23611 92.1984 7.86922 92.2088 8.6715C92.2192 9.46866 91.6261 10.1607 90.7677 10.2043C89.6647 10.2581 88.5565 10.2556 87.4535 10.2069C86.5846 10.1684 85.9889 9.50711 85.9811 8.70483C85.9707 7.86409 86.5924 7.22073 87.5159 7.16177C88.0674 7.12845 88.6215 7.15665 89.173 7.15665C89.1756 7.15665 89.1756 7.15921 89.1756 7.15921Z" fill="#1F49B8" stroke="#1F49B8" stroke-width="2"/>
<path d="M71.9229 81.0416C71.9229 81.5209 71.9463 82.0028 71.9177 82.4821C71.8631 83.3997 71.2362 84.0252 70.3907 84.0405C69.5427 84.0559 68.8559 83.4407 68.8195 82.5334C68.7778 81.4773 68.7752 80.4187 68.8221 79.3627C68.8611 78.5066 69.5218 77.917 70.3361 77.9017C71.1867 77.8863 71.8501 78.4989 71.9125 79.4063C71.9516 79.9497 71.9229 80.4982 71.9229 81.0416Z" fill="#1F49B8" stroke="#1F49B8" stroke-width="2"/>
<path d="M65.6328 87.1157C65.1125 87.1157 64.5896 87.1465 64.072 87.108C63.1615 87.0414 62.5397 86.3673 62.5709 85.5342C62.5996 84.7345 63.2031 84.0988 64.0772 84.063C65.1489 84.0194 66.2233 84.0194 67.2951 84.063C68.1666 84.0988 68.7727 84.7371 68.7987 85.5368C68.8247 86.3698 68.203 87.044 67.2899 87.108C66.741 87.1491 66.1843 87.1157 65.6328 87.1157Z" fill="#1F49B8" stroke="#1F49B8" stroke-width="2"/>
<path d="M75.0552 84.0585C75.6067 84.0585 76.1634 84.0226 76.7123 84.0662C77.5733 84.1379 78.1664 84.7916 78.1638 85.5913C78.1612 86.391 77.5655 87.0626 76.6992 87.101C75.5962 87.1523 74.488 87.1523 73.3851 87.101C72.524 87.06 71.9309 86.3782 71.9361 85.5785C71.9387 84.7762 72.5318 84.1328 73.3981 84.0636C73.947 84.0226 74.5037 84.0585 75.0552 84.0585Z" fill="#1F49B8" stroke="#1F49B8" stroke-width="2"/>
<path d="M71.9254 90.2197C71.9254 90.699 71.9462 91.1809 71.9228 91.6603C71.876 92.6343 71.2282 93.2802 70.3463 93.2648C69.5009 93.252 68.8531 92.6266 68.8219 91.7115C68.7855 90.6888 68.7829 89.6609 68.8245 88.6382C68.8609 87.7308 69.5399 87.1182 70.3932 87.1311C71.2412 87.1439 71.8708 87.7642 71.9228 88.6844C71.9488 89.1944 71.9228 89.7071 71.9254 90.2197Z" fill="#1F49B8" stroke="#1F49B8" stroke-width="2"/>
<path d="M28.2246 67.0661C28.2246 65.5923 28.2246 65.5923 29.7776 65.5923C31.3463 65.5923 31.3463 65.5923 31.3463 67.1456C31.3463 68.6681 31.3463 68.6681 29.8427 68.6681C28.2246 68.6681 28.2246 68.6681 28.2246 67.0661Z" fill="#1F49B8" stroke="#1F49B8" stroke-width="2"/>
<path d="M37.548 71.7445C36.0288 71.7445 36.0288 71.7445 36.0288 69.9503C36.0288 68.6661 36.0288 68.6661 37.9721 68.6687C39.1531 68.6687 39.1531 68.6687 39.1505 70.6065C39.1505 71.7445 39.1505 71.7445 37.548 71.7445Z" fill="#1F49B8" stroke="#1F49B8" stroke-width="2"/>
</svg>
