<svg width="118" height="122" viewBox="0 0 118 122" fill="none" xmlns="http://www.w3.org/2000/svg">
<path d="M67.7208 54.9125C67.7208 54.9125 73.0201 52.8566 78.637 56.4673C83.644 59.6651 84.5339 65.8296 81.5851 70.473C78.1549 75.8371 69.4312 79.1561 53.7216 76.8142C45.0435 63.4951 44.3951 54.167 47.8253 48.8029C50.8005 44.1916 56.7528 42.4053 61.7599 45.6031C67.3768 49.2138 67.7208 54.9125 67.7208 54.9125Z" fill="#FF6E53"/>
<path d="M25.0698 30.5551C29.4199 34.4568 33.1252 37.3814 36.8847 40.0458C38.0989 40.9301 40.0108 42.8555 41.6186 42.391C42.465 42.1776 42.9994 41.5209 42.9073 40.6268C42.7439 38.9291 40.5887 38.013 39.316 37.123C35.5036 34.3945 31.2998 31.1267 27.2992 27.5834C26.5361 26.9196 25.2693 27.2105 24.6974 27.952C24.0558 28.8048 24.3387 29.8649 25.0698 30.5551Z" fill="#FF6E53"/>
<path d="M81.7143 85.8886C83.5064 87.2123 85.3304 88.5096 87.1809 89.839C88.9201 91.0986 90.7582 92.8693 92.8563 93.4554C94.4073 93.9001 95.6473 92.3378 94.6849 90.9761C93.4371 89.2032 91.1871 88.0419 89.4479 86.7823C87.6239 85.485 85.7998 84.1877 83.9437 82.9169C81.9818 81.5178 79.7844 84.4631 81.7143 85.8886Z" fill="#FF6E53"/>
<path d="M24.787 66.4686C29.8316 64.2995 33.4444 65.0907 36.6241 65.1614C38.3309 65.2081 38.9192 63.0517 37.3695 62.2826C33.1187 60.1315 27.4404 61.2066 23.2798 63.0773C21.0958 64.0174 22.603 67.4087 24.787 66.4686Z" fill="#FF6E53"/>
<path d="M38.8751 91.1686C40.1484 89.2554 41.7503 87.61 43.7282 86.3549C44.9225 85.5849 49.2461 84.1725 47.4998 82.0565C45.8593 80.0688 42.4033 82.5976 40.9154 83.6639C38.9208 85.0944 37.2173 86.8776 35.9009 88.9342C34.5635 90.9002 37.5057 93.1611 38.8751 91.1686Z" fill="#FF6E53"/>
<path d="M62.5403 90.8256C63.0502 92.2912 63.5016 93.7512 64.0116 95.2167C64.495 96.6503 64.6793 98.4385 66.208 99.1171C67.0573 99.4942 67.905 98.9563 68.328 98.2299C69.046 96.8828 67.9847 95.0099 67.5221 93.6669C67.0122 92.2013 66.5288 90.7678 66.0509 89.2758C65.7304 88.3007 64.4398 87.9106 63.5447 88.3258C62.4687 88.7827 62.2198 89.8505 62.5403 90.8256Z" fill="#FF6E53"/>
<path d="M63.2339 34.739C66.0637 22.6481 66.1807 22.6594 65.952 21.339C65.6969 19.9865 63.8591 19.4551 63.0408 20.6155C62.1961 21.7438 62.3882 21.5853 59.4388 34.3138C59.1955 35.3231 60.1911 36.3339 61.1267 36.4242C62.2641 36.5634 62.9906 35.7483 63.2339 34.739Z" fill="#FF6E53"/>
<path d="M79.9262 46.6177C81.6536 45.5156 83.2222 44.221 84.6585 42.7661C85.9932 41.449 88.2396 39.5412 87.5834 37.4418C87.4468 37.0155 86.869 36.5762 86.3956 36.5895C84.4814 36.5524 83.2653 38.7957 82.0266 40.0336C80.6599 41.3771 79.1873 42.5924 77.6089 43.6794C76.7877 44.2494 76.724 45.5416 77.3326 46.279C77.9565 47.1654 79.0785 47.1556 79.9262 46.6177Z" fill="#FF6E53"/>
<path d="M102.224 65.028C102.981 64.5109 102.905 63.4413 102.499 62.7529C101.6 61.3384 99.0903 61.3618 97.5965 61.2472C95.8423 61.078 94.098 61.1162 92.3481 61.213C91.3374 61.2925 90.6416 62.4057 90.7866 63.3639C90.947 64.4712 91.9022 64.9765 92.9393 64.929C99.5394 64.71 100.304 66.2887 102.224 65.028Z" fill="#FF6E53"/>
</svg>
