<svg width="401" height="24" viewBox="0 0 401 24" fill="none" xmlns="http://www.w3.org/2000/svg">
<path d="M120.587 8.68667C118.996 5.96126 120.848 2.37745 124.007 1.93752C124.4 1.88387 124.803 1.85168 125.206 1.85168C135.424 1.85168 145.643 1.85168 155.861 1.85168C156.166 1.85168 156.482 1.85168 156.787 1.85168C156.809 1.91606 156.842 1.98044 156.863 2.04482C147.821 8.56864 138.78 15.0925 129.563 21.7343C133.158 20.4574 136.742 21.0798 140.207 20.5755C142.745 20.2106 145.294 19.9639 147.756 19.2128C150.752 18.29 153.388 16.8093 155.491 14.2233C156.123 16.4122 156.667 18.4617 155.709 20.5325C154.979 22.0884 153.65 22.9468 151.896 23.1399C151.504 23.1828 151.101 23.1721 150.697 23.1721C139.248 23.1721 127.809 23.1721 116.36 23.1721C115.99 23.1721 115.63 23.1721 115.26 23.1721C115.227 23.1077 115.205 23.0434 115.172 22.979C124.214 16.4552 133.245 9.94208 142.418 3.32169C138.692 4.54491 134.945 3.85819 131.317 4.44834C129.661 4.71658 127.984 4.83461 126.35 5.27454C124.105 5.88615 122.177 7.00207 120.587 8.68667Z" fill="white"/>
<path d="M177.736 19.3952C176.091 21.67 173.923 22.7537 171.418 23.2258C169.348 23.6228 167.278 23.6013 165.328 22.6142C162.833 21.3373 162.223 18.9231 163.923 16.7342C165.666 14.4809 168.149 13.5045 170.938 13.204C172.452 13.0323 173.956 13.1182 175.394 13.6976C176.766 14.2555 177.867 15.0818 178.237 16.584C178.292 16.82 178.302 17.2277 178.302 17.2277C178.302 17.2277 178.019 17.2277 177.747 17.2277C176.603 17.2277 175.47 17.217 174.326 17.217C174.065 17.217 173.847 17.2063 173.662 16.9702C172.322 15.3178 168.618 16.026 167.55 17.8715C167.006 18.8158 167.365 19.7815 168.476 20.2429C169.936 20.8437 171.341 20.5648 172.638 19.7815C173.106 19.5025 173.542 19.3845 174.065 19.3952C175.23 19.4059 176.396 19.3952 177.736 19.3952Z" fill="white"/>
<path d="M159.521 23.4189C158.334 23.4189 157.484 22.582 157.495 21.4338C157.506 20.2965 158.399 19.4595 159.576 19.481C160.687 19.4917 161.58 20.3716 161.591 21.4446C161.591 22.5283 160.665 23.4189 159.521 23.4189Z" fill="white"/>
<path d="M191.332 14.0087C190.1 13.3434 188.761 13.1288 187.137 13.1395C186.985 13.1503 186.582 13.1395 186.179 13.1932C183.401 13.5365 180.906 14.4808 179.163 16.7341C177.464 18.9337 178.085 21.3587 180.579 22.6141C182.529 23.6013 184.599 23.612 186.669 23.2257C189.044 22.775 191.179 21.7986 192.65 19.8136C194.284 17.6247 193.728 15.3177 191.332 14.0087ZM187.519 19.996C186.299 20.5754 185.024 20.79 183.728 20.2213C182.42 19.6526 182.159 18.4938 183.107 17.4423C184.011 16.4444 185.209 16.0688 186.222 16.0259C187.944 16.0259 189 16.6268 189.207 17.5496C189.403 18.4401 188.75 19.4058 187.519 19.996Z" fill="white"/>
<path d="M210.636 13.5367C208.751 12.8714 206.888 13.0753 205.036 13.7191C204.709 13.8371 204.426 13.9659 204.067 13.7942C201.681 12.6676 199.35 13.0539 197.073 14.0839C195.831 14.6419 194.796 15.511 194.393 16.863C193.815 18.7837 192.595 23.1829 192.595 23.1829H196.844C196.844 23.1829 197.988 19.0948 198.478 17.4102C198.75 16.4445 199.426 15.9831 200.439 16.0475C201.289 16.1012 201.594 16.4982 201.365 17.3136C200.886 19.0626 199.698 23.1829 199.698 23.1829H203.958C203.958 23.1829 205.112 19.1163 205.614 17.3673C205.875 16.466 206.463 16.0368 207.422 16.0475C208.381 16.0582 208.729 16.4874 208.479 17.3673C208.021 19.009 206.801 23.1829 206.801 23.1829H211.082C211.082 23.1829 212.237 19.0519 212.705 17.3888C213.239 15.4359 212.597 14.2234 210.636 13.5367Z" fill="white"/>
<path d="M117.275 13.8907H111.697L112.449 11.7018H118.027L117.275 13.8907Z" fill="white"/>
<path d="M54.8308 21.7025H56.3014C56.3777 21.7025 56.4757 21.6488 56.5084 21.5844L62.6308 11.7129L65.9535 23.0115C65.9753 23.0759 66.0515 23.1403 66.1277 23.1403H72.5552C72.6314 23.1403 72.675 23.0867 72.6532 23.0115L65.8772 1.87351C65.8554 1.80913 65.7791 1.74475 65.7029 1.74475H63.2845C63.2082 1.74475 63.1102 1.79845 63.0775 1.86283L54.8199 14.4705L46.5623 1.86283C46.5187 1.79845 46.4316 1.74475 46.3553 1.74475H43.9369C43.8607 1.74475 43.7844 1.80913 43.7626 1.87351L36.9757 23.0115C36.9539 23.0759 36.9975 23.1403 37.0738 23.1403H43.5011C43.5774 23.1403 43.6537 23.0867 43.6755 23.0115L47.009 11.7129L53.1313 21.5844C53.164 21.6488 53.2621 21.7025 53.3383 21.7025H54.8308Z" fill="white"/>
<path d="M37.2807 11.1765C37.2698 11.1121 37.2153 11.0691 37.1499 11.0691H18.8373C17.8678 11.0691 17.0833 11.8417 17.0833 12.7967C17.0833 13.7516 17.8678 14.5242 18.8373 14.5242H29.7203C28.4239 17.8934 24.0446 20.3827 18.8373 20.3827C12.606 20.3827 7.5621 16.8312 7.5621 12.4534C7.5621 8.07553 12.606 4.5239 18.8373 4.5239C22.2362 4.5239 25.2864 5.58615 27.3563 7.26003C27.3563 7.27076 27.3672 7.27077 27.3781 7.27077C27.3999 7.29223 27.4326 7.30292 27.4543 7.30292H34.9384C35.0147 7.30292 35.0692 7.23854 35.0692 7.16343C35.0692 7.13124 35.0583 7.0991 35.0365 7.07764L35.0256 7.0669C31.8446 3.72988 25.7876 1.46582 18.8373 1.46582C8.58617 1.46582 0.263184 6.39093 0.263184 12.4534C0.263184 18.5158 8.57527 23.4408 18.8373 23.4408C29.0994 23.4408 37.4114 18.5158 37.4114 12.4534C37.4005 12.0134 37.3569 11.595 37.2807 11.1765Z" fill="white"/>
<path d="M90.8242 20.3721C84.5929 20.3721 79.549 16.8204 79.549 12.4426C79.549 8.06479 84.5929 4.51316 90.8242 4.51316C97.0446 4.51316 102.099 8.06479 102.099 12.4426C102.089 16.8312 97.0446 20.3721 90.8242 20.3721ZM90.8242 1.46582C80.5621 1.46582 72.2501 6.39093 72.2501 12.4534C72.2501 18.5158 80.5621 23.4408 90.8242 23.4408C101.075 23.4408 109.398 18.5158 109.398 12.4534C109.387 6.3802 101.075 1.46582 90.8242 1.46582Z" fill="white"/>
<path d="M235.779 15.8543C235.757 14.4272 235.038 13.4186 233.676 12.9036C233.066 12.6783 232.434 12.5173 231.77 12.3027C233.948 11.6375 234.951 10.822 235.223 9.30905C235.681 6.74459 235.005 4.30889 232.347 2.78523C230.419 1.69078 228.305 1.48691 226.148 1.63713C221.301 1.96975 218.577 4.81319 218.512 9.49146C218.457 13.1504 218.479 23.1936 218.479 23.1936H224.841C224.841 23.1936 224.83 12.968 224.83 9.2554C224.83 8.33262 225.113 7.54934 225.843 6.95919C226.541 6.41196 227.314 6.42269 228.088 6.78751C228.807 7.12014 229.166 7.71028 229.101 8.48284C229.035 9.29832 228.501 9.78117 227.739 10.028C227.445 10.1245 227.129 10.2211 226.824 10.1996C226.05 10.1567 225.876 10.5215 225.931 11.2083C225.996 11.9808 225.941 12.7748 225.941 13.5581C225.941 14.9316 225.941 14.9316 227.281 15.071C227.477 15.0925 227.674 15.1354 227.87 15.1783C229.231 15.4466 229.602 15.8865 229.602 17.217C229.602 18.2686 229.613 19.3201 229.613 20.3716V23.2044H235.8V20.3716C235.789 18.8587 235.8 17.3565 235.779 15.8543Z" fill="white"/>
<path d="M257.359 1.57275H252.708C252.555 1.57275 252.403 1.57275 252.239 1.57275C252.218 1.57275 252.207 1.57275 252.185 1.57275H251.215C251.215 1.57275 251.204 13.0002 251.215 15.629C251.215 16.2728 251.106 16.8737 250.605 17.3029C249.614 18.1505 248.459 18.3008 247.25 17.8608C246.041 17.4209 245.627 16.7235 245.627 15.3071C245.627 12.8178 245.616 10.3177 245.605 7.81759V1.57275H239.504V2.06633C239.504 2.11998 239.493 2.17363 239.504 2.23801C239.504 2.40969 239.504 2.5921 239.504 2.76378V12.2598C239.493 13.5045 239.493 14.7384 239.559 15.9831C239.7 18.7085 241.051 20.8008 243.535 22.1206C245.55 23.1936 247.729 23.2795 249.941 23.0756C254.091 22.6893 257.283 19.5562 257.359 15.7041C257.37 13.4937 257.359 1.57275 257.359 1.57275Z" fill="white"/>
<path d="M280.291 1.42253H274.223L274.234 13.6118C274.049 13.2899 270.138 7.07722 268.351 4.12648C267.752 3.13932 267.109 2.18436 266.096 1.54056C265.497 1.16501 264.876 0.939682 264.244 0.928952C263.743 0.918222 263.231 1.02552 262.719 1.27231C262.708 1.27231 262.697 1.28304 262.686 1.28304C261.652 1.76589 260.943 2.6994 260.933 3.79385C260.933 3.91188 260.933 4.02991 260.933 4.15867C260.933 4.41619 260.933 4.68444 260.933 4.94196C260.911 10.5323 260.922 22.6786 260.922 22.6786H266.99C266.99 22.6786 266.979 14.9208 266.979 11.4014V10.4893C267.371 11.1224 270.977 17.0775 272.861 19.9746C273.537 21.0047 274.201 21.906 275.116 22.5606C275.694 22.9683 276.326 23.1507 276.957 23.1722C277.469 23.1936 277.981 23.0863 278.493 22.8288C278.504 22.8288 278.515 22.8181 278.526 22.8181C279.561 22.3352 280.269 21.4017 280.28 20.3073C280.269 20.1892 280.291 1.42253 280.291 1.42253Z" fill="white"/>
<path d="M297.351 13.6976C296.436 12.6032 295.292 11.7662 294.072 11.0366C292.884 10.3177 291.653 9.67389 290.466 8.95498C289.965 8.65454 289.377 8.26826 289.573 7.58155C289.78 6.87337 290.477 6.93775 291.076 6.90556C291.305 6.89483 297.089 6.89483 297.089 6.89483V1.9054H291.163C290.248 1.91613 289.344 1.96978 288.44 2.14145C285.956 2.60284 284.028 3.84752 283.374 6.40125C282.731 8.91206 283.766 10.8113 285.814 12.2705C286.893 13.0431 288.004 13.7727 289.115 14.5238C289.889 15.0496 290.673 15.5539 291.446 16.0904C291.839 16.3694 292.078 16.7449 291.991 17.2385C291.904 17.7214 291.479 17.8823 291.076 18.0218C290.619 18.1828 290.139 18.2257 289.649 18.2149C287.819 18.2042 283.407 18.2149 283.407 18.2149V23.1829L289.333 23.1722C289.605 23.1722 289.889 23.1722 290.161 23.1722C291.85 23.1507 293.527 23.0327 295.107 22.3889C298.713 20.9082 299.824 16.6806 297.351 13.6976Z" fill="white"/>
<path d="M335.599 13.6976C334.684 12.6032 333.54 11.7662 332.32 11.0366C331.133 10.3177 329.902 9.67389 328.714 8.95498C328.213 8.65454 327.625 8.26826 327.821 7.58155C328.028 6.87337 328.725 6.93775 329.324 6.90556C329.553 6.89483 335.338 6.89483 335.338 6.89483V1.9054H329.412C328.497 1.91613 327.592 1.96978 326.688 2.14145C324.204 2.60284 322.276 3.84752 321.623 6.40125C320.98 8.91206 322.015 10.8113 324.063 12.2705C325.141 13.0431 326.252 13.7727 327.364 14.5238C328.137 15.0496 328.921 15.5539 329.695 16.0904C330.087 16.3694 330.327 16.7449 330.24 17.2385C330.152 17.7214 329.728 17.8823 329.324 18.0218C328.867 18.1828 328.388 18.2257 327.897 18.2149C326.067 18.2042 321.655 18.2149 321.655 18.2149V23.1829L327.581 23.1722C327.854 23.1722 328.137 23.1722 328.409 23.1722C330.098 23.1507 331.776 23.0327 333.355 22.3889C336.961 20.9082 338.072 16.6806 335.599 13.6976Z" fill="white"/>
<path d="M318.038 6.50859C318.038 5.22099 318.038 3.89048 318.027 2.59215V1.93762H311.992V4.2231C311.992 4.30894 311.992 4.39478 311.992 4.48062C311.992 5.74676 311.992 7.0129 311.981 8.2683C311.981 8.74042 311.938 9.21254 311.861 9.68466C311.709 10.6074 311.186 11.0581 310.249 11.101C309.247 11.1547 308.659 10.7577 308.419 9.83488C308.321 9.45933 308.288 9.06232 308.277 8.67604C308.266 7.23822 308.277 2.002 308.277 2.002H302.144C302.144 2.002 302.133 7.90348 302.111 9.54517C302.111 12.453 303.658 14.5453 306.502 15.4574C307.068 15.6398 307.221 15.908 307.21 16.466C307.188 17.9038 307.188 23.2473 307.188 23.2473H313.321C313.321 23.2473 313.332 17.8931 313.299 16.4445C313.289 15.8758 313.474 15.6291 314.008 15.4145C316.698 14.3415 318.027 12.3564 318.038 9.50225C318.038 8.51509 318.038 7.50647 318.038 6.50859Z" fill="white"/>
<path d="M353.28 1.93762H348.868H342.561H338.192V7.14165H342.561V23.1829H348.868V7.14165H353.28V1.93762Z" fill="white"/>
<path d="M365.329 7.12008C366.538 6.96986 372.312 6.95913 372.312 6.95913V1.94824C372.312 1.94824 366.571 1.94824 365.34 1.94824C359.62 1.94824 355.328 5.96125 354.685 11.8949C354.141 16.8951 357.964 21.906 363.172 22.9039C364.871 23.2365 366.592 23.2365 368.314 23.1936H372.312V18.2041H370.155C368.619 18.1934 367.083 18.1719 365.547 18.0539C363.488 17.893 361.745 16.5839 361.396 14.8886H372.301V10.2532C372.301 10.2532 364.708 10.2425 361.309 10.2425C362.126 8.39695 363.39 7.35614 365.329 7.12008Z" fill="white"/>
<path d="M399.688 13.5903C399.35 10.6503 399.056 7.71033 398.653 4.77032C398.37 2.68871 397.335 1.60498 395.494 1.31527C394.535 1.16505 393.566 1.17578 392.607 1.4333C391.278 1.79812 390.352 2.55995 389.916 3.87973C389.557 4.97419 389.448 6.12229 389.241 7.23821C388.762 9.86705 388.304 12.4852 387.803 15.3393C387.705 14.9745 387.672 14.8458 387.639 14.717C387.04 11.5087 386.463 8.30048 385.853 5.09222C385.297 2.15221 384.077 1.19724 381.049 1.25089C378.51 1.29381 377.247 2.33462 376.909 4.79178C376.604 6.9485 376.375 9.11596 376.125 11.2727C375.7 14.8779 374.785 22.7752 374.785 22.7752H380.667C380.667 22.7752 381.299 11.6697 381.604 6.50857C381.702 6.77682 383.827 16.1333 384.785 20.6721C384.97 21.5413 385.352 22.2494 386.136 22.7108C388.108 23.8804 390.254 22.8718 390.766 20.5004C391.3 18.0218 391.812 15.5325 392.335 13.0431C392.803 10.822 393.282 8.59019 393.762 6.36908C393.925 7.46354 394.938 22.7645 394.938 22.7645H400.745C400.745 22.7752 400.004 16.3909 399.688 13.5903Z" fill="white"/>
</svg>
