<svg width="103" height="101" viewBox="0 0 103 101" fill="none" xmlns="http://www.w3.org/2000/svg">
<path d="M1.69014 97.3126C2.72029 95.2851 3.40186 93.1192 4.2161 91.0097C9.06252 78.4628 13.8829 65.9082 18.7137 53.3562C18.7606 53.2357 18.8152 53.1203 18.8568 52.9999C19.1586 52.1438 19.7283 51.6132 20.683 51.7823C21.6299 51.9515 21.9655 52.6256 21.9863 53.5381C22.0487 56.3397 22.5716 59.0644 23.4119 61.7379C24.9961 66.7899 28.4144 70.3041 32.9356 72.9416C36.4163 74.9717 40.0817 76.5763 43.9265 77.7912C44.7226 78.0424 45.3885 78.3628 45.451 79.2933C45.5134 80.2186 44.9151 80.6441 44.1529 80.9901C31.1875 86.8778 18.2273 92.7732 5.26967 98.6737C4.78061 98.8967 4.23431 99.0274 3.8363 99.4247C3.12091 99.4247 2.12717 99.699 1.76818 99.3478C1.41179 98.9967 1.69014 98.0175 1.69014 97.3126ZM19.567 59.7873C18.7866 61.8327 18.0556 63.7295 17.348 65.6314C17.2752 65.8287 17.3116 66.0748 17.3324 66.2978C17.9541 73.5107 20.6648 79.8469 25.5112 85.3014C25.904 85.7449 26.2084 85.7859 26.7417 85.5347C30.7244 83.6661 34.7254 81.8334 38.7133 79.9777C38.9449 79.87 39.296 79.8649 39.3663 79.4804C36.3721 78.3808 33.573 76.9249 30.8571 75.2742C25.0716 71.76 21.2449 66.8797 19.8063 60.2717C19.7777 60.1589 19.6997 60.0564 19.567 59.7873ZM15.0718 72.1445C14.8116 72.124 14.7934 72.2675 14.7492 72.3829C13.6332 75.2767 12.5198 78.1732 11.396 81.067C11.2997 81.3131 11.2269 81.5438 11.2945 81.8078C12.0697 84.8426 12.8476 87.8775 13.6176 90.9123C13.706 91.2635 13.8387 91.3839 14.2237 91.2096C17.1269 89.8845 20.0378 88.5772 23.0399 87.2238C19.0675 82.7844 16.4349 77.763 15.0718 72.1445ZM6.0683 94.9083C7.30397 94.3342 8.31592 93.8702 9.32526 93.3961C10.8549 92.6758 10.8575 92.6707 10.4465 91.0558C10.0875 89.6486 9.71807 88.244 9.35127 86.8394C9.28884 86.8445 9.22641 86.8496 9.16397 86.8547C8.16243 89.4641 7.15829 92.076 6.0683 94.9083Z" fill="#1F49B8" stroke="#1F49B8" stroke-width="2"/>
<path d="M101.584 73.0897C100.257 74.4405 98.9409 75.8015 97.5959 77.137C97.2421 77.4881 97.1121 77.7932 97.2239 78.3109C97.6454 80.282 97.9835 82.2685 98.3815 84.2448C98.5376 85.0163 98.3894 85.6545 97.7104 86.0954C97.0496 86.5234 96.4175 86.3466 95.8114 85.9262C94.2973 84.8779 92.7651 83.8526 91.2667 82.7812C90.8219 82.4633 90.5019 82.471 90.0623 82.7812C88.6367 83.7859 87.1747 84.742 85.7413 85.7365C85.0389 86.2235 84.3366 86.5952 83.5171 86.0287C82.7523 85.5007 82.7939 84.76 82.9604 83.9602C83.3532 82.0814 83.6758 80.1872 84.0868 78.3135C84.1961 77.806 84.105 77.4856 83.7382 77.1344C82.6222 76.0604 81.5427 74.9506 80.4397 73.8638C79.9272 73.3588 79.5682 72.8128 79.8257 72.0695C80.0911 71.3031 80.705 71.0417 81.4776 70.9519C82.8954 70.7853 84.3027 70.5444 85.7205 70.365C86.3501 70.2855 86.7429 70.0651 86.9952 69.4191C87.6456 67.7479 88.4052 66.1203 89.1075 64.4696C89.4093 63.7621 89.8646 63.2726 90.7022 63.2905C91.4904 63.3085 91.9223 63.7878 92.2084 64.4568C92.9394 66.1664 93.6886 67.8658 94.4014 69.5806C94.5809 70.0112 94.8228 70.2317 95.3067 70.2906C96.7557 70.4675 98.1969 70.7059 99.6458 70.8853C100.512 70.993 101.191 71.3339 101.586 72.1285C101.584 72.4489 101.584 72.7693 101.584 73.0897ZM84.6097 73.5997C85.2392 74.2482 85.6815 74.807 86.2252 75.2402C87.3204 76.1194 87.5701 77.1498 87.2059 78.4801C86.9744 79.3285 86.709 80.2154 86.8079 81.2637C87.5597 80.7537 88.1944 80.3205 88.8318 79.8873C90.6294 78.6595 90.6684 78.6698 92.5128 79.9078C93.1553 80.3384 93.7328 80.8921 94.6121 81.1894C94.3858 80.0052 94.2115 78.9363 93.9748 77.8803C93.7719 76.9806 93.9774 76.268 94.6823 75.6401C95.3821 75.0146 96.0143 74.3123 96.7635 73.5562C95.6865 73.3896 94.8254 73.1999 93.9566 73.1332C92.955 73.0563 92.3619 72.577 92.0029 71.6748C91.6309 70.7366 91.1757 69.8344 90.658 68.6989C90.1299 69.9267 89.6903 70.9391 89.2558 71.9567C88.9697 72.6283 88.4962 73.0333 87.7314 73.1281C86.7689 73.2409 85.8168 73.4126 84.6097 73.5997Z" fill="#1F49B8" stroke="#1F49B8" stroke-width="2"/>
<path d="M61.5875 1C62.1208 1.38961 62.4538 1.9125 62.7217 2.5046C63.5776 4.40394 64.4647 6.2879 65.3205 8.18724C65.5156 8.62299 65.794 8.89981 66.2466 9.08949C68.1847 9.90459 70.1071 10.7658 72.04 11.5963C72.8412 11.9398 73.6294 12.3063 73.6164 13.3213C73.6034 14.3338 72.7996 14.6799 72.0009 15.0233C70.0967 15.841 68.2107 16.6945 66.2987 17.4943C65.8096 17.6993 65.5156 17.9864 65.3075 18.458C64.4491 20.4266 63.5542 22.3772 62.6853 24.3406C62.3705 25.0532 61.9751 25.6453 61.0776 25.653C60.1828 25.6606 59.7691 25.0942 59.4518 24.3713C58.6011 22.4361 57.7088 20.5163 56.8764 18.5734C56.6292 17.9992 56.265 17.6609 55.6875 17.4225C53.5934 16.5561 51.5227 15.6385 49.4364 14.7593C48.8302 14.503 48.5051 14.0877 48.4738 13.4495C48.4374 12.7267 48.7782 12.2269 49.4442 11.9347C51.4602 11.0529 53.4633 10.1404 55.5002 9.30736C56.187 9.02541 56.5954 8.62042 56.8764 7.95911C57.6542 6.13155 58.497 4.32961 59.2905 2.50973C59.5506 1.9125 59.881 1.38961 60.4169 1.00256C60.8071 1 61.1973 1 61.5875 1ZM61.0022 6.41863C60.4767 7.60795 59.985 8.54096 59.6495 9.5278C59.2228 10.7812 58.4346 11.5579 57.1573 11.9757C56.148 12.3063 55.1907 12.801 54.0148 13.306C55.3728 13.8878 56.4497 14.4082 57.5709 14.8131C58.5309 15.1617 59.1188 15.759 59.4752 16.6997C59.8992 17.8147 60.4325 18.8861 61.0022 20.1651C61.4366 19.2039 61.8659 18.4785 62.0922 17.6967C62.5969 15.9384 63.7077 14.89 65.474 14.3646C66.2648 14.1288 67.0817 13.8237 67.8439 13.2419C66.486 12.6575 65.2477 12.1064 63.9938 11.5912C63.3851 11.3426 62.9897 10.9427 62.7373 10.3429C62.2145 9.10743 61.6552 7.88991 61.0022 6.41863Z" fill="#1F49B8" stroke="#1F49B8" stroke-width="2"/>
<path d="M101.584 9.26572C101.033 10.0398 100.283 10.3192 99.3261 10.2397C98.5534 10.1757 97.7704 10.2474 96.9926 10.2192C95.9989 10.1834 95.3485 9.55793 95.3485 8.68644C95.3485 7.81495 95.9989 7.18696 96.9926 7.15876C97.9655 7.13057 98.9385 7.17671 99.9114 7.14595C100.697 7.12032 101.124 7.63039 101.581 8.11228C101.584 8.49676 101.584 8.88124 101.584 9.26572Z" fill="#1F49B8" stroke="#1F49B8" stroke-width="2"/>
<path d="M94.3651 1C95.1559 1.54084 95.4317 2.28417 95.3537 3.2223C95.2912 3.98358 95.3615 4.7551 95.3328 5.5215C95.2964 6.49808 94.6591 7.14401 93.7772 7.14401C92.8953 7.14401 92.2554 6.49808 92.2268 5.5215C92.1981 4.56286 92.245 3.60422 92.2112 2.64558C92.1851 1.87149 92.6976 1.45112 93.1919 1C93.5847 1 93.9749 1 94.3651 1Z" fill="#1F49B8" stroke="#1F49B8" stroke-width="2"/>
<path d="M18.8722 26.7831C19.2364 24.9299 19.585 22.9101 20.0533 20.9185C20.2354 20.1418 20.0143 19.683 19.4706 19.1755C18.4092 18.1887 17.4129 17.13 16.3775 16.1125C15.8572 15.5998 15.5607 15.0256 15.839 14.3003C16.0965 13.6287 16.6376 13.357 17.3478 13.275C18.7968 13.1058 20.2406 12.8674 21.6896 12.6983C22.3659 12.6188 22.7613 12.3625 23.0241 11.6884C23.6484 10.0787 24.3976 8.5151 25.0688 6.92078C25.3784 6.18258 25.8076 5.62123 26.6843 5.63149C27.5635 5.64174 27.972 6.22615 28.2789 6.95667C28.9475 8.55098 29.6967 10.1145 30.3236 11.7242C30.5734 12.365 30.961 12.5957 31.5879 12.6752C33.0681 12.8597 34.5457 13.0904 36.0259 13.275C36.7335 13.3647 37.2642 13.6671 37.5061 14.3413C37.7532 15.0282 37.4801 15.587 36.991 16.0766C35.8776 17.1967 34.7746 18.3296 33.6482 19.4369C33.2788 19.8009 33.1097 20.1239 33.2346 20.6903C33.6612 22.6256 33.976 24.5864 34.374 26.5293C34.5301 27.2932 34.4365 27.9417 33.7679 28.4056C33.0811 28.8798 32.4256 28.6978 31.7856 28.2544C30.3262 27.2393 28.8408 26.2628 27.4023 25.2195C26.8768 24.8376 26.5126 24.7966 25.9585 25.199C24.4679 26.2781 22.92 27.2778 21.3956 28.3133C20.8077 28.7132 20.199 28.8055 19.5746 28.4184C19.0309 28.075 18.802 27.57 18.8722 26.7831ZM32.8262 16.2688C32.7455 16.1535 32.6649 16.0356 32.5843 15.9202C31.666 15.7767 30.7529 15.5972 29.832 15.505C28.9137 15.4101 28.3674 14.9462 28.0318 14.126C27.639 13.1673 27.1863 12.2292 26.6687 11.0886C26.164 12.1933 25.7009 13.0648 25.3654 13.9824C24.9986 14.9821 24.3274 15.4614 23.279 15.5588C22.4544 15.6357 21.6375 15.792 20.8155 15.9125C20.7401 16.0279 20.6646 16.1432 20.5892 16.2586C21.3228 16.8789 22.0616 17.4889 22.7848 18.1194C23.3675 18.627 23.5652 19.2447 23.3935 20.0188C23.1412 21.1671 22.9591 22.3308 22.7457 23.4945C22.8836 23.4945 22.9617 23.5201 23.0033 23.4919C23.7837 22.9742 24.5589 22.4487 25.3341 21.9232C26.5022 21.1312 26.895 21.1261 28.05 21.9053C28.8564 22.4487 29.6629 22.9895 30.693 23.6842C30.4407 22.359 30.2664 21.3235 30.0375 20.3007C29.832 19.378 29.9776 18.5962 30.7581 17.9759C31.4526 17.4171 32.1342 16.8378 32.8262 16.2688Z" fill="#1F49B8" stroke="#1F49B8" stroke-width="2"/>
<path d="M90.4735 47.2372C90.45 48.0958 89.9194 48.5188 89.2274 48.8238C87.2737 49.685 85.3253 50.5642 83.3638 51.4049C82.8227 51.6382 82.4845 51.9663 82.2504 52.5097C81.418 54.4526 80.5283 56.3725 79.6724 58.3051C79.3577 59.0177 78.9492 59.6175 78.0648 59.6252C77.1803 59.6329 76.7563 59.051 76.4389 58.3333C75.557 56.3417 74.6465 54.3629 73.775 52.3662C73.5799 51.9202 73.3068 51.651 72.8515 51.4639C70.8198 50.618 68.809 49.7235 66.7773 48.8802C66.0072 48.5598 65.3647 48.1497 65.3699 47.2449C65.3751 46.3375 66.0411 45.9453 66.8007 45.6223C68.7361 44.8021 70.6534 43.9332 72.594 43.1207C73.1403 42.8925 73.4785 42.5696 73.7126 42.0262C74.5633 40.0551 75.4764 38.1121 76.3348 36.1462C76.6418 35.4438 77.0736 34.9081 77.8853 34.8902C78.7515 34.8697 79.2042 35.4362 79.5241 36.1667C80.3878 38.1326 81.2879 40.0807 82.1438 42.0492C82.3623 42.5516 82.6692 42.872 83.1869 43.0925C85.2446 43.9614 87.2815 44.8739 89.3314 45.7608C90.013 46.053 90.4526 46.5015 90.4735 47.2372ZM84.9689 47.2602C83.6864 46.7091 82.6068 46.176 81.4804 45.7813C80.4372 45.4147 79.8363 44.7534 79.4617 43.7512C79.0585 42.6721 78.5304 41.6366 77.9737 40.3934C77.3494 41.7955 76.8031 42.9515 76.3192 44.1331C76.0201 44.8636 75.5492 45.3455 74.7974 45.6377C73.5747 46.117 72.3807 46.6656 70.9915 47.2628C72.2298 47.7934 73.2808 48.2932 74.3682 48.6931C75.4113 49.0776 76.1111 49.6902 76.4909 50.7565C76.8785 51.8458 77.4248 52.8814 77.9893 54.1271C78.5486 52.8711 79.0481 51.8663 79.4435 50.8231C79.8077 49.8568 80.3982 49.216 81.3946 48.8443C82.5392 48.4162 83.637 47.8575 84.9689 47.2602Z" fill="#1F49B8" stroke="#1F49B8" stroke-width="2"/>
<path d="M46.9467 24.261C46.5175 29.3823 45.3001 34.2729 43.4557 39.0148C40.2403 47.2786 35.6176 54.717 29.8451 61.4762C29.637 61.7197 29.4289 61.9761 29.174 62.1683C28.521 62.6579 27.8316 62.6527 27.2177 62.1222C26.609 61.5941 26.4919 60.9251 26.8951 60.2151C27.0356 59.9665 27.2489 59.7589 27.4336 59.5359C34.3612 51.1644 39.7617 41.9958 42.5452 31.461C43.1851 29.0414 43.5727 26.5807 43.8303 24.0969C43.9369 23.0742 44.6523 22.4488 45.555 22.5436C46.4239 22.6308 46.9702 23.3254 46.9467 24.261Z" fill="#1F49B8" stroke="#1F49B8" stroke-width="2"/>
<path d="M34.3637 65.5875C33.7966 65.5286 33.3231 65.2466 33.0552 64.6648C32.7456 63.9881 32.9433 63.4062 33.4272 62.9064C34.5458 61.7453 35.667 60.5867 36.8116 59.4512C43.2059 53.1073 49.8316 47.0196 57.2144 41.7881C60.0109 39.8068 62.9141 37.9894 66.1242 36.7027C66.3037 36.6309 66.4806 36.5489 66.6653 36.49C67.5524 36.208 68.338 36.5412 68.6762 37.3358C68.9936 38.0792 68.7257 38.9225 67.9192 39.2711C58.8143 43.2081 51.7385 49.8443 44.5482 56.3215C41.5514 59.0231 38.7028 61.8786 35.9115 64.7878C35.5031 65.2159 35.0765 65.5952 34.3637 65.5875Z" fill="#1F49B8" stroke="#1F49B8" stroke-width="2"/>
<path d="M71.6445 68.62C61.9152 67.9228 53.2785 71.1345 45.0659 75.8662C44.6159 76.1251 44.1892 76.443 43.6247 76.3353C42.9562 76.2071 42.5061 75.8124 42.3474 75.1613C42.1653 74.4103 42.5035 73.8592 43.1331 73.4543C44.8786 72.3367 46.7074 71.3678 48.5856 70.4886C54.3165 67.8024 60.2763 65.9107 66.6576 65.4929C68.4161 65.3776 70.1643 65.4211 71.9124 65.5954C72.9035 65.6928 73.5279 66.349 73.4811 67.2128C73.4368 68.1074 72.7058 68.6815 71.6445 68.62Z" fill="#1F49B8" stroke="#1F49B8" stroke-width="2"/>
<path d="M28.7057 38.9379C28.7265 45.3741 28.0709 50.7953 26.8197 56.1524C26.7832 56.3088 26.7364 56.4625 26.6896 56.6138C26.3956 57.5904 25.5424 58.1081 24.6163 57.8749C23.7942 57.6673 23.3364 56.888 23.5627 55.8884C24.0544 53.7327 24.4992 51.5719 24.814 49.3855C25.6074 43.8439 25.7479 38.2868 25.173 32.717C25.1495 32.494 25.1209 32.271 25.1131 32.048C25.0741 30.9971 25.6334 30.2922 26.5517 30.2281C27.4648 30.1615 28.1047 30.7715 28.2426 31.8275C28.5886 34.4984 28.6745 37.1846 28.7057 38.9379Z" fill="#1F49B8" stroke="#1F49B8" stroke-width="2"/>
<path d="M12.7798 45.6024C12.0618 45.5921 11.5337 45.323 11.2267 44.7258C10.1862 42.7008 9.13521 40.681 8.13627 38.6356C7.61599 37.5693 8.07384 36.667 9.25748 36.3569C11.2007 35.8468 13.1518 35.3649 15.1054 34.8933C16.1642 34.6395 16.7417 34.9138 17.2464 35.8981C18.2141 37.7795 19.1714 39.6685 20.1157 41.5628C20.7609 42.8597 20.3733 43.7466 18.9737 44.1157C17.0617 44.6181 15.1393 45.0769 13.2194 45.5485C13.0633 45.5896 12.8968 45.5896 12.7798 45.6024ZM13.7813 42.2087C14.5956 41.9985 15.4098 41.7832 16.224 41.5807C16.4712 41.5192 16.5492 41.3987 16.4322 41.1757C15.9275 40.2119 15.6179 39.0226 14.8427 38.3664C14.3042 37.9102 13.2194 38.6304 12.3714 38.7996C12.3401 38.8047 12.3089 38.8227 12.2777 38.8278C11.8953 38.8688 11.7782 39.0072 11.9838 39.3866C12.4286 40.2017 12.8318 41.0399 13.261 41.8627C13.3651 42.0626 13.477 42.2753 13.7813 42.2087Z" fill="#1F49B8" stroke="#1F49B8" stroke-width="2"/>
<path d="M85.791 19.478C86.3607 19.4677 86.7041 19.6471 87.0318 19.8599C88.4626 20.798 89.9038 21.7259 91.319 22.6845C92.2737 23.3305 92.4428 23.9661 91.9329 24.9914C90.9756 26.9138 90.0131 28.8311 89.0167 30.733C88.3872 31.9352 87.292 32.1274 86.3191 31.1893C84.277 29.2207 82.2531 27.2317 80.2526 25.2221C79.4644 24.4301 79.5372 23.4484 80.4373 22.8281C81.9773 21.7643 83.5564 20.7544 85.1328 19.7394C85.3643 19.5882 85.6609 19.5292 85.791 19.478ZM86.9538 27.6828C88.9023 24.8966 88.8658 24.6172 86.4986 23.1818C86.4439 23.1485 86.3841 23.1177 86.3347 23.0793C86.1005 22.8896 85.8846 22.8922 85.6323 23.0716C85.1328 23.4279 84.6203 23.7662 84.1027 24.0969C83.8139 24.2814 83.7931 24.4429 84.0402 24.6915C85.0105 25.6707 85.9679 26.6678 86.9538 27.6828Z" fill="#1F49B8" stroke="#1F49B8" stroke-width="2"/>
<path d="M62.3002 54.8139C63.3563 54.796 64.0275 55.3599 64.116 56.1621C64.207 56.9901 63.6763 57.7103 62.758 57.8718C61.6706 58.0615 60.5858 58.264 59.5297 58.5818C53.536 60.3812 48.4581 63.7031 43.838 67.7812C43.6195 67.9734 43.4218 68.1913 43.1798 68.3528C42.4619 68.8346 41.7465 68.7783 41.1534 68.1657C40.5576 67.553 40.5056 66.8097 41.0701 66.1689C41.6216 65.5435 42.2642 64.9924 42.9067 64.4516C47.904 60.2505 53.38 56.9029 59.8262 55.306C60.7081 55.0856 61.6082 54.9497 62.3002 54.8139Z" fill="#1F49B8" stroke="#1F49B8" stroke-width="2"/>
<path d="M53.38 96.3461C52.7141 96.3537 52.3056 96.1205 51.9466 95.7693C50.4794 94.3211 48.9992 92.8883 47.5477 91.4273C46.7178 90.5916 46.7152 89.8278 47.5295 88.9948C48.4738 88.0284 49.4389 87.08 50.4196 86.147C51.1714 85.4319 51.8374 85.3755 52.6828 85.9881C54.6937 87.4466 56.6942 88.9179 58.6739 90.4148C59.6858 91.1786 59.7274 92.2936 58.7363 92.9882C57.1807 94.0802 55.5678 95.0952 53.9679 96.1282C53.7624 96.2615 53.4945 96.305 53.38 96.3461ZM51.6059 89.064C51.3821 89.3767 51.1558 89.6843 50.9373 89.9995C50.6798 90.3738 51.0622 90.5071 51.2365 90.6942C51.6345 91.1171 52.0585 91.5144 52.4747 91.9194C53.4554 92.878 53.4372 92.8498 54.6157 92.1039C55.1412 91.7707 55.0267 91.6016 54.6131 91.3042C53.8248 90.7377 53.0652 90.138 52.2926 89.551C52.1443 89.4356 51.9857 89.3305 51.6059 89.064Z" fill="#1F49B8" stroke="#1F49B8" stroke-width="2"/>
<path d="M92.2295 13.3112C92.2295 12.7678 92.193 12.2193 92.2373 11.6785C92.3075 10.8249 92.9579 10.2405 93.7721 10.2354C94.5837 10.2303 95.2757 10.8121 95.3173 11.6631C95.372 12.7499 95.3694 13.8418 95.3199 14.9286C95.2809 15.7822 94.5993 16.3691 93.7877 16.3717C92.9761 16.3768 92.3101 15.7899 92.2399 14.944C92.1905 14.4032 92.2295 13.8546 92.2295 13.3112Z" fill="#1F49B8" stroke="#1F49B8" stroke-width="2"/>
<path d="M89.1754 7.15921C89.6956 7.15921 90.2185 7.12589 90.7336 7.1669C91.6025 7.23611 92.1982 7.86922 92.2086 8.6715C92.219 9.46866 91.6259 10.1607 90.7674 10.2043C89.6644 10.2581 88.5562 10.2556 87.4532 10.2069C86.5844 10.1684 85.9886 9.50711 85.9808 8.70483C85.9704 7.86409 86.5922 7.22073 87.5157 7.16177C88.0672 7.12845 88.6213 7.15665 89.1728 7.15665C89.1754 7.15665 89.1754 7.15921 89.1754 7.15921Z" fill="#1F49B8" stroke="#1F49B8" stroke-width="2"/>
<path d="M71.9227 81.0416C71.9227 81.5209 71.9461 82.0028 71.9175 82.4821C71.8629 83.3997 71.2359 84.0252 70.3905 84.0405C69.5424 84.0559 68.8556 83.4407 68.8192 82.5334C68.7776 81.4773 68.775 80.4187 68.8218 79.3627C68.8608 78.5066 69.5216 77.917 70.3358 77.9017C71.1865 77.8863 71.8499 78.4989 71.9123 79.4063C71.9513 79.9497 71.9227 80.4982 71.9227 81.0416Z" fill="#1F49B8" stroke="#1F49B8" stroke-width="2"/>
<path d="M65.6326 87.1157C65.1123 87.1157 64.5894 87.1465 64.0717 87.108C63.1612 87.0414 62.5395 86.3673 62.5707 85.5342C62.5993 84.7345 63.2028 84.0988 64.0769 84.063C65.1487 84.0194 66.2231 84.0194 67.2949 84.063C68.1663 84.0988 68.7725 84.7371 68.7985 85.5368C68.8245 86.3698 68.2028 87.044 67.2897 87.108C66.7408 87.1491 66.1841 87.1157 65.6326 87.1157Z" fill="#1F49B8" stroke="#1F49B8" stroke-width="2"/>
<path d="M75.0549 84.0585C75.6064 84.0585 76.1631 84.0226 76.712 84.0662C77.5731 84.1379 78.1662 84.7916 78.1636 85.5913C78.161 86.391 77.5653 87.0626 76.699 87.101C75.596 87.1523 74.4878 87.1523 73.3848 87.101C72.5237 87.06 71.9306 86.3782 71.9358 85.5785C71.9384 84.7762 72.5315 84.1328 73.3978 84.0636C73.9467 84.0226 74.5034 84.0585 75.0549 84.0585Z" fill="#1F49B8" stroke="#1F49B8" stroke-width="2"/>
<path d="M71.9254 90.2197C71.9254 90.699 71.9462 91.1809 71.9228 91.6603C71.876 92.6343 71.2282 93.2802 70.3463 93.2648C69.5009 93.252 68.8531 92.6266 68.8219 91.7115C68.7855 90.6888 68.7829 89.6609 68.8245 88.6382C68.8609 87.7308 69.5399 87.1182 70.3932 87.1311C71.2412 87.1439 71.8708 87.7642 71.9228 88.6844C71.9488 89.1944 71.9228 89.7071 71.9254 90.2197Z" fill="#1F49B8" stroke="#1F49B8" stroke-width="2"/>
<path d="M28.2244 67.0661C28.2244 65.5923 28.2244 65.5923 29.7774 65.5923C31.3461 65.5923 31.3461 65.5923 31.3461 67.1456C31.3461 68.6681 31.3461 68.6681 29.8424 68.6681C28.2244 68.6681 28.2244 68.6681 28.2244 67.0661Z" fill="#1F49B8" stroke="#1F49B8" stroke-width="2"/>
<path d="M37.5478 71.7445C36.0286 71.7445 36.0286 71.7445 36.0286 69.9503C36.0286 68.6661 36.0286 68.6661 37.9718 68.6687C39.1529 68.6687 39.1529 68.6687 39.1503 70.6065C39.1503 71.7445 39.1503 71.7445 37.5478 71.7445Z" fill="#1F49B8" stroke="#1F49B8" stroke-width="2"/>
</svg>
