<svg width="810" height="383" viewBox="0 0 810 383" fill="none" xmlns="http://www.w3.org/2000/svg">
<path d="M545.713 126.884L545.997 135.569L532.004 137.552L530.822 150.344L520.61 153.507L522.218 158.652L535.88 154.404L537.015 142.32L551.528 140.29L551.15 127.167L545.713 126.884Z" fill="#65CEFE"/>
<path d="M700.325 57.8961L651.867 48.8802C646.147 47.7945 642.365 42.3188 643.452 36.6072L648.558 9.37052C649.646 3.65885 655.129 -0.117465 660.85 0.968225L709.307 9.98417C715.027 11.0699 718.809 16.5455 717.722 22.2572L712.616 49.4938C711.529 55.2055 706.045 58.9818 700.325 57.8961Z" fill="#FFCB83"/>
<path d="M648.086 23.1542L623.692 40.478L650.024 40.2892L648.086 23.1542Z" fill="#FFCB83"/>
<path d="M667.279 23.5317L673.52 24.523C673.52 24.523 682.407 20.0858 683.022 18.0561C683.637 16.0263 683.116 11.4475 684.44 11.1171C685.764 10.7867 688.411 10.8339 689.546 13.8549C690.35 16.0263 688.08 23.1069 688.742 23.7205C689.168 24.0982 692.713 24.759 695.313 25.2311C697.015 25.5143 698.434 26.7416 699.001 28.3937C699.379 29.5266 698.906 30.7539 697.866 31.3204L696.259 32.2172L697.11 33.8694C697.724 35.0967 697.252 36.6072 696.023 37.2209L694.793 37.8817L695.408 38.873C696.164 40.1475 695.692 41.7996 694.321 42.4133L693.233 42.9325L693.328 43.2158C693.753 44.4431 693.139 45.7648 691.957 46.284L690.87 46.756L674.276 44.1126C672.716 43.8766 671.25 43.3102 669.879 42.4605L664.206 40.5723C663.592 40.3835 663.214 39.7699 663.355 39.109L665.908 24.6174C665.908 23.8622 666.57 23.3901 667.279 23.5317Z" fill="white"/>
<path d="M79.2225 195.351L76.0077 190.961L70.5711 191.103C69.9565 191.103 69.5783 190.395 69.9565 189.923L73.1712 185.533L71.3748 180.387C71.1857 179.821 71.7057 179.255 72.3203 179.443L77.5206 181.143L81.8699 177.838C82.3426 177.461 83.099 177.791 83.099 178.452V183.881L87.5902 186.996C88.1102 187.326 87.9684 188.129 87.4011 188.318L82.2008 190.017L80.6407 195.257C80.3571 195.681 79.5534 195.823 79.2225 195.351Z" fill="#65CEFE"/>
<path d="M760.451 248.591L760.64 255.813L749.058 257.371L748.018 267.944L739.508 270.54L740.832 274.789L752.178 271.343L753.171 261.336L765.226 259.731L764.942 248.874L760.451 248.591Z" fill="#65CEFE"/>
<path d="M640.967 234.699L634.017 233.094L635.341 221.623L625.413 218.036L624.988 209.256L620.544 209.492L621.111 221.198L630.519 224.597L629.101 236.54L639.643 238.947L640.967 234.699Z" fill="#FFCB83"/>
<path d="M809.028 377.949L804.064 369.688L796.027 373.795L790.78 365.865L782.601 368.886L777.685 363.552L775.037 366.054L781.608 373.134L789.314 370.302L794.798 378.563L802.693 374.503L807.184 382.008L809.028 377.949Z" fill="#FFCB83"/>
<path d="M113.355 164.668L108.06 157.021H98.747C97.7069 157.021 97.0923 155.794 97.7069 154.992L103.333 147.628L100.449 138.801C100.118 137.809 101.063 136.865 102.104 137.196L110.897 140.264L118.413 134.788C119.264 134.175 120.446 134.788 120.446 135.827L120.21 145.126L127.727 150.554C128.578 151.168 128.341 152.49 127.348 152.82L118.461 155.464L115.624 164.291C115.293 165.329 113.97 165.518 113.355 164.668Z" fill="#FFB0A2"/>
<path d="M274.989 283.669L273.854 280.648L281.182 277.816L275.935 268.564L278.771 267.006L285.862 279.468L274.989 283.669Z" fill="#C9EDF9"/>
<path d="M220.623 231.556L210.647 234.861L203.556 219.378L188.334 222.399L181.148 211.684L175.711 215.318L185.355 229.621L199.774 226.789L207.149 242.885L222.183 237.929L220.623 231.556Z" fill="#FFCB83"/>
<path d="M463.802 80.0663L449.1 74.5434L436.193 83.5121C434.728 84.5506 432.695 83.4177 432.79 81.624L433.499 65.9523L420.971 56.5115C419.553 55.4258 419.978 53.2072 421.68 52.688L436.855 48.5341L442.008 33.712C442.576 32.0127 444.845 31.7295 445.838 33.24L454.489 46.3627L470.232 46.6459C472.028 46.6931 472.974 48.7701 471.886 50.139L462.1 62.412L466.686 77.4228C467.159 79.1694 465.504 80.7271 463.802 80.0663Z" fill="white"/>
<path d="M115.129 289.226L108.809 280.194L97.7883 282.173L91.4012 271.554L80.2832 277.305L72.5498 265.641L61.6819 269.602L52.3901 259.616L56.1905 256.101L63.1494 263.597L74.5844 259.384L82.0363 270.61L93.3131 264.756L100.351 276.474L111.123 274.544L117.007 282.9L123.782 280.169L125.752 284.973L115.129 289.226Z" fill="#FFCB83"/>
<path d="M46.8174 311.268C48.0938 323.919 38.8279 335.154 26.2054 336.428C13.5356 337.703 2.28412 328.451 1.00769 315.8C-0.268739 303.149 8.9972 291.915 21.6197 290.64C34.2894 289.366 45.5882 298.618 46.8174 311.268Z" fill="#FFCB83"/>
<path d="M12.0228 318.349C12.6847 325.099 18.7359 330.055 25.4963 329.347C32.2566 328.687 37.2205 322.644 36.5114 315.894L12.0228 318.349Z" fill="#EFEFEF"/>
<path d="M276.422 100.258L276.606 107.283L265.34 108.798L264.329 119.082L256.098 121.561L257.339 125.74L268.375 122.388L269.341 112.654L281.066 111.048L280.836 100.534L276.422 100.258Z" fill="white"/>
</svg>
