<svg width="715" height="195" viewBox="0 0 715 195" fill="none" xmlns="http://www.w3.org/2000/svg">
<path d="M228.274 73.3889C224.584 73.2946 220.894 73.2037 217.205 73.1214L206.135 72.8877L205.281 72.8697L205.026 73.7528L202.879 81.1794L200.097 73.3813L195.881 61.6517L194.024 56.484L192.634 61.8473L190.027 71.9059L187.437 81.9694L184.863 92.0367L184.387 93.9115L184.247 93.3034L182.201 84.4761L180.144 75.6516L178.076 66.8297L175.997 58.0106L173.908 49.1942L171.807 40.3805L169.695 31.5696L167.737 23.3928L165.724 31.5325L162.018 46.5175C160.788 51.5141 159.565 56.5123 158.347 61.5117L156.526 69.0128L154.715 76.5162L152.914 84.0228L152.132 87.3065L150.868 84.298L147.896 77.2561L144.91 70.2202L141.912 63.1892L141.028 61.1167L140.324 63.2175L138.539 68.5372L136.889 73.4826L132.585 73.6046L127.86 73.7458L123.136 73.8989C121.562 73.9522 119.987 74.0067 118.412 74.0683C119.987 74.1293 121.562 74.1843 123.136 74.2377L127.86 74.3908L132.585 74.5319L137.309 74.6654L137.698 74.6763L137.855 74.2759L139.893 69.0526L141.11 65.9171L143.028 71.0134L145.734 78.167L148.455 85.3152L151.185 92.4584L152.741 96.5266L153.889 92.2704L155.9 84.8199L157.899 77.3667L159.887 69.9102L161.865 62.4509C163.181 57.4772 164.49 52.5024 165.794 47.5254L167.583 40.6627L167.748 41.383L169.794 50.2103L171.851 59.0349L173.919 67.8567L175.998 76.6758L178.087 85.4922L180.187 94.3059L182.299 103.117L184.282 111.393L186.275 103.142L188.716 93.0397L191.141 82.9332L193.55 72.8228L194.684 68.0267L197.205 74.5172L201.743 86.1204L203.296 90.0906L204.325 85.9935L207.032 75.2293L217.205 75.0141C220.894 74.9318 224.584 74.8414 228.274 74.7466C231.963 74.6524 235.653 74.5467 239.343 74.4371C243.032 74.3244 246.723 74.2094 250.412 74.0672C246.723 73.9255 243.032 73.8106 239.343 73.6973C235.653 73.5878 231.963 73.4815 228.274 73.3878V73.3889Z" fill="white" stroke="white" stroke-width="3" stroke-linejoin="round"/>
<path d="M36.9173 159.113C35.2135 152.398 31.0011 149.04 24.2803 149.04C19.1686 149.04 15.2402 151.05 12.4951 155.069C10.0813 158.569 8.87436 162.99 8.87436 168.334C8.87436 173.725 10.0813 178.147 12.4951 181.599C15.2402 185.618 19.1686 187.628 24.2803 187.628C28.0666 187.628 31.1194 186.328 33.4386 183.727C35.5211 181.362 36.7753 178.241 37.2013 174.363H45.8627C45.5314 180.464 43.3779 185.406 39.4022 189.189C35.3791 192.972 30.3385 194.864 24.2803 194.864C16.9441 194.864 11.0042 192.263 6.46053 187.061C2.15351 182.143 0 175.9 0 168.334C0 160.815 2.15351 154.596 6.46053 149.678C11.0042 144.429 16.9441 141.805 24.2803 141.805C30.1492 141.805 35.0241 143.318 38.9052 146.344C42.9282 149.513 45.2237 153.769 45.7917 159.113H36.9173Z" fill="white"/>
<path d="M76.0838 190.253C73.0073 193.232 68.7713 194.722 63.3757 194.722C59.8733 194.722 56.9388 193.823 54.5723 192.026C52.0165 190.135 50.7386 187.439 50.7386 183.94C50.7386 179.873 52.2532 176.917 55.2823 175.073C57.2701 173.843 60.4886 172.992 64.9376 172.519C65.7895 172.33 67.1857 172.117 69.1263 171.881C69.9309 171.786 70.6172 171.692 71.1851 171.597C71.8004 171.502 72.2974 171.408 72.676 171.313C74.8532 170.699 75.9418 169.374 75.9418 167.341C75.9418 163.983 73.4096 162.305 68.3453 162.305C63.281 162.305 60.5596 164.267 60.1809 168.192H52.0875C52.3715 163.747 54.2174 160.508 57.6251 158.474C60.3702 156.772 64.1093 155.921 68.8423 155.921C72.96 155.921 76.3204 156.725 78.9236 158.332C82.0473 160.271 83.6092 163.038 83.6092 166.632V167.767C83.4199 169.233 82.3787 170.793 80.4855 172.448C78.8762 173.772 77.196 174.765 75.4448 175.428C74.4982 175.9 73.1967 176.302 71.5401 176.633C69.9309 176.964 67.9194 177.248 65.5055 177.485C61.0565 178.194 58.832 180.227 58.832 183.585C58.832 185.24 59.7313 186.493 61.5298 187.344C62.9497 188.007 64.5589 188.338 66.3575 188.338C68.5347 188.338 70.4988 187.817 72.2501 186.777C74.3799 185.453 75.4448 183.632 75.4448 181.315V180.109C78.8999 178.738 81.6214 177.201 83.6092 175.498V185.571C83.6092 186.517 83.7276 187.226 83.9642 187.699C84.2482 188.125 84.7688 188.338 85.5261 188.338H86.378C86.4727 188.338 86.6147 188.338 86.804 188.338C86.9933 188.29 87.23 188.243 87.514 188.196V193.799C85.8101 194.414 84.1062 194.722 82.4023 194.722C78.7579 194.722 76.6517 193.232 76.0838 190.253Z" fill="white"/>
<path d="M88.555 156.985H94.6606V145.99H102.754V156.985H110.066V163.014H102.754V182.592C102.754 184.436 102.943 185.689 103.322 186.351C103.795 187.203 104.908 187.628 106.659 187.628C108.221 187.628 109.357 187.534 110.066 187.344V193.587C107.7 193.87 105.949 194.012 104.813 194.012C100.837 194.012 98.1157 193.208 96.6484 191.601C95.3705 190.276 94.7079 187.959 94.6606 184.649V163.014H88.555V156.985Z" fill="white"/>
<path d="M140.666 169.256C140.051 164.669 137.258 162.376 132.288 162.376C129.638 162.376 127.437 163.203 125.686 164.858C123.367 167.128 122.207 170.746 122.207 175.711C122.207 179.211 122.941 182.072 124.408 184.294C126.207 186.943 128.715 188.267 131.933 188.267C136.998 188.267 139.909 185.477 140.666 179.896H148.759C147.292 189.733 141.683 194.651 131.933 194.651C126.349 194.651 121.947 192.83 118.728 189.189C115.652 185.737 114.114 181.244 114.114 175.711C114.114 169.847 115.628 165.166 118.657 161.666C121.876 157.883 126.396 155.992 132.217 155.992C136.761 155.992 140.477 157.079 143.364 159.255C146.629 161.619 148.428 164.953 148.759 169.256H140.666Z" fill="white"/>
<path d="M155.338 143.011H163.431V161.808H163.573C165.892 157.93 169.561 155.992 174.578 155.992C178.601 155.992 181.772 157.032 184.091 159.113C186.41 161.288 187.57 164.409 187.57 168.476V193.658H179.476V170.604C179.24 165.118 176.849 162.376 172.306 162.376C169.608 162.376 167.454 163.298 165.845 165.142C164.236 166.939 163.431 169.233 163.431 172.023V193.658H155.338V143.011Z" fill="white"/>
<path d="M212.172 156.985H218.278V145.99H226.371V156.985H233.684V163.014H226.371V182.592C226.371 184.436 226.56 185.689 226.939 186.351C227.412 187.203 228.525 187.628 230.276 187.628C231.838 187.628 232.974 187.534 233.684 187.344V193.587C231.317 193.87 229.566 194.012 228.43 194.012C224.454 194.012 221.733 193.208 220.266 191.601C218.988 190.276 218.325 187.959 218.278 184.649V163.014H212.172V156.985Z" fill="white"/>
<path d="M239.506 143.011H247.599V161.808H247.741C250.06 157.93 253.728 155.992 258.745 155.992C262.768 155.992 265.939 157.032 268.259 159.113C270.578 161.288 271.737 164.409 271.737 168.476V193.658H263.644V170.604C263.407 165.118 261.017 162.376 256.473 162.376C253.776 162.376 251.622 163.298 250.013 165.142C248.404 166.939 247.599 169.233 247.599 172.023V193.658H239.506V143.011Z" fill="white"/>
<path d="M313.072 182.024C312.267 185.997 310.279 189.071 307.108 191.246C304.174 193.421 300.648 194.509 296.53 194.509C290.803 194.509 286.354 192.712 283.183 189.118C280.107 185.618 278.568 180.984 278.568 175.215C278.568 174.269 278.639 173.181 278.781 171.952H286.662V172.023H305.475C305.239 169.28 304.363 167.01 302.849 165.213C301.05 163.274 298.873 162.305 296.317 162.305C292.247 162.305 289.36 164.102 287.656 167.696H279.846C281.124 164.149 283.159 161.335 285.952 159.255C288.886 157.032 292.341 155.921 296.317 155.921C301.902 155.921 306.375 158.12 309.735 162.517C313.001 166.726 314.279 171.644 313.569 177.272H286.662C286.662 180.44 287.466 182.97 289.076 184.862C290.827 187.037 293.312 188.125 296.53 188.125C301.026 188.125 303.985 186.091 305.404 182.024H313.072Z" fill="white"/>
<path d="M339.481 156.985H347.148V162.376L347.29 162.517C349.941 158.167 353.751 155.992 358.72 155.992C362.744 155.992 365.915 157.032 368.234 159.113C370.553 161.288 371.713 164.409 371.713 168.476V193.658H363.619V170.604C363.382 165.118 360.992 162.376 356.449 162.376C353.751 162.376 351.597 163.298 349.988 165.142C348.379 166.939 347.574 169.233 347.574 172.023V193.658H339.481V156.985Z" fill="white"/>
<path d="M413.047 182.024C412.242 185.997 410.255 189.071 407.084 191.246C404.149 193.421 400.623 194.509 396.505 194.509C390.778 194.509 386.329 192.712 383.158 189.118C380.082 185.618 378.544 180.984 378.544 175.215C378.544 174.269 378.615 173.181 378.757 171.952H386.637V172.023H405.451C405.214 169.28 404.338 167.01 402.824 165.213C401.025 163.274 398.848 162.305 396.292 162.305C392.222 162.305 389.335 164.102 387.631 167.696H379.821C381.099 164.149 383.135 161.335 385.927 159.255C388.862 157.032 392.317 155.921 396.292 155.921C401.877 155.921 406.35 158.12 409.71 162.517C412.976 166.726 414.254 171.644 413.544 177.272H386.637C386.637 180.44 387.442 182.97 389.051 184.862C390.802 187.037 393.287 188.125 396.505 188.125C401.002 188.125 403.96 186.091 405.38 182.024H413.047Z" fill="white"/>
<path d="M416.36 156.985H424.95L432.121 184.365H432.263L439.149 156.985H447.314L453.916 184.365H454.058L461.513 156.985H469.748L458.247 193.658H449.941L443.125 166.419H442.983L436.239 193.658H427.719L416.36 156.985Z" fill="white"/>
<path d="M481.059 181.883C481.485 186.139 484.254 188.267 489.366 188.267C494.95 188.267 497.672 186.659 497.53 183.443C497.483 181.646 496.205 180.275 493.696 179.329C493.46 179.234 492.655 179.022 491.282 178.69C489.91 178.359 487.993 177.91 485.532 177.343C481.887 176.586 479.19 175.546 477.438 174.222C474.977 172.472 473.747 169.895 473.747 166.49C473.747 162.849 475.474 160.106 478.929 158.261C481.722 156.748 485.106 155.992 489.082 155.992C493.199 155.992 496.583 156.843 499.234 158.545C502.263 160.437 503.99 163.345 504.416 167.27H495.968C495.305 164.007 492.821 162.376 488.514 162.376C484.065 162.376 481.84 163.629 481.84 166.135C481.84 167.838 483.094 169.162 485.603 170.107C486.407 170.391 489.129 171.03 493.767 172.023C497.364 172.874 500.086 173.914 501.932 175.144C504.393 176.893 505.623 179.423 505.623 182.734C505.623 186.753 503.848 189.827 500.299 191.955C497.27 193.752 493.578 194.651 489.224 194.651C484.443 194.651 480.609 193.61 477.722 191.53C474.599 189.212 473.013 185.997 472.966 181.883H481.059Z" fill="white"/>
<path d="M540.047 161.737C542.508 157.907 546.153 155.992 550.98 155.992C556.47 155.992 560.754 157.883 563.83 161.666C566.67 165.166 568.09 169.753 568.09 175.428C568.09 180.771 566.812 185.216 564.256 188.763C561.369 192.641 557.393 194.58 552.329 194.58C548.827 194.58 545.963 193.965 543.739 192.735V186.068C545.443 187.486 547.501 188.196 549.915 188.196C553.323 188.196 555.926 186.848 557.725 184.152C559.239 181.788 559.997 178.832 559.997 175.286C559.997 171.834 559.145 168.854 557.441 166.348C555.5 163.7 552.992 162.376 549.915 162.376C546.508 162.376 543.928 163.534 542.177 165.851C540.473 168.121 539.621 171.266 539.621 175.286V193.587H531.812V143.011H539.905V161.737H540.047Z" fill="white"/>
<path d="M607.728 182.024C606.924 185.997 604.936 189.071 601.765 191.246C598.83 193.421 595.304 194.509 591.187 194.509C585.46 194.509 581.011 192.712 577.84 189.118C574.763 185.618 573.225 180.984 573.225 175.215C573.225 174.269 573.296 173.181 573.438 171.952H581.318V172.023H600.132C599.895 169.28 599.02 167.01 597.505 165.213C595.707 163.274 593.529 162.305 590.974 162.305C586.903 162.305 584.016 164.102 582.312 167.696H574.503C575.781 164.149 577.816 161.335 580.608 159.255C583.543 157.032 586.998 155.921 590.974 155.921C596.559 155.921 601.031 158.12 604.392 162.517C607.657 166.726 608.935 171.644 608.225 177.272H581.318C581.318 180.44 582.123 182.97 583.732 184.862C585.483 187.037 587.968 188.125 591.187 188.125C595.683 188.125 598.641 186.091 600.061 182.024H607.728Z" fill="white"/>
<path d="M637.664 190.253C634.588 193.232 630.352 194.722 624.956 194.722C621.454 194.722 618.519 193.823 616.153 192.026C613.597 190.135 612.319 187.439 612.319 183.94C612.319 179.873 613.834 176.917 616.863 175.073C618.851 173.843 622.069 172.992 626.518 172.519C627.37 172.33 628.766 172.117 630.707 171.881C631.511 171.786 632.198 171.692 632.766 171.597C633.381 171.502 633.878 171.408 634.257 171.313C636.434 170.699 637.522 169.374 637.522 167.341C637.522 163.983 634.99 162.305 629.926 162.305C624.862 162.305 622.14 164.267 621.762 168.192H613.668C613.952 163.747 615.798 160.508 619.206 158.474C621.951 156.772 625.69 155.921 630.423 155.921C634.541 155.921 637.901 156.725 640.504 158.332C643.628 160.271 645.19 163.038 645.19 166.632V167.767C645.001 169.233 643.959 170.793 642.066 172.448C640.457 173.772 638.777 174.765 637.025 175.428C636.079 175.9 634.777 176.302 633.121 176.633C631.511 176.964 629.5 177.248 627.086 177.485C622.637 178.194 620.413 180.227 620.413 183.585C620.413 185.24 621.312 186.493 623.11 187.344C624.53 188.007 626.14 188.338 627.938 188.338C630.115 188.338 632.079 187.817 633.831 186.777C635.961 185.453 637.025 183.632 637.025 181.315V180.109C640.481 178.738 643.202 177.201 645.19 175.498V185.571C645.19 186.517 645.308 187.226 645.545 187.699C645.829 188.125 646.349 188.338 647.107 188.338H647.959C648.053 188.338 648.195 188.338 648.385 188.338C648.574 188.29 648.811 188.243 649.095 188.196V193.799C647.391 194.414 645.687 194.722 643.983 194.722C640.339 194.722 638.232 193.232 637.664 190.253Z" fill="white"/>
<path d="M650.136 156.985H656.241V145.99H664.335V156.985H671.647V163.014H664.335V182.592C664.335 184.436 664.524 185.689 664.903 186.351C665.376 187.203 666.488 187.628 668.239 187.628C669.801 187.628 670.937 187.534 671.647 187.344V193.587C669.281 193.87 667.529 194.012 666.393 194.012C662.418 194.012 659.696 193.208 658.229 191.601C656.951 190.276 656.289 187.959 656.241 184.649V163.014H650.136V156.985Z" fill="white"/>
<path d="M46.8799 44.4468H118.068V118.066H36.9826C16.496 118.066 0.174805 101.573 0.174805 81.258V36.9834C0.174805 16.4932 16.496 0 36.9826 0H107.476L118.068 29.5164H10.9397L32.2973 33.6819C30.5623 35.7646 29.5192 38.5428 29.5192 41.4965V76.5692C29.5192 83.3407 34.9033 88.7214 41.4992 88.7214H88.7241V73.7911H57.4727L46.8799 44.4468Z" fill="white"/>
<path d="M363.401 69.278C364.617 73.0992 365.312 77.0926 365.312 81.258C365.312 101.573 348.819 118.066 328.504 118.066H247.246V44.4468H328.504C332.67 44.4468 335.971 41.1488 335.971 36.9799C335.971 32.8109 332.673 29.513 328.504 29.513H247.246L236.829 3.05176e-05H328.504C338.749 3.05176e-05 347.951 4.16549 354.547 10.937C361.319 17.5364 365.312 26.7383 365.312 36.9799C365.312 45.3143 362.534 52.9533 358.021 59.0294C360.279 62.1553 362.186 65.6288 363.401 69.2745V69.278ZM328.504 88.725C332.67 88.725 335.971 85.427 335.971 81.258C335.971 77.0891 332.673 73.7911 328.504 73.7911H251.935L276.763 77.7845V88.7215H328.504V88.725Z" fill="white"/>
<path d="M499.003 29.5165H380.938L370.521 3.05176e-05H488.414L499.007 29.5165H499.003ZM417.921 118.066C397.434 118.066 380.938 101.573 380.938 81.258V44.4468H477.821L488.414 73.7911H385.626L410.454 77.7845C410.974 83.8606 416.183 88.7215 422.434 88.7215H499.003V118.066H417.921Z" fill="white"/>
<path d="M622.455 118.066H589.64L563.422 65.8044L537.031 118.066H504.217L546.929 32.99L558.041 10.7649L544.67 28.4734L530.432 3.05176e-05H563.246L563.418 0.172128L579.739 32.9865L622.451 118.062L622.455 118.066Z" fill="white"/>
<path d="M645.898 29.5165L670.554 33.5098V118.066H641.209V29.5165H607.527L596.935 3.05176e-05H704.408L715 29.5165H645.898Z" fill="white"/>
</svg>
