<svg width="132" height="79" viewBox="0 0 132 79" fill="none" xmlns="http://www.w3.org/2000/svg">
<path d="M0.414246 33.2849C0.611595 33.0663 0.798737 32.8376 1.0097 32.6324C1.82972 31.8352 2.78584 31.4921 3.9121 31.889C5.07918 32.3028 5.74268 33.1941 5.7631 34.368C5.82435 37.8493 5.82775 41.334 5.7631 44.8153C5.73928 46.043 5.02814 46.9613 3.79301 47.3346C2.28226 47.7921 1.29211 46.9546 0.414246 45.9017C0.414246 41.6939 0.414246 37.4894 0.414246 33.2849Z" fill="#1F49B8"/>
<path d="M131.073 45.8986C130.93 46.0533 130.781 46.2013 130.641 46.3594C129.855 47.2642 128.885 47.688 127.694 47.3315C126.459 46.9615 125.748 46.0432 125.724 44.8155C125.66 41.3342 125.66 37.8495 125.724 34.3682C125.748 33.1371 126.463 32.2223 127.694 31.8523C129.205 31.3948 130.195 32.2323 131.07 33.2885C131.073 37.4896 131.073 41.6941 131.073 45.8986Z" fill="#1F49B8"/>
<path d="M73.3893 39.5277C73.3893 27.9671 73.3893 16.4064 73.3893 4.8458C73.3893 4.08899 73.3757 3.32882 73.6207 2.59892C73.995 1.49566 75.0974 0.705221 76.2305 0.718675C77.4316 0.735493 78.5477 1.58312 78.8028 2.78055C78.9492 3.47345 79.0002 4.19662 79.0002 4.90634C79.0104 28.0276 79.0104 51.1489 79.0002 74.2736C79.0002 74.9833 78.9492 75.7065 78.7994 76.3994C78.5443 77.6002 77.4248 78.4478 76.2271 78.4613C75.0974 78.4747 73.9916 77.6843 73.6207 76.581C73.3723 75.8511 73.3893 75.0909 73.3893 74.3341C73.3893 62.7331 73.3893 51.1321 73.3893 39.5277Z" fill="#1F49B8"/>
<path d="M83.8455 39.6189C83.8455 32.3098 83.8421 25.0007 83.8523 17.6916C83.8523 17.066 83.8727 16.4236 84.0088 15.8181C84.3083 14.4592 85.4481 13.5881 86.7479 13.6419C87.9899 13.6923 89.0583 14.6005 89.3067 15.8888C89.4155 16.4606 89.4598 17.0559 89.4598 17.6412C89.4666 32.2593 89.47 46.8809 89.4598 61.499C89.4598 62.165 89.4087 62.8478 89.2658 63.497C89.0004 64.6877 87.864 65.542 86.6765 65.5488C85.5094 65.5555 84.4546 64.7953 84.0769 63.6685C83.8455 62.979 83.8523 62.2625 83.8523 61.5495C83.8455 54.237 83.8455 46.9279 83.8455 39.6189Z" fill="#1F49B8"/>
<path d="M68.5543 39.5615C68.5543 46.7865 68.5577 54.0081 68.5475 61.2331C68.5475 61.9428 68.51 62.666 68.3739 63.3589C68.1188 64.6438 67.0095 65.5317 65.771 65.5486C64.5426 65.5654 63.396 64.674 63.1238 63.4127C62.9911 62.8039 62.9434 62.1648 62.9434 61.5392C62.9332 46.8403 62.9366 32.1381 62.9332 17.4392C62.9332 16.7631 62.9536 16.0904 63.1884 15.4513C63.5967 14.338 64.706 13.5912 65.8424 13.6417C67.0299 13.6955 68.0201 14.4759 68.3467 15.6397C68.5509 16.3763 68.5577 17.1331 68.5577 17.8899C68.5509 25.1115 68.5543 32.3365 68.5543 39.5615Z" fill="#1F49B8"/>
<path d="M110.243 39.6388C110.243 47.291 110.253 54.9431 110.233 62.5953C110.226 64.7985 108.371 66.1002 106.476 65.2996C105.68 64.9633 105.19 64.3713 104.945 63.5539C104.748 62.8947 104.758 62.2253 104.758 61.5526C104.758 46.8806 104.758 32.2087 104.758 17.5333C104.758 17.1566 104.744 16.7732 104.778 16.3998C104.935 14.7214 106.166 13.5609 107.684 13.6417C109.15 13.719 110.226 14.9097 110.229 16.5613C110.246 21.943 110.239 27.3247 110.239 32.7065C110.243 35.0139 110.243 37.328 110.243 39.6388Z" fill="#1F49B8"/>
<path d="M21.2448 39.5949C21.2448 31.9427 21.2346 24.2939 21.2516 16.6418C21.255 14.4151 23.055 13.0966 24.9604 13.8668C25.76 14.1897 26.267 14.7683 26.5256 15.5856C26.7434 16.2819 26.7263 16.995 26.7263 17.7114C26.7263 32.2993 26.7263 46.8872 26.7229 61.475C26.7229 62.0199 26.7297 62.5749 26.6345 63.1064C26.3623 64.6671 25.1407 65.6627 23.7185 65.5383C22.2826 65.4104 21.2618 64.2668 21.2516 62.6758C21.2312 58.5992 21.2414 54.5191 21.2414 50.4425C21.2448 46.8233 21.2448 43.2108 21.2448 39.5949Z" fill="#1F49B8"/>
<path d="M58.0982 39.5784C58.0982 43.5273 58.105 47.4795 58.0948 51.4283C58.0879 53.8737 57.1046 55.1956 55.3046 55.209C53.5251 55.2258 52.4907 53.8838 52.4839 51.4485C52.4703 43.5475 52.4703 35.6498 52.4839 27.7487C52.4873 25.3067 53.4877 23.9949 55.2876 23.9613C57.0468 23.9277 58.0879 25.3101 58.0948 27.7285C58.105 31.6807 58.0982 35.6296 58.0982 39.5784Z" fill="#1F49B8"/>
<path d="M37.1825 39.5849C37.1825 43.5775 37.1893 47.5667 37.1791 51.5593C37.1723 53.8263 36.2094 55.1348 34.5217 55.2222C32.7932 55.3097 31.6091 54.008 31.5955 51.6972C31.5479 43.6313 31.5785 35.5654 31.5785 27.4995C31.5785 27.4154 31.5853 27.3314 31.5921 27.2473C31.769 25.1181 32.8612 23.887 34.5081 23.961C36.1617 24.035 37.1655 25.33 37.1723 27.4861C37.1961 31.519 37.1825 35.552 37.1825 39.5849Z" fill="#1F49B8"/>
<path d="M94.305 39.5984C94.305 35.6058 94.2982 31.6166 94.3084 27.624C94.3152 25.3569 95.2781 24.0485 96.9624 23.9611C98.6875 23.8736 99.875 25.1753 99.8886 27.4861C99.9363 35.552 99.9056 43.6179 99.9056 51.6837C99.9056 51.7678 99.8988 51.8519 99.892 51.936C99.7151 54.0618 98.6229 55.2962 96.976 55.2222C95.3224 55.1482 94.3186 53.8532 94.3118 51.6972C94.2914 47.6642 94.305 43.6313 94.305 39.5984Z" fill="#1F49B8"/>
<path d="M10.7887 39.5481C10.7887 35.4344 10.7819 31.3174 10.7921 27.2037C10.7955 25.2226 11.9082 23.9309 13.5414 23.9612C15.1202 23.9881 16.2567 25.273 16.2601 27.1701C16.2771 35.4849 16.2771 43.7963 16.2567 52.1111C16.2533 53.7458 15.4503 54.8087 14.0756 55.1316C12.8507 55.4208 11.9252 54.9163 11.2141 53.9543C10.7887 53.3758 10.7853 52.6997 10.7853 52.0203C10.7887 47.8595 10.7887 43.7021 10.7887 39.5481Z" fill="#1F49B8"/>
<path d="M120.699 39.5712C120.699 43.7286 120.706 47.886 120.695 52.04C120.689 53.9472 119.613 55.2018 118.011 55.222C116.432 55.2421 115.234 53.9572 115.231 52.0804C115.21 43.7252 115.21 35.3701 115.234 27.0149C115.238 25.4038 116.088 24.324 117.47 24.0381C118.695 23.7859 119.62 24.3005 120.304 25.2793C120.712 25.8646 120.702 26.5474 120.702 27.2201C120.699 31.3405 120.699 35.4542 120.699 39.5712Z" fill="#1F49B8"/>
<path d="M47.6182 38.9258C47.6182 41.3073 47.7101 42.9521 47.5978 44.58C47.4311 46.9816 45.2807 48.1723 43.3854 47.0085C42.6471 46.5545 42.2149 45.8952 42.1639 45.0509C41.9393 41.4048 41.8951 37.752 42.1843 34.1126C42.2966 32.7099 43.4194 31.7984 44.7294 31.7379C46.0871 31.674 47.2337 32.5586 47.5025 34.0184C47.8428 35.8818 47.5468 37.7822 47.6182 38.9258Z" fill="#1F49B8"/>
</svg>
