<svg width="789" height="259" viewBox="0 0 789 259" fill="none" xmlns="http://www.w3.org/2000/svg">
<g filter="url(#filter0_d_367_299)">
<path d="M262.886 84.7893C259.13 84.6934 255.374 84.6008 251.618 84.517L240.349 84.2791L239.48 84.2608L239.22 85.1598L237.034 92.72L234.202 84.7816L229.911 72.8409L228.02 67.5802L226.605 73.04L223.951 83.2796L221.315 93.5243L218.694 103.773L218.21 105.681L218.067 105.062L215.984 96.0761L213.89 87.0927L211.785 78.1121L209.669 69.1343L207.542 60.1592L205.403 51.1869L203.253 42.2174L201.259 33.8934L199.21 42.1797L195.438 57.4343C194.186 62.5208 192.94 67.609 191.701 72.6983L189.847 80.3345L188.003 87.9729L186.17 95.6147L185.374 98.9574L184.087 95.8948L181.061 88.7261L178.022 81.5636L174.97 74.4061L174.07 72.2962L173.353 74.4349L171.536 79.8503L169.857 84.8847L165.475 85.009L160.666 85.1526L155.856 85.3085C154.254 85.3628 152.65 85.4183 151.047 85.481C152.65 85.5431 154.254 85.5991 155.856 85.6535L160.666 85.8093L165.475 85.953L170.284 86.0888L170.681 86.0999L170.84 85.6923L172.914 80.375L174.154 77.1831L176.106 82.3711L178.861 89.6535L181.63 96.9303L184.41 104.202L185.994 108.343L187.163 104.011L189.209 96.4261L191.245 88.8387L193.268 81.248L195.282 73.6545C196.622 68.5913 197.954 63.5269 199.282 58.4604L201.103 51.4742L201.271 52.2074L203.354 61.1936L205.448 70.177L207.553 79.1576L209.669 88.1354L211.796 97.1105L213.934 106.083L216.084 115.052L218.103 123.477L220.132 115.078L222.616 104.794L225.085 94.5054L227.538 84.2131L228.692 79.3306L231.258 85.938L235.878 97.75L237.458 101.792L238.507 97.6208L241.262 86.6629L251.618 86.4438C255.374 86.3601 259.13 86.268 262.886 86.1715C266.642 86.0755 270.399 85.9679 274.155 85.8565C277.91 85.7416 281.667 85.6246 285.423 85.4799C281.667 85.3357 277.91 85.2186 274.155 85.1033C270.399 84.9918 266.642 84.8836 262.886 84.7882V84.7893Z" fill="white" stroke="white" stroke-width="3" stroke-linejoin="round"/>
<path d="M68.0858 172.056C66.3512 165.22 62.0631 161.802 55.2213 161.802C50.0176 161.802 46.0186 163.848 43.224 167.94C40.7667 171.502 39.5381 176.003 39.5381 181.443C39.5381 186.931 40.7667 191.432 43.224 194.947C46.0186 199.039 50.0176 201.085 55.2213 201.085C59.0758 201.085 62.1835 199.761 64.5444 197.113C66.6644 194.706 67.9412 191.529 68.3749 187.581H77.1921C76.8549 193.791 74.6626 198.822 70.6153 202.673C66.5199 206.525 61.3885 208.45 55.2213 208.45C47.7531 208.45 41.7063 205.802 37.0808 200.507C32.6963 195.5 30.504 189.146 30.504 181.443C30.504 173.789 32.6963 167.458 37.0808 162.452C41.7063 157.108 47.7531 154.436 55.2213 154.436C61.1958 154.436 66.1585 155.977 70.1094 159.058C74.2049 162.283 76.5417 166.616 77.1199 172.056H68.0858Z" fill="white"/>
<path d="M107.957 203.756C104.825 206.789 100.513 208.306 95.0203 208.306C91.4549 208.306 88.4676 207.391 86.0585 205.562C83.4567 203.636 82.1558 200.892 82.1558 197.33C82.1558 193.19 83.6976 190.181 86.7812 188.303C88.8049 187.052 92.0812 186.185 96.6103 185.704C97.4776 185.511 98.899 185.295 100.874 185.054C101.693 184.958 102.392 184.861 102.97 184.765C103.597 184.669 104.103 184.572 104.488 184.476C106.704 183.85 107.813 182.502 107.813 180.432C107.813 177.014 105.235 175.305 100.079 175.305C94.924 175.305 92.1535 177.303 91.7681 181.299H83.529C83.8181 176.774 85.6972 173.476 89.1662 171.406C91.9608 169.673 95.7671 168.806 100.585 168.806C104.777 168.806 108.198 169.625 110.848 171.262C114.028 173.235 115.618 176.052 115.618 179.71V180.866C115.425 182.358 114.365 183.947 112.438 185.632C110.8 186.979 109.089 187.99 107.307 188.664C106.343 189.146 105.018 189.555 103.332 189.892C101.694 190.229 99.6458 190.518 97.1885 190.758C92.6594 191.481 90.3949 193.551 90.3949 196.969C90.3949 198.654 91.3103 199.929 93.1412 200.796C94.5867 201.47 96.2249 201.807 98.0558 201.807C100.272 201.807 102.272 201.277 104.054 200.218C106.223 198.87 107.307 197.017 107.307 194.658V193.43C110.824 192.034 113.594 190.47 115.618 188.737V198.991C115.618 199.953 115.738 200.675 115.979 201.157C116.268 201.59 116.798 201.807 117.569 201.807H118.437C118.533 201.807 118.678 201.807 118.87 201.807C119.063 201.759 119.304 201.71 119.593 201.662V207.367C117.858 207.993 116.124 208.306 114.389 208.306C110.679 208.306 108.535 206.789 107.957 203.756Z" fill="white"/>
<path d="M120.653 169.89H126.868V158.697H135.107V169.89H142.551V176.027H135.107V195.958C135.107 197.835 135.3 199.111 135.686 199.785C136.167 200.651 137.3 201.085 139.082 201.085C140.672 201.085 141.829 200.988 142.551 200.796V207.15C140.142 207.439 138.36 207.584 137.203 207.584C133.156 207.584 130.386 206.765 128.892 205.128C127.591 203.781 126.916 201.422 126.868 198.052V176.027H120.653V169.89Z" fill="white"/>
<path d="M173.701 182.382C173.075 177.712 170.232 175.378 165.173 175.378C162.475 175.378 160.235 176.22 158.452 177.905C156.091 180.216 154.911 183.898 154.911 188.953C154.911 192.516 155.657 195.428 157.151 197.691C158.982 200.387 161.536 201.735 164.812 201.735C169.967 201.735 172.931 198.894 173.701 193.214H181.941C180.447 203.227 174.737 208.234 164.812 208.234C159.127 208.234 154.646 206.38 151.369 202.673C148.237 199.159 146.672 194.586 146.672 188.953C146.672 182.984 148.213 178.218 151.297 174.655C154.573 170.804 159.175 168.879 165.101 168.879C169.727 168.879 173.509 169.986 176.448 172.2C179.772 174.607 181.603 178.001 181.941 182.382H173.701Z" fill="white"/>
<path d="M188.638 155.664H196.877V174.8H197.021C199.382 170.852 203.116 168.879 208.224 168.879C212.319 168.879 215.547 169.938 217.908 172.056C220.269 174.27 221.449 177.448 221.449 181.588V207.223H213.21V183.754C212.969 178.17 210.536 175.378 205.911 175.378C203.164 175.378 200.972 176.316 199.334 178.194C197.696 180.023 196.877 182.358 196.877 185.198V207.223H188.638V155.664Z" fill="white"/>
<path d="M246.495 169.89H252.71V158.697H260.949V169.89H268.393V176.027H260.949V195.958C260.949 197.835 261.142 199.111 261.527 199.785C262.009 200.651 263.141 201.085 264.924 201.085C266.514 201.085 267.671 200.988 268.393 200.796V207.15C265.984 207.439 264.201 207.584 263.045 207.584C258.998 207.584 256.227 206.765 254.734 205.128C253.433 203.781 252.758 201.422 252.71 198.052V176.027H246.495V169.89Z" fill="white"/>
<path d="M274.32 155.664H282.559V174.8H282.704C285.065 170.852 288.799 168.879 293.906 168.879C298.002 168.879 301.23 169.938 303.591 172.056C305.952 174.27 307.132 177.448 307.132 181.588V207.223H298.893V183.754C298.652 178.17 296.219 175.378 291.593 175.378C288.847 175.378 286.655 176.316 285.017 178.194C283.378 180.023 282.559 182.358 282.559 185.198V207.223H274.32V155.664Z" fill="white"/>
<path d="M349.21 195.38C348.391 199.424 346.368 202.553 343.14 204.767C340.152 206.982 336.563 208.089 332.371 208.089C326.541 208.089 322.012 206.26 318.784 202.601C315.652 199.039 314.086 194.321 314.086 188.448C314.086 187.485 314.158 186.378 314.303 185.126H322.325V185.198H341.477C341.236 182.406 340.345 180.095 338.803 178.266C336.972 176.292 334.756 175.305 332.154 175.305C328.01 175.305 325.071 177.135 323.337 180.793H315.387C316.688 177.183 318.76 174.318 321.602 172.2C324.59 169.938 328.107 168.806 332.154 168.806C337.84 168.806 342.393 171.045 345.814 175.522C349.138 179.807 350.439 184.813 349.716 190.542H322.325C322.325 193.767 323.144 196.343 324.782 198.268C326.565 200.483 329.095 201.59 332.371 201.59C336.948 201.59 339.96 199.52 341.405 195.38H349.21Z" fill="white"/>
<path d="M376.095 169.89H383.9V175.378L384.045 175.522C386.743 171.093 390.622 168.879 395.681 168.879C399.776 168.879 403.004 169.938 405.365 172.056C407.726 174.27 408.906 177.448 408.906 181.588V207.223H400.667V183.754C400.427 178.17 397.993 175.378 393.368 175.378C390.622 175.378 388.429 176.316 386.791 178.194C385.153 180.023 384.334 182.358 384.334 185.198V207.223H376.095V169.89Z" fill="white"/>
<path d="M450.985 195.38C450.166 199.424 448.142 202.553 444.914 204.767C441.927 206.982 438.337 208.089 434.145 208.089C428.315 208.089 423.786 206.26 420.558 202.601C417.426 199.039 415.86 194.321 415.86 188.448C415.86 187.485 415.933 186.378 416.077 185.126H424.1V185.198H443.252C443.011 182.406 442.12 180.095 440.578 178.266C438.747 176.292 436.53 175.305 433.929 175.305C429.785 175.305 426.846 177.135 425.111 180.793H417.161C418.462 177.183 420.534 174.318 423.377 172.2C426.364 169.938 429.881 168.806 433.929 168.806C439.614 168.806 444.167 171.045 447.588 175.522C450.913 179.807 452.214 184.813 451.491 190.542H424.1C424.1 193.767 424.919 196.343 426.557 198.268C428.34 200.483 430.869 201.59 434.145 201.59C438.723 201.59 441.734 199.52 443.18 195.38H450.985Z" fill="white"/>
<path d="M454.358 169.89H463.103L470.402 197.763H470.547L477.557 169.89H485.868L492.59 197.763H492.734L500.323 169.89H508.707L496.998 207.223H488.542L481.604 179.494H481.46L474.594 207.223H465.921L454.358 169.89Z" fill="white"/>
<path d="M520.221 195.236C520.655 199.568 523.473 201.735 528.677 201.735C534.362 201.735 537.133 200.098 536.988 196.824C536.94 194.995 535.639 193.599 533.086 192.636C532.845 192.54 532.026 192.323 530.628 191.986C529.231 191.649 527.28 191.192 524.774 190.614C521.064 189.844 518.318 188.785 516.535 187.437C514.03 185.656 512.777 183.032 512.777 179.566C512.777 175.859 514.536 173.067 518.053 171.189C520.896 169.649 524.341 168.879 528.388 168.879C532.58 168.879 536.025 169.745 538.723 171.478C541.806 173.404 543.565 176.364 543.999 180.36H535.398C534.724 177.038 532.194 175.378 527.81 175.378C523.281 175.378 521.016 176.653 521.016 179.205C521.016 180.938 522.293 182.286 524.846 183.249C525.666 183.537 528.436 184.187 533.158 185.198C536.82 186.065 539.59 187.124 541.469 188.376C543.975 190.157 545.227 192.732 545.227 196.102C545.227 200.194 543.421 203.323 539.807 205.49C536.723 207.319 532.965 208.234 528.532 208.234C523.666 208.234 519.763 207.174 516.824 205.056C513.644 202.697 512.03 199.424 511.982 195.236H520.221Z" fill="white"/>
<path d="M580.271 174.728C582.776 170.828 586.486 168.879 591.401 168.879C596.99 168.879 601.35 170.804 604.482 174.655C607.373 178.218 608.818 182.888 608.818 188.664C608.818 194.104 607.517 198.629 604.916 202.24C601.976 206.188 597.929 208.161 592.774 208.161C589.208 208.161 586.293 207.535 584.029 206.284V199.496C585.763 200.94 587.859 201.662 590.316 201.662C593.786 201.662 596.435 200.29 598.266 197.546C599.808 195.139 600.579 192.13 600.579 188.52C600.579 185.006 599.712 181.973 597.977 179.421C596.002 176.726 593.448 175.378 590.316 175.378C586.847 175.378 584.221 176.557 582.439 178.916C580.704 181.227 579.837 184.428 579.837 188.52V207.15H571.887V155.664H580.126V174.728H580.271Z" fill="white"/>
<path d="M649.17 195.38C648.351 199.424 646.327 202.553 643.099 204.767C640.112 206.982 636.522 208.089 632.331 208.089C626.501 208.089 621.971 206.26 618.743 202.601C615.612 199.039 614.046 194.321 614.046 188.448C614.046 187.485 614.118 186.378 614.262 185.126H622.285V185.198H641.437C641.196 182.406 640.305 180.095 638.763 178.266C636.932 176.292 634.716 175.305 632.114 175.305C627.97 175.305 625.031 177.135 623.296 180.793H615.346C616.647 177.183 618.719 174.318 621.562 172.2C624.549 169.938 628.066 168.806 632.114 168.806C637.799 168.806 642.352 171.045 645.773 175.522C649.098 179.807 650.399 184.813 649.676 190.542H622.285C622.285 193.767 623.104 196.343 624.742 198.268C626.525 200.483 629.054 201.59 632.331 201.59C636.908 201.59 639.919 199.52 641.365 195.38H649.17Z" fill="white"/>
<path d="M679.645 203.756C676.513 206.789 672.201 208.306 666.708 208.306C663.143 208.306 660.155 207.391 657.746 205.562C655.144 203.636 653.843 200.892 653.843 197.33C653.843 193.19 655.385 190.181 658.469 188.303C660.493 187.052 663.769 186.185 668.298 185.704C669.165 185.511 670.587 185.295 672.562 185.054C673.381 184.958 674.08 184.861 674.658 184.765C675.284 184.669 675.79 184.572 676.176 184.476C678.392 183.85 679.5 182.502 679.5 180.432C679.5 177.014 676.923 175.305 671.767 175.305C666.612 175.305 663.841 177.303 663.456 181.299H655.217C655.506 176.774 657.385 173.476 660.854 171.406C663.648 169.673 667.455 168.806 672.273 168.806C676.465 168.806 679.886 169.625 682.536 171.262C685.716 173.235 687.306 176.052 687.306 179.71V180.866C687.113 182.358 686.053 183.947 684.126 185.632C682.488 186.979 680.777 187.99 678.994 188.664C678.031 189.146 676.706 189.555 675.019 189.892C673.381 190.229 671.333 190.518 668.876 190.758C664.347 191.481 662.083 193.551 662.083 196.969C662.083 198.654 662.998 199.929 664.829 200.796C666.274 201.47 667.913 201.807 669.743 201.807C671.96 201.807 673.959 201.277 675.742 200.218C677.91 198.87 678.994 197.017 678.994 194.658V193.43C682.512 192.034 685.282 190.47 687.306 188.737V198.991C687.306 199.953 687.426 200.675 687.667 201.157C687.956 201.59 688.486 201.807 689.257 201.807H690.124C690.221 201.807 690.365 201.807 690.558 201.807C690.751 201.759 690.992 201.71 691.281 201.662V207.367C689.546 207.993 687.812 208.306 686.077 208.306C682.367 208.306 680.223 206.789 679.645 203.756Z" fill="white"/>
<path d="M692.341 169.89H698.556V158.697H706.795V169.89H714.239V176.027H706.795V195.958C706.795 197.835 706.988 199.111 707.373 199.785C707.855 200.651 708.987 201.085 710.77 201.085C712.36 201.085 713.516 200.988 714.239 200.796V207.15C711.83 207.439 710.047 207.584 708.891 207.584C704.844 207.584 702.073 206.765 700.58 205.128C699.279 203.781 698.604 201.422 698.556 198.052V176.027H692.341V169.89Z" fill="white"/>
<path d="M78.2276 55.3263H150.697V130.27H68.1521C47.2968 130.27 30.6819 113.48 30.6819 92.8001V47.7286C30.6819 26.8697 47.2968 10.0796 68.1521 10.0796H139.914L150.697 40.1273H41.6405L63.3825 44.3677C61.6163 46.4879 60.5544 49.316 60.5544 52.3229V88.0269C60.5544 94.9203 66.0354 100.398 72.7501 100.398H120.825V85.1988H89.011L78.2276 55.3263Z" fill="white"/>
<path d="M400.445 80.6044C401.683 84.4944 402.391 88.5596 402.391 92.8001C402.391 113.48 385.6 130.27 364.92 130.27H282.2V55.3263H364.92C369.161 55.3263 372.522 51.969 372.522 47.725C372.522 43.481 369.164 40.1237 364.92 40.1237H282.2L271.595 10.0796H364.92C375.35 10.0796 384.717 14.32 391.432 21.2134C398.325 27.9316 402.391 37.2991 402.391 47.725C402.391 56.2094 399.562 63.9859 394.968 70.1713C397.267 73.3535 399.208 76.8895 400.445 80.6008V80.6044ZM364.92 100.401C369.161 100.401 372.522 97.0441 372.522 92.8001C372.522 88.5561 369.164 85.1988 364.92 85.1988H286.973L312.248 89.264V100.398H364.92V100.401Z" fill="white"/>
<path d="M538.488 40.1273H418.298L407.693 10.0796H527.709L538.492 40.1273H538.488ZM455.947 130.27C435.091 130.27 418.298 113.48 418.298 92.8001V55.3263H516.925L527.709 85.1988H423.071L448.345 89.264C448.875 95.4494 454.177 100.398 460.541 100.398H538.488V130.27H455.947Z" fill="white"/>
<path d="M664.161 130.27H630.756L604.066 77.0683L577.2 130.27H543.795L587.276 43.6633L598.588 21.0382L584.977 39.0654L570.482 10.0796H603.887L604.062 10.2548L620.677 43.6597L664.157 130.267L664.161 130.27Z" fill="white"/>
<path d="M688.026 40.1273L713.126 44.1925V130.27H683.253V40.1273H648.965L638.182 10.0796H747.589L758.372 40.1273H688.026Z" fill="white"/>
</g>
<defs>
<filter id="filter0_d_367_299" x="0.504028" y="0.0795898" width="787.868" height="258.371" filterUnits="userSpaceOnUse" color-interpolation-filters="sRGB">
<feFlood flood-opacity="0" result="BackgroundImageFix"/>
<feColorMatrix in="SourceAlpha" type="matrix" values="0 0 0 0 0 0 0 0 0 0 0 0 0 0 0 0 0 0 127 0" result="hardAlpha"/>
<feOffset dy="20"/>
<feGaussianBlur stdDeviation="15"/>
<feComposite in2="hardAlpha" operator="out"/>
<feColorMatrix type="matrix" values="0 0 0 0 0 0 0 0 0 0.370033 0 0 0 0 0.620833 0 0 0 0.4 0"/>
<feBlend mode="normal" in2="BackgroundImageFix" result="effect1_dropShadow_367_299"/>
<feBlend mode="normal" in="SourceGraphic" in2="effect1_dropShadow_367_299" result="shape"/>
</filter>
</defs>
</svg>
