<svg width="401" height="24" viewBox="0 0 401 24" fill="none" xmlns="http://www.w3.org/2000/svg">
<path d="M120.323 8.68667C118.733 5.96126 120.585 2.37745 123.744 1.93752C124.136 1.88387 124.539 1.85168 124.942 1.85168C135.161 1.85168 145.379 1.85168 155.598 1.85168C155.903 1.85168 156.219 1.85168 156.524 1.85168C156.546 1.91606 156.578 1.98044 156.6 2.04482C147.558 8.56864 138.516 15.0925 129.3 21.7343C132.895 20.4574 136.479 21.0798 139.943 20.5755C142.482 20.2106 145.031 19.9639 147.493 19.2128C150.489 18.29 153.125 16.8093 155.227 14.2233C155.859 16.4122 156.404 18.4617 155.445 20.5325C154.715 22.0884 153.386 22.9468 151.632 23.1399C151.24 23.1828 150.837 23.1721 150.434 23.1721C138.985 23.1721 127.546 23.1721 116.097 23.1721C115.726 23.1721 115.367 23.1721 114.996 23.1721C114.964 23.1077 114.942 23.0434 114.909 22.979C123.951 16.4552 132.982 9.94208 142.155 3.32169C138.429 4.54491 134.682 3.85819 131.054 4.44834C129.398 4.71658 127.72 4.83461 126.086 5.27454C123.842 5.88615 121.914 7.00207 120.323 8.68667Z" fill="white"/>
<path d="M177.473 19.3951C175.828 21.6699 173.66 22.7536 171.154 23.2257C169.085 23.6227 167.015 23.6013 165.065 22.6141C162.57 21.3373 161.96 18.923 163.659 16.7341C165.402 14.4808 167.886 13.5044 170.675 13.204C172.189 13.0323 173.693 13.1181 175.131 13.6975C176.503 14.2555 177.604 15.0817 177.974 16.5839C178.028 16.8199 178.039 17.2277 178.039 17.2277C178.039 17.2277 177.756 17.2277 177.484 17.2277C176.34 17.2277 175.207 17.217 174.063 17.217C173.802 17.217 173.584 17.2062 173.399 16.9702C172.059 15.3178 168.355 16.0259 167.287 17.8715C166.742 18.8157 167.102 19.7814 168.213 20.2428C169.673 20.8437 171.078 20.5647 172.375 19.7814C172.843 19.5024 173.279 19.3844 173.802 19.3951C174.967 19.4059 176.133 19.3951 177.473 19.3951Z" fill="white"/>
<path d="M159.258 23.4189C158.07 23.4189 157.221 22.582 157.232 21.4338C157.242 20.2965 158.136 19.4595 159.312 19.481C160.423 19.4917 161.317 20.3716 161.328 21.4446C161.328 22.5283 160.402 23.4189 159.258 23.4189Z" fill="white"/>
<path d="M191.069 14.0087C189.837 13.3434 188.498 13.1288 186.874 13.1395C186.722 13.1503 186.319 13.1395 185.916 13.1932C183.138 13.5365 180.643 14.4808 178.9 16.7341C177.201 18.9337 177.822 21.3587 180.316 22.6141C182.266 23.6013 184.336 23.612 186.406 23.2257C188.781 22.775 190.916 21.7986 192.387 19.8136C194.021 17.6247 193.465 15.3177 191.069 14.0087ZM187.256 19.996C186.036 20.5754 184.761 20.79 183.465 20.2213C182.157 19.6526 181.896 18.4938 182.844 17.4423C183.748 16.4444 184.946 16.0688 185.959 16.0259C187.681 16.0259 188.737 16.6268 188.944 17.5496C189.14 18.4401 188.487 19.4058 187.256 19.996Z" fill="white"/>
<path d="M210.372 13.5366C208.488 12.8713 206.625 13.0752 204.773 13.719C204.446 13.837 204.163 13.9658 203.803 13.7941C201.418 12.6675 199.086 13.0537 196.809 14.0838C195.568 14.6418 194.533 15.5109 194.13 16.8629C193.552 18.7835 192.332 23.1828 192.332 23.1828H196.581C196.581 23.1828 197.724 19.0947 198.215 17.4101C198.487 16.4444 199.162 15.983 200.176 16.0474C201.025 16.101 201.33 16.498 201.102 17.3135C200.622 19.0625 199.435 23.1828 199.435 23.1828H203.694C203.694 23.1828 204.849 19.1162 205.35 17.3672C205.612 16.4659 206.2 16.0367 207.159 16.0474C208.117 16.0581 208.466 16.4873 208.215 17.3672C207.758 19.0089 206.538 23.1828 206.538 23.1828H210.819C210.819 23.1828 211.974 19.0518 212.442 17.3886C212.976 15.4358 212.333 14.2233 210.372 13.5366Z" fill="white"/>
<path d="M117.011 13.8906H111.434L112.185 11.7017H117.763L117.011 13.8906Z" fill="white"/>
<path d="M54.5677 21.7025H56.0384C56.1146 21.7025 56.2127 21.6488 56.2454 21.5844L62.3677 11.7129L65.6904 23.0115C65.7122 23.0759 65.7884 23.1403 65.8647 23.1403H72.2921C72.3684 23.1403 72.4119 23.0867 72.3901 23.0115L65.6141 1.87351C65.5924 1.80913 65.5161 1.74475 65.4398 1.74475H63.0214C62.9451 1.74475 62.8471 1.79845 62.8144 1.86283L54.5568 14.4705L46.2992 1.86283C46.2557 1.79845 46.1685 1.74475 46.0923 1.74475H43.6738C43.5976 1.74475 43.5214 1.80913 43.4996 1.87351L36.7126 23.0115C36.6908 23.0759 36.7345 23.1403 36.8107 23.1403H43.2381C43.3143 23.1403 43.3906 23.0867 43.4124 23.0115L46.7459 11.7129L52.8683 21.5844C52.901 21.6488 52.999 21.7025 53.0753 21.7025H54.5677Z" fill="white"/>
<path d="M37.0175 11.1764C37.0066 11.112 36.9521 11.0691 36.8867 11.0691H18.5741C17.6046 11.0691 16.8202 11.8416 16.8202 12.7966C16.8202 13.7516 17.6046 14.5242 18.5741 14.5242H29.4571C28.1607 17.8934 23.7814 20.3827 18.5741 20.3827C12.3428 20.3827 7.29892 16.8311 7.29892 12.4533C7.29892 8.07547 12.3428 4.52384 18.5741 4.52384C21.973 4.52384 25.0233 5.58609 27.0931 7.25997C27.0931 7.2707 27.104 7.27071 27.1149 7.27071C27.1367 7.29217 27.1694 7.30286 27.1912 7.30286H34.6753C34.7515 7.30286 34.806 7.23848 34.806 7.16337C34.806 7.13118 34.7951 7.09903 34.7733 7.07757L34.7624 7.06683C31.5814 3.72982 25.5244 1.46576 18.5741 1.46576C8.32298 1.46576 0 6.39087 0 12.4533C0 18.5157 8.31209 23.4408 18.5741 23.4408C28.8362 23.4408 37.1482 18.5157 37.1482 12.4533C37.1373 12.0134 37.0937 11.5949 37.0175 11.1764Z" fill="white"/>
<path d="M90.5614 20.372C84.3301 20.372 79.2862 16.8204 79.2862 12.4426C79.2862 8.06473 84.3301 4.5131 90.5614 4.5131C96.7818 4.5131 101.837 8.06473 101.837 12.4426C101.826 16.8311 96.7818 20.372 90.5614 20.372ZM90.5614 1.46576C80.2993 1.46576 71.9873 6.39087 71.9873 12.4533C71.9873 18.5157 80.2993 23.4408 90.5614 23.4408C100.813 23.4408 109.135 18.5157 109.135 12.4533C109.125 6.38014 100.813 1.46576 90.5614 1.46576Z" fill="white"/>
<path d="M235.516 15.8543C235.494 14.4272 234.775 13.4186 233.413 12.9035C232.803 12.6782 232.171 12.5172 231.507 12.3026C233.686 11.6374 234.688 10.8219 234.96 9.30899C235.418 6.74453 234.742 4.30883 232.084 2.78517C230.156 1.69071 228.043 1.48685 225.886 1.63706C221.038 1.96969 218.314 4.81313 218.249 9.4914C218.194 13.1503 218.216 23.1936 218.216 23.1936H224.578C224.578 23.1936 224.567 12.9679 224.567 9.25534C224.567 8.33256 224.851 7.54927 225.58 6.95913C226.278 6.4119 227.051 6.42263 227.825 6.78745C228.544 7.12008 228.903 7.71022 228.838 8.48278C228.772 9.29826 228.239 9.78111 227.476 10.0279C227.182 10.1245 226.866 10.221 226.561 10.1996C225.787 10.1567 225.613 10.5215 225.668 11.2082C225.733 11.9807 225.679 12.7748 225.679 13.5581C225.679 14.9315 225.679 14.9315 227.018 15.071C227.215 15.0924 227.411 15.1354 227.607 15.1783C228.968 15.4465 229.339 15.8865 229.339 17.217C229.339 18.2685 229.35 19.32 229.35 20.3716V23.2043H235.538V20.3716C235.527 18.8587 235.538 17.3565 235.516 15.8543Z" fill="white"/>
<path d="M257.096 1.57269H252.444C252.292 1.57269 252.139 1.57269 251.976 1.57269C251.954 1.57269 251.943 1.57269 251.921 1.57269H250.952C250.952 1.57269 250.941 13.0001 250.952 15.6289C250.952 16.2727 250.843 16.8736 250.342 17.3028C249.35 18.1505 248.196 18.3007 246.986 17.8608C245.777 17.4208 245.363 16.7234 245.363 15.307C245.363 12.8177 245.352 10.3176 245.341 7.81753V1.57269H239.241V2.06627C239.241 2.11992 239.23 2.17357 239.241 2.23795C239.241 2.40963 239.241 2.59204 239.241 2.76372V12.2597C239.23 13.5044 239.23 14.7384 239.295 15.983C239.437 18.7084 240.788 20.8008 243.271 22.1206C245.287 23.1936 247.466 23.2794 249.677 23.0755C253.828 22.6893 257.02 19.5561 257.096 15.7041C257.107 13.4937 257.096 1.57269 257.096 1.57269Z" fill="white"/>
<path d="M280.028 1.42247H273.96L273.971 13.6117C273.786 13.2898 269.875 7.07716 268.089 4.12642C267.489 3.13926 266.847 2.1843 265.834 1.5405C265.234 1.16495 264.613 0.939621 263.982 0.928891C263.48 0.918161 262.968 1.02546 262.456 1.27225C262.446 1.27225 262.435 1.28298 262.424 1.28298C261.389 1.76583 260.681 2.69934 260.67 3.79379C260.67 3.91182 260.67 4.02985 260.67 4.15861C260.67 4.41613 260.67 4.68438 260.67 4.9419C260.648 10.5322 260.659 22.6785 260.659 22.6785H266.727C266.727 22.6785 266.716 14.9208 266.716 11.4013V10.4893C267.108 11.1224 270.714 17.0775 272.599 19.9746C273.274 21.0047 273.939 21.906 274.854 22.5605C275.431 22.9682 276.063 23.1506 276.695 23.1721C277.207 23.1936 277.719 23.0863 278.231 22.8287C278.242 22.8287 278.253 22.818 278.263 22.818C279.298 22.3352 280.007 21.4017 280.017 20.3072C280.007 20.1892 280.028 1.42247 280.028 1.42247Z" fill="white"/>
<path d="M297.087 13.6976C296.172 12.6031 295.028 11.7662 293.808 11.0365C292.621 10.3176 291.39 9.67383 290.202 8.95492C289.701 8.65448 289.113 8.2682 289.309 7.58149C289.516 6.87331 290.213 6.93769 290.813 6.9055C291.041 6.89477 296.826 6.89477 296.826 6.89477V1.90533H290.9C289.985 1.91606 289.08 1.96971 288.176 2.14139C285.692 2.60278 283.764 3.84746 283.111 6.40119C282.468 8.912 283.503 10.8112 285.551 12.2705C286.629 13.043 287.74 13.7727 288.852 14.5238C289.625 15.0495 290.409 15.5538 291.183 16.0903C291.575 16.3693 291.815 16.7449 291.728 17.2385C291.64 17.7213 291.216 17.8823 290.813 18.0217C290.355 18.1827 289.876 18.2256 289.385 18.2149C287.555 18.2042 283.143 18.2149 283.143 18.2149V23.1829L289.069 23.1721C289.342 23.1721 289.625 23.1721 289.897 23.1721C291.586 23.1507 293.264 23.0326 294.843 22.3888C298.449 20.9081 299.56 16.6805 297.087 13.6976Z" fill="white"/>
<path d="M335.336 13.6976C334.421 12.6031 333.277 11.7662 332.057 11.0365C330.87 10.3176 329.639 9.67383 328.451 8.95492C327.95 8.65448 327.362 8.2682 327.558 7.58149C327.765 6.87331 328.462 6.93769 329.062 6.9055C329.29 6.89477 335.075 6.89477 335.075 6.89477V1.90533H329.149C328.234 1.91606 327.329 1.96971 326.425 2.14139C323.941 2.60278 322.013 3.84746 321.36 6.40119C320.717 8.912 321.752 10.8112 323.8 12.2705C324.878 13.043 325.989 13.7727 327.101 14.5238C327.874 15.0495 328.658 15.5538 329.432 16.0903C329.824 16.3693 330.064 16.7449 329.977 17.2385C329.889 17.7213 329.465 17.8823 329.062 18.0217C328.604 18.1827 328.125 18.2256 327.634 18.2149C325.804 18.2042 321.392 18.2149 321.392 18.2149V23.1829L327.319 23.1721C327.591 23.1721 327.874 23.1721 328.146 23.1721C329.835 23.1507 331.513 23.0326 333.092 22.3888C336.698 20.9081 337.809 16.6805 335.336 13.6976Z" fill="white"/>
<path d="M317.776 6.50853C317.776 5.22093 317.776 3.89041 317.765 2.59209V1.93756H311.729V4.22304C311.729 4.30888 311.729 4.39472 311.729 4.48056C311.729 5.7467 311.729 7.01283 311.719 8.26824C311.719 8.74036 311.675 9.21248 311.599 9.68459C311.446 10.6074 310.923 11.058 309.986 11.101C308.984 11.1546 308.396 10.7576 308.156 9.83481C308.058 9.45927 308.025 9.06226 308.015 8.67598C308.004 7.23816 308.015 2.00194 308.015 2.00194H301.881C301.881 2.00194 301.87 7.90342 301.849 9.5451C301.849 12.4529 303.396 14.5453 306.239 15.4573C306.805 15.6397 306.958 15.908 306.947 16.4659C306.925 17.9037 306.925 23.2473 306.925 23.2473H313.058C313.058 23.2473 313.069 17.893 313.037 16.4445C313.026 15.8758 313.211 15.629 313.745 15.4144C316.436 14.3414 317.765 12.3564 317.776 9.50219C317.776 8.51503 317.776 7.50641 317.776 6.50853Z" fill="white"/>
<path d="M353.017 1.9375H348.605H342.297H337.929V7.14153H342.297V23.1828H348.605V7.14153H353.017V1.9375Z" fill="white"/>
<path d="M365.065 7.12002C366.274 6.9698 372.048 6.95907 372.048 6.95907V1.94818C372.048 1.94818 366.307 1.94818 365.076 1.94818C359.357 1.94818 355.065 5.96119 354.422 11.8949C353.877 16.895 357.701 21.9059 362.908 22.9038C364.608 23.2364 366.329 23.2364 368.05 23.1935H372.048V18.2041H369.891C368.355 18.1933 366.819 18.1719 365.283 18.0539C363.224 17.8929 361.481 16.5839 361.132 14.8885H372.037V10.2532C372.037 10.2532 364.444 10.2424 361.045 10.2424C361.862 8.39689 363.126 7.35608 365.065 7.12002Z" fill="white"/>
<path d="M399.425 13.5902C399.087 10.6502 398.793 7.71021 398.39 4.7702C398.107 2.68858 397.072 1.60486 395.231 1.31515C394.272 1.16493 393.303 1.17566 392.344 1.43318C391.015 1.798 390.089 2.55983 389.653 3.87961C389.294 4.97407 389.185 6.12217 388.978 7.23809C388.498 9.86693 388.041 12.485 387.54 15.3392C387.442 14.9744 387.409 14.8456 387.376 14.7169C386.777 11.5086 386.2 8.30036 385.59 5.0921C385.034 2.15209 383.814 1.19712 380.785 1.25077C378.247 1.29369 376.983 2.3345 376.646 4.79166C376.341 6.94838 376.112 9.11583 375.861 11.2726C375.437 14.8778 374.521 22.7751 374.521 22.7751H380.404C380.404 22.7751 381.036 11.6696 381.341 6.50845C381.439 6.7767 383.563 16.1332 384.522 20.672C384.707 21.5411 385.089 22.2493 385.873 22.7107C387.845 23.8803 389.991 22.8716 390.503 20.5003C391.037 18.0217 391.549 15.5324 392.072 13.043C392.54 10.8219 393.019 8.59006 393.499 6.36896C393.662 7.46342 394.675 22.7643 394.675 22.7643H400.482C400.482 22.7751 399.741 16.3907 399.425 13.5902Z" fill="white"/>
</svg>
