<svg width="155" height="116" viewBox="0 0 155 116" fill="none" xmlns="http://www.w3.org/2000/svg">
<path d="M57.8933 5.45528C56.4301 5.96787 54.9669 6.48045 53.5037 6.99303C53.4365 7.04238 53.3779 7.10281 53.305 7.14245C45.814 11.2357 42.1434 18.3698 43.2316 26.822C43.3285 27.5742 43.0797 27.8421 42.4289 28.0678C37.3317 29.8299 32.2433 31.6101 27.1622 33.4183C26.4655 33.667 26.0664 33.5393 25.6315 32.9477C22.9559 29.3228 20.2305 25.7365 17.5591 22.1102C16.9182 21.2387 16.1748 20.6238 15.0989 20.4468C10.6048 22.0212 6.11073 23.5955 1.61662 25.1699C0.544365 26.5171 0.400545 27.654 1.1668 28.7092C1.96734 29.8087 3.00251 30.0304 4.65248 29.4547C7.52525 28.4507 10.4017 27.4571 13.265 26.4259C13.8551 26.2145 14.229 26.2971 14.608 26.8097C16.5763 29.4808 18.5634 32.1383 20.5649 34.7836C20.9903 35.3481 20.9039 35.6106 20.2349 35.838C18.0334 36.581 15.8467 37.3729 13.6503 38.1306C13.0197 38.3468 12.5243 38.7081 12.1778 39.273C11.5427 40.3075 11.8528 41.3065 12.3285 42.2758C14.0221 45.7236 15.7352 49.16 17.4386 52.6022C19.3371 56.4406 21.2321 60.2826 23.1265 64.1225C25.2426 68.4081 27.3574 72.6964 29.4736 76.9819C31.6013 81.2939 33.7284 85.6038 35.8617 89.9115C36.8553 91.9173 37.7497 93.9813 38.8912 95.9C40.5883 98.7482 43.2465 99.8447 46.5099 99.5604C55.4981 96.4117 64.4863 93.263 73.4745 90.1143C73.584 90.0314 73.6919 89.9443 73.8041 89.8627C76.531 87.8795 77.6551 85.2399 77.0223 81.9061C76.7649 80.5483 76.4398 79.2048 76.1454 77.8553C74.9379 72.2916 73.7395 66.7271 72.523 61.1642C71.2137 55.1691 69.8835 49.1814 68.5763 43.1856C68.2623 41.7467 68.2854 41.7457 69.6249 41.1614C69.904 41.0402 70.1649 40.8807 70.436 40.7435C77.2973 37.251 81.4125 29.7851 80.6624 22.1908C79.8957 14.4286 74.5407 7.98512 67.0969 5.82878C64.0526 4.94975 60.9869 4.92071 57.8933 5.45528ZM52.6286 91.8714C52.6322 91.9288 52.6387 91.9876 52.6424 92.0449C50.479 92.8028 48.3338 93.613 46.1476 94.2991C44.8132 94.7172 43.8104 94.226 43.1855 92.9782C41.146 88.8981 39.1393 84.8043 37.1158 80.7162C33.1917 72.7905 29.2669 64.8627 25.3331 56.9427C25.0353 56.3407 25.1828 56.0449 25.803 55.8323C28.343 54.9637 30.8764 54.0762 33.4025 53.1678C33.9508 52.971 34.2664 53.135 34.5918 53.5749C37.1456 57.0195 39.7063 60.457 42.2954 63.8752C42.7286 64.4486 42.7332 64.7567 42.0944 65.1706C40.3119 66.3325 38.5624 67.5485 36.8171 68.77C35.5224 69.6765 35.1723 71.1556 36.0023 72.3996C37.8445 75.1595 39.7096 77.9043 41.6107 80.6248C42.5094 81.9105 43.9391 82.1465 45.27 81.3165C45.9271 80.908 46.552 80.4474 47.1933 80.0138C48.0739 79.419 48.9559 78.8284 49.8559 78.2222C50.0383 78.6088 49.8987 78.8736 49.8502 79.1371C49.2912 82.1303 48.7069 85.1183 48.1668 88.1119C47.8471 89.8855 48.6791 91.0748 50.4367 91.4495C51.1647 91.6051 51.8994 91.7326 52.6286 91.8714ZM44.5703 32.72C49.3215 31.0555 54.0792 29.4029 58.8216 27.7134C59.5684 27.4471 59.895 27.6424 60.0527 28.3805C60.6544 31.19 61.2623 33.9974 61.8969 36.8001C62.0605 37.5219 61.8039 37.8277 61.1238 38.0636C53.0501 40.8685 44.9816 43.695 36.9225 46.5417C36.2523 46.7788 35.8623 46.6503 35.4524 46.0898C33.6712 43.6583 31.8534 41.256 30.0514 38.8387C29.4451 38.0256 29.4484 38.015 30.3932 37.684C35.118 36.0312 39.8441 34.3756 44.5703 32.72ZM51.0245 67.5502C51.6186 67.6518 51.9409 67.7009 52.2647 67.7611C55.31 68.3347 58.3554 68.9153 61.4006 69.4819C63.3962 69.8529 64.5268 69.0673 64.9082 67.068C65.3836 64.5664 65.8541 62.0641 66.3303 59.5646C66.3808 59.2935 66.446 59.0242 66.5043 58.755C66.8729 59.6397 67.0506 60.5021 67.2388 61.3608C68.7863 68.4646 70.3393 75.5641 71.8826 82.6693C72.2426 84.3198 71.6979 85.3508 70.1215 85.9288C68.1982 86.6354 66.2515 87.2751 64.3296 87.9789C63.6163 88.2405 63.5974 87.9655 63.7133 87.3852C64.0758 85.5661 64.4137 83.744 64.746 81.9191C65.1364 79.7711 64.378 78.678 62.2199 78.2653C59.2567 77.6981 56.2916 77.1457 53.3297 76.5758C53.1056 76.5322 52.8334 76.5994 52.6554 76.3591C52.7194 76.2873 52.7645 76.2152 52.8283 76.1694C54.9484 74.5912 55.1113 73.6025 53.6157 71.383C52.7988 70.1766 51.9812 68.9681 51.0245 67.5502ZM48.5315 63.2207C48.4603 63.2385 48.3863 63.2551 48.3152 63.273C47.6553 62.3941 46.9912 61.5167 46.3334 60.6371C44.1647 57.7358 41.9947 54.8373 39.8295 51.9325C39.2753 51.1879 39.3002 51.1182 40.1738 50.8051C40.7994 50.5812 41.4272 50.3636 42.0522 50.1447C48.7621 47.7941 55.474 45.4428 62.1845 43.0944C63.1481 42.7568 63.1844 42.7934 63.3938 43.7597C63.9997 46.5678 64.6168 49.3743 65.2387 52.1814C65.4396 53.0897 65.395 53.1499 64.4705 52.9762C60.9637 52.3179 57.4582 51.6497 53.9501 50.9942C51.986 50.6262 50.7863 51.4289 50.4083 53.3778C49.9044 55.9856 49.4222 58.5952 48.9289 61.2064C48.8004 61.878 48.6649 62.5497 48.5315 63.2207ZM74.7388 19.4432C75.6145 21.7555 75.7241 24.1249 75.307 26.5451C75.1794 27.2797 74.9239 27.381 74.2654 27.0555C71.5637 25.7208 68.8463 24.4151 66.1196 23.1362C65.4938 22.8438 65.3976 22.549 65.7006 21.9336C67.0353 19.2319 68.3417 16.5166 69.6199 13.7877C69.9326 13.1196 70.1984 13.0476 70.7537 13.5407C72.5899 15.1715 73.9808 17.0921 74.7388 19.4432ZM57.1379 11.1035C59.6707 10.2608 62.0375 10.07 64.4588 10.5172C65.0832 10.6317 65.3309 10.7961 64.9939 11.4821C63.6341 14.2325 62.3117 17.0026 61.0019 19.7754C60.742 20.3264 60.4746 20.4272 59.9184 20.1526C57.1399 18.7862 54.3491 17.4452 51.5496 16.1261C50.9788 15.8567 50.9538 15.6378 51.3467 15.1716C52.969 13.2375 55.0033 11.91 57.1379 11.1035ZM26.8346 50.0616C25.7372 50.446 24.6295 50.8012 23.5502 51.2239C22.9354 51.4651 22.5571 51.323 22.2772 50.7452C20.9843 48.0862 19.6901 45.4301 18.3715 42.7849C18.1013 42.2412 18.1313 41.9585 18.7628 41.7513C20.3924 41.218 22.0072 40.6359 23.6207 40.0566C24.0665 39.8957 24.3999 39.9361 24.7045 40.3434C26.6174 42.9166 28.5434 45.4804 30.4695 48.0443C30.7855 48.464 30.7297 48.7135 30.2063 48.8874C29.0744 49.2605 27.9564 49.6663 26.8346 50.0616ZM59.9665 63.8943C59.8957 63.8933 59.8104 63.9044 59.7304 63.8902C57.9398 63.5553 56.1484 63.2183 54.3598 62.8757C53.9446 62.7958 53.9534 62.4994 54.015 62.1727C54.3341 60.4909 54.6559 58.8105 54.9623 57.1261C55.0393 56.7026 55.2028 56.4927 55.6848 56.5891C57.39 56.9281 59.1011 57.2439 60.8102 57.5604C61.2092 57.6342 61.3859 57.8305 61.3047 58.2485C60.9734 59.9557 60.6548 61.6655 60.3263 63.374C60.2869 63.5897 60.2363 63.8139 59.9665 63.8943ZM66.9986 35.9821C66.4807 33.5727 66.022 31.4124 65.55 29.2544C65.4544 28.8209 65.4689 28.5741 66.0023 28.8307C68.0953 29.8412 70.1875 30.8496 72.2838 31.8495C72.6952 32.0457 72.7351 32.2735 72.4523 32.6119C71.1969 34.1195 69.7114 35.3322 67.9461 36.2017C67.3997 36.4706 67.0346 36.4201 66.9986 35.9821ZM44.8819 75.325C44.5477 75.55 44.3223 75.4225 44.1195 75.125C43.4525 74.1454 42.7765 73.1736 42.1039 72.1983C41.8604 71.8447 41.8771 71.5643 42.2759 71.3026C43.2441 70.67 44.1944 70.0062 45.1476 69.3508C45.5143 69.098 45.8234 69.1563 46.0691 69.5161C46.7375 70.4929 47.3956 71.4804 48.0681 72.4557C48.2787 72.7621 48.2686 73.0145 47.9545 73.2301C46.932 73.9286 45.9066 74.6257 44.8819 75.325ZM58.1593 87.5754C58.0942 87.5771 58.0111 87.5945 57.931 87.5803C56.6561 87.344 55.3832 87.107 54.111 86.865C53.7387 86.7936 53.7366 86.5198 53.7923 86.2233C54.0135 85.0593 54.2396 83.8959 54.4481 82.7292C54.5268 82.2839 54.7499 82.1236 55.1981 82.2107C56.3602 82.4396 57.5263 82.66 58.693 82.8685C59.101 82.9414 59.2558 83.1219 59.1677 83.5471C58.9318 84.7092 58.7233 85.8759 58.5 87.0407C58.4605 87.2493 58.4367 87.4829 58.1593 87.5754ZM54.9292 23.3015C54.8858 23.4387 54.8444 23.5753 54.801 23.7125C52.8528 24.395 50.9062 25.0816 48.9558 25.7578C48.5036 25.9139 48.2806 25.7127 48.2372 25.2539C48.1069 23.8703 48.1953 22.5017 48.4569 21.1381C48.5652 20.5697 48.8532 20.5745 49.2858 20.7843C50.6245 21.4371 51.9618 22.0928 53.3155 22.7145C53.8333 22.9532 54.3897 23.1079 54.9292 23.3015Z" fill="#1F49B8" stroke="#1F49B8"/>
<path d="M102.975 26.6655C104.265 27.1191 105.554 27.5728 106.844 28.0265C106.903 28.0701 106.955 28.1234 107.019 28.1585C113.62 31.7766 116.849 38.0718 115.88 45.5239C115.793 46.1871 116.012 46.4236 116.586 46.6233C121.079 48.1831 125.564 49.7587 130.043 51.359C130.657 51.5791 131.009 51.467 131.393 50.9458C133.756 47.7523 136.164 44.5929 138.524 41.3982C139.09 40.6304 139.746 40.089 140.695 39.9342C144.656 41.3276 148.617 42.7211 152.579 44.1145C153.523 45.3037 153.648 46.3065 152.971 47.2361C152.264 48.2047 151.351 48.3991 149.897 47.8896C147.365 47.0009 144.829 46.1214 142.305 45.2088C141.785 45.0217 141.456 45.0941 141.121 45.5457C139.382 47.8989 137.627 50.2401 135.859 52.5705C135.483 53.0678 135.559 53.2994 136.148 53.5006C138.089 54.1584 140.016 54.8592 141.952 55.5298C142.508 55.7212 142.945 56.0404 143.25 56.539C143.808 57.4519 143.534 58.3325 143.113 59.1867C141.616 62.2252 140.101 65.2535 138.595 68.2869C136.917 71.6696 135.241 75.0554 133.566 78.4394C131.695 82.216 129.826 85.9952 127.955 89.7719C126.073 93.5719 124.193 97.37 122.307 101.166C121.428 102.934 120.637 104.753 119.628 106.444C118.128 108.953 115.783 109.917 112.906 109.663C104.983 106.876 97.0609 104.089 89.1385 101.302C89.0421 101.229 88.947 101.152 88.8481 101.08C86.4457 99.3279 85.4575 96.9989 86.0193 94.0599C86.2479 92.8628 86.5361 91.6785 86.7973 90.4888C87.8684 85.5839 88.9315 80.6783 90.0106 75.7743C91.172 70.4892 92.3519 65.2105 93.5114 59.9248C93.7899 58.6563 93.7696 58.6554 92.589 58.1386C92.3431 58.0314 92.1132 57.8905 91.8742 57.7692C85.8278 54.6815 82.2074 48.0933 82.8776 41.3972C83.5625 34.5532 88.292 28.8773 94.8586 26.9843C97.5442 26.2126 100.248 26.1905 102.975 26.6655ZM107.519 102.875C107.516 102.926 107.51 102.978 107.507 103.028C109.413 103.699 111.304 104.416 113.231 105.024C114.407 105.394 115.292 104.962 115.845 103.862C117.648 100.267 119.422 96.6588 121.211 93.0562C124.681 86.0715 128.151 79.0851 131.629 72.1055C131.892 71.5749 131.762 71.314 131.216 71.1258C128.977 70.3569 126.744 69.5714 124.517 68.7675C124.034 68.5933 123.755 68.7376 123.468 69.1251C121.212 72.1597 118.95 75.1881 116.663 78.1994C116.28 78.7045 116.276 78.9762 116.839 79.3419C118.409 80.3685 119.951 81.4428 121.488 82.522C122.629 83.3229 122.936 84.6276 122.203 85.7236C120.575 88.1553 118.927 90.5736 117.248 92.9704C116.454 94.1031 115.193 94.3096 114.02 93.5762C113.441 93.2152 112.891 92.8083 112.325 92.4253C111.55 91.8997 110.773 91.3779 109.98 90.8423C109.818 91.1831 109.941 91.4167 109.984 91.6491C110.473 94.2892 110.985 96.9247 111.458 99.5652C111.738 101.13 111.003 102.177 109.452 102.506C108.81 102.642 108.162 102.754 107.519 102.875ZM114.693 50.7233C110.505 49.2502 106.311 47.7874 102.131 46.2922C101.473 46.0565 101.185 46.2284 101.045 46.879C100.511 49.3558 99.9716 51.8307 99.4088 54.3015C99.2637 54.9378 99.4896 55.2078 100.089 55.4166C107.205 57.8992 114.317 60.4009 121.421 62.9204C122.011 63.1303 122.356 63.0174 122.718 62.5236C124.291 60.3814 125.897 58.2651 127.489 56.1356C128.024 55.4192 128.021 55.4099 127.189 55.117C123.024 53.6541 118.858 52.1887 114.693 50.7233ZM108.961 81.4301C108.437 81.5191 108.153 81.562 107.867 81.6147C105.181 82.117 102.495 82.6256 99.8092 83.1217C98.0489 83.4466 97.0529 82.7526 96.7187 80.9891C96.3024 78.7825 95.8903 76.5755 95.4733 74.3708C95.4291 74.1316 95.3719 73.8941 95.3208 73.6567C94.9948 74.4364 94.837 75.1967 94.6701 75.9537C93.2974 82.2162 91.9198 88.4749 90.5507 94.7388C90.2315 96.1938 90.7106 97.1035 92.1001 97.615C93.7952 98.2403 95.5111 98.8067 97.2051 99.4295C97.8338 99.661 97.8508 99.4185 97.7493 98.9066C97.4317 97.3021 97.1358 95.6949 96.8449 94.0853C96.503 92.1907 97.1731 91.2276 99.0766 90.8662C101.69 90.3695 104.306 89.8857 106.918 89.3865C107.116 89.3483 107.356 89.4079 107.513 89.1961C107.457 89.1328 107.417 89.0692 107.361 89.0287C105.493 87.6346 105.35 86.7625 106.672 84.807C107.394 83.7441 108.116 82.6794 108.961 81.4301ZM111.165 77.6151C111.227 77.6309 111.293 77.6456 111.355 77.6615C111.938 76.8872 112.525 76.1143 113.106 75.3394C115.022 72.7834 116.938 70.2299 118.851 67.6708C119.341 67.0149 119.319 66.9533 118.549 66.6763C117.997 66.4781 117.444 66.2855 116.893 66.0918C110.979 64.0113 105.063 61.9302 99.148 59.8517C98.2986 59.5529 98.2666 59.5851 98.0808 60.4369C97.5433 62.9125 96.996 65.3866 96.4443 67.8613C96.2662 68.662 96.3054 68.7152 97.1208 68.5631C100.214 67.9865 103.306 67.4013 106.4 66.8273C108.133 66.505 109.19 67.2143 109.521 68.9333C109.962 71.2335 110.384 73.5352 110.816 75.8384C110.929 76.4308 111.048 77.0232 111.165 77.6151ZM88.1043 38.9812C87.3294 41.0192 87.2301 43.1085 87.5951 45.2431C87.7068 45.8911 87.932 45.9806 88.513 45.6943C90.897 44.5205 93.2947 43.3722 95.7007 42.2475C96.2529 41.9904 96.3381 41.7305 96.0715 41.1875C94.8977 38.8035 93.7488 36.4076 92.6247 33.9998C92.3497 33.4103 92.1154 33.3465 91.6252 33.7807C90.0041 35.2167 88.7754 36.9087 88.1043 38.9812ZM103.635 31.647C101.402 30.9011 99.3153 30.7301 97.1796 31.1217C96.6289 31.222 96.4103 31.3666 96.7067 31.9719C97.9026 34.3988 99.0656 36.8432 100.217 39.2898C100.446 39.776 100.682 39.8651 101.172 39.6236C103.624 38.4219 106.087 37.2425 108.557 36.0825C109.061 35.8456 109.083 35.6526 108.737 35.241C107.309 33.5336 105.516 32.3606 103.635 31.647ZM130.312 66.0358C131.28 66.3761 132.256 66.6906 133.207 67.0645C133.749 67.2779 134.083 67.1531 134.33 66.6439C135.474 64.3006 136.618 61.9599 137.784 59.6287C138.023 59.1496 137.996 58.9003 137.44 58.7169C136.003 58.2447 134.58 57.7295 133.158 57.2168C132.765 57.0745 132.471 57.1098 132.202 57.4685C130.512 59.7354 128.811 61.9941 127.109 64.2528C126.83 64.6225 126.879 64.8426 127.341 64.9966C128.338 65.3269 129.324 65.686 130.312 66.0358ZM101.08 78.1961C101.143 78.1953 101.218 78.2052 101.288 78.1927C102.868 77.8994 104.448 77.6043 106.025 77.3042C106.392 77.2343 106.384 76.9729 106.33 76.6847C106.051 75.2013 105.769 73.7191 105.501 72.2334C105.433 71.8598 105.289 71.6746 104.864 71.759C103.36 72.056 101.851 72.3326 100.343 72.6098C99.9914 72.6744 99.8354 72.8472 99.9065 73.2159C100.197 74.7217 100.476 76.2298 100.763 77.7369C100.798 77.9271 100.842 78.1248 101.08 78.1961ZM94.9109 53.5744C95.3704 51.4503 95.7773 49.5458 96.196 47.6434C96.2808 47.2612 96.2683 47.0435 95.7976 47.2693C93.9508 48.1579 92.1047 49.0448 90.255 49.9241C89.892 50.0967 89.8566 50.2974 90.1055 50.5962C91.2109 51.9271 92.5194 52.9981 94.0751 53.7669C94.5567 54.0046 94.8786 53.9605 94.9109 53.5744ZM114.369 88.2931C114.664 88.492 114.862 88.3797 115.042 88.1177C115.631 87.2546 116.228 86.3984 116.822 85.5391C117.037 85.2276 117.023 84.9803 116.672 84.7491C115.819 84.1902 114.981 83.6037 114.142 83.0247C113.818 82.8013 113.546 82.8524 113.329 83.1694C112.738 84.03 112.157 84.9 111.563 85.7593C111.377 86.0293 111.385 86.2518 111.662 86.4423C112.563 87.0594 113.466 87.6754 114.369 88.2931ZM102.647 99.0807C102.704 99.0823 102.777 99.0977 102.848 99.0853C103.973 98.8784 105.095 98.6708 106.217 98.4589C106.546 98.3964 106.548 98.1549 106.499 97.8934C106.305 96.8667 106.107 95.8405 105.925 94.8115C105.856 94.4187 105.659 94.2771 105.264 94.3533C104.239 94.5539 103.211 94.7469 102.182 94.9294C101.822 94.9933 101.685 95.1523 101.762 95.5273C101.969 96.5524 102.151 97.5814 102.347 98.6088C102.382 98.7928 102.402 98.9988 102.647 99.0807ZM105.568 42.4061C105.607 42.5271 105.643 42.6476 105.681 42.7687C107.398 43.3727 109.114 43.9804 110.833 44.5789C111.232 44.7171 111.429 44.54 111.467 44.1354C111.584 42.9155 111.507 41.7084 111.278 40.5057C111.184 40.0044 110.93 40.0082 110.548 40.1928C109.367 40.7669 108.187 41.3436 106.992 41.8903C106.535 42.1002 106.044 42.236 105.568 42.4061Z" fill="#1F49B8" stroke="#1F49B8"/>
</svg>
