<svg width="94" height="106" viewBox="0 0 94 106" fill="none" xmlns="http://www.w3.org/2000/svg">
<path d="M47.6115 105.11C45.2075 104.548 43.3604 103.157 41.6566 101.449C37.2372 97.0158 32.7351 92.6642 28.3102 88.2393C27.621 87.5493 27.2378 87.5955 26.6175 88.2691C25.7656 89.1954 24.8806 90.1108 23.7888 90.7872C20.0339 93.1096 15.4464 92.7158 12.1766 89.63C9.11643 86.7425 6.11136 83.7926 3.18625 80.772C-0.483231 76.9827 -0.36744 71.4251 3.40957 67.6684C9.05853 62.0483 14.8288 56.5422 20.4006 50.8488C28.9774 42.0777 34.4665 31.6524 37.0415 19.7358C37.16 19.1843 37.0359 18.7633 36.7906 18.2934C33.7635 12.5239 36.967 5.90685 43.421 4.73883C46.6108 4.16024 49.4284 5.1001 51.7414 7.3601C55.1407 10.6849 58.518 14.0287 61.9063 17.3671C70.1412 25.4808 78.3872 33.5837 86.6084 41.7164C90.3799 45.4487 90.504 50.9004 86.9696 54.7494C84.1906 57.7782 79.5755 58.5496 75.6965 56.5911C75.0651 56.2733 74.4807 56.2081 73.8135 56.3521C65.675 58.096 58.1403 61.2306 51.2038 65.7751C50.465 66.2586 50.3464 66.5683 51.0494 67.1821C52.8056 68.7142 53.9497 70.6047 54.3164 72.9218C54.7796 75.8337 53.9194 78.3545 52.0006 80.552C51.4409 81.193 50.8317 81.8042 50.1838 82.3584C49.6131 82.8473 49.7041 83.1651 50.2086 83.6486C52.0144 85.3735 53.7182 87.2043 55.5653 88.883C61.5231 94.294 58.7799 103.195 51.6146 104.986C51.5154 105.01 51.4272 105.07 51.3334 105.113C50.0928 105.11 48.8522 105.11 47.6115 105.11ZM40.9508 65.4736C41.1327 65.3432 41.3891 65.1802 41.6235 64.9873C49.4477 58.536 58.2754 53.9563 68.0956 51.2345C69.3142 50.8977 69.3197 50.8868 68.4044 49.9877C60.0757 41.7816 51.7497 33.5783 43.421 25.3722C43.3245 25.2771 43.2197 25.1847 43.1315 25.0815C42.7125 24.5899 42.4671 24.6062 42.2824 25.2771C41.9405 26.5212 41.5711 27.7571 41.1548 28.9795C38.2876 37.4056 33.9509 45.0249 28.1586 51.8375C27.7588 52.3102 27.5438 52.6416 28.1035 53.1875C32.1424 57.1262 36.1482 61.0948 40.1678 65.0498C40.358 65.24 40.5373 65.4654 40.9508 65.4736ZM18.8043 85.9032C19.659 85.8896 20.3758 85.5202 20.9795 84.9226C25.8014 80.1744 30.615 75.4181 35.4535 70.6862C35.98 70.1701 35.9249 69.8496 35.4314 69.3634C31.5221 65.5415 27.6265 61.7033 23.7447 57.8515C23.2788 57.3897 22.9728 57.3544 22.4848 57.8352C17.6299 62.6486 12.7446 67.4293 7.89235 72.2427C6.61037 73.5139 6.6021 75.1465 7.87305 76.4177C10.7706 79.3188 13.7067 82.1845 16.6346 85.0557C17.2191 85.6343 17.9497 85.9059 18.8043 85.9032ZM80.0083 51.2997C81.5219 51.2915 82.5475 50.5282 82.9527 49.2027C83.4159 47.6951 82.5971 46.6765 81.6101 45.7067C70.326 34.5942 59.0446 23.4762 47.7577 12.3636C47.3937 12.005 47.0133 11.6438 46.5805 11.3776C45.0338 10.4241 43.0571 11.0435 42.3237 12.6787C41.7641 13.9228 42.048 15.0881 43.2418 16.267C47.1594 20.1378 51.0853 24.0004 55.0084 27.8658C62.488 35.2379 69.9703 42.6074 77.4499 49.9795C78.197 50.7184 78.9634 51.3866 80.0083 51.2997ZM52.3369 95.7581C52.37 95.0627 52.042 94.3727 51.4547 93.7942C46.5887 88.9944 41.7117 84.2028 36.8595 79.3894C36.3605 78.8923 36.049 78.9657 35.6078 79.4274C34.6843 80.389 33.7469 81.3397 32.7544 82.228C32.1313 82.7875 32.2141 83.157 32.7765 83.7002C35.5996 86.4383 38.3868 89.209 41.1851 91.9661C43.2308 93.9816 45.2654 96.0053 47.3276 98.0045C48.287 98.9335 49.4394 99.1073 50.6607 98.5722C51.8242 98.067 52.3562 97.138 52.3369 95.7581ZM47.9644 74.3533C47.9644 74.2528 47.9727 74.1496 47.9617 74.0491C47.7852 72.3812 46.393 71.5799 45.3453 70.5423C45.1027 70.3032 44.8326 70.5884 44.6368 70.7677C43.5285 71.7809 42.4368 72.8131 41.3175 73.8155C40.8764 74.2093 40.9094 74.5081 41.3285 74.8939C42.0811 75.5892 42.7924 76.3254 43.523 77.0425C45.0366 78.531 45.0283 78.5229 46.5336 77.0533C47.3055 76.2955 47.9893 75.5105 47.9644 74.3533Z" fill="#1F49B8"/>
<path d="M66.8413 0.802826C68.4872 1.53352 69.1378 2.83737 69.1157 4.55681C69.0937 6.14859 69.1295 7.74308 69.102 9.33486C69.0854 10.2883 68.9751 11.2282 68.2776 11.9942C67.3871 12.9748 66.0362 13.3686 64.8122 12.934C63.4723 12.4614 62.7114 11.4862 62.6673 10.109C62.6011 7.97669 62.6176 5.83893 62.6617 3.70388C62.6893 2.2941 63.5853 1.42759 64.7708 0.80011C65.4628 0.802826 66.152 0.802826 66.8413 0.802826Z" fill="#1F49B8"/>
<path d="M78.2577 19.2087C76.9813 19.1816 75.9971 18.6519 75.4181 17.5137C74.8033 16.305 74.8667 15.0555 75.7958 14.0912C77.949 11.8502 80.1573 9.65808 82.44 7.54748C83.6917 6.39032 85.6574 6.62664 86.8153 7.86257C87.9346 9.05777 87.9622 10.894 86.7684 12.1082C84.6842 14.227 82.5503 16.2968 80.4164 18.3721C79.832 18.9398 79.0959 19.2169 78.2577 19.2087Z" fill="#1F49B8"/>
<path d="M87.5101 31.4269C86.4432 31.4269 85.3735 31.454 84.3065 31.4187C82.5779 31.3617 81.2656 30.0062 81.2574 28.3166C81.2491 26.6244 82.5421 25.2309 84.2735 25.1929C86.4404 25.144 88.6129 25.1467 90.7798 25.1901C92.5277 25.2282 93.8207 26.5836 93.829 28.2813C93.84 30.0008 92.4919 31.3725 90.7081 31.4214C89.644 31.4513 88.577 31.4269 87.5101 31.4269Z" fill="#1F49B8"/>
<path d="M18.6803 77.4743C17.4094 77.4309 16.4307 76.8903 15.8628 75.7522C15.259 74.5407 15.3555 73.3129 16.268 72.335C17.7788 70.7161 19.3613 69.1542 21.0017 67.6629C22.2726 66.5084 24.2521 66.647 25.3935 67.8204C26.6176 69.0781 26.6396 70.9035 25.3659 72.2155C23.9158 73.7068 22.416 75.1518 20.9217 76.5997C20.3125 77.1891 19.5571 77.4906 18.6803 77.4743Z" fill="#1F49B8"/>
</svg>
