<svg width="155" height="117" viewBox="0 0 155 117" fill="none" xmlns="http://www.w3.org/2000/svg">
<path d="M58.397 6.25533C56.9338 6.76791 55.4706 7.2805 54.0074 7.79308C53.9402 7.84243 53.8816 7.90286 53.8086 7.9425C46.3177 12.0358 42.6471 19.1699 43.7353 27.6221C43.8322 28.3743 43.5834 28.6422 42.9326 28.8678C37.8354 30.6299 32.7469 32.4102 27.6659 34.2183C26.9692 34.4671 26.5701 34.3393 26.1352 33.7478C23.4596 30.1229 20.7342 26.5366 18.0627 22.9102C17.4219 22.0388 16.6784 21.4238 15.6026 21.2469C11.1085 22.8212 6.61439 24.3956 2.12028 25.9699C1.04803 27.3171 0.904207 28.4541 1.67046 29.5093C2.471 30.6087 3.50617 30.8305 5.15614 30.2548C8.02892 29.2508 10.9054 28.2572 13.7686 27.226C14.3587 27.0146 14.7326 27.0971 15.1117 27.6097C17.08 30.2808 19.067 32.9383 21.0686 35.5837C21.4939 36.1481 21.4076 36.4107 20.7386 36.638C18.5371 37.3811 16.3503 38.1729 14.154 38.9306C13.5233 39.1468 13.028 39.5081 12.6814 40.0731C12.0464 41.1075 12.3565 42.1066 12.8322 43.0758C14.5258 46.5237 16.2389 49.9601 17.9422 53.4022C19.8407 57.2407 21.7358 61.0827 23.6301 64.9226C25.7463 69.2081 27.8611 73.4965 29.9772 77.782C32.105 82.094 34.232 86.4039 36.3653 90.7116C37.359 92.7173 38.2533 94.7813 39.3949 96.7001C41.092 99.5483 43.7502 100.645 47.0135 100.36C56.0018 97.2117 64.99 94.063 73.9782 90.9143C74.0876 90.8314 74.1956 90.7443 74.3078 90.6627C77.0347 88.6796 78.1588 86.0399 77.526 82.7062C77.2686 81.3484 76.9434 80.0049 76.649 78.6554C75.4416 73.0916 74.2432 67.5271 73.0266 61.9642C71.7173 55.9692 70.3872 49.9815 69.08 43.9857C68.766 42.5468 68.7891 42.5457 70.1286 41.9615C70.4077 41.8402 70.6686 41.6808 70.9397 41.5436C77.801 38.051 81.9162 30.5852 81.1661 22.9908C80.3994 15.2286 75.0444 8.78517 67.6006 6.62883C64.5563 5.74979 61.4906 5.72076 58.397 6.25533ZM53.1322 92.6715C53.1359 92.7289 53.1424 92.7876 53.1461 92.845C50.9826 93.6029 48.8375 94.413 46.6512 95.0991C45.3169 95.5173 44.3141 95.0261 43.6892 93.7782C41.6497 89.6982 39.6429 85.6043 37.6194 81.5163C33.6953 73.5906 29.7705 65.6628 25.8367 57.7428C25.539 57.1407 25.6865 56.845 26.3067 56.6324C28.8467 55.7637 31.3801 54.8762 33.9062 53.9678C34.4545 53.771 34.7701 53.9351 35.0955 54.3749C37.6493 57.8195 40.2099 61.257 42.799 64.6752C43.2322 65.2486 43.2369 65.5567 42.5981 65.9706C40.8155 67.1325 39.066 68.3485 37.3208 69.5701C36.0261 70.4765 35.6759 71.9557 36.506 73.1997C38.3482 75.9596 40.2133 78.7044 42.1144 81.4248C43.013 82.7105 44.4428 82.9466 45.7737 82.1166C46.4308 81.708 47.0556 81.2474 47.697 80.8139C48.5775 80.2191 49.4595 79.6285 50.3595 79.0222C50.5419 79.4089 50.4024 79.6737 50.3538 79.9371C49.7948 82.9303 49.2106 85.9183 48.6705 88.9119C48.3507 90.6855 49.1828 91.8749 50.9403 92.2495C51.6684 92.4051 52.403 92.5327 53.1322 92.6715ZM45.0739 33.52C49.8251 31.8556 54.5828 30.203 59.3253 28.5135C60.0721 28.2471 60.3987 28.4425 60.5563 29.1805C61.158 31.9901 61.766 34.7974 62.4005 37.6002C62.5642 38.322 62.3076 38.6278 61.6275 38.8637C53.5538 41.6685 45.4853 44.4951 37.4262 47.3418C36.7559 47.5789 36.3659 47.4503 35.956 46.8899C34.1749 44.4583 32.357 42.056 30.5551 39.6388C29.9487 38.8256 29.9521 38.8151 30.8969 38.4841C35.6216 36.8313 40.3478 35.1756 45.0739 33.52ZM51.5282 68.3502C52.1223 68.4519 52.4446 68.5009 52.7684 68.5611C55.8137 69.1347 58.8591 69.7154 61.9042 70.282C63.8999 70.653 65.0304 69.8674 65.4119 67.868C65.8873 65.3664 66.3578 62.8642 66.8339 60.3647C66.8845 60.0935 66.9497 59.8242 67.008 59.5551C67.3765 60.4398 67.5543 61.3021 67.7424 62.1609C69.2899 69.2646 70.843 76.3641 72.3863 83.4694C72.7462 85.1198 72.2015 86.1508 70.6251 86.7289C68.7019 87.4355 66.7552 88.0752 64.8333 88.779C64.12 89.0406 64.1011 88.7656 64.2169 88.1852C64.5794 86.3662 64.9174 84.544 65.2497 82.7191C65.6401 80.5711 64.8817 79.478 62.7235 79.0653C59.7603 78.4982 56.7952 77.9458 53.8334 77.3758C53.6093 77.3323 53.3371 77.3995 53.159 77.1591C53.2231 77.0874 53.2682 77.0153 53.332 76.9695C55.4521 75.3913 55.615 74.4025 54.1193 72.1831C53.3025 70.9767 52.4848 69.7682 51.5282 68.3502ZM49.0352 64.0207C48.964 64.0386 48.89 64.0551 48.8188 64.073C48.1589 63.1942 47.4948 62.3168 46.837 61.4372C44.6684 58.5359 42.4984 55.6374 40.3332 52.7325C39.779 51.9879 39.8038 51.9182 40.6775 51.6051C41.3031 51.3813 41.9309 51.1637 42.5559 50.9447C49.2657 48.5942 55.9776 46.2429 62.6882 43.8944C63.6518 43.5569 63.6881 43.5934 63.8975 44.5597C64.5034 47.3678 65.1204 50.1743 65.7424 52.9815C65.9432 53.8897 65.8986 53.9499 64.9742 53.7763C61.4674 53.1179 57.9619 52.4497 54.4537 51.7942C52.4896 51.4262 51.29 52.229 50.912 54.1778C50.4081 56.7857 49.9259 59.3952 49.4325 62.0064C49.3041 62.678 49.1686 63.3497 49.0352 64.0207ZM75.2424 20.2433C76.1182 22.5555 76.2277 24.925 75.8106 27.3452C75.6831 28.0798 75.4276 28.181 74.7691 27.8555C72.0674 26.5209 69.35 25.2152 66.6232 23.9363C65.9975 23.6439 65.9012 23.349 66.2043 22.7336C67.5389 20.0319 68.8453 17.3166 70.1235 14.5878C70.4363 13.9197 70.7021 13.8477 71.2573 14.3408C73.0936 15.9716 74.4845 17.8921 75.2424 20.2433ZM57.6416 11.9035C60.1743 11.0609 62.5411 10.8701 64.9624 11.3173C65.5869 11.4318 65.8346 11.5961 65.4976 12.2821C64.1377 15.0325 62.8153 17.8027 61.5056 20.5755C61.2457 21.1265 60.9782 21.2272 60.4221 20.9527C57.6436 19.5863 54.8528 18.2453 52.0533 16.9261C51.4825 16.6567 51.4574 16.4379 51.8503 15.9717C53.4726 14.0375 55.5069 12.71 57.6416 11.9035ZM27.3383 50.8616C26.2409 51.2461 25.1332 51.6012 24.0539 52.0239C23.4391 52.2651 23.0607 52.1231 22.7809 51.5452C21.488 48.8863 20.1938 46.2302 18.8752 43.5849C18.6049 43.0413 18.635 42.7585 19.2664 42.5514C20.896 42.018 22.5109 41.4359 24.1244 40.8566C24.5702 40.6957 24.9035 40.7362 25.2081 41.1434C27.121 43.7166 29.0471 46.2805 30.9732 48.8443C31.2891 49.264 31.2334 49.5135 30.71 49.6875C29.5781 50.0605 28.46 50.4663 27.3383 50.8616ZM60.4701 64.6944C60.3994 64.6934 60.3141 64.7045 60.234 64.6903C58.4434 64.3554 56.6521 64.0184 54.8635 63.6757C54.4483 63.5959 54.4571 63.2994 54.5187 62.9728C54.8377 61.291 55.1596 59.6106 55.466 57.9262C55.5429 57.5026 55.7064 57.2928 56.1884 57.3891C57.8936 57.7281 59.6048 58.0439 61.3139 58.3605C61.7128 58.4343 61.8896 58.6305 61.8083 59.0485C61.4771 60.7557 61.1584 62.4655 60.83 64.1741C60.7905 64.3897 60.74 64.6139 60.4701 64.6944ZM67.5022 36.7822C66.9844 34.3727 66.5256 32.2124 66.0536 30.0545C65.9581 29.6209 65.9725 29.3741 66.506 29.6308C68.5989 30.6413 70.6912 31.6497 72.7875 32.6496C73.1989 32.8458 73.2387 33.0735 72.956 33.4119C71.7006 34.9195 70.2151 36.1322 68.4498 37.0017C67.9033 37.2706 67.5383 37.2201 67.5022 36.7822ZM45.3856 76.125C45.0513 76.3501 44.826 76.2225 44.6232 75.9251C43.9562 74.9455 43.2801 73.9737 42.6076 72.9983C42.364 72.6448 42.3808 72.3644 42.7796 72.1026C43.7478 71.4701 44.6981 70.8063 45.6512 70.1509C46.018 69.898 46.3271 69.9564 46.5728 70.3162C47.2412 71.293 47.8992 72.2804 48.5718 73.2558C48.7824 73.5622 48.7722 73.8145 48.4582 74.0301C47.4356 74.7286 46.4102 75.4258 45.3856 76.125ZM58.663 88.3754C58.5979 88.3771 58.5148 88.3945 58.4347 88.3803C57.1597 88.144 55.8869 87.907 54.6147 87.6651C54.2423 87.5937 54.2403 87.3198 54.296 87.0234C54.5171 85.8593 54.7432 84.6959 54.9517 83.5293C55.0304 83.084 55.2535 82.9237 55.7018 83.0107C56.8638 83.2396 58.03 83.46 59.1966 83.6686C59.6047 83.7415 59.7594 83.922 59.6713 84.3471C59.4354 85.5093 59.2269 86.6759 59.0037 87.8407C58.9641 88.0493 58.9404 88.283 58.663 88.3754ZM55.4329 24.1015C55.3894 24.2388 55.3481 24.3753 55.3046 24.5126C53.3565 25.195 51.4098 25.8817 49.4595 26.5579C49.0072 26.7139 48.7842 26.5128 48.7408 26.0539C48.6105 24.6704 48.699 23.3017 48.9605 21.9381C49.0689 21.3698 49.3568 21.3745 49.7894 21.5844C51.1281 22.2372 52.4655 22.8928 53.8192 23.5146C54.3369 23.7532 54.8934 23.908 55.4329 24.1015Z" fill="#1F49B8" stroke="#1F49B8"/>
<path d="M103.479 27.4655C104.769 27.9191 106.059 28.3728 107.349 28.8265C107.408 28.8701 107.459 28.9235 107.524 28.9585C114.125 32.5766 117.353 38.8718 116.384 46.3239C116.298 46.9872 116.517 47.2236 117.091 47.4234C121.583 48.9831 126.068 50.5587 130.547 52.159C131.161 52.3792 131.513 52.267 131.897 51.7458C134.261 48.5523 136.668 45.393 139.028 42.1982C139.594 41.4305 140.251 40.8891 141.199 40.7342C145.161 42.1277 149.122 43.5211 153.083 44.9145C154.027 46.1038 154.153 47.1065 153.476 48.0361C152.769 49.0048 151.855 49.1991 150.401 48.6896C147.869 47.8009 145.334 46.9215 142.81 46.0088C142.29 45.8218 141.96 45.8941 141.625 46.3457C139.886 48.6989 138.131 51.0401 136.363 53.3706C135.987 53.8678 136.063 54.0994 136.653 54.3007C138.593 54.9584 140.521 55.6592 142.457 56.3299C143.013 56.5213 143.449 56.8404 143.754 57.339C144.313 58.2519 144.038 59.1326 143.618 59.9867C142.12 63.0252 140.606 66.0535 139.1 69.087C137.421 72.4696 135.746 75.8554 134.071 79.2394C132.2 83.0161 130.33 86.7952 128.459 90.5719C126.578 94.3719 124.697 98.17 122.811 101.966C121.933 103.734 121.142 105.553 120.133 107.244C118.633 109.753 116.288 110.717 113.41 110.463C105.488 107.676 97.5653 104.889 89.6429 102.102C89.5465 102.029 89.4514 101.952 89.3525 101.88C86.9501 100.128 85.9619 97.7989 86.5237 94.8599C86.7523 93.6628 87.0405 92.4785 87.3017 91.2888C88.3728 86.3839 89.4359 81.4784 90.515 76.5743C91.6764 71.2892 92.8563 66.0106 94.0158 60.7248C94.2943 59.4563 94.274 59.4554 93.0934 58.9386C92.8475 58.8314 92.6175 58.6905 92.3786 58.5692C86.3322 55.4816 82.7118 48.8933 83.3819 42.1973C84.0669 35.3532 88.7964 29.6773 95.363 27.7843C98.0486 27.0126 100.752 26.9905 103.479 27.4655ZM108.023 103.675C108.02 103.726 108.014 103.778 108.011 103.828C109.918 104.499 111.809 105.216 113.736 105.824C114.912 106.194 115.797 105.762 116.349 104.662C118.152 101.067 119.927 97.4588 121.716 93.8562C125.185 86.8716 128.655 79.8851 132.133 72.9056C132.396 72.375 132.267 72.114 131.72 71.9259C129.481 71.1569 127.248 70.3714 125.022 69.5675C124.538 69.3933 124.26 69.5376 123.972 69.9251C121.716 72.9598 119.454 75.9881 117.167 78.9994C116.785 79.5045 116.78 79.7762 117.343 80.1419C118.914 81.1686 120.455 82.2429 121.993 83.322C123.133 84.1229 123.44 85.4276 122.707 86.5237C121.079 88.9553 119.432 91.3736 117.752 93.7704C116.958 94.9031 115.697 95.1096 114.524 94.3762C113.945 94.0152 113.395 93.6083 112.83 93.2253C112.054 92.6998 111.277 92.178 110.484 91.6423C110.323 91.9831 110.445 92.2167 110.488 92.4491C110.977 95.0892 111.489 97.7248 111.962 100.365C112.242 101.93 111.507 102.977 109.957 103.306C109.315 103.442 108.667 103.554 108.023 103.675ZM115.197 51.5233C111.009 50.0502 106.815 48.5874 102.635 47.0922C101.977 46.8565 101.689 47.0284 101.549 47.679C101.015 50.1558 100.476 52.6307 99.9132 55.1015C99.7681 55.7379 99.994 56.0078 100.593 56.2166C107.71 58.6993 114.822 61.201 121.925 63.7204C122.516 63.9303 122.86 63.8174 123.222 63.3236C124.795 61.1815 126.401 59.0651 127.993 56.9356C128.529 56.2192 128.526 56.2099 127.693 55.917C123.528 54.4541 119.363 52.9887 115.197 51.5233ZM109.466 82.2301C108.942 82.3191 108.657 82.362 108.372 82.4147C105.686 82.9171 103 83.4256 100.314 83.9217C98.5533 84.2466 97.5573 83.5526 97.2231 81.7891C96.8068 79.5826 96.3947 77.3755 95.9777 75.1708C95.9335 74.9316 95.8763 74.6941 95.8252 74.4567C95.4992 75.2364 95.3414 75.9967 95.1745 76.7537C93.8018 83.0162 92.4242 89.275 91.0551 95.5388C90.7359 96.9938 91.215 97.9035 92.6045 98.4151C94.2996 99.0404 96.0155 99.6067 97.7095 100.23C98.3382 100.461 98.3552 100.219 98.2537 99.7066C97.9361 98.1021 97.6402 96.4949 97.3492 94.8853C97.0074 92.9907 97.6775 92.0277 99.581 91.6662C102.195 91.1695 104.81 90.6857 107.423 90.1865C107.62 90.1484 107.86 90.2079 108.017 89.9962C107.961 89.9328 107.921 89.8692 107.865 89.8287C105.997 88.4346 105.855 87.5625 107.176 85.6071C107.898 84.5442 108.62 83.4794 109.466 82.2301ZM111.669 78.4151C111.732 78.431 111.797 78.4456 111.86 78.4615C112.443 77.6872 113.029 76.9143 113.61 76.1394C115.526 73.5834 117.443 71.0299 119.355 68.4708C119.845 67.8149 119.823 67.7534 119.053 67.4763C118.502 67.2782 117.948 67.0856 117.397 66.8918C111.483 64.8113 105.567 62.7303 99.6524 60.6517C98.803 60.3529 98.771 60.3851 98.5852 61.2369C98.0477 63.7125 97.5004 66.1867 96.9487 68.6614C96.7705 69.462 96.8098 69.5152 97.6252 69.3631C100.718 68.7866 103.81 68.2013 106.905 67.6273C108.637 67.305 109.694 68.0143 110.025 69.7333C110.467 72.0335 110.889 74.3352 111.321 76.6384C111.433 77.2308 111.552 77.8233 111.669 78.4151ZM88.6087 39.7812C87.8338 41.8192 87.7345 43.9085 88.0995 46.0431C88.2112 46.6911 88.4364 46.7807 89.0174 46.4944C91.4014 45.3205 93.7991 44.1722 96.2051 43.0476C96.7573 42.7904 96.8425 42.5306 96.5759 41.9875C95.4021 39.6036 94.2532 37.2077 93.1291 34.7998C92.8541 34.2103 92.6198 34.1465 92.1296 34.5807C90.5085 36.0167 89.2798 37.7087 88.6087 39.7812ZM104.139 32.447C101.907 31.7011 99.8197 31.5301 97.684 31.9217C97.1332 32.022 96.9147 32.1666 97.2111 32.7719C98.407 35.1989 99.57 37.6432 100.722 40.0898C100.95 40.576 101.186 40.6651 101.677 40.4236C104.129 39.2219 106.591 38.0426 109.061 36.8825C109.565 36.6456 109.587 36.4526 109.241 36.0411C107.813 34.3336 106.021 33.1607 104.139 32.447ZM130.817 66.8359C131.784 67.1761 132.76 67.4906 133.712 67.8646C134.254 68.078 134.587 67.9531 134.835 67.4439C135.978 65.1007 137.122 62.7599 138.288 60.4287C138.527 59.9496 138.501 59.7003 137.944 59.5169C136.508 59.0447 135.085 58.5296 133.662 58.0169C133.269 57.8745 132.975 57.9098 132.706 58.2686C131.017 60.5355 129.315 62.7941 127.614 65.0528C127.335 65.4225 127.384 65.6426 127.845 65.7966C128.843 66.1269 129.828 66.486 130.817 66.8359ZM101.585 78.9961C101.647 78.9953 101.722 79.0052 101.793 78.9928C103.372 78.6995 104.952 78.4043 106.53 78.1042C106.896 78.0343 106.889 77.7729 106.835 77.4847C106.555 76.0013 106.273 74.5191 106.005 73.0334C105.938 72.6599 105.794 72.4746 105.369 72.559C103.865 72.856 102.355 73.1326 100.848 73.4098C100.496 73.4744 100.34 73.6472 100.411 74.0159C100.701 75.5218 100.98 77.0299 101.268 78.5369C101.302 78.7271 101.347 78.9249 101.585 78.9961ZM95.4153 54.3744C95.8747 52.2503 96.2817 50.3458 96.7004 48.4434C96.7852 48.0612 96.7727 47.8435 96.302 48.0693C94.4552 48.9579 92.6091 49.8448 90.7594 50.7241C90.3964 50.8967 90.361 51.0975 90.6099 51.3962C91.7153 52.7271 93.0238 53.7982 94.5795 54.5669C95.0611 54.8047 95.383 54.7606 95.4153 54.3744ZM114.873 89.0932C115.168 89.292 115.367 89.1798 115.546 88.9177C116.135 88.0546 116.733 87.1984 117.327 86.3391C117.542 86.0277 117.527 85.7803 117.176 85.5491C116.323 84.9902 115.486 84.4038 114.646 83.8247C114.323 83.6013 114.05 83.6524 113.833 83.9694C113.243 84.83 112.661 85.7 112.067 86.5593C111.881 86.8293 111.89 87.0518 112.166 87.2423C113.067 87.8595 113.971 88.4754 114.873 89.0932ZM103.151 99.8807C103.209 99.8823 103.282 99.8977 103.352 99.8853C104.477 99.6784 105.6 99.4708 106.722 99.2589C107.05 99.1964 107.052 98.9549 107.004 98.6934C106.81 97.6667 106.612 96.6405 106.429 95.6115C106.36 95.2187 106.164 95.0771 105.769 95.1534C104.744 95.3539 103.715 95.5469 102.686 95.7295C102.326 95.7933 102.189 95.9523 102.266 96.3273C102.473 97.3524 102.656 98.3814 102.851 99.4088C102.886 99.5928 102.907 99.7989 103.151 99.8807ZM106.073 43.2061C106.111 43.3272 106.147 43.4476 106.185 43.5687C107.903 44.1727 109.618 44.7804 111.338 45.3789C111.736 45.5171 111.933 45.34 111.972 44.9354C112.088 43.7155 112.012 42.5085 111.783 41.3057C111.688 40.8044 111.434 40.8083 111.052 40.9928C109.871 41.567 108.691 42.1436 107.497 42.6903C107.04 42.9002 106.549 43.036 106.073 43.2061Z" fill="#1F49B8" stroke="#1F49B8"/>
</svg>
