<svg width="197" height="38" viewBox="0 0 197 38" fill="none" xmlns="http://www.w3.org/2000/svg">
<path d="M19.4166 2H14.5938C12.462 2 10.4175 2.91038 8.91004 4.53087C7.40261 6.15135 6.55575 8.3492 6.55575 10.6409V15.8255H1.73291V22.7382H6.55575V36.5637H12.9862V22.7382H17.809L19.4166 15.8255H12.9862V10.6409C12.9862 10.1826 13.1556 9.743 13.4571 9.41891C13.7585 9.09481 14.1674 8.91273 14.5938 8.91273H19.4166V2Z" stroke="white" stroke-width="2.5" stroke-linecap="round" stroke-linejoin="round"/>
<path d="M107.031 7.64317C105.387 8.73248 103.566 9.56563 101.639 10.1105C100.605 8.99379 99.2306 8.20227 97.7017 7.84302C96.1729 7.48378 94.5634 7.57414 93.0911 8.1019C91.6187 8.62965 90.3544 9.56933 89.4693 10.7938C88.5841 12.0184 88.1208 13.4686 88.1419 14.9485V16.5612C85.1241 16.6347 82.1338 16.0061 79.4373 14.7315C76.7408 13.4569 74.4218 11.5759 72.6869 9.25583C72.6869 9.25583 65.818 23.7697 81.273 30.2204C77.7364 32.4748 73.5234 33.6052 69.2524 33.4457C84.7074 41.509 103.597 33.4457 103.597 14.9001C103.595 14.4509 103.549 14.0028 103.46 13.5616C105.212 11.9385 106.449 9.88914 107.031 7.64317V7.64317Z" stroke="white" stroke-width="2.5" stroke-linecap="round" stroke-linejoin="round"/>
<path d="M194.189 13.5959C193.98 12.76 193.554 11.9941 192.954 11.3756C192.354 10.7571 191.601 10.3078 190.772 10.0733C187.742 9.3335 175.625 9.3335 175.625 9.3335C175.625 9.3335 163.507 9.3335 160.477 10.1437C159.648 10.3783 158.895 10.8275 158.296 11.446C157.696 12.0645 157.269 12.8304 157.06 13.6663C156.506 16.7408 156.235 19.8597 156.25 22.9837C156.23 26.1313 156.501 29.2739 157.06 32.3716C157.291 33.1815 157.727 33.9182 158.325 34.5106C158.924 35.103 159.665 35.531 160.477 35.7533C163.507 36.5635 175.625 36.5635 175.625 36.5635C175.625 36.5635 187.742 36.5635 190.772 35.7533C191.601 35.5187 192.354 35.0695 192.954 34.451C193.554 33.8324 193.98 33.0666 194.189 32.2306C194.739 29.1793 195.01 26.0842 194.999 22.9837C195.019 19.8362 194.748 16.6935 194.189 13.5959V13.5959Z" stroke="white" stroke-width="2.5" stroke-linecap="round" stroke-linejoin="round"/>
<path d="M171.661 28.7427L181.789 22.9831L171.661 17.2236V28.7427Z" stroke="white" stroke-width="2.5" stroke-linecap="round" stroke-linejoin="round"/>
</svg>
