<svg width="103" height="102" viewBox="0 0 103 102" fill="none" xmlns="http://www.w3.org/2000/svg">
<path d="M1.19398 98.1124C2.22414 96.0849 2.90571 93.919 3.71995 91.8095C8.56636 79.2626 13.3868 66.708 18.2176 54.156C18.2644 54.0355 18.319 53.9201 18.3607 53.7997C18.6624 52.9436 19.2321 52.413 20.1868 52.5822C21.1338 52.7513 21.4693 53.4254 21.4901 54.338C21.5526 57.1395 22.0755 59.8642 22.9157 62.5377C24.5 67.5897 27.9182 71.1039 32.4395 73.7414C35.9201 75.7715 39.5855 77.3761 43.4304 78.591C44.2264 78.8422 44.8924 79.1626 44.9548 80.0931C45.0172 81.0184 44.4189 81.4439 43.6567 81.7899C30.6913 87.6776 17.7311 93.573 4.77352 99.4735C4.28445 99.6965 3.73816 99.8272 3.34014 100.225C2.62476 100.225 1.63102 100.499 1.27203 100.148C0.915633 99.7965 1.19398 98.8173 1.19398 98.1124ZM19.0708 60.5871C18.2904 62.6325 17.5594 64.5293 16.8518 66.4312C16.779 66.6285 16.8154 66.8746 16.8362 67.0976C17.458 74.3105 20.1686 80.6467 25.015 86.1012C25.4079 86.5447 25.7122 86.5857 26.2455 86.3345C30.2283 84.4659 34.2292 82.6332 38.2172 80.7775C38.4487 80.6698 38.7999 80.6647 38.8701 80.2802C35.8759 79.1806 33.0768 77.7247 30.3609 76.074C24.5754 72.5598 20.7487 67.6795 19.3102 61.0715C19.2816 60.9587 19.2035 60.8562 19.0708 60.5871ZM14.5756 72.9443C14.3155 72.9238 14.2973 73.0673 14.253 73.1827C13.137 76.0765 12.0236 78.973 10.8998 81.8668C10.8036 82.1129 10.7307 82.3436 10.7984 82.6076C11.5736 85.6424 12.3514 88.6773 13.1214 91.7121C13.2099 92.0633 13.3425 92.1837 13.7276 92.0094C16.6307 90.6843 19.5417 89.377 22.5437 88.0237C18.5714 83.5842 15.9387 78.5628 14.5756 72.9443ZM5.57215 95.7081C6.80781 95.134 7.81976 94.6701 8.82911 94.1959C10.3587 93.4756 10.3613 93.4705 9.95031 91.8556C9.59132 90.4484 9.22192 89.0438 8.85512 87.6392C8.79269 87.6443 8.73025 87.6494 8.66782 87.6545C7.66628 90.2639 6.66214 92.8758 5.57215 95.7081Z" fill="#1F49B8" stroke="#1F49B8" stroke-width="2"/>
<path d="M101.088 73.8895C99.7611 75.2403 98.4448 76.6013 97.0999 77.9368C96.7461 78.2879 96.616 78.593 96.7279 79.1107C97.1493 81.0818 97.4875 83.0683 97.8855 85.0446C98.0416 85.8161 97.8933 86.4543 97.2144 86.8952C96.5536 87.3232 95.9215 87.1464 95.3153 86.726C93.8013 85.6777 92.2691 84.6524 90.7707 83.581C90.3258 83.2631 90.0059 83.2708 89.5662 83.581C88.1406 84.5857 86.6787 85.5418 85.2453 86.5363C84.5429 87.0234 83.8405 87.395 83.0211 86.8286C82.2563 86.3005 82.2979 85.5598 82.4644 84.76C82.8572 82.8812 83.1798 80.987 83.5908 79.1133C83.7001 78.6058 83.609 78.2854 83.2422 77.9342C82.1262 76.8602 81.0466 75.7504 79.9436 74.6636C79.4311 74.1586 79.0722 73.6126 79.3297 72.8693C79.595 72.1029 80.209 71.8415 80.9816 71.7518C82.3993 71.5851 83.8067 71.3442 85.2245 71.1648C85.854 71.0853 86.2468 70.8649 86.4992 70.219C87.1495 68.5477 87.9091 66.9201 88.6115 65.2694C88.9133 64.5619 89.3685 64.0724 90.2062 64.0903C90.9944 64.1083 91.4262 64.5876 91.7124 65.2566C92.4434 66.9662 93.1926 68.6656 93.9054 70.3804C94.0849 70.8111 94.3268 71.0315 94.8107 71.0904C96.2596 71.2673 97.7008 71.5057 99.1498 71.6851C100.016 71.7928 100.695 72.1337 101.09 72.9283C101.088 73.2487 101.088 73.5691 101.088 73.8895ZM84.1137 74.3995C84.7432 75.048 85.1855 75.6068 85.7291 76.04C86.8243 76.9192 87.0741 77.9496 86.7099 79.2799C86.4784 80.1283 86.213 81.0152 86.3119 82.0635C87.0637 81.5535 87.6984 81.1203 88.3358 80.6871C90.1333 79.4593 90.1724 79.4696 92.0167 80.7076C92.6593 81.1382 93.2368 81.6919 94.1161 81.9892C93.8898 80.805 93.7155 79.7362 93.4787 78.6801C93.2758 77.7804 93.4813 77.0679 94.1863 76.4399C94.8861 75.8144 95.5182 75.1121 96.2674 74.356C95.1905 74.1894 94.3294 73.9997 93.4605 73.933C92.459 73.8562 91.8659 73.3768 91.5069 72.4746C91.1349 71.5364 90.6796 70.6342 90.1619 69.4987C89.6339 70.7265 89.1942 71.7389 88.7598 72.7565C88.4736 73.4281 88.0002 73.8331 87.2354 73.9279C86.2728 74.0407 85.3207 74.2124 84.1137 74.3995Z" fill="#1F49B8" stroke="#1F49B8" stroke-width="2"/>
<path d="M61.0914 1.7998C61.6246 2.18941 61.9576 2.71231 62.2256 3.30441C63.0814 5.20375 63.9685 7.08771 64.8244 8.98705C65.0195 9.42279 65.2978 9.69962 65.7505 9.88929C67.6885 10.7044 69.611 11.5656 71.5438 12.3961C72.345 12.7396 73.1333 13.1061 73.1203 14.1212C73.1073 15.1336 72.3034 15.4797 71.5048 15.8231C69.6006 16.6408 67.7145 17.4943 65.8025 18.2941C65.3134 18.4991 65.0195 18.7862 64.8114 19.2578C63.9529 21.2264 63.058 23.177 62.1892 25.1404C61.8744 25.853 61.479 26.4451 60.5815 26.4528C59.6866 26.4604 59.273 25.894 58.9556 25.1712C58.1049 23.2359 57.2127 21.3161 56.3802 19.3732C56.1331 18.799 55.7689 18.4607 55.1914 18.2223C53.0972 17.3559 51.0265 16.4383 48.9402 15.5591C48.3341 15.3028 48.0089 14.8876 47.9777 14.2493C47.9413 13.5265 48.282 13.0267 48.948 12.7345C50.9641 11.8527 52.9672 10.9402 55.0041 10.1072C55.6908 9.82521 56.0993 9.42023 56.3802 8.75892C57.158 6.93135 58.0009 5.12941 58.7943 3.30954C59.0545 2.71231 59.3848 2.18941 59.9207 1.80237C60.3109 1.7998 60.7011 1.7998 61.0914 1.7998ZM60.506 7.21843C59.9806 8.40776 59.4889 9.34077 59.1533 10.3276C58.7267 11.581 57.9385 12.3577 56.6612 12.7755C55.6518 13.1061 54.6945 13.6008 53.5187 14.1058C54.8766 14.6876 55.9536 15.208 57.0748 15.6129C58.0347 15.9615 58.6226 16.5588 58.979 17.4995C59.403 18.6145 59.9363 19.6859 60.506 20.9649C60.9405 20.0037 61.3697 19.2783 61.596 18.4966C62.1007 16.7382 63.2115 15.6898 64.9779 15.1644C65.7687 14.9286 66.5855 14.6235 67.3477 14.0417C65.9898 13.4573 64.7515 12.9062 63.4977 12.391C62.8889 12.1424 62.4935 11.7425 62.2412 11.1427C61.7183 9.90724 61.159 8.68971 60.506 7.21843Z" fill="#1F49B8" stroke="#1F49B8" stroke-width="2"/>
<path d="M101.088 10.0655C100.536 10.8396 99.7873 11.119 98.83 11.0395C98.0574 10.9755 97.2743 11.0472 96.4965 11.019C95.5028 10.9832 94.8524 10.3577 94.8524 9.48624C94.8524 8.61475 95.5028 7.98676 96.4965 7.95857C97.4694 7.93037 98.4424 7.97651 99.4153 7.94575C100.201 7.92012 100.628 8.4302 101.085 8.91208C101.088 9.29656 101.088 9.68105 101.088 10.0655Z" fill="#1F49B8" stroke="#1F49B8" stroke-width="2"/>
<path d="M93.869 1.7998C94.6599 2.34064 94.9356 3.08397 94.8576 4.02211C94.7951 4.78338 94.8654 5.55491 94.8367 6.32131C94.8003 7.29789 94.163 7.94382 93.2811 7.94382C92.3992 7.94382 91.7593 7.29789 91.7307 6.32131C91.7021 5.36267 91.7489 4.40403 91.7151 3.44539C91.689 2.6713 92.2015 2.25093 92.6958 1.7998C93.0886 1.7998 93.4788 1.7998 93.869 1.7998Z" fill="#1F49B8" stroke="#1F49B8" stroke-width="2"/>
<path d="M18.3762 27.5829C18.7403 25.7297 19.0889 23.7099 19.5572 21.7183C19.7393 20.9416 19.5182 20.4828 18.9745 19.9753C17.9131 18.9885 16.9168 17.9298 15.8814 16.9123C15.3611 16.3996 15.0646 15.8255 15.3429 15.1001C15.6005 14.4285 16.1415 14.1568 16.8517 14.0748C18.3007 13.9056 19.7445 13.6672 21.1935 13.4981C21.8698 13.4186 22.2653 13.1623 22.528 12.4882C23.1523 10.8785 23.9015 9.3149 24.5727 7.72059C24.8823 6.98238 25.3115 6.42104 26.1882 6.43129C27.0674 6.44154 27.4759 7.02596 27.7828 7.75647C28.4514 9.35079 29.2006 10.9143 29.8275 12.524C30.0773 13.1648 30.4649 13.3955 31.0918 13.475C32.572 13.6595 34.0496 13.8902 35.5298 14.0748C36.2374 14.1645 36.7681 14.467 37.01 15.1411C37.2572 15.828 36.984 16.3868 36.4949 16.8764C35.3815 17.9965 34.2785 19.1294 33.1521 20.2367C32.7827 20.6007 32.6136 20.9237 32.7385 21.4901C33.1651 23.4254 33.4799 25.3862 33.8779 27.3291C34.034 28.093 33.9404 28.7415 33.2718 29.2054C32.585 29.6796 31.9295 29.4976 31.2895 29.0542C29.8301 28.0392 28.3447 27.0626 26.9062 26.0193C26.3807 25.6374 26.0165 25.5964 25.4624 25.9988C23.9718 27.0779 22.4239 28.0776 20.8995 29.1131C20.3116 29.513 19.7029 29.6053 19.0785 29.2182C18.5348 28.8748 18.3059 28.3698 18.3762 27.5829ZM32.3301 17.0686C32.2494 16.9533 32.1688 16.8354 32.0882 16.72C31.1699 16.5765 30.2568 16.397 29.3359 16.3048C28.4176 16.2099 27.8713 15.746 27.5357 14.9258C27.1429 13.9671 26.6902 13.029 26.1726 11.8884C25.6679 12.9931 25.2048 13.8646 24.8693 14.7822C24.5025 15.7819 23.8313 16.2612 22.7829 16.3586C21.9583 16.4355 21.1414 16.5919 20.3194 16.7123C20.244 16.8277 20.1685 16.943 20.0931 17.0584C20.8267 17.6787 21.5655 18.2887 22.2887 18.9192C22.8714 19.4268 23.0691 20.0445 22.8974 20.8186C22.6451 21.9669 22.463 23.1306 22.2496 24.2943C22.3875 24.2943 22.4656 24.3199 22.5072 24.2917C23.2876 23.774 24.0628 23.2485 24.838 22.7231C26.0061 21.931 26.3989 21.9259 27.5539 22.7051C28.3603 23.2485 29.1668 23.7893 30.1969 24.484C29.9446 23.1588 29.7703 22.1233 29.5414 21.1005C29.3359 20.1778 29.4816 19.396 30.262 18.7757C30.9565 18.2169 31.6381 17.6376 32.3301 17.0686Z" fill="#1F49B8" stroke="#1F49B8" stroke-width="2"/>
<path d="M89.9774 48.037C89.954 48.8956 89.4233 49.3186 88.7313 49.6236C86.7776 50.4848 84.8292 51.364 82.8677 52.2048C82.3266 52.438 81.9884 52.7661 81.7543 53.3095C80.9219 55.2524 80.0322 57.1723 79.1763 59.1049C78.8616 59.8175 78.4531 60.4173 77.5687 60.425C76.6842 60.4327 76.2602 59.8508 75.9428 59.1331C75.0609 57.1415 74.1504 55.1627 73.2789 53.166C73.0838 52.72 72.8107 52.4508 72.3555 52.2637C70.3238 51.4178 68.3129 50.5233 66.2812 49.68C65.5112 49.3596 64.8686 48.9495 64.8738 48.0447C64.879 47.1373 65.545 46.7451 66.3046 46.4222C68.24 45.6019 70.1573 44.733 72.0979 43.9205C72.6442 43.6923 72.9824 43.3694 73.2165 42.826C74.0672 40.8549 74.9803 38.9119 75.8387 36.946C76.1457 36.2436 76.5775 35.7079 77.3892 35.69C78.2554 35.6695 78.7081 36.236 79.0281 36.9665C79.8917 38.9325 80.7918 40.8805 81.6477 42.849C81.8662 43.3514 82.1732 43.6718 82.6908 43.8923C84.7485 44.7612 86.7854 45.6737 88.8353 46.5606C89.5169 46.8528 89.9566 47.3013 89.9774 48.037ZM84.4728 48.06C83.1903 47.509 82.1107 46.9758 80.9843 46.5811C79.9411 46.2145 79.3402 45.5532 78.9656 44.551C78.5624 43.4719 78.0343 42.4364 77.4776 41.1932C76.8533 42.5953 76.307 43.7513 75.8231 44.9329C75.524 45.6634 75.0531 46.1453 74.3013 46.4375C73.0786 46.9169 71.8846 47.4654 70.4954 48.0626C71.7337 48.5932 72.7847 49.093 73.8721 49.4929C74.9152 49.8774 75.615 50.49 75.9948 51.5563C76.3824 52.6456 76.9287 53.6812 77.4932 54.9269C78.0525 53.6709 78.552 52.6661 78.9474 51.6229C79.3116 50.6566 79.9021 50.0158 80.8985 49.6441C82.0431 49.2161 83.1409 48.6573 84.4728 48.06Z" fill="#1F49B8" stroke="#1F49B8" stroke-width="2"/>
<path d="M46.4507 25.0608C46.0214 30.1821 44.804 35.0727 42.9596 39.8146C39.7442 48.0784 35.1215 55.5168 29.349 62.276C29.1409 62.5195 28.9328 62.7759 28.6779 62.9681C28.0249 63.4577 27.3355 63.4525 26.7216 62.922C26.1129 62.3939 25.9958 61.7249 26.399 61.0149C26.5395 60.7663 26.7528 60.5587 26.9375 60.3357C33.8651 51.9642 39.2656 42.7956 42.0491 32.2608C42.689 29.8412 43.0766 27.3805 43.3342 24.8967C43.4408 23.874 44.1562 23.2486 45.0589 23.3434C45.9278 23.4306 46.4741 24.1252 46.4507 25.0608Z" fill="#1F49B8" stroke="#1F49B8" stroke-width="2"/>
<path d="M33.8676 66.3873C33.3005 66.3284 32.827 66.0464 32.5591 65.4646C32.2495 64.7879 32.4472 64.206 32.9311 63.7062C34.0497 62.5451 35.1709 61.3865 36.3155 60.251C42.7098 53.9071 49.3356 47.8194 56.7183 42.5879C59.5149 40.6066 62.418 38.7892 65.6282 37.5025C65.8077 37.4307 65.9845 37.3487 66.1692 37.2898C67.0563 37.0078 67.8419 37.341 68.1801 38.1356C68.4975 38.879 68.2296 39.7223 67.4231 40.0709C58.3182 44.0079 51.2424 50.6441 44.0521 57.1213C41.0553 59.823 38.2067 62.6784 35.4154 65.5876C35.007 66.0157 34.5804 66.395 33.8676 66.3873Z" fill="#1F49B8" stroke="#1F49B8" stroke-width="2"/>
<path d="M71.1486 69.4198C61.4194 68.7226 52.7827 71.9343 44.5701 76.666C44.12 76.9249 43.6934 77.2428 43.1289 77.1351C42.4603 77.0069 42.0103 76.6122 41.8516 75.9611C41.6695 75.2101 42.0077 74.659 42.6372 74.2541C44.3828 73.1365 46.2115 72.1676 48.0898 71.2884C53.8207 68.6022 59.7805 66.7105 66.1617 66.2927C67.9203 66.1774 69.6684 66.221 71.4166 66.3952C72.4077 66.4927 73.032 67.1488 72.9852 68.0126C72.941 68.9072 72.21 69.4814 71.1486 69.4198Z" fill="#1F49B8" stroke="#1F49B8" stroke-width="2"/>
<path d="M28.2096 39.7377C28.2304 46.1739 27.5748 51.5951 26.3236 56.9522C26.2871 57.1086 26.2403 57.2624 26.1935 57.4136C25.8995 58.3902 25.0463 58.9079 24.1202 58.6747C23.2981 58.4671 22.8403 57.6878 23.0666 56.6882C23.5583 54.5325 24.0031 52.3717 24.3179 50.1853C25.1113 44.6437 25.2518 39.0866 24.6769 33.5168C24.6535 33.2938 24.6248 33.0708 24.617 32.8478C24.578 31.7969 25.1373 31.092 26.0556 31.0279C26.9687 30.9613 27.6087 31.5713 27.7465 32.6273C28.0925 35.2982 28.1784 37.9845 28.2096 39.7377Z" fill="#1F49B8" stroke="#1F49B8" stroke-width="2"/>
<path d="M12.2837 46.4022C11.5657 46.3919 11.0376 46.1228 10.7306 45.5256C9.69009 43.5006 8.63912 41.4808 7.64018 39.4354C7.1199 38.3691 7.57775 37.4668 8.76139 37.1567C10.7046 36.6466 12.6557 36.1647 14.6093 35.6931C15.6681 35.4393 16.2456 35.7136 16.7503 36.6979C17.718 38.5793 18.6753 40.4683 19.6197 42.3626C20.2648 43.6595 19.8772 44.5464 18.4776 44.9155C16.5656 45.4179 14.6432 45.8767 12.7233 46.3484C12.5672 46.3894 12.4008 46.3894 12.2837 46.4022ZM13.2852 43.0085C14.0995 42.7983 14.9137 42.583 15.7279 42.3805C15.9751 42.319 16.0531 42.1985 15.9361 41.9755C15.4314 41.0117 15.1218 39.8224 14.3466 39.1662C13.8081 38.71 12.7233 39.4302 11.8753 39.5994C11.8441 39.6045 11.8128 39.6225 11.7816 39.6276C11.3992 39.6686 11.2821 39.807 11.4877 40.1864C11.9325 41.0015 12.3357 41.8397 12.7649 42.6625C12.869 42.8624 12.9809 43.0751 13.2852 43.0085Z" fill="#1F49B8" stroke="#1F49B8" stroke-width="2"/>
<path d="M85.2949 20.2778C85.8646 20.2675 86.208 20.4469 86.5357 20.6597C87.9665 21.5978 89.4077 22.5257 90.8229 23.4843C91.7776 24.1303 91.9467 24.7659 91.4368 25.7912C90.4795 27.7136 89.517 29.6309 88.5206 31.5328C87.8911 32.735 86.7959 32.9272 85.823 31.9891C83.7809 30.0205 81.757 28.0315 79.7565 26.0219C78.9683 25.2299 79.0411 24.2482 79.9412 23.6279C81.4812 22.5641 83.0603 21.5542 84.6367 20.5392C84.8682 20.388 85.1648 20.329 85.2949 20.2778ZM86.4577 28.4826C88.4062 25.6964 88.3697 25.417 86.0025 23.9816C85.9478 23.9483 85.888 23.9175 85.8386 23.8791C85.6044 23.6894 85.3885 23.692 85.1362 23.8714C84.6367 24.2277 84.1242 24.566 83.6066 24.8967C83.3178 25.0812 83.297 25.2427 83.5441 25.4913C84.5145 26.4705 85.4718 27.4676 86.4577 28.4826Z" fill="#1F49B8" stroke="#1F49B8" stroke-width="2"/>
<path d="M61.8041 55.6137C62.8602 55.5958 63.5314 56.1597 63.6199 56.9619C63.7109 57.7899 63.1802 58.5101 62.2619 58.6716C61.1745 58.8613 60.0898 59.0638 59.0336 59.3816C53.0399 61.181 47.962 64.5029 43.3419 68.581C43.1234 68.7732 42.9257 68.9911 42.6838 69.1526C41.9658 69.6345 41.2504 69.5781 40.6573 68.9655C40.0615 68.3529 40.0095 67.6095 40.574 66.9687C41.1255 66.3433 41.7681 65.7922 42.4106 65.2514C47.4079 61.0503 52.8839 57.7027 59.3301 56.1058C60.212 55.8854 61.1121 55.7495 61.8041 55.6137Z" fill="#1F49B8" stroke="#1F49B8" stroke-width="2"/>
<path d="M52.8839 97.1459C52.218 97.1536 51.8095 96.9203 51.4505 96.5691C49.9833 95.1209 48.5031 93.6881 47.0516 92.2271C46.2217 91.3915 46.2191 90.6276 47.0334 89.7946C47.9777 88.8282 48.9428 87.8799 49.9235 86.9468C50.6753 86.2317 51.3413 86.1753 52.1867 86.7879C54.1976 88.2464 56.1981 89.7177 58.1778 91.2146C59.1897 91.9784 59.2313 93.0934 58.2402 93.7881C56.6846 94.88 55.0717 95.895 53.4718 96.928C53.2663 97.0613 52.9984 97.1048 52.8839 97.1459ZM51.1098 89.8638C50.886 90.1765 50.6597 90.4841 50.4412 90.7993C50.1837 91.1736 50.5661 91.3069 50.7404 91.494C51.1384 91.9169 51.5624 92.3142 51.9786 92.7192C52.9594 93.6778 52.9411 93.6496 54.1196 92.9037C54.6451 92.5705 54.5306 92.4014 54.117 92.104C53.3288 91.5376 52.5691 90.9378 51.7965 90.3508C51.6482 90.2354 51.4896 90.1304 51.1098 89.8638Z" fill="#1F49B8" stroke="#1F49B8" stroke-width="2"/>
<path d="M91.7333 14.111C91.7333 13.5676 91.6969 13.0191 91.7411 12.4783C91.8114 11.6247 92.4617 11.0403 93.2759 11.0352C94.0876 11.0301 94.7796 11.6119 94.8212 12.4629C94.8758 13.5497 94.8732 14.6416 94.8238 15.7284C94.7848 16.582 94.1032 17.169 93.2916 17.1715C92.4799 17.1766 91.814 16.5897 91.7437 15.7438C91.6943 15.203 91.7333 14.6544 91.7333 14.111Z" fill="#1F49B8" stroke="#1F49B8" stroke-width="2"/>
<path d="M88.6792 7.95902C89.1995 7.95902 89.7224 7.92569 90.2374 7.96671C91.1063 8.03591 91.702 8.66902 91.7124 9.47131C91.7228 10.2685 91.1297 10.9605 90.2713 11.0041C89.1683 11.0579 88.0601 11.0554 86.9571 11.0067C86.0882 10.9682 85.4925 10.3069 85.4847 9.50463C85.4743 8.6639 86.096 8.02053 87.0195 7.96158C87.571 7.92826 88.1251 7.95645 88.6766 7.95645C88.6792 7.95645 88.6792 7.95902 88.6792 7.95902Z" fill="#1F49B8" stroke="#1F49B8" stroke-width="2"/>
<path d="M71.4266 81.8414C71.4266 82.3207 71.45 82.8026 71.4214 83.2819C71.3668 84.1995 70.7398 84.825 69.8944 84.8403C69.0463 84.8557 68.3595 84.2406 68.3231 83.3332C68.2815 82.2771 68.2789 81.2185 68.3257 80.1625C68.3647 79.3064 69.0255 78.7168 69.8397 78.7015C70.6904 78.6861 71.3538 79.2987 71.4162 80.2061C71.4552 80.7495 71.4266 81.298 71.4266 81.8414Z" fill="#1F49B8" stroke="#1F49B8" stroke-width="2"/>
<path d="M65.1365 87.9155C64.6162 87.9155 64.0934 87.9463 63.5757 87.9079C62.6652 87.8412 62.0435 87.1671 62.0747 86.334C62.1033 85.5343 62.7068 84.8986 63.5809 84.8628C64.6527 84.8192 65.727 84.8192 66.7988 84.8628C67.6703 84.8986 68.2764 85.5369 68.3024 86.3366C68.3285 87.1696 67.7067 87.8438 66.7936 87.9079C66.2447 87.9489 65.688 87.9155 65.1365 87.9155Z" fill="#1F49B8" stroke="#1F49B8" stroke-width="2"/>
<path d="M74.5588 84.8583C75.1103 84.8583 75.667 84.8224 76.2159 84.866C77.077 84.9377 77.6701 85.5914 77.6675 86.3911C77.6649 87.1908 77.0692 87.8624 76.2029 87.9008C75.0999 87.9521 73.9917 87.9521 72.8887 87.9008C72.0277 87.8598 71.4345 87.178 71.4397 86.3783C71.4423 85.576 72.0355 84.9326 72.9017 84.8634C73.4506 84.8224 74.0073 84.8583 74.5588 84.8583Z" fill="#1F49B8" stroke="#1F49B8" stroke-width="2"/>
<path d="M71.4293 91.0195C71.4293 91.4988 71.4501 91.9807 71.4267 92.4601C71.3799 93.4341 70.7321 94.08 69.8502 94.0646C69.0048 94.0518 68.357 93.4264 68.3258 92.5113C68.2894 91.4886 68.2868 90.4608 68.3284 89.438C68.3648 88.5307 69.0438 87.918 69.8971 87.9309C70.7451 87.9437 71.3747 88.564 71.4267 89.4842C71.4527 89.9942 71.4267 90.5069 71.4293 91.0195Z" fill="#1F49B8" stroke="#1F49B8" stroke-width="2"/>
<path d="M27.7282 67.8659C27.7282 66.3921 27.7282 66.3921 29.2812 66.3921C30.8499 66.3921 30.8499 66.3921 30.8499 67.9454C30.8499 69.4679 30.8499 69.4679 29.3463 69.4679C27.7282 69.4679 27.7282 69.4679 27.7282 67.8659Z" fill="#1F49B8" stroke="#1F49B8" stroke-width="2"/>
<path d="M37.0516 72.5443C35.5324 72.5443 35.5324 72.5443 35.5324 70.7501C35.5324 69.4659 35.5324 69.4659 37.4757 69.4685C38.6567 69.4685 38.6567 69.4685 38.6541 71.4063C38.6541 72.5443 38.6541 72.5443 37.0516 72.5443Z" fill="#1F49B8" stroke="#1F49B8" stroke-width="2"/>
</svg>
