<svg width="197" height="38" viewBox="0 0 197 38" fill="none" xmlns="http://www.w3.org/2000/svg">
<path d="M19.9207 1.7998H15.0978C12.966 1.7998 10.9215 2.71018 9.41407 4.33067C7.90664 5.95116 7.05978 8.14901 7.05978 10.4407V15.6253H2.23694V22.538H7.05978V36.3635H13.4902V22.538H18.3131L19.9207 15.6253H13.4902V10.4407C13.4902 9.98238 13.6596 9.54281 13.9611 9.21871C14.2626 8.89461 14.6715 8.71254 15.0978 8.71254H19.9207V1.7998Z" stroke="white" stroke-width="2.5" stroke-linecap="round" stroke-linejoin="round"/>
<path d="M107.535 7.44297C105.891 8.53229 104.07 9.36544 102.143 9.91034C101.109 8.79359 99.7346 8.00207 98.2057 7.64282C96.6769 7.28358 95.0675 7.37395 93.5951 7.9017C92.1227 8.42946 90.8585 9.36914 89.9733 10.5937C89.0881 11.8182 88.6248 13.2684 88.6459 14.7483V16.361C85.6281 16.4345 82.6378 15.8059 79.9413 14.5313C77.2448 13.2567 74.9259 11.3757 73.1909 9.05563C73.1909 9.05563 66.322 23.5696 81.777 30.0202C78.2405 32.2746 74.0275 33.405 69.7565 33.2455C85.2115 41.3088 104.101 33.2455 104.101 14.6999C104.099 14.2507 104.053 13.8026 103.964 13.3614C105.716 11.7383 106.953 9.68894 107.535 7.44297V7.44297Z" stroke="white" stroke-width="2.5" stroke-linecap="round" stroke-linejoin="round"/>
<path d="M194.693 13.3957C194.483 12.5598 194.057 11.7939 193.457 11.1754C192.857 10.5569 192.105 10.1076 191.276 9.87306C188.246 9.1333 176.128 9.1333 176.128 9.1333C176.128 9.1333 164.011 9.1333 160.981 9.94351C160.152 10.1781 159.399 10.6273 158.799 11.2458C158.199 11.8644 157.773 12.6302 157.564 13.4661C157.01 16.5406 156.738 19.6595 156.754 22.7835C156.734 25.9311 157.005 29.0737 157.564 32.1714C157.795 32.9813 158.23 33.7181 158.829 34.3104C159.428 34.9028 160.169 35.3308 160.981 35.5531C164.011 36.3633 176.128 36.3633 176.128 36.3633C176.128 36.3633 188.246 36.3633 191.276 35.5531C192.105 35.3185 192.857 34.8693 193.457 34.2508C194.057 33.6322 194.483 32.8664 194.693 32.0305C195.243 28.9791 195.514 25.884 195.503 22.7835C195.523 19.636 195.251 16.4933 194.693 13.3957V13.3957Z" stroke="white" stroke-width="2.5" stroke-linecap="round" stroke-linejoin="round"/>
<path d="M172.165 28.5425L182.292 22.783L172.165 17.0234V28.5425Z" stroke="white" stroke-width="2.5" stroke-linecap="round" stroke-linejoin="round"/>
</svg>
