<svg width="132" height="79" viewBox="0 0 132 79" fill="none" xmlns="http://www.w3.org/2000/svg">
<path d="M0.910156 33.4849C1.10751 33.2663 1.29465 33.0375 1.50561 32.8323C2.32563 32.0352 3.28175 31.6921 4.40801 32.089C5.57509 32.5027 6.23859 33.3941 6.25901 34.568C6.32026 38.0493 6.32366 41.534 6.25901 45.0153C6.23519 46.243 5.52405 47.1612 4.28892 47.5346C2.77817 47.992 1.78802 47.1545 0.910156 46.1017C0.910156 41.8939 0.910156 37.6894 0.910156 33.4849Z" fill="#1F49B8"/>
<path d="M131.569 46.0985C131.426 46.2533 131.277 46.4013 131.137 46.5594C130.351 47.4642 129.381 47.888 128.19 47.5314C126.955 47.1614 126.244 46.2432 126.22 45.0155C126.156 41.5342 126.156 38.0495 126.22 34.5682C126.244 33.3371 126.959 32.4222 128.19 32.0522C129.701 31.5948 130.691 32.4323 131.566 33.4885C131.569 37.6896 131.569 41.8941 131.569 46.0985Z" fill="#1F49B8"/>
<path d="M73.8855 39.7277C73.8855 28.167 73.8855 16.6064 73.8855 5.04575C73.8855 4.28894 73.8719 3.52877 74.1169 2.79887C74.4912 1.69561 75.5936 0.905172 76.7267 0.918626C77.9278 0.935444 79.0438 1.78307 79.299 2.9805C79.4453 3.6734 79.4964 4.39657 79.4964 5.10629C79.5066 28.2276 79.5066 51.3489 79.4964 74.4735C79.4964 75.1833 79.4453 75.9064 79.2956 76.5993C79.0404 77.8001 77.921 78.6478 76.7232 78.6612C75.5936 78.6747 74.4878 77.8842 74.1169 76.781C73.8685 76.0511 73.8855 75.2909 73.8855 74.5341C73.8855 62.9331 73.8855 51.3321 73.8855 39.7277Z" fill="#1F49B8"/>
<path d="M84.3414 39.8188C84.3414 32.5097 84.338 25.2007 84.3482 17.8916C84.3482 17.266 84.3686 16.6235 84.5047 16.0181C84.8041 14.6592 85.944 13.788 87.2438 13.8418C88.4857 13.8923 89.5541 14.8005 89.8025 16.0887C89.9114 16.6605 89.9556 17.2559 89.9556 17.8411C89.9624 32.4593 89.9658 47.0808 89.9556 61.699C89.9556 62.3649 89.9046 63.0478 89.7617 63.6969C89.4963 64.8876 88.3598 65.742 87.1723 65.7487C86.0052 65.7554 84.9504 64.9953 84.5727 63.8685C84.3414 63.1789 84.3482 62.4625 84.3482 61.7494C84.3414 54.437 84.3414 47.1279 84.3414 39.8188Z" fill="#1F49B8"/>
<path d="M69.0503 39.7614C69.0503 46.9864 69.0537 54.208 69.0435 61.433C69.0435 62.1427 69.006 62.8659 68.8699 63.5588C68.6147 64.8437 67.5055 65.7317 66.2669 65.7485C65.0386 65.7653 63.8919 64.874 63.6197 63.6126C63.487 63.0038 63.4394 62.3647 63.4394 61.7391C63.4292 47.0402 63.4326 32.338 63.4292 17.6391C63.4292 16.9631 63.4496 16.2903 63.6844 15.6513C64.0927 14.5379 65.2019 13.7912 66.3384 13.8416C67.5259 13.8955 68.516 14.6758 68.8427 15.8396C69.0469 16.5762 69.0537 17.333 69.0537 18.0899C69.0469 25.3115 69.0503 32.5365 69.0503 39.7614Z" fill="#1F49B8"/>
<path d="M110.739 39.8388C110.739 47.4909 110.749 55.1431 110.728 62.7953C110.722 64.9984 108.867 66.3001 106.972 65.4996C106.176 65.1632 105.686 64.5712 105.441 63.7539C105.243 63.0946 105.254 62.4253 105.254 61.7525C105.254 47.0806 105.254 32.4086 105.254 17.7333C105.254 17.3566 105.24 16.9731 105.274 16.5998C105.431 14.9213 106.662 13.7609 108.18 13.8416C109.646 13.919 110.722 15.1097 110.725 16.7612C110.742 22.1429 110.735 27.5247 110.735 32.9064C110.739 35.2138 110.739 37.528 110.739 39.8388Z" fill="#1F49B8"/>
<path d="M21.7408 39.7949C21.7408 32.1427 21.7306 24.4939 21.7476 16.8417C21.751 14.615 23.551 13.2965 25.4564 14.0668C26.256 14.3897 26.763 14.9682 27.0216 15.7856C27.2394 16.4818 27.2224 17.1949 27.2224 17.9114C27.2224 32.4992 27.2224 47.0871 27.219 61.675C27.219 62.2199 27.2258 62.7749 27.1305 63.3063C26.8583 64.867 25.6368 65.8627 24.2145 65.7382C22.7786 65.6104 21.7578 64.4668 21.7476 62.8758C21.7272 58.7991 21.7374 54.7191 21.7374 50.6424C21.7408 47.0232 21.7408 43.4107 21.7408 39.7949Z" fill="#1F49B8"/>
<path d="M58.5942 39.7784C58.5942 43.7272 58.601 47.6794 58.5908 51.6283C58.584 54.0736 57.6006 55.3955 55.8007 55.409C54.0211 55.4258 52.9867 54.0837 52.9799 51.6485C52.9663 43.7474 52.9663 35.8497 52.9799 27.9486C52.9833 25.5067 53.9837 24.1949 55.7837 24.1612C57.5428 24.1276 58.584 25.51 58.5908 27.9285C58.601 31.8807 58.5942 35.8295 58.5942 39.7784Z" fill="#1F49B8"/>
<path d="M37.6787 39.7849C37.6787 43.7774 37.6855 47.7666 37.6753 51.7592C37.6685 54.0263 36.7055 55.3347 35.0179 55.4222C33.2894 55.5096 32.1053 54.2079 32.0916 51.8971C32.044 43.8313 32.0746 35.7654 32.0746 27.6995C32.0746 27.6154 32.0814 27.5313 32.0882 27.4472C32.2652 25.3181 33.3574 24.087 35.0043 24.161C36.6579 24.235 37.6617 25.53 37.6685 27.686C37.6923 31.719 37.6787 35.7519 37.6787 39.7849Z" fill="#1F49B8"/>
<path d="M94.8008 39.7983C94.8008 35.8057 94.794 31.8165 94.8042 27.8239C94.811 25.5569 95.774 24.2485 97.4582 24.161C99.1834 24.0735 100.371 25.3753 100.384 27.686C100.432 35.7519 100.401 43.8178 100.401 51.8837C100.401 51.9678 100.395 52.0519 100.388 52.136C100.211 54.2617 99.1187 55.4962 97.4719 55.4222C95.8182 55.3482 94.8144 54.0532 94.8076 51.8971C94.7872 47.8642 94.8008 43.8313 94.8008 39.7983Z" fill="#1F49B8"/>
<path d="M11.2847 39.748C11.2847 35.6344 11.2778 31.5173 11.2881 27.4037C11.2915 25.4225 12.4041 24.1309 14.0373 24.1612C15.6161 24.1881 16.7526 25.473 16.756 27.37C16.773 35.6848 16.773 43.9962 16.7526 52.311C16.7492 53.9457 15.9462 55.0086 14.5715 55.3315C13.3466 55.6208 12.4211 55.1163 11.71 54.1543C11.2847 53.5757 11.2812 52.8996 11.2812 52.2202C11.2847 48.0594 11.2847 43.9021 11.2847 39.748Z" fill="#1F49B8"/>
<path d="M121.195 39.7711C121.195 43.9285 121.202 48.0859 121.191 52.24C121.185 54.1471 120.109 55.4017 118.507 55.4219C116.928 55.4421 115.73 54.1572 115.727 52.2803C115.706 43.9252 115.706 35.57 115.73 27.2149C115.734 25.6037 116.584 24.524 117.966 24.2381C119.191 23.9858 120.116 24.5005 120.8 25.4793C121.208 26.0645 121.198 26.7473 121.198 27.42C121.195 31.5404 121.195 35.6541 121.195 39.7711Z" fill="#1F49B8"/>
<path d="M48.1139 39.1258C48.1139 41.5072 48.2058 43.152 48.0935 44.78C47.9268 47.1816 45.7764 48.3723 43.8811 47.2085C43.1428 46.7544 42.7107 46.0952 42.6596 45.2509C42.435 41.6048 42.3908 37.9519 42.68 34.3125C42.7923 32.9099 43.9152 31.9984 45.2252 31.9378C46.5828 31.8739 47.7295 32.7585 47.9983 34.2183C48.3385 36.0818 48.0425 37.9822 48.1139 39.1258Z" fill="#1F49B8"/>
</svg>
