<svg width="103" height="101" viewBox="0 0 103 101" fill="none" xmlns="http://www.w3.org/2000/svg">
<path d="M1.68941 97.3126C2.71956 95.2851 3.40113 93.1192 4.21537 91.0097C9.06179 78.4628 13.8822 65.9082 18.713 53.3562C18.7598 53.2357 18.8145 53.1203 18.8561 52.9999C19.1578 52.1438 19.7275 51.6132 20.6823 51.7823C21.6292 51.9515 21.9648 52.6256 21.9856 53.5381C22.048 56.3397 22.5709 59.0644 23.4111 61.7379C24.9954 66.7899 28.4136 70.3041 32.9349 72.9416C36.4156 74.9717 40.0809 76.5763 43.9258 77.7912C44.7218 78.0424 45.3878 78.3628 45.4502 79.2933C45.5127 80.2186 44.9143 80.6441 44.1521 80.9901C31.1867 86.8778 18.2265 92.7732 5.26894 98.6737C4.77987 98.8967 4.23358 99.0274 3.83556 99.4247C3.12018 99.4247 2.12644 99.699 1.76745 99.3478C1.41105 98.9967 1.68941 98.0175 1.68941 97.3126ZM19.5663 59.7873C18.7858 61.8327 18.0548 63.7295 17.3473 65.6314C17.2744 65.8287 17.3108 66.0748 17.3317 66.2978C17.9534 73.5107 20.6641 79.8469 25.5105 85.3014C25.9033 85.7449 26.2076 85.7859 26.7409 85.5347C30.7237 83.6661 34.7246 81.8334 38.7126 79.9777C38.9441 79.87 39.2953 79.8649 39.3656 79.4804C36.3713 78.3808 33.5722 76.9249 30.8564 75.2742C25.0708 71.76 21.2442 66.8797 19.8056 60.2717C19.777 60.1589 19.6989 60.0564 19.5663 59.7873ZM15.071 72.1445C14.8109 72.124 14.7927 72.2675 14.7485 72.3829C13.6325 75.2767 12.5191 78.1732 11.3952 81.067C11.299 81.3131 11.2262 81.5438 11.2938 81.8078C12.069 84.8426 12.8468 87.8775 13.6168 90.9123C13.7053 91.2635 13.838 91.3839 14.223 91.2096C17.1261 89.8845 20.0371 88.5772 23.0391 87.2238C19.0668 82.7844 16.4342 77.763 15.071 72.1445ZM6.06757 94.9083C7.30324 94.3342 8.31518 93.8702 9.32453 93.3961C10.8542 92.6758 10.8568 92.6707 10.4457 91.0558C10.0867 89.6486 9.71734 88.244 9.35054 86.8394C9.28811 86.8445 9.22567 86.8496 9.16324 86.8547C8.1617 89.4641 7.15756 92.076 6.06757 94.9083Z" fill="#1F49B8" stroke="#1F49B8" stroke-width="2"/>
<path d="M101.583 73.0897C100.256 74.4405 98.9399 75.8015 97.5949 77.137C97.2412 77.4881 97.1111 77.7932 97.2229 78.3109C97.6444 80.282 97.9826 82.2685 98.3806 84.2448C98.5367 85.0163 98.3884 85.6545 97.7094 86.0954C97.0487 86.5234 96.4165 86.3466 95.8104 85.9262C94.2964 84.8779 92.7641 83.8526 91.2657 82.7812C90.8209 82.4633 90.5009 82.471 90.0613 82.7812C88.6357 83.7859 87.1737 84.742 85.7403 85.7365C85.038 86.2236 84.3356 86.5952 83.5161 86.0287C82.7513 85.5007 82.793 84.76 82.9594 83.9602C83.3523 82.0814 83.6748 80.1872 84.0859 78.3135C84.1951 77.806 84.1041 77.4856 83.7373 77.1344C82.6213 76.0604 81.5417 74.9506 80.4387 73.8638C79.9262 73.3588 79.5672 72.8128 79.8248 72.0695C80.0901 71.3031 80.704 71.0417 81.4766 70.9519C82.8944 70.7853 84.3018 70.5444 85.7195 70.365C86.3491 70.2855 86.7419 70.0651 86.9942 69.4191C87.6446 67.7479 88.4042 66.1203 89.1066 64.4696C89.4083 63.7621 89.8636 63.2726 90.7012 63.2905C91.4895 63.3085 91.9213 63.7878 92.2074 64.4568C92.9384 66.1664 93.6876 67.8658 94.4004 69.5806C94.5799 70.0113 94.8218 70.2317 95.3057 70.2906C96.7547 70.4675 98.1959 70.7059 99.6449 70.8853C100.511 70.993 101.19 71.3339 101.586 72.1285C101.583 72.4489 101.583 72.7693 101.583 73.0897ZM84.6087 73.5997C85.2383 74.2482 85.6805 74.807 86.2242 75.2402C87.3194 76.1194 87.5691 77.1498 87.2049 78.4801C86.9734 79.3285 86.7081 80.2154 86.8069 81.2637C87.5587 80.7537 88.1935 80.3205 88.8308 79.8873C90.6284 78.6595 90.6674 78.6698 92.5118 79.9078C93.1543 80.3384 93.7319 80.8921 94.6111 81.1894C94.3848 80.0052 94.2105 78.9363 93.9738 77.8803C93.7709 76.9806 93.9764 76.268 94.6814 75.6401C95.3812 75.0146 96.0133 74.3123 96.7625 73.5562C95.6855 73.3896 94.8244 73.1999 93.9556 73.1332C92.954 73.0563 92.3609 72.577 92.0019 71.6748C91.6299 70.7366 91.1747 69.8344 90.657 68.6989C90.1289 69.9267 89.6893 70.9391 89.2548 71.9567C88.9687 72.6283 88.4952 73.0333 87.7304 73.1281C86.7679 73.2409 85.8158 73.4126 84.6087 73.5997Z" fill="#1F49B8" stroke="#1F49B8" stroke-width="2"/>
<path d="M61.587 1C62.1203 1.38961 62.4533 1.9125 62.7212 2.5046C63.5771 4.40394 64.4642 6.2879 65.32 8.18724C65.5151 8.62299 65.7935 8.89981 66.2461 9.08949C68.1842 9.90459 70.1066 10.7658 72.0395 11.5963C72.8407 11.9398 73.6289 12.3063 73.6159 13.3213C73.6029 14.3338 72.7991 14.6799 72.0004 15.0233C70.0962 15.841 68.2102 16.6945 66.2982 17.4943C65.8091 17.6993 65.5151 17.9864 65.307 18.458C64.4486 20.4266 63.5537 22.3772 62.6848 24.3406C62.37 25.0532 61.9746 25.6453 61.0772 25.653C60.1823 25.6606 59.7686 25.0942 59.4513 24.3713C58.6006 22.4361 57.7083 20.5163 56.8759 18.5734C56.6287 17.9992 56.2646 17.6609 55.687 17.4225C53.5929 16.5561 51.5222 15.6385 49.4359 14.7593C48.8297 14.503 48.5046 14.0877 48.4733 13.4495C48.4369 12.7267 48.7777 12.2269 49.4437 11.9347C51.4598 11.0529 53.4628 10.1404 55.4997 9.30736C56.1865 9.02541 56.5949 8.62042 56.8759 7.95911C57.6537 6.13155 58.4966 4.32961 59.29 2.50973C59.5501 1.9125 59.8805 1.38961 60.4164 1.00256C60.8066 1 61.1968 1 61.587 1ZM61.0017 6.41863C60.4762 7.60795 59.9846 8.54096 59.649 9.5278C59.2223 10.7812 58.4341 11.5579 57.1568 11.9757C56.1475 12.3063 55.1902 12.801 54.0143 13.306C55.3723 13.8878 56.4493 14.4082 57.5705 14.8131C58.5304 15.1617 59.1183 15.759 59.4747 16.6997C59.8987 17.8147 60.432 18.8861 61.0017 20.1651C61.4361 19.2039 61.8654 18.4785 62.0917 17.6967C62.5964 15.9384 63.7072 14.89 65.4735 14.3646C66.2644 14.1288 67.0812 13.8237 67.8434 13.2419C66.4855 12.6575 65.2472 12.1064 63.9933 11.5912C63.3846 11.3426 62.9892 10.9427 62.7368 10.3429C62.214 9.10743 61.6547 7.88991 61.0017 6.41863Z" fill="#1F49B8" stroke="#1F49B8" stroke-width="2"/>
<path d="M101.583 9.26572C101.032 10.0398 100.283 10.3192 99.3252 10.2397C98.5526 10.1757 97.7696 10.2474 96.9917 10.2192C95.998 10.1834 95.3477 9.55793 95.3477 8.68644C95.3477 7.81494 95.998 7.18696 96.9917 7.15876C97.9647 7.13057 98.9376 7.17671 99.9105 7.14595C100.696 7.12032 101.123 7.63039 101.581 8.11228C101.583 8.49676 101.583 8.88124 101.583 9.26572Z" fill="#1F49B8" stroke="#1F49B8" stroke-width="2"/>
<path d="M94.3649 1C95.1557 1.54084 95.4315 2.28417 95.3534 3.2223C95.291 3.98358 95.3612 4.7551 95.3326 5.5215C95.2962 6.49809 94.6588 7.14401 93.777 7.14401C92.8951 7.14401 92.2551 6.49809 92.2265 5.5215C92.1979 4.56286 92.2447 3.60422 92.2109 2.64558C92.1849 1.87149 92.6974 1.45112 93.1916 1C93.5845 1 93.9747 1 94.3649 1Z" fill="#1F49B8" stroke="#1F49B8" stroke-width="2"/>
<path d="M18.8714 26.7831C19.2356 24.9299 19.5842 22.9101 20.0524 20.9185C20.2345 20.1418 20.0134 19.683 19.4697 19.1755C18.4083 18.1887 17.412 17.13 16.3766 16.1125C15.8564 15.5998 15.5598 15.0256 15.8382 14.3003C16.0957 13.6287 16.6368 13.357 17.347 13.275C18.796 13.1058 20.2397 12.8674 21.6887 12.6983C22.3651 12.6188 22.7605 12.3625 23.0232 11.6884C23.6476 10.0787 24.3968 8.5151 25.0679 6.92078C25.3775 6.18258 25.8067 5.62123 26.6834 5.63149C27.5627 5.64174 27.9711 6.22615 28.2781 6.95667C28.9466 8.55098 29.6958 10.1145 30.3228 11.7242C30.5725 12.365 30.9601 12.5957 31.5871 12.6752C33.0673 12.8597 34.5449 13.0904 36.0251 13.275C36.7326 13.3647 37.2633 13.6671 37.5053 14.3413C37.7524 15.0282 37.4792 15.587 36.9902 16.0766C35.8768 17.1967 34.7738 18.3296 33.6474 19.4369C33.278 19.8009 33.1089 20.1239 33.2338 20.6903C33.6604 22.6256 33.9752 24.5864 34.3732 26.5293C34.5293 27.2932 34.4356 27.9417 33.767 28.4056C33.0803 28.8798 32.4247 28.6978 31.7848 28.2544C30.3254 27.2393 28.84 26.2628 27.4014 25.2195C26.8759 24.8376 26.5117 24.7966 25.9576 25.199C24.467 26.2781 22.9192 27.2778 21.3948 28.3133C20.8068 28.7132 20.1981 28.8055 19.5738 28.4184C19.0301 28.075 18.8012 27.57 18.8714 26.7831ZM32.8253 16.2688C32.7447 16.1535 32.664 16.0356 32.5834 15.9202C31.6651 15.7767 30.752 15.5972 29.8311 15.505C28.9128 15.4101 28.3665 14.9462 28.0309 14.126C27.6381 13.1673 27.1855 12.2292 26.6678 11.0886C26.1631 12.1933 25.7001 13.0648 25.3645 13.9824C24.9977 14.9821 24.3265 15.4614 23.2782 15.5588C22.4535 15.6357 21.6367 15.792 20.8146 15.9125C20.7392 16.0279 20.6638 16.1432 20.5883 16.2586C21.3219 16.8788 22.0607 17.4889 22.7839 18.1194C23.3666 18.627 23.5643 19.2447 23.3926 20.0188C23.1403 21.1671 22.9582 22.3308 22.7449 23.4945C22.8828 23.4945 22.9608 23.5201 23.0024 23.4919C23.7828 22.9742 24.5581 22.4487 25.3333 21.9232C26.5013 21.1312 26.8941 21.1261 28.0492 21.9053C28.8556 22.4487 29.662 22.9895 30.6922 23.6842C30.4398 22.359 30.2655 21.3235 30.0366 20.3007C29.8311 19.378 29.9768 18.5962 30.7572 17.9759C31.4518 17.4171 32.1334 16.8378 32.8253 16.2688Z" fill="#1F49B8" stroke="#1F49B8" stroke-width="2"/>
<path d="M90.4727 47.2372C90.4493 48.0958 89.9186 48.5188 89.2267 48.8238C87.273 49.685 85.3245 50.5642 83.3631 51.4049C82.822 51.6382 82.4838 51.9663 82.2497 52.5097C81.4172 54.4526 80.5276 56.3725 79.6717 58.3051C79.3569 59.0177 78.9485 59.6175 78.064 59.6252C77.1795 59.6329 76.7555 59.051 76.4381 58.3333C75.5563 56.3417 74.6458 54.3629 73.7743 52.3662C73.5792 51.9202 73.3061 51.651 72.8508 51.4639C70.8191 50.618 68.8082 49.7235 66.7765 48.8802C66.0065 48.5598 65.364 48.1497 65.3692 47.2449C65.3744 46.3375 66.0403 45.9453 66.7999 45.6223C68.7354 44.8021 70.6526 43.9332 72.5933 43.1207C73.1396 42.8925 73.4778 42.5696 73.7119 42.0262C74.5625 40.0551 75.4756 38.1121 76.3341 36.1462C76.6411 35.4438 77.0729 34.9081 77.8845 34.8902C78.7508 34.8697 79.2034 35.4362 79.5234 36.1667C80.3871 38.1326 81.2872 40.0807 82.143 42.0492C82.3616 42.5516 82.6685 42.872 83.1862 43.0925C85.2439 43.9614 87.2808 44.8739 89.3307 45.7608C90.0123 46.053 90.4519 46.5015 90.4727 47.2372ZM84.9682 47.2602C83.6857 46.7091 82.6061 46.176 81.4797 45.7813C80.4365 45.4147 79.8356 44.7534 79.461 43.7512C79.0578 42.6721 78.5297 41.6366 77.973 40.3934C77.3486 41.7955 76.8023 42.9515 76.3185 44.1331C76.0193 44.8636 75.5485 45.3455 74.7967 45.6377C73.574 46.117 72.38 46.6656 70.9908 47.2628C72.2291 47.7934 73.28 48.2932 74.3674 48.6931C75.4106 49.0776 76.1104 49.6902 76.4902 50.7565C76.8778 51.8458 77.4241 52.8814 77.9886 54.1271C78.5479 52.8711 79.0474 51.8663 79.4428 50.8231C79.807 49.8568 80.3975 49.216 81.3938 48.8443C82.5384 48.4162 83.6362 47.8575 84.9682 47.2602Z" fill="#1F49B8" stroke="#1F49B8" stroke-width="2"/>
<path d="M46.9459 24.261C46.5167 29.3823 45.2992 34.2729 43.4548 39.0148C40.2395 47.2786 35.6168 54.717 29.8443 61.4762C29.6361 61.7197 29.428 61.9761 29.1731 62.1683C28.5201 62.6579 27.8308 62.6527 27.2168 62.1222C26.6081 61.5941 26.491 60.9251 26.8943 60.2151C27.0347 59.9665 27.2481 59.7589 27.4328 59.5359C34.3603 51.1644 39.7608 41.9958 42.5443 31.461C43.1843 29.0414 43.5719 26.5807 43.8294 24.0969C43.9361 23.0742 44.6515 22.4488 45.5541 22.5436C46.423 22.6308 46.9693 23.3254 46.9459 24.261Z" fill="#1F49B8" stroke="#1F49B8" stroke-width="2"/>
<path d="M34.3625 65.5875C33.7954 65.5286 33.3219 65.2466 33.054 64.6648C32.7444 63.9881 32.9421 63.4062 33.426 62.9064C34.5446 61.7453 35.6658 60.5867 36.8104 59.4512C43.2047 53.1073 49.8304 47.0196 57.2132 41.7881C60.0097 39.8068 62.9129 37.9894 66.123 36.7027C66.3025 36.6309 66.4794 36.5489 66.6641 36.49C67.5512 36.208 68.3368 36.5412 68.675 37.3358C68.9924 38.0792 68.7244 38.9225 67.918 39.2711C58.8131 43.2081 51.7373 49.8443 44.547 56.3215C41.5502 59.0231 38.7016 61.8786 35.9103 64.7878C35.5019 65.2159 35.0753 65.5952 34.3625 65.5875Z" fill="#1F49B8" stroke="#1F49B8" stroke-width="2"/>
<path d="M71.644 68.62C61.9147 67.9228 53.2781 71.1345 45.0654 75.8662C44.6154 76.1251 44.1888 76.443 43.6242 76.3353C42.9557 76.2071 42.5056 75.8124 42.347 75.1613C42.1649 74.4103 42.503 73.8592 43.1326 73.4543C44.8781 72.3367 46.7069 71.3678 48.5851 70.4886C54.316 67.8024 60.2758 65.9107 66.6571 65.4929C68.4156 65.3776 70.1638 65.4211 71.9119 65.5954C72.9031 65.6928 73.5274 66.349 73.4806 67.2128C73.4363 68.1074 72.7054 68.6815 71.644 68.62Z" fill="#1F49B8" stroke="#1F49B8" stroke-width="2"/>
<path d="M28.7046 38.9379C28.7254 45.3741 28.0698 50.7953 26.8186 56.1524C26.7821 56.3088 26.7353 56.4625 26.6885 56.6138C26.3945 57.5904 25.5413 58.1081 24.6152 57.8749C23.7931 57.6673 23.3353 56.888 23.5616 55.8884C24.0533 53.7327 24.4981 51.5719 24.8129 49.3855C25.6063 43.8439 25.7468 38.2868 25.1719 32.717C25.1485 32.494 25.1198 32.271 25.112 32.048C25.073 30.9971 25.6323 30.2922 26.5506 30.2281C27.4637 30.1615 28.1036 30.7715 28.2415 31.8275C28.5875 34.4984 28.6734 37.1846 28.7046 38.9379Z" fill="#1F49B8" stroke="#1F49B8" stroke-width="2"/>
<path d="M12.7789 45.6024C12.0609 45.5921 11.5329 45.323 11.2259 44.7258C10.1853 42.7008 9.13436 40.681 8.13542 38.6356C7.61514 37.5693 8.07299 36.667 9.25663 36.3569C11.1999 35.8468 13.1509 35.3649 15.1046 34.8933C16.1634 34.6395 16.7409 34.9138 17.2455 35.8981C18.2133 37.7795 19.1706 39.6685 20.1149 41.5628C20.76 42.8597 20.3724 43.7466 18.9729 44.1157C17.0608 44.6181 15.1384 45.0769 13.2186 45.5485C13.0625 45.5896 12.896 45.5896 12.7789 45.6024ZM13.7805 42.2087C14.5947 41.9985 15.4089 41.7832 16.2232 41.5807C16.4703 41.5192 16.5484 41.3987 16.4313 41.1757C15.9266 40.2119 15.6171 39.0226 14.8418 38.3664C14.3034 37.9102 13.2186 38.6304 12.3705 38.7996C12.3393 38.8047 12.3081 38.8227 12.2769 38.8278C11.8944 38.8688 11.7774 39.0072 11.9829 39.3866C12.4277 40.2017 12.831 41.0399 13.2602 41.8627C13.3642 42.0626 13.4761 42.2753 13.7805 42.2087Z" fill="#1F49B8" stroke="#1F49B8" stroke-width="2"/>
<path d="M85.7899 19.478C86.3596 19.4677 86.703 19.6471 87.0307 19.8599C88.4615 20.798 89.9027 21.7259 91.3179 22.6845C92.2726 23.3305 92.4417 23.9661 91.9318 24.9914C90.9745 26.9138 90.012 28.8311 89.0156 30.733C88.3861 31.9352 87.2909 32.1274 86.318 31.1893C84.2759 29.2207 82.252 27.2317 80.2515 25.2221C79.4633 24.4301 79.5361 23.4484 80.4362 22.8281C81.9762 21.7643 83.5553 20.7544 85.1317 19.7394C85.3632 19.5882 85.6598 19.5292 85.7899 19.478ZM86.9527 27.6828C88.9012 24.8966 88.8647 24.6172 86.4975 23.1818C86.4428 23.1485 86.383 23.1177 86.3336 23.0793C86.0994 22.8896 85.8835 22.8922 85.6312 23.0716C85.1317 23.4279 84.6192 23.7662 84.1016 24.0969C83.8128 24.2814 83.792 24.4429 84.0391 24.6915C85.0094 25.6707 85.9668 26.6678 86.9527 27.6828Z" fill="#1F49B8" stroke="#1F49B8" stroke-width="2"/>
<path d="M62.2998 54.8139C63.356 54.796 64.0271 55.3599 64.1156 56.1621C64.2066 56.9901 63.6759 57.7103 62.7577 57.8718C61.6703 58.0615 60.5855 58.264 59.5293 58.5818C53.5357 60.3812 48.4577 63.7031 43.8376 67.7812C43.6191 67.9734 43.4214 68.1913 43.1795 68.3528C42.4615 68.8346 41.7461 68.7783 41.153 68.1657C40.5573 67.553 40.5052 66.8097 41.0697 66.1689C41.6212 65.5435 42.2638 64.9924 42.9063 64.4516C47.9036 60.2505 53.3796 56.9029 59.8259 55.306C60.7077 55.0856 61.6078 54.9497 62.2998 54.8139Z" fill="#1F49B8" stroke="#1F49B8" stroke-width="2"/>
<path d="M53.3789 96.3461C52.713 96.3537 52.3045 96.1205 51.9455 95.7693C50.4783 94.3211 48.9981 92.8883 47.5466 91.4273C46.7167 90.5916 46.7141 89.8278 47.5284 88.9948C48.4727 88.0284 49.4378 87.08 50.4185 86.147C51.1703 85.4319 51.8363 85.3755 52.6817 85.9881C54.6926 87.4466 56.6931 88.9179 58.6728 90.4148C59.6847 91.1786 59.7263 92.2936 58.7352 92.9882C57.1796 94.0802 55.5667 95.0952 53.9668 96.1282C53.7613 96.2615 53.4934 96.305 53.3789 96.3461ZM51.6048 89.064C51.381 89.3767 51.1547 89.6843 50.9362 89.9995C50.6787 90.3738 51.0611 90.5071 51.2354 90.6942C51.6334 91.1171 52.0574 91.5144 52.4736 91.9194C53.4544 92.878 53.4361 92.8498 54.6146 92.1039C55.1401 91.7707 55.0256 91.6016 54.612 91.3042C53.8238 90.7377 53.0641 90.138 52.2915 89.551C52.1432 89.4356 51.9846 89.3305 51.6048 89.064Z" fill="#1F49B8" stroke="#1F49B8" stroke-width="2"/>
<path d="M92.2285 13.3112C92.2285 12.7678 92.1921 12.2193 92.2363 11.6785C92.3065 10.8249 92.9569 10.2405 93.7711 10.2354C94.5828 10.2303 95.2747 10.8121 95.3164 11.6631C95.371 12.7499 95.3684 13.8418 95.319 14.9286C95.2799 15.7822 94.5984 16.3691 93.7867 16.3717C92.9751 16.3768 92.3091 15.7899 92.2389 14.944C92.1895 14.4032 92.2285 13.8546 92.2285 13.3112Z" fill="#1F49B8" stroke="#1F49B8" stroke-width="2"/>
<path d="M89.1741 7.15921C89.6944 7.15921 90.2173 7.12589 90.7324 7.1669C91.6013 7.23611 92.197 7.86922 92.2074 8.6715C92.2178 9.46866 91.6247 10.1607 90.7662 10.2043C89.6632 10.2581 88.555 10.2556 87.452 10.2069C86.5831 10.1684 85.9874 9.50711 85.9796 8.70483C85.9692 7.86409 86.5909 7.22073 87.5144 7.16177C88.0659 7.12845 88.62 7.15665 89.1715 7.15665C89.1741 7.15665 89.1741 7.15921 89.1741 7.15921Z" fill="#1F49B8" stroke="#1F49B8" stroke-width="2"/>
<path d="M71.9225 81.0416C71.9225 81.5209 71.9459 82.0028 71.9172 82.4821C71.8626 83.3997 71.2357 84.0252 70.3902 84.0405C69.5422 84.0559 68.8554 83.4407 68.819 82.5334C68.7774 81.4773 68.7747 80.4187 68.8216 79.3627C68.8606 78.5066 69.5214 77.917 70.3356 77.9017C71.1863 77.8863 71.8496 78.4989 71.912 79.4063C71.9511 79.9497 71.9225 80.4982 71.9225 81.0416Z" fill="#1F49B8" stroke="#1F49B8" stroke-width="2"/>
<path d="M65.6323 87.1157C65.112 87.1157 64.5892 87.1465 64.0715 87.108C63.161 87.0414 62.5392 86.3673 62.5705 85.5342C62.5991 84.7345 63.2026 84.0988 64.0767 84.063C65.1485 84.0194 66.2228 84.0194 67.2946 84.063C68.1661 84.0988 68.7722 84.7371 68.7982 85.5368C68.8242 86.3698 68.2025 87.044 67.2894 87.108C66.7405 87.1491 66.1838 87.1157 65.6323 87.1157Z" fill="#1F49B8" stroke="#1F49B8" stroke-width="2"/>
<path d="M75.0547 84.0585C75.6062 84.0585 76.1629 84.0226 76.7118 84.0662C77.5728 84.1379 78.1659 84.7916 78.1633 85.5913C78.1607 86.391 77.565 87.0626 76.6988 87.101C75.5958 87.1523 74.4876 87.1523 73.3846 87.101C72.5235 87.06 71.9304 86.3782 71.9356 85.5785C71.9382 84.7762 72.5313 84.1328 73.3976 84.0636C73.9465 84.0226 74.5032 84.0585 75.0547 84.0585Z" fill="#1F49B8" stroke="#1F49B8" stroke-width="2"/>
<path d="M71.9244 90.2197C71.9244 90.699 71.9452 91.1809 71.9218 91.6603C71.875 92.6343 71.2272 93.2802 70.3454 93.2648C69.4999 93.252 68.8521 92.6266 68.8209 91.7115C68.7845 90.6888 68.7819 89.6609 68.8235 88.6382C68.86 87.7308 69.5389 87.1182 70.3922 87.1311C71.2402 87.1439 71.8698 87.7642 71.9218 88.6844C71.9478 89.1944 71.9218 89.7071 71.9244 90.2197Z" fill="#1F49B8" stroke="#1F49B8" stroke-width="2"/>
<path d="M28.2236 67.0661C28.2236 65.5923 28.2236 65.5923 29.7767 65.5923C31.3453 65.5923 31.3453 65.5923 31.3453 67.1456C31.3453 68.6681 31.3453 68.6681 29.8417 68.6681C28.2236 68.6681 28.2236 68.6681 28.2236 67.0661Z" fill="#1F49B8" stroke="#1F49B8" stroke-width="2"/>
<path d="M37.5466 71.7445C36.0273 71.7445 36.0273 71.7445 36.0273 69.9503C36.0273 68.6661 36.0273 68.6661 37.9706 68.6687C39.1516 68.6687 39.1516 68.6687 39.149 70.6065C39.149 71.7445 39.149 71.7445 37.5466 71.7445Z" fill="#1F49B8" stroke="#1F49B8" stroke-width="2"/>
</svg>
